<?xml version="1.0" encoding="utf-8"?>
<!-- Generator: Adobe Illustrator 26.1.0, SVG Export Plug-In . SVG Version: 6.00 Build 0)  -->
<svg version="1.1" id="Capa_1" xmlns="http://www.w3.org/2000/svg" xmlns:xlink="http://www.w3.org/1999/xlink" x="0px" y="0px"
	 viewBox="0 0 533.3 400" style="enable-background:new 0 0 533.3 400;" xml:space="preserve">
<style type="text/css">
	.st0{fill:#029673;}
</style>
<g id="Menu__x2F__Hamburger_x5F_MD">
	<g id="Vector">
		<path class="st0" d="M500,400H33.3C14.9,400,0,385.1,0,366.7s14.9-33.3,33.3-33.3H500c18.4,0,33.3,14.9,33.3,33.3
			S518.4,400,500,400z M500,233.3H33.3C14.9,233.3,0,218.4,0,200s14.9-33.3,33.3-33.3H500c18.4,0,33.3,14.9,33.3,33.3
			S518.4,233.3,500,233.3z M500,66.7H33.3C14.9,66.7,0,51.7,0,33.3C0,14.9,14.9,0,33.3,0H500c18.4,0,33.3,14.9,33.3,33.3
			C533.3,51.7,518.4,66.7,500,66.7z"/>
	</g>
</g>
</svg>
