<?xml version="1.0" encoding="utf-8"?>
<!-- Generator: Adobe Illustrator 26.1.0, SVG Export Plug-In . SVG Version: 6.00 Build 0)  -->
<svg version="1.1" id="Capa_1" xmlns="http://www.w3.org/2000/svg" xmlns:xlink="http://www.w3.org/1999/xlink" x="0px" y="0px"
	 viewBox="0 0 300 300" style="enable-background:new 0 0 300 300;" xml:space="preserve">
<style type="text/css">
	.st0{stroke:#FFFFFF;stroke-miterlimit:10;}
	.st1{fill:none;stroke:#000000;stroke-width:5;stroke-miterlimit:10;}
	.st2{fill:none;stroke:#000000;stroke-miterlimit:10;}
	.st3{fill:#FFFFFF;}
	.st4{fill:none;stroke:#000000;stroke-width:3;stroke-miterlimit:10;}
	.st5{fill:none;stroke:#000000;stroke-width:2;stroke-miterlimit:10;}
</style>
<g>
	<path d="M34.4,244.3c-0.1-0.3-0.3-0.5-0.5-0.8c-0.3-0.2-0.6-0.4-1-0.6s-0.9-0.4-1.5-0.5c-0.9-0.3-1.8-0.6-2.5-0.9s-1.3-0.8-1.8-1.2
		s-0.8-0.9-1-1.5s-0.3-1.1-0.3-1.7c0-0.7,0.2-1.4,0.5-2s0.7-1.1,1.3-1.5s1.2-0.7,1.9-1s1.5-0.3,2.4-0.3c0.9,0,1.7,0.1,2.4,0.4
		s1.4,0.6,1.9,1.1c0.5,0.5,0.9,1,1.2,1.7s0.4,1.3,0.4,2.1h-3.2c0-0.4-0.1-0.7-0.2-1.1s-0.3-0.6-0.5-0.8c-0.2-0.2-0.5-0.4-0.9-0.5
		s-0.8-0.2-1.2-0.2c-0.4,0-0.8,0.1-1.2,0.2s-0.6,0.3-0.9,0.4c-0.2,0.2-0.4,0.4-0.5,0.7s-0.2,0.5-0.2,0.8c0,0.3,0.1,0.6,0.2,0.9
		s0.4,0.5,0.7,0.7c0.3,0.2,0.7,0.4,1.1,0.6s0.9,0.3,1.5,0.5c0.6,0.2,1.1,0.4,1.7,0.6s1,0.5,1.5,0.8c0.7,0.5,1.2,1.1,1.6,1.7
		s0.6,1.4,0.6,2.3c0,0.8-0.2,1.4-0.5,2s-0.7,1.1-1.2,1.5c-0.5,0.4-1.2,0.7-1.9,0.9s-1.5,0.3-2.4,0.3c-0.9,0-1.7-0.1-2.5-0.4
		s-1.6-0.6-2.2-1.1c-0.6-0.5-1-1.1-1.4-1.7s-0.5-1.4-0.5-2.3h3.2c0,0.5,0.1,1,0.3,1.3s0.4,0.7,0.7,0.9c0.3,0.2,0.6,0.4,1,0.5
		s0.9,0.2,1.4,0.2c0.4,0,0.8-0.1,1.2-0.2s0.6-0.2,0.9-0.4s0.4-0.4,0.5-0.7s0.2-0.5,0.2-0.8S34.5,244.5,34.4,244.3z"/>
	<path d="M50.5,232.5v2.7h-3.3v11.8h3.3v2.6h-9.9v-2.6h3.2v-11.8h-3.2v-2.7H50.5z"/>
	<path d="M62.6,244.3c-0.1-0.3-0.3-0.5-0.5-0.8c-0.3-0.2-0.6-0.4-1-0.6s-0.9-0.4-1.5-0.5c-0.9-0.3-1.8-0.6-2.5-0.9s-1.3-0.8-1.8-1.2
		s-0.8-0.9-1-1.5s-0.3-1.1-0.3-1.7c0-0.7,0.2-1.4,0.5-2s0.7-1.1,1.3-1.5s1.2-0.7,1.9-1s1.5-0.3,2.4-0.3c0.9,0,1.7,0.1,2.4,0.4
		s1.4,0.6,1.9,1.1c0.5,0.5,0.9,1,1.2,1.7s0.4,1.3,0.4,2.1h-3.2c0-0.4-0.1-0.7-0.2-1.1s-0.3-0.6-0.5-0.8c-0.2-0.2-0.5-0.4-0.9-0.5
		s-0.8-0.2-1.2-0.2c-0.4,0-0.8,0.1-1.2,0.2s-0.6,0.3-0.9,0.4c-0.2,0.2-0.4,0.4-0.5,0.7s-0.2,0.5-0.2,0.8c0,0.3,0.1,0.6,0.2,0.9
		s0.4,0.5,0.7,0.7c0.3,0.2,0.7,0.4,1.1,0.6s0.9,0.3,1.5,0.5c0.6,0.2,1.1,0.4,1.7,0.6s1,0.5,1.5,0.8c0.7,0.5,1.2,1.1,1.6,1.7
		s0.6,1.4,0.6,2.3c0,0.8-0.2,1.4-0.5,2s-0.7,1.1-1.2,1.5c-0.5,0.4-1.2,0.7-1.9,0.9s-1.5,0.3-2.4,0.3c-0.9,0-1.7-0.1-2.5-0.4
		s-1.6-0.6-2.2-1.1c-0.6-0.5-1-1.1-1.4-1.7s-0.5-1.4-0.5-2.3h3.2c0,0.5,0.1,1,0.3,1.3s0.4,0.7,0.7,0.9c0.3,0.2,0.6,0.4,1,0.5
		s0.9,0.2,1.4,0.2c0.4,0,0.8-0.1,1.2-0.2s0.6-0.2,0.9-0.4s0.4-0.4,0.5-0.7s0.2-0.5,0.2-0.8S62.7,244.5,62.6,244.3z"/>
	<path d="M76.3,235.2v14.4H73v-14.4h-5.2v-2.7h13.8v2.7H76.3z"/>
	<path d="M87.4,242.1v4.8h8.2v2.7H84.1v-17.1h11.5v2.7h-8.2v4.3h7v2.6H87.4z"/>
	<path d="M104.2,238.9l1.8-6.4h4.1v17.1h-3v-5.1l0.1-8l-2.2,7.4h-1.6l-2-7.1l0.1,7.7v5.1h-3v-17.1h4.1L104.2,238.9z"/>
	<path d="M116.8,246l-1,3.6h-3.5l5.6-17.1h3l5.5,17.1H123l-1-3.6H116.8z M121.2,243.2l-1.7-6.3l-1.8,6.3H121.2z"/>
	<path d="M143.5,232.5h4.4c0.8,0,1.5,0.1,2.2,0.3s1.3,0.5,1.9,0.8c0.5,0.3,0.9,0.6,1.3,1.1s0.7,0.9,1,1.4c0.3,0.6,0.6,1.3,0.8,2
		s0.3,1.5,0.3,2.3v1.4c0,0.8-0.1,1.5-0.3,2.2s-0.4,1.3-0.7,1.9c-0.3,0.5-0.6,1-1,1.4s-0.8,0.8-1.3,1.1c-0.6,0.4-1.2,0.6-1.8,0.8
		s-1.4,0.3-2.1,0.3h-4.6V232.5z M146.8,246.9h1.3c0.4,0,0.8-0.1,1.1-0.2s0.7-0.2,1-0.4c0.3-0.2,0.6-0.5,0.8-0.8s0.4-0.7,0.6-1.1
		c0.1-0.4,0.2-0.8,0.3-1.2s0.1-0.9,0.1-1.5v-1.4c0-0.5,0-1-0.1-1.4s-0.2-0.8-0.3-1.2c-0.2-0.4-0.4-0.8-0.7-1.2s-0.6-0.6-1-0.8
		c-0.3-0.2-0.6-0.3-0.9-0.4s-0.7-0.1-1.1-0.1h-1.1V246.9z"/>
	<path d="M161.7,242.1v4.8h8.2v2.7h-11.5v-17.1h11.5v2.7h-8.2v4.3h7v2.6H161.7z"/>
	<path d="M191.7,242.5v7.1h-3.3v-17.1h11.5v2.7h-8.2v4.6h7.3v2.7H191.7z"/>
	<path d="M206,243.2v6.4h-3.3v-17.1h5.7c0.9,0,1.8,0.1,2.6,0.3s1.4,0.5,2,1c0.5,0.4,1,1,1.2,1.6s0.4,1.4,0.4,2.2
		c0,0.6-0.1,1.2-0.2,1.6s-0.3,0.9-0.6,1.3c-0.3,0.4-0.6,0.7-1,1s-0.8,0.5-1.3,0.8l3.7,7v0.2h-3.5l-3.2-6.4H206z M208.4,240.5
		c0.5,0,1-0.1,1.3-0.2s0.7-0.4,0.9-0.6c0.2-0.2,0.4-0.5,0.5-0.8s0.2-0.6,0.2-1c0-0.5-0.1-0.9-0.2-1.2s-0.3-0.6-0.6-0.9
		c-0.2-0.2-0.5-0.4-0.9-0.5s-0.8-0.2-1.2-0.2H206v5.3H208.4z"/>
	<path d="M221,242.1v4.8h8.2v2.7h-11.5v-17.1h11.5v2.7H221v4.3h7v2.6H221z"/>
	<path d="M240.2,249.6l-4.7-11v11h-3.3v-17.1h3.3l4.7,11l0-11h3.3v17.1H240.2z"/>
	<path d="M258.7,244.4c-0.1,0.7-0.3,1.3-0.6,1.8c-0.3,0.6-0.6,1.1-1,1.5s-0.8,0.9-1.3,1.2c-0.5,0.3-1,0.5-1.5,0.6s-1.1,0.2-1.8,0.2
		c-0.7,0-1.3-0.1-1.8-0.3s-1.1-0.4-1.5-0.7c-0.5-0.3-0.9-0.7-1.2-1.2s-0.7-1-0.9-1.6c-0.2-0.5-0.4-1.1-0.5-1.8s-0.2-1.3-0.2-2v-2.5
		c0-0.8,0.1-1.5,0.2-2.1s0.3-1.3,0.6-1.9c0.2-0.5,0.5-1,0.9-1.5s0.7-0.8,1.2-1.1c0.4-0.3,0.9-0.5,1.5-0.7s1.2-0.2,1.8-0.2
		c0.7,0,1.3,0.1,1.8,0.3s1.1,0.4,1.6,0.7c0.5,0.3,0.9,0.7,1.2,1.1s0.6,0.9,0.9,1.4c0.3,0.6,0.5,1.2,0.6,1.9s0.2,1.4,0.2,2.2v2.5
		C258.9,243,258.9,243.7,258.7,244.4z M255.5,238.5c0-0.4-0.1-0.8-0.2-1.1c-0.1-0.4-0.3-0.8-0.5-1.1s-0.4-0.6-0.7-0.8
		c-0.2-0.2-0.4-0.3-0.7-0.4s-0.6-0.1-0.9-0.1c-0.3,0-0.6,0-0.8,0.1s-0.5,0.2-0.7,0.3c-0.3,0.2-0.5,0.5-0.7,0.8s-0.3,0.7-0.4,1.1
		c-0.1,0.3-0.1,0.7-0.2,1.1s-0.1,0.8-0.1,1.3v2.5c0,0.4,0,0.8,0,1.2s0.1,0.7,0.2,1.1c0.1,0.4,0.2,0.8,0.4,1.1s0.4,0.6,0.6,0.8
		c0.2,0.2,0.5,0.3,0.7,0.4s0.6,0.2,0.9,0.2c0.3,0,0.6,0,0.9-0.1s0.5-0.2,0.7-0.4c0.3-0.2,0.5-0.5,0.7-0.8s0.3-0.7,0.4-1.1
		c0.1-0.3,0.2-0.7,0.2-1.1s0.1-0.8,0.1-1.2v-2.5C255.6,239.3,255.6,238.9,255.5,238.5z"/>
	<path d="M270.5,244.3c-0.1-0.3-0.3-0.5-0.5-0.8c-0.3-0.2-0.6-0.4-1-0.6s-0.9-0.4-1.5-0.5c-0.9-0.3-1.8-0.6-2.5-0.9
		s-1.3-0.8-1.8-1.2s-0.8-0.9-1-1.5s-0.3-1.1-0.3-1.7c0-0.7,0.2-1.4,0.5-2s0.7-1.1,1.3-1.5s1.2-0.7,1.9-1s1.5-0.3,2.4-0.3
		c0.9,0,1.7,0.1,2.4,0.4s1.4,0.6,1.9,1.1c0.5,0.5,0.9,1,1.2,1.7s0.4,1.3,0.4,2.1h-3.2c0-0.4-0.1-0.7-0.2-1.1s-0.3-0.6-0.5-0.8
		c-0.2-0.2-0.5-0.4-0.9-0.5s-0.8-0.2-1.2-0.2c-0.4,0-0.8,0.1-1.2,0.2s-0.6,0.3-0.9,0.4c-0.2,0.2-0.4,0.4-0.5,0.7s-0.2,0.5-0.2,0.8
		c0,0.3,0.1,0.6,0.2,0.9s0.4,0.5,0.7,0.7c0.3,0.2,0.7,0.4,1.1,0.6s0.9,0.3,1.5,0.5c0.6,0.2,1.1,0.4,1.7,0.6s1,0.5,1.5,0.8
		c0.7,0.5,1.2,1.1,1.6,1.7s0.6,1.4,0.6,2.3c0,0.8-0.2,1.4-0.5,2s-0.7,1.1-1.2,1.5c-0.5,0.4-1.2,0.7-1.9,0.9s-1.5,0.3-2.4,0.3
		c-0.9,0-1.7-0.1-2.5-0.4s-1.6-0.6-2.2-1.1c-0.6-0.5-1-1.1-1.4-1.7s-0.5-1.4-0.5-2.3h3.2c0,0.5,0.1,1,0.3,1.3s0.4,0.7,0.7,0.9
		c0.3,0.2,0.6,0.4,1,0.5s0.9,0.2,1.4,0.2c0.4,0,0.8-0.1,1.2-0.2s0.6-0.2,0.9-0.4s0.4-0.4,0.5-0.7s0.2-0.5,0.2-0.8
		S270.6,244.5,270.5,244.3z"/>
</g>
<g>
	<g>
		<path class="st1" d="M80.7,185.5c-20.6-6.5-37.2-22-45.2-41.9h-7.2c8.7,23.5,28.2,41.7,52.4,48.6V185.5z"/>
		<path class="st1" d="M52.8,121.1h-1.7c0-5.1-4.1-9.2-9.2-9.2s-9.2,4.1-9.2,9.2h-2.3c2,33.6,27,61.1,59.5,66.7
			c6.5,1.1,12.5-3.8,12.5-10.4v0c0-5.1-3.7-9.5-8.7-10.4C71.4,163.1,54.2,144.2,52.8,121.1z"/>
		<circle class="st4" cx="47.9" cy="144" r="2.7"/>
		<circle class="st4" cx="92.2" cy="177.7" r="4.2"/>
	</g>
	<g>
		<circle class="st1" cx="192.6" cy="113.9" r="67.1"/>
		<circle class="st4" cx="192.6" cy="114.2" r="79.1"/>
		<circle class="st5" cx="192.6" cy="114" r="72.8"/>
		<circle class="st4" cx="192.6" cy="113.9" r="39.6"/>
		<circle class="st4" cx="157.5" cy="74.5" r="4.6"/>
		<circle class="st4" cx="192.6" cy="61.2" r="4.6"/>
		<circle class="st4" cx="139.5" cy="115.2" r="4.6"/>
		<circle class="st4" cx="244.4" cy="115.2" r="4.6"/>
		<circle class="st4" cx="192.6" cy="165.4" r="4.6"/>
		<circle class="st4" cx="227.6" cy="74.5" r="4.6"/>
		<circle class="st4" cx="157.5" cy="153.7" r="4.6"/>
		<circle class="st4" cx="227.6" cy="153.7" r="4.6"/>
	</g>
</g>
</svg>
