<?xml version="1.0" encoding="utf-8"?>
<!-- Generator: Adobe Illustrator 27.0.0, SVG Export Plug-In . SVG Version: 6.00 Build 0)  -->
<svg version="1.1" id="Capa_1" xmlns="http://www.w3.org/2000/svg" xmlns:xlink="http://www.w3.org/1999/xlink" x="0px" y="0px"
	 viewBox="0 0 300 300" style="enable-background:new 0 0 300 300;" xml:space="preserve">
<g>
	<g>
		<path d="M277.9,196.6c-0.2,0-0.3,0-0.5,0l0,0l-61.6-7.5c-3.5-0.4-6.6-2.2-8.8-5.1c-2.1-2.9-3-6.4-2.3-9.9l8.8-50.6
			c0.3-2-0.2-4.1-1.5-5.6c-1.3-1.6-3.2-2.5-5.3-2.5h-39.2c-11.1,0-21.9-2.3-32-6.9L90.3,88.2c-4.2-1.9-8.7-2.9-13.4-2.9h-46
			c-0.3,0-0.5,0.2-0.5,0.5v3.7c0,3-2.5,5.5-5.5,5.5h-1.4c-3,0-5.5-2.5-5.5-5.5v-4.4c0-7,5.7-12.6,12.6-12.6h48.7
			c3.9,0,7.7,0.6,11.3,1.7l49.5,15.6C146.9,92,154,93,161.2,93h45.6c8.3,0,16.1,3.8,21.2,10.3c5.2,6.6,7,15,5,23.1l-11.4,46.7
			c-0.1,0.3,0,0.6,0.1,0.7c0.1,0.1,0.3,0.3,0.6,0.4l56.3,10.6c2,0.4,3.4,2.1,3.4,4.1v3.4c0,1.2-0.5,2.3-1.4,3.1
			C279.9,196.2,278.9,196.6,277.9,196.6z M30.9,80.3H77c5.4,0,10.5,1.1,15.4,3.3l45.2,20.3c9.5,4.3,19.6,6.4,30,6.4h39.2
			c3.5,0,6.8,1.5,9.1,4.2s3.2,6.2,2.6,9.7l-8.8,50.6c-0.4,2.1,0.1,4.3,1.4,6s3.2,2.9,5.4,3.1l60.6,7.4v-1.6l-55.6-10.5
			c-1.6-0.3-3-1.2-3.9-2.6c-0.9-1.4-1.2-3-0.8-4.6l11.4-46.7c1.6-6.6,0.1-13.5-4.1-18.8c-4.2-5.3-10.5-8.4-17.3-8.4h-45.6
			c-7.7,0-15.3-1.2-22.6-3.5L89.2,79c-3.2-1-6.5-1.5-9.8-1.5H30.6c-4.2,0-7.6,3.4-7.6,7.6v4.4c0,0.3,0.2,0.5,0.5,0.5h1.4
			c0.3,0,0.5-0.2,0.5-0.5v-3.7C25.4,82.8,27.8,80.3,30.9,80.3z"/>
	</g>
	<g>
		<path d="M189.2,121.2h-7.1c-0.9,0-1.6-0.7-1.6-1.6v-2.4h10.4v2.4C190.8,120.5,190.1,121.2,189.2,121.2z"/>
	</g>
	<g>
		<path d="M247.3,173.4l7,1.3c0.9,0.2,1.5,1,1.3,1.9l-0.4,2.3L245,177l0.4-2.3C245.5,173.8,246.4,173.2,247.3,173.4z"/>
	</g>
</g>
<g>
	<path d="M93,247.6l0.3-17h4l1.9,9.9l2-9.9h3.9l0.3,17h-2.7l-0.3-11.3l-2,11.3h-2.4L96,236.2l-0.3,11.4H93z"/>
	<path d="M112.8,247.9c-1.3,0-2.3-0.2-3.1-0.6c-0.7-0.4-1.2-1-1.5-1.9c-0.3-0.8-0.4-1.8-0.4-3v-11.7h3.7v12.3c0,0.4,0,0.7,0.1,1
		c0.1,0.4,0.2,0.6,0.4,0.9s0.5,0.3,0.9,0.3c0.4,0,0.7-0.1,0.9-0.3c0.2-0.2,0.3-0.5,0.3-0.9c0-0.3,0.1-0.7,0.1-1v-12.3h3.7v11.7
		c0,1.2-0.2,2.2-0.5,3c-0.3,0.8-0.8,1.4-1.5,1.9C115.1,247.6,114.1,247.9,112.8,247.9z"/>
	<path d="M120.2,247.6v-17h7.6v2.6H124v4.2h3v2.6h-3v5.1h3.9v2.5H120.2z"/>
	<path d="M129.6,247.6v-17h3.8v14.5h3.9v2.5H129.6z"/>
	<path d="M138.7,247.6v-17h3.8v14.5h3.9v2.5H138.7z"/>
	<path d="M147.9,247.6v-17h7.6v2.6h-3.9v4.2h3v2.6h-3v5.1h3.9v2.5H147.9z"/>
	<path d="M161.8,247.9c-1.1,0-2-0.2-2.7-0.6c-0.7-0.4-1.3-1-1.6-1.8c-0.4-0.8-0.6-1.8-0.6-3.1l3.2-0.5c0,0.7,0.1,1.3,0.2,1.8
		c0.1,0.4,0.3,0.8,0.5,1c0.2,0.2,0.5,0.3,0.8,0.3c0.4,0,0.6-0.1,0.8-0.4s0.2-0.5,0.2-0.8c0-0.7-0.2-1.3-0.5-1.8
		c-0.3-0.5-0.8-1-1.4-1.5l-1.5-1.3c-0.6-0.5-1.2-1.2-1.6-1.9c-0.4-0.7-0.7-1.5-0.7-2.6c0-1.4,0.4-2.5,1.3-3.3c0.9-0.8,2-1.1,3.5-1.1
		c0.9,0,1.6,0.2,2.2,0.5c0.6,0.3,1,0.7,1.3,1.2s0.5,1,0.6,1.6c0.1,0.6,0.2,1.1,0.2,1.6l-3.2,0.4c0-0.5,0-0.9-0.1-1.3
		s-0.2-0.7-0.3-0.9s-0.4-0.3-0.7-0.3c-0.3,0-0.6,0.1-0.8,0.4s-0.2,0.6-0.2,0.9c0,0.6,0.2,1.1,0.5,1.5c0.3,0.4,0.7,0.8,1.2,1.2
		l1.4,1.2c0.7,0.6,1.4,1.3,1.9,2.1c0.5,0.8,0.8,1.8,0.8,3c0,0.8-0.2,1.5-0.5,2.2s-0.9,1.2-1.5,1.5
		C163.5,247.7,162.7,247.9,161.8,247.9z"/>
	<path d="M173.1,247.6v-17h7.6v2.6h-3.9v4.2h3v2.6h-3v5.1h3.9v2.5H173.1z"/>
	<path d="M182.5,247.6v-17h2.6l3.5,8.2v-8.2h3.1v17h-2.5l-3.5-8.8v8.8H182.5z"/>
	<path d="M199,247.6v-2.3l4.2-12.2h-4v-2.5h7.7v2.1l-4.2,12.3h4.3v2.5H199z"/>
</g>
</svg>
