<svg id="Capa_1" data-name="Capa 1" xmlns="http://www.w3.org/2000/svg" viewBox="0 0 300 300"><polygon points="31.4 252.79 29.84 246.62 25.9 246.62 25.9 263.05 28.81 263.05 28.81 258.19 28.68 250.81 30.61 257.63 32.18 257.63 34.33 250.5 34.2 258.19 34.2 263.05 37.11 263.05 37.11 246.62 33.17 246.62 31.4 252.79"/><path d="M52.17,246.62v10.89a6.48,6.48,0,0,1-.17,1.41,2.84,2.84,0,0,1-.48,1,1.79,1.79,0,0,1-.74.59,2.47,2.47,0,0,1-1,.2,2.27,2.27,0,0,1-.93-.19,1.77,1.77,0,0,1-.69-.56,2.8,2.8,0,0,1-.46-1,6.66,6.66,0,0,1-.16-1.44V246.62H44.33l0,10.89A7.12,7.12,0,0,0,44.7,260a5,5,0,0,0,1.1,1.81,4.71,4.71,0,0,0,1.71,1.12,6.16,6.16,0,0,0,2.24.39,6.67,6.67,0,0,0,2.36-.39,4.6,4.6,0,0,0,1.75-1.13A4.94,4.94,0,0,0,55,260a7.41,7.41,0,0,0,.38-2.45V246.62Z"/><polygon points="65.92 255.85 72.66 255.85 72.66 253.35 65.92 253.35 65.92 249.21 73.77 249.21 73.77 246.62 62.73 246.62 62.73 263.05 73.8 263.05 73.8 260.49 65.92 260.49 65.92 255.85"/><polygon points="83.97 246.62 80.79 246.62 80.79 263.05 91.66 263.05 91.66 260.49 83.97 260.49 83.97 246.62"/><polygon points="101.77 246.62 98.59 246.62 98.59 263.05 109.47 263.05 109.47 260.49 101.77 260.49 101.77 246.62"/><polygon points="119.57 255.85 126.31 255.85 126.31 253.35 119.57 253.35 119.57 249.21 127.42 249.21 127.42 246.62 116.38 246.62 116.38 263.05 127.45 263.05 127.45 260.49 119.57 260.49 119.57 255.85"/><path d="M143.77,254.85a8,8,0,0,0-1.41-.78,11.94,11.94,0,0,0-1.62-.58,11.69,11.69,0,0,1-1.41-.46,5.08,5.08,0,0,1-1.07-.55,2.25,2.25,0,0,1-.67-.67,1.48,1.48,0,0,1-.23-.83,2,2,0,0,1,.17-.82,1.93,1.93,0,0,1,.52-.66,2.4,2.4,0,0,1,.83-.42,3.48,3.48,0,0,1,1.12-.16,3.6,3.6,0,0,1,1.2.19,2.52,2.52,0,0,1,.86.51,2.35,2.35,0,0,1,.52.8,3.3,3.3,0,0,1,.19,1h3.09a4.67,4.67,0,0,0-1.62-3.63,5.46,5.46,0,0,0-1.83-1,7.08,7.08,0,0,0-2.36-.37,7.75,7.75,0,0,0-2.3.32,5.68,5.68,0,0,0-1.84.92,4.43,4.43,0,0,0-1.22,1.44,4.08,4.08,0,0,0-.44,1.89,4.22,4.22,0,0,0,.34,1.67,4.51,4.51,0,0,0,1,1.4,7.34,7.34,0,0,0,1.69,1.16,12.82,12.82,0,0,0,2.4.9,9.5,9.5,0,0,1,1.47.51,4.16,4.16,0,0,1,1,.61,1.91,1.91,0,0,1,.51.72,2.21,2.21,0,0,1,.15.82,1.79,1.79,0,0,1-.18.81,1.83,1.83,0,0,1-.52.63,2.57,2.57,0,0,1-.83.4,3.8,3.8,0,0,1-1.12.15,4.82,4.82,0,0,1-1.3-.16,2.52,2.52,0,0,1-1-.5,2.17,2.17,0,0,1-.67-.87,3.37,3.37,0,0,1-.26-1.27h-3.11a4.72,4.72,0,0,0,.49,2.22,5.3,5.3,0,0,0,1.34,1.65,6.37,6.37,0,0,0,2.09,1.08,8.69,8.69,0,0,0,4.74.06,5.19,5.19,0,0,0,1.83-.88,4.06,4.06,0,0,0,1.64-3.34,4.17,4.17,0,0,0-.58-2.21A5.83,5.83,0,0,0,143.77,254.85Z"/><polygon points="174.57 255.85 181.32 255.85 181.32 253.35 174.57 253.35 174.57 249.21 182.42 249.21 182.42 246.62 171.39 246.62 171.39 263.05 182.46 263.05 182.46 260.49 174.57 260.49 174.57 255.85"/><polygon points="197.02 257.17 192.48 246.62 189.29 246.62 189.29 263.05 192.48 263.05 192.48 252.46 197.05 263.05 200.21 263.05 200.21 246.62 197.03 246.62 197.02 257.17"/><path d="M231.67,246.15a6.37,6.37,0,0,0-.65,1.1,6.29,6.29,0,0,0-.44,1.21,4.54,4.54,0,0,0-.16,1.19v2h2.51v-2a6,6,0,0,1,.29-1.93,7.45,7.45,0,0,1,.71-1.57l-1.45-.9A6.06,6.06,0,0,0,231.67,246.15Z"/><polygon points="253.97 248.51 253.96 246.62 242.18 246.62 242.18 249.21 250.12 249.21 242.16 261.11 242.16 263.05 254.16 263.05 254.16 260.49 246.01 260.49 253.97 248.51"/><path d="M263.28,247.4a6.05,6.05,0,0,1-.28,1.94,7.51,7.51,0,0,1-.7,1.58l1.43.89a4.81,4.81,0,0,0,.81-.92,7.73,7.73,0,0,0,.66-1.11,6.3,6.3,0,0,0,.44-1.19,5.07,5.07,0,0,0,.16-1.19v-2h-2.52Z"/><path d="M271.44,200.65l-75.33-6-.4,0a13.13,13.13,0,0,1-13-15.12l6.83-45a6.3,6.3,0,0,0,0-.75,25.22,25.22,0,0,0-25.2-25.2h-36c-7.12,0-14.29-1.62-21.88-3.33-5-1.13-10.24-2.3-15.46-3L36.8,89.55a3.1,3.1,0,0,0-.53-.1A11,11,0,0,0,24,100.33V111a5,5,0,0,0,10,0V100.33a.92.92,0,0,1,.32-.72,1,1,0,0,1,.6-.24L89,112.07l.53.1c4.82.6,9.65,1.69,14.76,2.84,7.79,1.75,15.85,3.57,24.08,3.57h36a15.22,15.22,0,0,1,15.2,14.84L172.83,178a23.14,23.14,0,0,0,22.67,26.62l75.15,6h.4a5,5,0,0,0,.39-10Z"/><rect x="249.24" y="184.73" width="7.86" height="14.05" rx="1.76" transform="translate(42.99 429.85) rotate(-85.7)"/><rect x="210.04" y="181.78" width="7.86" height="14.05" rx="1.76" transform="translate(9.66 388.04) rotate(-85.7)"/></svg>