<?xml version="1.0" encoding="utf-8"?>
<!-- Generator: Adobe Illustrator 27.0.0, SVG Export Plug-In . SVG Version: 6.00 Build 0)  -->
<svg version="1.1" id="Capa_1" xmlns="http://www.w3.org/2000/svg" xmlns:xlink="http://www.w3.org/1999/xlink" x="0px" y="0px"
	 viewBox="0 0 300 300" style="enable-background:new 0 0 300 300;" xml:space="preserve">
<style type="text/css">
	.st0{fill:#FFFFFF;}
</style>
<g>
	<g>
		<g>
			<path d="M149.7,136.9c-38.4,0-76.7-4.1-113.9-12c-1.4-0.3-2.2-1.6-1.9-3l0,0c0.3-1.3,1.6-2.2,3-1.9
				c36.9,7.9,74.8,11.9,112.8,11.9s76-4,112.8-11.9c1.3-0.3,2.7,0.6,3,1.9l0,0c0.3,1.4-0.6,2.7-1.9,3
				C226.4,132.8,188.1,136.9,149.7,136.9z"/>
		</g>
	</g>
	<g>
		<path d="M64.8,136.8L64.8,136.8c0,1.2,0.9,2.3,2.1,2.5c27.3,4.2,55,6.3,82.8,6.3c28.1,0,56.1-2.2,83.6-6.5
			c1.2-0.2,2.1-1.2,2.1-2.5l0,0c0-1.5-1.4-2.7-2.9-2.5c-27.3,4.3-55.1,6.4-82.9,6.4c-27.5,0-55-2.1-82-6.3
			C66.2,134.1,64.8,135.2,64.8,136.8z"/>
	</g>
	<g>
		<path d="M94.8,149.2L94.8,149.2c0,1.3,1,2.4,2.3,2.5c17.5,1.7,35.1,2.6,52.7,2.6c17.9,0,35.8-0.9,53.5-2.6
			c1.3-0.1,2.3-1.2,2.3-2.5l0,0c0-1.5-1.3-2.6-2.7-2.5c-17.6,1.7-35.3,2.6-53,2.6c-17.4,0-34.9-0.9-52.2-2.5
			C96.1,146.6,94.8,147.7,94.8,149.2z"/>
	</g>
	<g>
		<path d="M183.9,160.4L183.9,160.4c0-1.3-1-2.4-2.4-2.5c-10.3-0.6-20.6-0.9-31-0.9c-10.6,0-21.2,0.3-31.8,0.9
			c-1.3,0.1-2.4,1.2-2.4,2.5l0,0c0,1.4,1.2,2.6,2.6,2.5c10.5-0.6,21-0.9,31.6-0.9c10.2,0,20.5,0.3,30.7,0.9
			C182.7,163,183.9,161.8,183.9,160.4z"/>
	</g>
	<g>
		<g>
			<path d="M110.7,156H106c-1.2,0-2.2-1-2.2-2.2v-28.2c0-1.2,1-2.2,2.2-2.2h4.7c1.2,0,2.2,1,2.2,2.2v28.2
				C112.9,155,111.9,156,110.7,156z"/>
			<path class="st0" d="M110.7,156.6H106c-1.5,0-2.7-1.2-2.7-2.7v-28.2c0-1.5,1.2-2.7,2.7-2.7h4.7c1.5,0,2.7,1.2,2.7,2.7v28.2
				C113.4,155.3,112.2,156.6,110.7,156.6z M106,123.9c-0.9,0-1.7,0.8-1.7,1.7v28.2c0,0.9,0.8,1.7,1.7,1.7h4.7c0.9,0,1.7-0.8,1.7-1.7
				v-28.2c0-0.9-0.8-1.7-1.7-1.7H106z"/>
		</g>
		<g>
			<path d="M194.3,156h-4.7c-1.2,0-2.2-1-2.2-2.2v-28.2c0-1.2,1-2.2,2.2-2.2h4.7c1.2,0,2.2,1,2.2,2.2v28.2
				C196.5,155,195.5,156,194.3,156z"/>
			<path class="st0" d="M194.3,156.6h-4.7c-1.5,0-2.7-1.2-2.7-2.7v-28.2c0-1.5,1.2-2.7,2.7-2.7h4.7c1.5,0,2.7,1.2,2.7,2.7v28.2
				C197,155.3,195.8,156.6,194.3,156.6z M189.6,123.9c-0.9,0-1.7,0.8-1.7,1.7v28.2c0,0.9,0.8,1.7,1.7,1.7h4.7c0.9,0,1.7-0.8,1.7-1.7
				v-28.2c0-0.9-0.8-1.7-1.7-1.7H189.6z"/>
		</g>
	</g>
	<g>
		<path d="M38.2,125c-6.9,0-12.6-5.7-12.6-12.6s5.7-12.6,12.6-12.6c6.9,0,12.6,5.7,12.6,12.6S45.1,125,38.2,125z M38.2,104.8
			c-4.2,0-7.6,3.4-7.6,7.6s3.4,7.6,7.6,7.6c4.2,0,7.6-3.4,7.6-7.6S42.4,104.8,38.2,104.8z"/>
	</g>
	<g>
		<path d="M261.8,125c-6.9,0-12.6-5.7-12.6-12.6s5.7-12.6,12.6-12.6c6.9,0,12.6,5.7,12.6,12.6S268.7,125,261.8,125z M261.8,104.8
			c-4.2,0-7.6,3.4-7.6,7.6s3.4,7.6,7.6,7.6c4.2,0,7.6-3.4,7.6-7.6S266,104.8,261.8,104.8z"/>
	</g>
	<g>
		<path d="M38.2,119c-3.6,0-6.6-3-6.6-6.6s3-6.6,6.6-6.6s6.6,3,6.6,6.6S41.8,119,38.2,119z M38.2,106.8c-3.1,0-5.6,2.5-5.6,5.6
			s2.5,5.6,5.6,5.6c3.1,0,5.6-2.5,5.6-5.6S41.3,106.8,38.2,106.8z"/>
	</g>
	<g>
		<path d="M261.8,119c-3.6,0-6.6-3-6.6-6.6s3-6.6,6.6-6.6c3.6,0,6.6,3,6.6,6.6S265.4,119,261.8,119z M261.8,106.8
			c-3.1,0-5.6,2.5-5.6,5.6s2.5,5.6,5.6,5.6s5.6-2.5,5.6-5.6S264.9,106.8,261.8,106.8z"/>
	</g>
	<g>
		<path d="M181.5,173.2c-4.2,0-7.6-3.4-7.6-7.6c0-4.2,3.4-7.6,7.6-7.6s7.6,3.4,7.6,7.6C189.1,169.7,185.7,173.2,181.5,173.2z
			 M181.5,162.9c-1.4,0-2.6,1.2-2.6,2.6s1.2,2.6,2.6,2.6s2.6-1.2,2.6-2.6S182.9,162.9,181.5,162.9z"/>
	</g>
	<g>
		<path d="M154.5,124.7h-8.7c-0.6,0-1,0.5-1,1v3.3c0,0.6,0.5,1,1,1h8.7c0.6,0,1-0.5,1-1v-3.3C155.5,125.1,155,124.7,154.5,124.7z"/>
	</g>
	<g>
		<path d="M154.5,163.9h-8.7c-0.6,0-1,0.5-1,1v3.3c0,0.6,0.5,1,1,1h8.7c0.6,0,1-0.5,1-1v-3.3C155.5,164.4,155,163.9,154.5,163.9z"/>
	</g>
	<g>
		<circle class="st0" cx="108.3" cy="126.8" r="1"/>
	</g>
	<g>
		<circle class="st0" cx="191.9" cy="126.8" r="1"/>
	</g>
</g>
<g>
	<path d="M113.5,247.6l0.3-17h4l1.9,9.9l2-9.9h3.9l0.3,17h-2.7l-0.3-11.3l-2,11.3h-2.4l-2.1-11.4l-0.3,11.4H113.5z"/>
	<path d="M133.3,247.9c-1.3,0-2.3-0.2-3.1-0.6c-0.7-0.4-1.2-1-1.5-1.9c-0.3-0.8-0.4-1.8-0.4-3v-11.7h3.7v12.3c0,0.4,0,0.7,0.1,1
		c0.1,0.4,0.2,0.6,0.4,0.9c0.2,0.2,0.5,0.3,0.9,0.3c0.4,0,0.7-0.1,0.9-0.3s0.3-0.5,0.3-0.9c0-0.3,0.1-0.7,0.1-1v-12.3h3.7v11.7
		c0,1.2-0.2,2.2-0.5,3c-0.3,0.8-0.8,1.4-1.5,1.9C135.6,247.6,134.6,247.9,133.3,247.9z"/>
	<path d="M140.7,247.6v-17h7.6v2.6h-3.9v4.2h3v2.6h-3v5.1h3.9v2.5H140.7z"/>
	<path d="M150.1,247.6v-17h3.8v14.5h3.9v2.5H150.1z"/>
	<path d="M159.2,247.6v-17h3.8v14.5h3.9v2.5H159.2z"/>
	<path d="M168.3,247.6v-17h7.6v2.6h-3.9v4.2h3v2.6h-3v5.1h3.9v2.5H168.3z"/>
	<path d="M182.2,247.9c-1.1,0-2-0.2-2.7-0.6c-0.7-0.4-1.3-1-1.6-1.8c-0.4-0.8-0.6-1.8-0.6-3.1l3.2-0.5c0,0.7,0.1,1.3,0.2,1.8
		c0.1,0.4,0.3,0.8,0.5,1c0.2,0.2,0.5,0.3,0.8,0.3c0.4,0,0.6-0.1,0.8-0.4s0.2-0.5,0.2-0.8c0-0.7-0.2-1.3-0.5-1.8
		c-0.3-0.5-0.8-1-1.4-1.5l-1.5-1.3c-0.6-0.5-1.2-1.2-1.6-1.9c-0.4-0.7-0.7-1.5-0.7-2.6c0-1.4,0.4-2.5,1.3-3.3c0.9-0.8,2-1.1,3.5-1.1
		c0.9,0,1.6,0.2,2.2,0.5c0.6,0.3,1,0.7,1.3,1.2s0.5,1,0.6,1.6c0.1,0.6,0.2,1.1,0.2,1.6l-3.2,0.4c0-0.5,0-0.9-0.1-1.3
		s-0.2-0.7-0.3-0.9s-0.4-0.3-0.7-0.3c-0.3,0-0.6,0.1-0.8,0.4s-0.2,0.6-0.2,0.9c0,0.6,0.2,1.1,0.5,1.5c0.3,0.4,0.7,0.8,1.2,1.2
		l1.4,1.2c0.7,0.6,1.4,1.3,1.9,2.1c0.5,0.8,0.8,1.8,0.8,3c0,0.8-0.2,1.5-0.5,2.2s-0.9,1.2-1.5,1.5
		C183.9,247.7,183.2,247.9,182.2,247.9z"/>
</g>
</svg>
