<svg id="Capa_1" data-name="Capa 1" xmlns="http://www.w3.org/2000/svg" viewBox="0 0 300 300"><path d="M94.51,243.84a3.25,3.25,0,0,0-.74-.74,3.82,3.82,0,0,0-1.18-.53h0a3.27,3.27,0,0,0,.7-.35,5,5,0,0,0,.56-.45,3,3,0,0,0,.68-1.06,3.43,3.43,0,0,0,.24-1.28,4,4,0,0,0-.38-1.83,3.57,3.57,0,0,0-1.1-1.28,5.21,5.21,0,0,0-1.72-.75,9.57,9.57,0,0,0-2.23-.25h-5v15h5.47a8.45,8.45,0,0,0,2.23-.28,4.74,4.74,0,0,0,1.68-.84,3.61,3.61,0,0,0,1.06-1.38,4.55,4.55,0,0,0,.38-1.91,4,4,0,0,0-.15-1.09A3.45,3.45,0,0,0,94.51,243.84Zm-7.3-6.17h2.14a4.75,4.75,0,0,1,1.22.16,1.8,1.8,0,0,1,.83.46,1.39,1.39,0,0,1,.36.57,2.39,2.39,0,0,1,.12.79,2.13,2.13,0,0,1-.14.78,1.55,1.55,0,0,1-.4.57,1.88,1.88,0,0,1-.81.45,4.14,4.14,0,0,1-1.17.16H87.21Zm4.84,9.11a1.93,1.93,0,0,1-.5.67,2.05,2.05,0,0,1-.75.39,3.22,3.22,0,0,1-1,.15H87.21v-4.28h2.7a3.31,3.31,0,0,1,1,.16,1.7,1.7,0,0,1,.72.45,1.61,1.61,0,0,1,.41.68,3.1,3.1,0,0,1,.13.9A2.23,2.23,0,0,1,92.05,246.78Z"/><path d="M111,238.14a6,6,0,0,0-.79-1.23,4.62,4.62,0,0,0-1.07-.95,4.92,4.92,0,0,0-1.37-.63,5.62,5.62,0,0,0-1.62-.22,5.77,5.77,0,0,0-1.59.21,4.85,4.85,0,0,0-1.32.62,4.94,4.94,0,0,0-1.05,1,6,6,0,0,0-.78,1.29,7.47,7.47,0,0,0-.5,1.64,9.46,9.46,0,0,0-.17,1.88v2.18a10.06,10.06,0,0,0,.15,1.77,7.26,7.26,0,0,0,.44,1.54,5.71,5.71,0,0,0,.79,1.39,5.31,5.31,0,0,0,1.07,1,5.24,5.24,0,0,0,1.35.64,5.62,5.62,0,0,0,1.62.22,5.41,5.41,0,0,0,1.54-.2,5.2,5.2,0,0,0,1.32-.56,4.76,4.76,0,0,0,1.17-1,6.05,6.05,0,0,0,.87-1.36,7.47,7.47,0,0,0,.5-1.62,9,9,0,0,0,.18-1.84v-2.18a9.16,9.16,0,0,0-.19-1.93A7.61,7.61,0,0,0,111,238.14Zm-2.2,5.78a9.51,9.51,0,0,1-.06,1.08,5.08,5.08,0,0,1-.17.94,3.93,3.93,0,0,1-.38,1,2.66,2.66,0,0,1-.59.73,1.92,1.92,0,0,1-.64.36,2.53,2.53,0,0,1-.8.12,2.3,2.3,0,0,1-.81-.13,2,2,0,0,1-.63-.38,2.57,2.57,0,0,1-.52-.73,4.2,4.2,0,0,1-.34-1,5.33,5.33,0,0,1-.14-.93c0-.34,0-.69,0-1.06v-2.2c0-.39,0-.76,0-1.11a6.81,6.81,0,0,1,.15-1,4,4,0,0,1,.38-1,2.48,2.48,0,0,1,.59-.72,2,2,0,0,1,.58-.3,2.39,2.39,0,0,1,.73-.1,2.65,2.65,0,0,1,.77.11,2.42,2.42,0,0,1,.62.32,2.54,2.54,0,0,1,.61.72,4,4,0,0,1,.41,1,4.77,4.77,0,0,1,.18,1,9.61,9.61,0,0,1,.06,1.1Z"/><polygon points="118.17 235.31 118.17 250.33 128.11 250.33 128.11 247.99 121.08 247.99 121.08 235.31 118.17 235.31"/><path d="M143.11,242.83a7.94,7.94,0,0,0-1.29-.71,11.24,11.24,0,0,0-1.48-.53,12.26,12.26,0,0,1-1.29-.42,4.86,4.86,0,0,1-1-.5,2.12,2.12,0,0,1-.62-.61,1.44,1.44,0,0,1-.21-.77,1.7,1.7,0,0,1,.16-.74,1.73,1.73,0,0,1,.47-.61,2.35,2.35,0,0,1,.76-.38,3.23,3.23,0,0,1,1-.14,3.06,3.06,0,0,1,1.1.17,2.13,2.13,0,0,1,.79.47,2,2,0,0,1,.47.73,2.75,2.75,0,0,1,.18.93H145a4.22,4.22,0,0,0-.4-1.86,4.34,4.34,0,0,0-1.09-1.46,4.89,4.89,0,0,0-1.67-1,6.42,6.42,0,0,0-2.15-.34,7.47,7.47,0,0,0-2.11.29,5.51,5.51,0,0,0-1.68.84,4.12,4.12,0,0,0-1.11,1.32,3.66,3.66,0,0,0-.4,1.72,3.87,3.87,0,0,0,.3,1.53,3.93,3.93,0,0,0,.9,1.28,6.49,6.49,0,0,0,1.54,1.06,11.13,11.13,0,0,0,2.19.82,9.86,9.86,0,0,1,1.35.47,3.61,3.61,0,0,1,.88.56,1.72,1.72,0,0,1,.47.66,2,2,0,0,1,.14.75,1.67,1.67,0,0,1-.16.74,1.63,1.63,0,0,1-.48.57,2.34,2.34,0,0,1-.76.37,3.56,3.56,0,0,1-1,.13,4.42,4.42,0,0,1-1.19-.14,2.46,2.46,0,0,1-.93-.46,2.1,2.1,0,0,1-.61-.79,3.07,3.07,0,0,1-.23-1.16H134a4.37,4.37,0,0,0,.45,2,4.77,4.77,0,0,0,1.22,1.5,5.68,5.68,0,0,0,1.91,1,8,8,0,0,0,4.34.06,4.81,4.81,0,0,0,1.67-.81,3.79,3.79,0,0,0,1.1-1.29,4.09,4.09,0,0,0-.13-3.78A5.27,5.27,0,0,0,143.11,242.83Z"/><path d="M155,235.31l-4.92,15h3.06l.88-3.14h4.51l.87,3.14h3.06l-4.83-15Zm-.27,9.42,1.58-5.53,1.54,5.53Z"/><path d="M194.4,238.42a6.72,6.72,0,0,0-.9-1.2,5,5,0,0,0-1.16-.94,5.84,5.84,0,0,0-1.65-.71,7.11,7.11,0,0,0-1.94-.26h-3.89v15h4a6.73,6.73,0,0,0,1.88-.25,5.71,5.71,0,0,0,1.61-.71,5.35,5.35,0,0,0,1.16-1,6.86,6.86,0,0,0,.92-1.27,7.48,7.48,0,0,0,.64-1.7,8.38,8.38,0,0,0,.22-2v-1.24a8.39,8.39,0,0,0-.24-2A7.32,7.32,0,0,0,194.4,238.42Zm-2,5a8.47,8.47,0,0,1-.09,1.28,5.3,5.3,0,0,1-.29,1.08,4.36,4.36,0,0,1-.54,1,3.21,3.21,0,0,1-.7.68,3.13,3.13,0,0,1-.85.39,3.55,3.55,0,0,1-1,.14h-1.11V237.66h1a3.74,3.74,0,0,1,1,.12,3.13,3.13,0,0,1,1.67,1.08,4,4,0,0,1,.59,1,5.38,5.38,0,0,1,.29,1.07,8.09,8.09,0,0,1,.09,1.23Z"/><polygon points="204.56 243.75 210.73 243.75 210.73 241.46 204.56 241.46 204.56 237.68 211.74 237.68 211.74 235.31 201.65 235.31 201.65 250.33 211.77 250.33 211.77 247.99 204.56 247.99 204.56 243.75"/><path d="M122.05,260.66l-4.92,15h3.06l.88-3.13h4.51l.88,3.13h3l-4.83-15Zm-.27,9.41,1.58-5.53,1.54,5.53Z"/><polygon points="135.5 263 138.36 263 138.36 273.34 135.5 273.34 135.5 275.67 144.18 275.67 144.18 273.34 141.25 273.34 141.25 263 144.18 263 144.18 260.66 135.5 260.66 135.5 263"/><path d="M159.76,268.68a4.07,4.07,0,0,0,.86-.9,4,4,0,0,0,.55-1.15,5.36,5.36,0,0,0,.19-1.45,4.66,4.66,0,0,0-.39-2,3.8,3.8,0,0,0-1.1-1.41,5.1,5.1,0,0,0-1.73-.86,7.94,7.94,0,0,0-2.26-.29h-5v15h2.9v-5.61h2.19l2.83,5.61h3.1v-.13l-3.23-6.2A5.8,5.8,0,0,0,159.76,268.68Zm-1.45-2.4a2,2,0,0,1-.41.69,2,2,0,0,1-.83.55,3.28,3.28,0,0,1-1.18.19h-2.14V263h2.13a3.45,3.45,0,0,1,1.06.14,2.37,2.37,0,0,1,.79.41,1.89,1.89,0,0,1,.54.76,2.91,2.91,0,0,1,.18,1.06A2.83,2.83,0,0,1,158.31,266.28Z"/><polygon points="170.68 269.09 176.85 269.09 176.85 266.8 170.68 266.8 170.68 263.02 177.86 263.02 177.86 260.66 167.78 260.66 167.78 275.67 177.89 275.67 177.89 273.33 170.68 273.33 170.68 269.09"/><path d="M149.84,85a39.26,39.26,0,1,0-39.26,39.26A39.2,39.2,0,0,0,149.84,85ZM81.55,85a29.22,29.22,0,1,1,29.22,29.22A29.31,29.31,0,0,1,81.55,85Z"/><path d="M227.45,91.9a5.15,5.15,0,0,0-7.12-.55c-.19.18-3.29,2.92-8.59,6.76a18.66,18.66,0,0,0-1.46-2.74,23.6,23.6,0,0,0-5.48-6.57,27,27,0,0,0-13.14-50.58,27.2,27.2,0,0,0-27,27,26.86,26.86,0,0,0,9.5,20.45,26.77,26.77,0,0,0-12.6,15.52l-8.22,27.39c-1.09.18-2,.55-3.1.73a5.22,5.22,0,0,0-4,3.47,6.12,6.12,0,0,0,0,2.56H127.57a17.72,17.72,0,0,0-16.8,12L97.25,188.5A18.18,18.18,0,0,0,98.17,202a17.35,17.35,0,0,0,10.22,8.76,19.07,19.07,0,0,0,5.48.92,17.72,17.72,0,0,0,16.8-12.06l9.68-29h40.17a4.07,4.07,0,0,0,1.46-.18l4.75,4.56a5,5,0,0,0,3.47,1.46,4.85,4.85,0,0,0,3.65-1.64,5.14,5.14,0,0,0-.18-7.12L192,166.22A15.25,15.25,0,0,0,197,159.1l15.16-40.72a26.21,26.21,0,0,0,1.64-9.13c7.49-5.48,12.42-9.68,13-10.23a4.85,4.85,0,0,0,.73-7.12ZM136.7,160.56A5.1,5.1,0,0,0,132,164l-10.77,32.5a7.5,7.5,0,0,1-9.5,4.75,7,7,0,0,1-4.38-3.84,7.19,7.19,0,0,1-.37-5.84l13.51-41.09a7.47,7.47,0,0,1,7.13-5.11h27.75l16.07,15.16Zm50.94-4.93a8.2,8.2,0,0,1-2.92,3.65l-23.37-22.1c14.6-4.2,29-12.05,40.53-19.53ZM165,125.13l6.21-21A16.81,16.81,0,0,1,190,92.45a17.06,17.06,0,0,1,11.87,8,17.65,17.65,0,0,1,1.65,3.84C193.3,111.44,179.42,119.84,165,125.13Zm26.66-42.91a17,17,0,1,1,17-17A17.06,17.06,0,0,1,191.66,82.22Z"/></svg>