<svg id="Capa_1" data-name="Capa 1" xmlns="http://www.w3.org/2000/svg" viewBox="0 0 300 300"><path d="M38.28,249l-4.92,15h3l.89-3.13h4.51l.87,3.13h3.06l-4.83-15ZM38,258.44l1.58-5.52,1.54,5.52Z"/><polygon points="56.41 254.67 54.99 249.03 51.39 249.03 51.39 264.04 54.05 264.04 54.05 259.6 53.92 252.85 55.69 259.09 57.12 259.09 59.09 252.58 58.97 259.6 58.97 264.04 61.63 264.04 61.63 249.03 58.03 249.03 56.41 254.67"/><path d="M78.07,251.85a6.22,6.22,0,0,0-.79-1.22,4.62,4.62,0,0,0-1.07-.95,4.73,4.73,0,0,0-1.36-.64,6.11,6.11,0,0,0-1.63-.22,5.41,5.41,0,0,0-1.59.22,4.71,4.71,0,0,0-2.37,1.61,5.54,5.54,0,0,0-.78,1.29,7.47,7.47,0,0,0-.5,1.64,10.16,10.16,0,0,0-.17,1.87v2.19A9.86,9.86,0,0,0,68,259.4,7.35,7.35,0,0,0,68.4,261a5.9,5.9,0,0,0,.79,1.39,5.26,5.26,0,0,0,1.07,1,4.93,4.93,0,0,0,1.35.64,5.61,5.61,0,0,0,1.62.23,5.79,5.79,0,0,0,1.54-.2,5.58,5.58,0,0,0,1.32-.56,5.23,5.23,0,0,0,1.18-1,6.45,6.45,0,0,0,.86-1.37,7.78,7.78,0,0,0,.51-1.61,9.83,9.83,0,0,0,.17-1.84v-2.19a9.06,9.06,0,0,0-.19-1.92A7.7,7.7,0,0,0,78.07,251.85Zm-2.2,5.79c0,.37,0,.73-.05,1.07a7.74,7.74,0,0,1-.17,1,4.73,4.73,0,0,1-.39,1,2.48,2.48,0,0,1-.59.72,1.92,1.92,0,0,1-.64.36,2.47,2.47,0,0,1-1.61,0,2,2,0,0,1-.63-.38,2.44,2.44,0,0,1-.52-.73,4.12,4.12,0,0,1-.34-1,6.42,6.42,0,0,1-.14-.94c0-.34,0-.69,0-1.05v-2.21c0-.38,0-.75,0-1.1a8.61,8.61,0,0,1,.15-1,3.86,3.86,0,0,1,.38-1,2.48,2.48,0,0,1,.59-.72,2.05,2.05,0,0,1,.59-.3,2.28,2.28,0,0,1,.72-.1,2.31,2.31,0,0,1,.77.11,1.92,1.92,0,0,1,.62.32,2.29,2.29,0,0,1,.61.72,4,4,0,0,1,.42,1,6.82,6.82,0,0,1,.18,1c0,.35.05.72.05,1.1Z"/><path d="M94.05,257.05a3.88,3.88,0,0,0,.86-.9,4.07,4.07,0,0,0,.54-1.15,4.92,4.92,0,0,0,.19-1.44,4.6,4.6,0,0,0-.39-2,3.73,3.73,0,0,0-1.09-1.42,5.25,5.25,0,0,0-1.74-.86,8.24,8.24,0,0,0-2.25-.29h-5v15H88v-5.61h2.2L93.05,264h3.11v-.13l-3.23-6.2A5.41,5.41,0,0,0,94.05,257.05Zm-1.46-2.4a2,2,0,0,1-.4.69,2.12,2.12,0,0,1-.83.55,3.32,3.32,0,0,1-1.18.19H88v-4.7h2.14a3.83,3.83,0,0,1,1.06.14,2.24,2.24,0,0,1,.78.42,1.86,1.86,0,0,1,.54.75,2.91,2.91,0,0,1,.18,1.06A2.58,2.58,0,0,1,92.59,254.65Z"/><polygon points="101.03 251.39 105.6 251.39 105.6 264.04 108.51 264.04 108.51 251.39 113.14 251.39 113.14 249.03 101.03 249.03 101.03 251.39"/><polygon points="119.27 251.37 122.13 251.37 122.13 261.71 119.27 261.71 119.27 264.04 127.95 264.04 127.95 261.71 125.03 261.71 125.03 251.37 127.95 251.37 127.95 249.03 119.27 249.03 119.27 251.37"/><path d="M139.4,256.37v2.17h2.49v2.72a1.2,1.2,0,0,1-.34.25,3,3,0,0,1-.51.21,3.75,3.75,0,0,1-.62.15,4.91,4.91,0,0,1-.67.05,3,3,0,0,1-1-.18,2.23,2.23,0,0,1-.77-.5,2.73,2.73,0,0,1-.36-.45,4,4,0,0,1-.28-.55,6.85,6.85,0,0,1-.31-1.19,9.57,9.57,0,0,1-.1-1.48V255.5a9,9,0,0,1,.07-1.2,6.56,6.56,0,0,1,.23-1,4.37,4.37,0,0,1,.46-1,2.73,2.73,0,0,1,.64-.7,1.89,1.89,0,0,1,.58-.3,2,2,0,0,1,.64-.11,3.2,3.2,0,0,1,1,.16,1.86,1.86,0,0,1,.73.48,2.24,2.24,0,0,1,.41.71,5.14,5.14,0,0,1,.22,1h2.82a6.35,6.35,0,0,0-.48-1.94,4.28,4.28,0,0,0-1-1.48,4.53,4.53,0,0,0-1.59-.92,7,7,0,0,0-2.22-.32,5.3,5.3,0,0,0-1.56.23,4.65,4.65,0,0,0-1.38.67,5.71,5.71,0,0,0-1,.93,6.73,6.73,0,0,0-.79,1.2,8.28,8.28,0,0,0-.56,1.68,9.7,9.7,0,0,0-.19,2v2a10.41,10.41,0,0,0,.2,2.08,6.7,6.7,0,0,0,.59,1.72,5.65,5.65,0,0,0,.83,1.23,5.22,5.22,0,0,0,1.09.91,5.32,5.32,0,0,0,1.34.55,5.93,5.93,0,0,0,1.55.19,8.29,8.29,0,0,0,1.77-.18,7.77,7.77,0,0,0,1.5-.46A6.08,6.08,0,0,0,144,263a3.48,3.48,0,0,0,.76-.69v-5.92Z"/><path d="M158.35,249v10a6,6,0,0,1-.15,1.29,2.68,2.68,0,0,1-.44.93,1.67,1.67,0,0,1-.67.54,2.35,2.35,0,0,1-.94.18,2,2,0,0,1-.85-.17,1.73,1.73,0,0,1-.63-.51,2.47,2.47,0,0,1-.42-.94,6.32,6.32,0,0,1-.15-1.32V249h-2.9v10a6.46,6.46,0,0,0,.36,2.24,4.66,4.66,0,0,0,1,1.66,4.4,4.4,0,0,0,1.57,1,5.7,5.7,0,0,0,2,.35,6.21,6.21,0,0,0,2.15-.35,4.29,4.29,0,0,0,1.61-1,4.55,4.55,0,0,0,1-1.65,6.75,6.75,0,0,0,.35-2.24V249Z"/><path d="M171.38,249l-4.92,15h3l.89-3.13h4.51l.87,3.13h3.06L174,249Zm-.27,9.41,1.58-5.52,1.54,5.52Z"/><path d="M194,252.13a7.52,7.52,0,0,0-.9-1.2A4.75,4.75,0,0,0,192,250a6.16,6.16,0,0,0-1.65-.72,7.11,7.11,0,0,0-1.94-.25h-3.89v15h4a7.12,7.12,0,0,0,1.88-.24,6.25,6.25,0,0,0,1.62-.72,5.25,5.25,0,0,0,1.15-1,7.22,7.22,0,0,0,.92-1.27,7.56,7.56,0,0,0,.64-1.71,8.23,8.23,0,0,0,.22-2v-1.24a8.39,8.39,0,0,0-.24-2A7.4,7.4,0,0,0,194,252.13Zm-2,5a8.52,8.52,0,0,1-.1,1.28,5.68,5.68,0,0,1-.29,1.08,4.28,4.28,0,0,1-.54,1,3,3,0,0,1-.7.69,3.13,3.13,0,0,1-.85.39,3.56,3.56,0,0,1-1,.13H187.4V251.38h1a3.74,3.74,0,0,1,1,.12,3.52,3.52,0,0,1,.82.33,3.19,3.19,0,0,1,.85.75,3.59,3.59,0,0,1,.59,1,5.47,5.47,0,0,1,.29,1.06,8.09,8.09,0,0,1,.1,1.24Z"/><path d="M211.07,251.85a6.22,6.22,0,0,0-.79-1.22,4.62,4.62,0,0,0-1.07-.95,4.73,4.73,0,0,0-1.36-.64,6.11,6.11,0,0,0-1.63-.22,5.41,5.41,0,0,0-1.59.22,4.6,4.6,0,0,0-2.37,1.61,5.54,5.54,0,0,0-.78,1.29,7.47,7.47,0,0,0-.5,1.64,9.36,9.36,0,0,0-.17,1.87v2.19a9.86,9.86,0,0,0,.15,1.76,7.35,7.35,0,0,0,.44,1.55,5.9,5.9,0,0,0,.79,1.39,5.26,5.26,0,0,0,1.07,1,4.93,4.93,0,0,0,1.35.64,5.61,5.61,0,0,0,1.62.23,5.85,5.85,0,0,0,1.54-.2,5.58,5.58,0,0,0,1.32-.56,5,5,0,0,0,1.17-1,6.12,6.12,0,0,0,.87-1.37,7.21,7.21,0,0,0,.5-1.61,9,9,0,0,0,.18-1.84v-2.19a9.06,9.06,0,0,0-.19-1.92A7.7,7.7,0,0,0,211.07,251.85Zm-2.2,5.79a9.2,9.2,0,0,1-.06,1.07,5.2,5.2,0,0,1-.17,1,4.24,4.24,0,0,1-.38,1,2.48,2.48,0,0,1-.59.72,1.88,1.88,0,0,1-.65.36,2.22,2.22,0,0,1-.79.13,2.29,2.29,0,0,1-.81-.14,1.93,1.93,0,0,1-.63-.38,2.44,2.44,0,0,1-.52-.73,4.12,4.12,0,0,1-.34-1,5.3,5.3,0,0,1-.14-.94c0-.34,0-.69,0-1.05v-2.21c0-.38,0-.75,0-1.1a6.81,6.81,0,0,1,.15-1,3.86,3.86,0,0,1,.38-1,2.48,2.48,0,0,1,.59-.72,2,2,0,0,1,.58-.3,2.39,2.39,0,0,1,.73-.1,2.35,2.35,0,0,1,.77.11,1.92,1.92,0,0,1,.62.32,2.29,2.29,0,0,1,.61.72,4,4,0,0,1,.41,1,4.8,4.8,0,0,1,.18,1,9.73,9.73,0,0,1,.06,1.1Z"/><path d="M227,257.05a3.88,3.88,0,0,0,.86-.9,3.59,3.59,0,0,0,.54-1.15,4.92,4.92,0,0,0,.19-1.44,4.6,4.6,0,0,0-.38-2,3.86,3.86,0,0,0-1.1-1.42,5.29,5.29,0,0,0-1.73-.86,8.36,8.36,0,0,0-2.26-.29h-5v15H221v-5.61h2.2l2.83,5.61h3.1v-.13l-3.23-6.2A4.93,4.93,0,0,0,227,257.05Zm-1.45-2.4a1.84,1.84,0,0,1-.41.69,2,2,0,0,1-.83.55,3.28,3.28,0,0,1-1.18.19H221v-4.7h2.14a3.78,3.78,0,0,1,1.06.14,2.38,2.38,0,0,1,.79.42,1.86,1.86,0,0,1,.54.75,2.91,2.91,0,0,1,.18,1.06A2.83,2.83,0,0,1,225.59,254.65Z"/><polygon points="237.96 257.46 244.13 257.46 244.13 255.18 237.96 255.18 237.96 251.39 245.14 251.39 245.14 249.03 235.05 249.03 235.05 264.04 245.17 264.04 245.17 261.7 237.96 261.7 237.96 257.46"/><path d="M260.1,256.55a8.93,8.93,0,0,0-1.29-.72,11.22,11.22,0,0,0-1.48-.52,12.26,12.26,0,0,1-1.29-.42,4.72,4.72,0,0,1-1-.51,2,2,0,0,1-.61-.61,1.4,1.4,0,0,1-.21-.76,1.71,1.71,0,0,1,.16-.75,1.69,1.69,0,0,1,.47-.6,2.14,2.14,0,0,1,.75-.39,3.66,3.66,0,0,1,1-.14,3.3,3.3,0,0,1,1.1.17,2.37,2.37,0,0,1,.79.47,2.08,2.08,0,0,1,.47.73,3.49,3.49,0,0,1,.18.93H262a4.35,4.35,0,0,0-.39-1.85,4.28,4.28,0,0,0-1.09-1.47,5.29,5.29,0,0,0-1.68-1,6.64,6.64,0,0,0-2.15-.34,7.11,7.11,0,0,0-2.1.3,4.91,4.91,0,0,0-1.68.84,3.84,3.84,0,0,0-1.12,1.32,3.76,3.76,0,0,0-.4,1.72,3.7,3.7,0,0,0,.31,1.53,3.89,3.89,0,0,0,.9,1.27,6.5,6.5,0,0,0,1.54,1.07,11.8,11.8,0,0,0,2.19.82,7.74,7.74,0,0,1,1.35.47,3.81,3.81,0,0,1,.88.55,1.88,1.88,0,0,1,.47.66,2.12,2.12,0,0,1,.14.75,1.64,1.64,0,0,1-.17.74,1.52,1.52,0,0,1-.47.57,2.35,2.35,0,0,1-.76.38,4,4,0,0,1-1,.13,4.53,4.53,0,0,1-1.2-.15,2.27,2.27,0,0,1-.92-.45,2.18,2.18,0,0,1-.61-.79,3.32,3.32,0,0,1-.24-1.17H251a4.31,4.31,0,0,0,.45,2,4.78,4.78,0,0,0,1.22,1.51,5.66,5.66,0,0,0,1.91,1,7.45,7.45,0,0,0,2.23.34,7.86,7.86,0,0,0,2.11-.27,5.2,5.2,0,0,0,1.67-.81A3.66,3.66,0,0,0,262,260.1a3.87,3.87,0,0,0-.52-2A5.37,5.37,0,0,0,260.1,256.55Z"/><path d="M82.28,181.32a11,11,0,1,0,15.62,0A11.06,11.06,0,0,0,82.28,181.32Zm9.83,9.82a2.86,2.86,0,1,1,0-4A2.85,2.85,0,0,1,92.11,191.14Z"/><path d="M204.24,51.82A16.38,16.38,0,0,0,200,59.16l-6.38-6.38a4.09,4.09,0,0,0-5.79,0L176.9,63.71a4.09,4.09,0,0,0,0,5.79l3.15,3.15-5.22,5.22-1.38-3.33a4.09,4.09,0,1,0-7.56,3.14l2.68,6.45-10,10-1.38-3.33A4.09,4.09,0,0,0,149.6,94l2.68,6.46-10,10-1.38-3.34a4.09,4.09,0,1,0-7.56,3.14l2.68,6.46-10,10-1.38-3.34a4.09,4.09,0,1,0-7.56,3.14L119.7,133l-16.17,16.17L100.38,146a4.09,4.09,0,0,0-5.79,0L83.65,157a4.11,4.11,0,0,0,0,5.79L87.87,167a22.29,22.29,0,1,0,24.38,24.39l4.21,4.21a4.09,4.09,0,0,0,5.79,0l10.94-10.94a4.08,4.08,0,0,0,0-5.78L130,175.69l5.22-5.23,1.39,3.34a3.92,3.92,0,0,0,.88,1.32,4.09,4.09,0,0,0,6.68-4.46l-2.69-6.46,10-10,1.39,3.33a4.07,4.07,0,0,0,5.35,2.21,4.11,4.11,0,0,0,2.21-5.35l-2.69-6.46,10-10,1.38,3.33a4.25,4.25,0,0,0,.89,1.33,4.09,4.09,0,0,0,6.67-4.47l-2.68-6.46,10-10,1.38,3.33a4.25,4.25,0,0,0,.89,1.33,4.09,4.09,0,0,0,6.67-4.47l-2.68-6.46,16.17-16.17,3.15,3.15a4.09,4.09,0,0,0,5.79,0l10.94-10.94a4.08,4.08,0,0,0,0-5.78l-6.39-6.39a16.37,16.37,0,1,0-15.81-27.38ZM100.06,199.09a14.1,14.1,0,1,1,0-19.93A14.11,14.11,0,0,1,100.06,199.09Zm19.3-12.21-27-27,5.14-5.15,3.15,3.15,20.73,20.72,3.15,3.15Zm4.89-17L109.32,155l13.78-13.78,8.76,21.11ZM138.12,156l-8.76-21.1,10-10L148.15,146Zm16.29-16.29-8.76-21.1,10-10,8.76,21.11Zm16.29-16.29-8.76-21.1,10-10h0l8.76,21.11ZM187,107.15l-8.76-21.1,7.61-7.61,14.93,14.93Zm25.62-13.52-27-27,5.14-5.15,27,27Zm9-24.45a8.18,8.18,0,1,1,0-11.57A8.2,8.2,0,0,1,221.61,69.18Z"/></svg>