<?xml version="1.0" encoding="utf-8"?>
<!-- Generator: Adobe Illustrator 26.1.0, SVG Export Plug-In . SVG Version: 6.00 Build 0)  -->
<svg version="1.1" id="Capa_1" xmlns="http://www.w3.org/2000/svg" xmlns:xlink="http://www.w3.org/1999/xlink" x="0px" y="0px"
	 viewBox="0 0 300 300" style="enable-background:new 0 0 300 300;" xml:space="preserve">
<style type="text/css">
	.st0{stroke:#FFFFFF;stroke-miterlimit:10;}
	.st1{fill:none;stroke:#000000;stroke-width:5;stroke-miterlimit:10;}
	.st2{fill:none;stroke:#000000;stroke-miterlimit:10;}
	.st3{fill:#FFFFFF;}
	.st4{fill:none;stroke:#000000;stroke-width:3;stroke-miterlimit:10;}
	.st5{fill:none;stroke:#000000;stroke-width:2;stroke-miterlimit:10;}
</style>
<g>
	<path d="M66,249.6h-3.3v-17.1h5.8c0.9,0,1.8,0.1,2.5,0.4s1.4,0.6,1.9,1.1c0.5,0.5,0.9,1.1,1.2,1.7s0.4,1.4,0.4,2.2
		c0,0.8-0.1,1.5-0.4,2.1s-0.7,1.2-1.2,1.7c-0.5,0.5-1.2,0.8-1.9,1.1s-1.6,0.4-2.5,0.4H66V249.6z M68.5,240.6c0.5,0,0.9-0.1,1.2-0.2
		s0.6-0.3,0.9-0.6c0.2-0.2,0.4-0.5,0.5-0.8s0.2-0.6,0.2-1c0-0.4-0.1-0.8-0.2-1.1s-0.3-0.6-0.5-0.9c-0.2-0.3-0.5-0.5-0.9-0.6
		s-0.8-0.2-1.2-0.2H66v5.5H68.5z"/>
	<path d="M80.5,243.2v6.4h-3.3v-17.1h5.7c0.9,0,1.8,0.1,2.6,0.3s1.4,0.5,2,1c0.5,0.4,1,1,1.2,1.6s0.4,1.4,0.4,2.2
		c0,0.6-0.1,1.2-0.2,1.6s-0.3,0.9-0.6,1.3c-0.3,0.4-0.6,0.7-1,1s-0.8,0.5-1.3,0.8l3.7,7v0.2h-3.5l-3.2-6.4H80.5z M82.9,240.5
		c0.5,0,1-0.1,1.3-0.2s0.7-0.4,0.9-0.6c0.2-0.2,0.4-0.5,0.5-0.8s0.2-0.6,0.2-1c0-0.5-0.1-0.9-0.2-1.2s-0.3-0.6-0.6-0.9
		c-0.2-0.2-0.5-0.4-0.9-0.5s-0.8-0.2-1.2-0.2h-2.4v5.3H82.9z"/>
	<path d="M103.8,244.4c-0.1,0.7-0.3,1.3-0.6,1.8c-0.3,0.6-0.6,1.1-1,1.5s-0.8,0.9-1.3,1.2c-0.5,0.3-1,0.5-1.5,0.6s-1.1,0.2-1.8,0.2
		c-0.7,0-1.3-0.1-1.8-0.3s-1.1-0.4-1.5-0.7c-0.5-0.3-0.9-0.7-1.2-1.2s-0.7-1-0.9-1.6c-0.2-0.5-0.4-1.1-0.5-1.8s-0.2-1.3-0.2-2v-2.5
		c0-0.8,0.1-1.5,0.2-2.1s0.3-1.3,0.6-1.9c0.2-0.5,0.5-1,0.9-1.5s0.7-0.8,1.2-1.1c0.4-0.3,0.9-0.5,1.5-0.7s1.2-0.2,1.8-0.2
		c0.7,0,1.3,0.1,1.8,0.3s1.1,0.4,1.6,0.7c0.5,0.3,0.9,0.7,1.2,1.1s0.6,0.9,0.9,1.4c0.3,0.6,0.5,1.2,0.6,1.9s0.2,1.4,0.2,2.2v2.5
		C104,243,104,243.7,103.8,244.4z M100.6,238.5c0-0.4-0.1-0.8-0.2-1.1c-0.1-0.4-0.3-0.8-0.5-1.1s-0.4-0.6-0.7-0.8
		c-0.2-0.2-0.4-0.3-0.7-0.4S98,235,97.7,235c-0.3,0-0.6,0-0.8,0.1s-0.5,0.2-0.7,0.3c-0.3,0.2-0.5,0.5-0.7,0.8s-0.3,0.7-0.4,1.1
		c-0.1,0.3-0.1,0.7-0.2,1.1s-0.1,0.8-0.1,1.3v2.5c0,0.4,0,0.8,0,1.2s0.1,0.7,0.2,1.1c0.1,0.4,0.2,0.8,0.4,1.1s0.4,0.6,0.6,0.8
		c0.2,0.2,0.5,0.3,0.7,0.4s0.6,0.2,0.9,0.2c0.3,0,0.6,0,0.9-0.1s0.5-0.2,0.7-0.4c0.3-0.2,0.5-0.5,0.7-0.8s0.3-0.7,0.4-1.1
		c0.1-0.3,0.2-0.7,0.2-1.1s0.1-0.8,0.1-1.2v-2.5C100.7,239.3,100.7,238.9,100.6,238.5z"/>
	<path d="M106.9,232.5h4.4c0.8,0,1.5,0.1,2.2,0.3s1.3,0.5,1.9,0.8c0.5,0.3,0.9,0.6,1.3,1.1s0.7,0.9,1,1.4c0.3,0.6,0.6,1.3,0.8,2
		s0.3,1.5,0.3,2.3v1.4c0,0.8-0.1,1.5-0.3,2.2s-0.4,1.3-0.7,1.9c-0.3,0.5-0.6,1-1,1.4s-0.8,0.8-1.3,1.1c-0.6,0.4-1.2,0.6-1.8,0.8
		s-1.4,0.3-2.1,0.3h-4.6V232.5z M110.2,246.9h1.3c0.4,0,0.8-0.1,1.1-0.2s0.7-0.2,1-0.4c0.3-0.2,0.6-0.5,0.8-0.8s0.4-0.7,0.6-1.1
		c0.1-0.4,0.2-0.8,0.3-1.2s0.1-0.9,0.1-1.5v-1.4c0-0.5,0-1-0.1-1.4s-0.2-0.8-0.3-1.2c-0.2-0.4-0.4-0.8-0.7-1.2s-0.6-0.6-1-0.8
		c-0.3-0.2-0.6-0.3-0.9-0.4s-0.7-0.1-1.1-0.1h-1.1V246.9z"/>
	<path d="M133,243.8c0,1-0.1,1.8-0.4,2.5s-0.6,1.4-1.1,1.9c-0.5,0.5-1.1,0.9-1.8,1.2s-1.5,0.4-2.4,0.4c-0.9,0-1.6-0.1-2.3-0.4
		s-1.3-0.7-1.8-1.2s-0.9-1.1-1.1-1.9s-0.4-1.6-0.4-2.5l0-11.3h3.3l0,11.3c0,0.6,0.1,1.1,0.2,1.5s0.3,0.8,0.5,1.1
		c0.2,0.3,0.4,0.5,0.7,0.6s0.6,0.2,1,0.2c0.4,0,0.8-0.1,1.1-0.2c0.3-0.1,0.6-0.3,0.8-0.6c0.2-0.3,0.4-0.6,0.5-1.1s0.2-0.9,0.2-1.5
		l0-11.3h3.3L133,243.8z"/>
	<path d="M147.7,246.5c-0.3,0.7-0.7,1.3-1.3,1.8s-1.2,0.9-1.9,1.1s-1.5,0.4-2.4,0.4c-0.7,0-1.4-0.1-2-0.3s-1.1-0.4-1.6-0.8
		c-0.4-0.3-0.8-0.7-1.2-1.2s-0.6-1-0.9-1.5c-0.2-0.5-0.4-1.1-0.5-1.8s-0.2-1.4-0.2-2.1v-2.3c0-0.7,0.1-1.3,0.2-2s0.3-1.2,0.5-1.7
		c0.2-0.6,0.6-1.2,1-1.7s0.9-0.9,1.4-1.3c0.5-0.3,1-0.5,1.5-0.7s1.1-0.2,1.8-0.2c0.9,0,1.8,0.1,2.5,0.4s1.4,0.6,1.9,1.1
		s0.9,1.1,1.2,1.8s0.5,1.5,0.6,2.4H145c0-0.5-0.1-1-0.2-1.3s-0.3-0.7-0.5-1c-0.2-0.2-0.5-0.4-0.9-0.6s-0.8-0.2-1.2-0.2
		c-0.3,0-0.5,0-0.7,0.1s-0.4,0.1-0.6,0.2c-0.3,0.2-0.6,0.5-0.8,0.8s-0.4,0.8-0.5,1.2c-0.1,0.4-0.2,0.8-0.2,1.2s-0.1,0.9-0.1,1.4v2.3
		c0,0.7,0,1.3,0.1,1.8s0.2,1,0.3,1.4c0.1,0.3,0.2,0.5,0.4,0.7s0.3,0.4,0.5,0.5c0.2,0.2,0.4,0.3,0.7,0.3s0.6,0.1,0.9,0.1
		c0.4,0,0.8-0.1,1.2-0.2s0.6-0.3,0.9-0.5s0.4-0.5,0.6-0.9s0.2-0.8,0.3-1.3h3.3C148.2,245.1,148,245.9,147.7,246.5z"/>
	<path d="M158.6,235.2v14.4h-3.3v-14.4h-5.2v-2.7h13.8v2.7H158.6z"/>
	<path d="M177.9,244.4c-0.1,0.7-0.3,1.3-0.6,1.8c-0.3,0.6-0.6,1.1-1,1.5s-0.8,0.9-1.3,1.2c-0.5,0.3-1,0.5-1.5,0.6s-1.1,0.2-1.8,0.2
		c-0.7,0-1.3-0.1-1.8-0.3s-1.1-0.4-1.5-0.7c-0.5-0.3-0.9-0.7-1.2-1.2s-0.7-1-0.9-1.6c-0.2-0.5-0.4-1.1-0.5-1.8s-0.2-1.3-0.2-2v-2.5
		c0-0.8,0.1-1.5,0.2-2.1s0.3-1.3,0.6-1.9c0.2-0.5,0.5-1,0.9-1.5s0.7-0.8,1.2-1.1c0.4-0.3,0.9-0.5,1.5-0.7s1.2-0.2,1.8-0.2
		c0.7,0,1.3,0.1,1.8,0.3s1.1,0.4,1.6,0.7c0.5,0.3,0.9,0.7,1.2,1.1s0.6,0.9,0.9,1.4c0.3,0.6,0.5,1.2,0.6,1.9s0.2,1.4,0.2,2.2v2.5
		C178.1,243,178,243.7,177.9,244.4z M174.7,238.5c0-0.4-0.1-0.8-0.2-1.1c-0.1-0.4-0.3-0.8-0.5-1.1s-0.4-0.6-0.7-0.8
		c-0.2-0.2-0.4-0.3-0.7-0.4s-0.6-0.1-0.9-0.1c-0.3,0-0.6,0-0.8,0.1s-0.5,0.2-0.7,0.3c-0.3,0.2-0.5,0.5-0.7,0.8s-0.3,0.7-0.4,1.1
		c-0.1,0.3-0.1,0.7-0.2,1.1s-0.1,0.8-0.1,1.3v2.5c0,0.4,0,0.8,0,1.2s0.1,0.7,0.2,1.1c0.1,0.4,0.2,0.8,0.4,1.1s0.4,0.6,0.6,0.8
		c0.2,0.2,0.5,0.3,0.7,0.4s0.6,0.2,0.9,0.2c0.3,0,0.6,0,0.9-0.1s0.5-0.2,0.7-0.4c0.3-0.2,0.5-0.5,0.7-0.8s0.3-0.7,0.4-1.1
		c0.1-0.3,0.2-0.7,0.2-1.1s0.1-0.8,0.1-1.2v-2.5C174.7,239.3,174.7,238.9,174.7,238.5z"/>
	<path d="M189.7,244.3c-0.1-0.3-0.3-0.5-0.5-0.8c-0.3-0.2-0.6-0.4-1-0.6s-0.9-0.4-1.5-0.5c-0.9-0.3-1.8-0.6-2.5-0.9
		s-1.3-0.8-1.8-1.2s-0.8-0.9-1-1.5s-0.3-1.1-0.3-1.7c0-0.7,0.2-1.4,0.5-2s0.7-1.1,1.3-1.5s1.2-0.7,1.9-1s1.5-0.3,2.4-0.3
		c0.9,0,1.7,0.1,2.4,0.4s1.4,0.6,1.9,1.1c0.5,0.5,0.9,1,1.2,1.7s0.4,1.3,0.4,2.1h-3.2c0-0.4-0.1-0.7-0.2-1.1s-0.3-0.6-0.5-0.8
		c-0.2-0.2-0.5-0.4-0.9-0.5s-0.8-0.2-1.2-0.2c-0.4,0-0.8,0.1-1.2,0.2s-0.6,0.3-0.9,0.4c-0.2,0.2-0.4,0.4-0.5,0.7s-0.2,0.5-0.2,0.8
		c0,0.3,0.1,0.6,0.2,0.9s0.4,0.5,0.7,0.7c0.3,0.2,0.7,0.4,1.1,0.6s0.9,0.3,1.5,0.5c0.6,0.2,1.1,0.4,1.7,0.6s1,0.5,1.5,0.8
		c0.7,0.5,1.2,1.1,1.6,1.7s0.6,1.4,0.6,2.3c0,0.8-0.2,1.4-0.5,2s-0.7,1.1-1.2,1.5c-0.5,0.4-1.2,0.7-1.9,0.9s-1.5,0.3-2.4,0.3
		c-0.9,0-1.7-0.1-2.5-0.4s-1.6-0.6-2.2-1.1c-0.6-0.5-1-1.1-1.4-1.7s-0.5-1.4-0.5-2.3h3.2c0,0.5,0.1,1,0.3,1.3s0.4,0.7,0.7,0.9
		c0.3,0.2,0.6,0.4,1,0.5s0.9,0.2,1.4,0.2c0.4,0,0.8-0.1,1.2-0.2s0.6-0.2,0.9-0.4s0.4-0.4,0.5-0.7s0.2-0.5,0.2-0.8
		S189.8,244.5,189.7,244.3z"/>
	<path d="M210.9,232.5h4.4c0.8,0,1.5,0.1,2.2,0.3s1.3,0.5,1.9,0.8c0.5,0.3,0.9,0.6,1.3,1.1s0.7,0.9,1,1.4c0.3,0.6,0.6,1.3,0.8,2
		s0.3,1.5,0.3,2.3v1.4c0,0.8-0.1,1.5-0.3,2.2s-0.4,1.3-0.7,1.9c-0.3,0.5-0.6,1-1,1.4s-0.8,0.8-1.3,1.1c-0.6,0.4-1.2,0.6-1.8,0.8
		s-1.4,0.3-2.1,0.3h-4.6V232.5z M214.2,246.9h1.3c0.4,0,0.8-0.1,1.1-0.2s0.7-0.2,1-0.4c0.3-0.2,0.6-0.5,0.8-0.8s0.4-0.7,0.6-1.1
		c0.1-0.4,0.2-0.8,0.3-1.2s0.1-0.9,0.1-1.5v-1.4c0-0.5,0-1-0.1-1.4s-0.2-0.8-0.3-1.2c-0.2-0.4-0.4-0.8-0.7-1.2s-0.6-0.6-1-0.8
		c-0.3-0.2-0.6-0.3-0.9-0.4s-0.7-0.1-1.1-0.1h-1.1V246.9z"/>
	<path d="M229.1,242.1v4.8h8.2v2.7h-11.5v-17.1h11.5v2.7h-8.2v4.3h7v2.6H229.1z"/>
	<path d="M70.9,278.4V271h-4.8v7.4h-3.3v-17.1h3.3v7h4.8v-7h3.3v17.1H70.9z"/>
	<path d="M89,272.6c0,1-0.1,1.8-0.4,2.5s-0.6,1.4-1.1,1.9c-0.5,0.5-1.1,0.9-1.8,1.2s-1.5,0.4-2.4,0.4c-0.9,0-1.6-0.1-2.3-0.4
		s-1.3-0.7-1.8-1.2s-0.9-1.1-1.1-1.9s-0.4-1.6-0.4-2.5l0-11.3h3.3l0,11.3c0,0.6,0.1,1.1,0.2,1.5s0.3,0.8,0.5,1.1
		c0.2,0.3,0.4,0.5,0.7,0.6s0.6,0.2,1,0.2c0.4,0,0.8-0.1,1.1-0.2s0.6-0.3,0.8-0.6c0.2-0.3,0.4-0.6,0.5-1.1s0.2-0.9,0.2-1.5l0-11.3H89
		L89,272.6z"/>
	<path d="M103.8,275.7v2.7H92.5v-17.1h3.3v14.4H103.8z"/>
	<path d="M110.1,270.9v4.8h8.2v2.7h-11.5v-17.1h11.5v2.7h-8.2v4.3h7v2.6H110.1z"/>
	<path d="M144.6,278.4l-4.7-11v11h-3.3v-17.1h3.3l4.7,11l0-11h3.3v17.1H144.6z"/>
	<path d="M154.8,274.8l-1,3.6h-3.5l5.6-17.1h3l5.5,17.1h-3.5l-1-3.6H154.8z M159.1,272l-1.7-6.3l-1.8,6.3H159.1z"/>
	<path d="M172.2,264v14.4h-3.3V264h-5.2v-2.7h13.8v2.7H172.2z"/>
	<path d="M191.3,272.6c0,1-0.1,1.8-0.4,2.5s-0.6,1.4-1.1,1.9c-0.5,0.5-1.1,0.9-1.8,1.2s-1.5,0.4-2.4,0.4c-0.9,0-1.6-0.1-2.3-0.4
		s-1.3-0.7-1.8-1.2s-0.9-1.1-1.1-1.9s-0.4-1.6-0.4-2.5l0-11.3h3.3l0,11.3c0,0.6,0.1,1.1,0.2,1.5s0.3,0.8,0.5,1.1
		c0.2,0.3,0.4,0.5,0.7,0.6s0.6,0.2,1,0.2c0.4,0,0.8-0.1,1.1-0.2s0.6-0.3,0.8-0.6c0.2-0.3,0.4-0.6,0.5-1.1s0.2-0.9,0.2-1.5l0-11.3
		h3.3L191.3,272.6z"/>
	<path d="M198,272v6.4h-3.3v-17.1h5.7c0.9,0,1.8,0.1,2.6,0.3s1.4,0.5,2,1c0.5,0.4,1,1,1.2,1.6s0.4,1.4,0.4,2.2
		c0,0.6-0.1,1.2-0.2,1.6s-0.3,0.9-0.6,1.3c-0.3,0.4-0.6,0.7-1,1s-0.8,0.5-1.3,0.8l3.7,7v0.2h-3.5l-3.2-6.4H198z M200.4,269.3
		c0.5,0,1-0.1,1.3-0.2s0.7-0.4,0.9-0.6c0.2-0.2,0.4-0.5,0.5-0.8s0.2-0.6,0.2-1c0-0.5-0.1-0.9-0.2-1.2s-0.3-0.6-0.6-0.9
		c-0.2-0.2-0.5-0.4-0.9-0.5s-0.8-0.2-1.2-0.2H198v5.3H200.4z"/>
	<path d="M213.5,274.8l-1,3.6H209l5.6-17.1h3l5.5,17.1h-3.5l-1-3.6H213.5z M217.8,272l-1.7-6.3l-1.8,6.3H217.8z"/>
	<path d="M236.7,275.7v2.7h-11.3v-17.1h3.3v14.4H236.7z"/>
</g>
<g>
	<path d="M90.6,133.2v-5.5c0-2.7-2.2-5-5-5h-49c-2.7,0-5,2.2-5,5v5.5c-3.5,0-6.3,2.8-6.3,6.3v58.8c0,3.5,2.8,6.3,6.3,6.3h58.8
		c3.5,0,6.3-2.8,6.3-6.3v-58.8C96.8,136.1,94,133.3,90.6,133.2z M85.6,127.8v5.4h-49l0-5.4H85.6z M91.8,198.4c0,0.7-0.6,1.3-1.3,1.3
		H31.7c-0.7,0-1.3-0.6-1.3-1.3v-58.8c0-0.7,0.6-1.3,1.3-1.3h58.8c0.7,0,1.3,0.6,1.3,1.3V198.4z"/>
	<path d="M179.5,89.6V73.7c0-2.7-2.2-5-5-5h-49c-2.7,0-5,2.2-5,5v15.9c-3.5,0-6.3,2.8-6.3,6.3v81.6c0,3.5,2.8,6.3,6.3,6.3v15.9
		c0,2.7,2.2,5,5,5h49c2.7,0,5-2.2,5-5v-15.9c3.5,0,6.3-2.8,6.3-6.3V95.9C185.7,92.4,182.9,89.6,179.5,89.6z M174.5,73.7v15.9h-49
		l0-15.9H174.5z M125.5,199.7v-15.9h49l0,15.9H125.5z M180.7,177.5c0,0.7-0.6,1.3-1.3,1.3h-58.8c-0.7,0-1.3-0.6-1.3-1.3V95.9
		c0-0.7,0.6-1.3,1.3-1.3h58.8c0.7,0,1.3,0.6,1.3,1.3V177.5z"/>
	<g>
		<path d="M268.3,87.1h-15.1l2.6-18.9l0-31.7H222v31.3l2.6,19.2h-15.1c-3.5,0-6.3,2.8-6.3,6.3v54.4c0,3.5,2.8,6.3,6.3,6.3h15.1
			L222,173l0,31.7h33.8v-31.3l-2.6-19.2h15.1c3.5,0,6.3-2.8,6.3-6.3V93.4C274.6,89.9,271.8,87.1,268.3,87.1z M227,67.7V41.6h23.8
			v26.1l-2.7,19.4h-18.5L227,67.7z M209.5,92.1h15.8h27.2h15.8c0.7,0,1.3,0.6,1.3,1.3v9.2h-61.4v-9.2
			C208.2,92.7,208.7,92.1,209.5,92.1z M269.6,105.6v30.1h-61.4v-30.1H269.6z M250.8,173.5v26.1H227v-26.1l2.7-19.4h18.5L250.8,173.5
			z M268.3,149.2h-15.8h-27.2h-15.8c-0.7,0-1.3-0.6-1.3-1.3v-9.2h61.4v9.2C269.6,148.6,269,149.2,268.3,149.2z"/>
		<path d="M238.9,45.6c-5.6,0-10.1,4.5-10.1,10.1c0,5.6,4.5,10.1,10.1,10.1S249,61.3,249,55.7C249,50.2,244.5,45.6,238.9,45.6z
			 M238.9,62.9c-3.9,0-7.1-3.2-7.1-7.1c0-3.9,3.2-7.1,7.1-7.1s7.1,3.2,7.1,7.1C246,59.7,242.8,62.9,238.9,62.9z"/>
		<path d="M238.9,195.8c5.6,0,10.1-4.5,10.1-10.1s-4.5-10.1-10.1-10.1s-10.1,4.5-10.1,10.1S233.3,195.8,238.9,195.8z M238.9,178.6
			c3.9,0,7.1,3.2,7.1,7.1s-3.2,7.1-7.1,7.1s-7.1-3.2-7.1-7.1S235,178.6,238.9,178.6z"/>
	</g>
</g>
</svg>
