<?xml version="1.0" encoding="utf-8"?>
<!-- Generator: Adobe Illustrator 27.0.0, SVG Export Plug-In . SVG Version: 6.00 Build 0)  -->
<svg version="1.1" id="Capa_1" xmlns="http://www.w3.org/2000/svg" xmlns:xlink="http://www.w3.org/1999/xlink" x="0px" y="0px"
	 viewBox="0 0 300 300" style="enable-background:new 0 0 300 300;" xml:space="preserve">
<style type="text/css">
	.st0{enable-background:new    ;}
</style>
<g>
	<path d="M26.9,134.8h34.7v-6.3h60.1v6.2H147v-2.8h58.5v2.8h35.6v-2.2l7.1,1.6v-2.4l2.6-1.2l3.9,1.8l3.8-1.7
		c2.2,2.2,5.2,3.5,8.5,3.5c6.6,0,12-5.4,12-12c0-6.6-5.4-12-12-12c-3.3,0-6.3,1.3-8.5,3.5l-3.9-1.8l-3.9,1.8l-2.6-1.2V110l-7.1,1.6
		v-2.2h-35.6v2.8h-58.5v-2.8h-25.3v6.4h-60v-6.4H26.9c-3.4,0-6.1,2.7-6.1,6.1v13.2C20.8,132,23.6,134.8,26.9,134.8z M267.1,114.8
		c4,0,7.3,3.3,7.3,7.3s-3.3,7.3-7.3,7.3s-7.3-3.3-7.3-7.3C259.8,118.1,263,114.8,267.1,114.8z M245.4,113.5v17l-4.2-1v-15
		L245.4,113.5z M210.4,114.1h26v15.8h-26V114.1z M205.6,115v14h-58.5v-14H205.6z M126.5,114.1h15.8v15.8h-15.8V114.1z M121.8,118.6
		v7H61.6v-7H121.8z M56.8,130h-22v-15.9h22.1V130H56.8z M25.6,115.5c0-0.6,0.5-1.3,1.3-1.3h5V130h-5c-0.6,0-1.3-0.5-1.3-1.3V115.5z"
		/>
	<path d="M267.1,128.4c3.5,0,6.3-2.8,6.3-6.3s-2.8-6.3-6.3-6.3s-6.3,2.8-6.3,6.3C260.7,125.5,263.6,128.4,267.1,128.4z M267.1,116.7
		c3,0,5.4,2.4,5.4,5.4s-2.4,5.4-5.4,5.4s-5.4-2.4-5.4-5.4S264.1,116.7,267.1,116.7z"/>
	<path d="M267.1,156.5c-3.3,0-6.3,1.3-8.5,3.5l-3.9-1.8l-3.9,1.8l-2.6-1.2v-2.4l-7.1,1.6v-2.2h-35.6v2.8H147v-2.8h-25.3v0.1H52.9
		v-0.1l-0.4,0.1h-4.4v0.9l-8,1.7v2.2c-2.2-2.6-5.5-4.3-9.2-4.3c-6.6,0-12,5.4-12,12s5.4,12,12,12c3.7,0,7-1.7,9.2-4.3v2.2l8,1.7v1
		h78.4v-0.1h20.6v-2.8h58.5v2.8h35.6v-2.2l7.1,1.6v-2.4l2.6-1.2l3.9,1.8l3.8-1.7c2.2,2.2,5.2,3.5,8.5,3.5c6.6,0,12-5.4,12-12
		C279.1,161.9,273.7,156.5,267.1,156.5z M30.9,175.8c-4,0-7.3-3.3-7.3-7.3s3.3-7.3,7.3-7.3s7.3,3.3,7.3,7.3
		C38.2,172.5,35,175.8,30.9,175.8z M44.9,174.6v-12.2l3.3-0.7v13.6L44.9,174.6z M52.9,160.7h68.8v15.8H52.9V160.7z M142.3,176.4
		h-15.8v-15.8h15.8V176.4z M147.1,175.5v-14.1h58.5v14.1H147.1z M236.4,176.4h-26v-15.8h26V176.4z M245.4,177l-4.2-1v-15l4.2-1V177z
		 M267.1,175.8c-4,0-7.3-3.3-7.3-7.3s3.3-7.3,7.3-7.3s7.3,3.3,7.3,7.3C274.3,172.5,271.1,175.8,267.1,175.8z"/>
	<path d="M267.1,162.2c-3.5,0-6.3,2.8-6.3,6.3s2.8,6.3,6.3,6.3s6.3-2.8,6.3-6.3S270.5,162.2,267.1,162.2z M267.1,173.9
		c-3,0-5.4-2.4-5.4-5.4s2.4-5.4,5.4-5.4s5.4,2.4,5.4,5.4C272.4,171.5,270,173.9,267.1,173.9z"/>
	<path d="M30.9,162.2c-3.5,0-6.3,2.8-6.3,6.3s2.8,6.3,6.3,6.3s6.3-2.8,6.3-6.3C37.3,165,34.4,162.2,30.9,162.2z M30.9,173.9
		c-3,0-5.4-2.4-5.4-5.4s2.4-5.4,5.4-5.4s5.4,2.4,5.4,5.4S33.9,173.9,30.9,173.9z"/>
</g>
<g class="st0">
	<path d="M70.1,247.8l3.2-17h4.3l3.2,17h-3.5l-0.6-3.6h-2.5l-0.6,3.6H70.1z M74.6,242h1.8l-0.9-6.6L74.6,242z"/>
	<path d="M82.4,247.8l0.3-17h4l1.9,9.9l2-9.9h3.9l0.3,17h-2.7l-0.3-11.3l-2,11.3h-2.4l-2.1-11.4l-0.3,11.4H82.4z"/>
	<path d="M102.2,248.1c-1.3,0-2.3-0.2-3-0.7s-1.3-1.1-1.6-1.9c-0.3-0.8-0.5-1.8-0.5-3v-6.3c0-1.2,0.2-2.2,0.5-3
		c0.3-0.8,0.9-1.5,1.6-1.9c0.7-0.4,1.8-0.7,3-0.7c1.3,0,2.3,0.2,3.1,0.7c0.7,0.4,1.3,1.1,1.6,1.9c0.3,0.8,0.5,1.8,0.5,3v6.3
		c0,1.2-0.2,2.2-0.5,3c-0.3,0.8-0.9,1.5-1.6,1.9S103.4,248.1,102.2,248.1z M102.2,245.4c0.4,0,0.7-0.1,0.9-0.3
		c0.2-0.2,0.3-0.4,0.4-0.8c0.1-0.3,0.1-0.6,0.1-0.9v-8.2c0-0.3,0-0.7-0.1-1c-0.1-0.3-0.2-0.5-0.4-0.7c-0.2-0.2-0.5-0.3-0.9-0.3
		c-0.4,0-0.6,0.1-0.8,0.3c-0.2,0.2-0.3,0.4-0.4,0.7c-0.1,0.3-0.1,0.6-0.1,1v8.2c0,0.3,0,0.6,0.1,0.9c0,0.3,0.2,0.6,0.3,0.8
		C101.5,245.3,101.8,245.4,102.2,245.4z"/>
	<path d="M109.6,247.8v-17h4.7c1.1,0,2.1,0.1,3,0.4c0.8,0.3,1.5,0.7,2,1.4c0.5,0.7,0.7,1.6,0.7,2.8c0,0.7-0.1,1.3-0.2,1.9
		c-0.1,0.5-0.3,1-0.6,1.4c-0.3,0.4-0.7,0.7-1.3,1l2.3,8.2h-3.9l-1.9-7.6h-1.1v7.6H109.6z M113.3,238h1c0.5,0,0.9-0.1,1.2-0.3
		c0.3-0.2,0.5-0.5,0.6-0.8c0.1-0.4,0.2-0.8,0.2-1.3c0-0.7-0.1-1.3-0.4-1.7c-0.3-0.4-0.8-0.6-1.5-0.6h-1.2V238z"/>
	<path d="M123.6,247.8v-14.2H121v-2.8h8.9v2.8h-2.5v14.2H123.6z"/>
	<path d="M131.4,247.8v-17h3.8v17H131.4z"/>
	<path d="M142.1,248.1c-1.2,0-2.1-0.2-2.8-0.7c-0.7-0.5-1.2-1.2-1.4-2.1c-0.3-0.9-0.4-1.9-0.4-3.1v-5.7c0-1.2,0.2-2.2,0.5-3.1
		c0.3-0.9,0.8-1.6,1.6-2c0.7-0.5,1.8-0.7,3.1-0.7c1.3,0,2.3,0.2,3,0.6c0.7,0.4,1.2,1,1.5,1.7c0.3,0.7,0.5,1.6,0.5,2.6v1.1h-3.7v-1.4
		c0-0.4,0-0.7-0.1-1c0-0.3-0.2-0.6-0.3-0.7c-0.2-0.2-0.5-0.3-0.9-0.3c-0.4,0-0.7,0.1-0.9,0.3c-0.2,0.2-0.3,0.5-0.3,0.8
		c0,0.3-0.1,0.7-0.1,1v7.9c0,0.4,0,0.7,0.1,1.1s0.2,0.6,0.4,0.8c0.2,0.2,0.5,0.3,0.9,0.3c0.4,0,0.7-0.1,0.9-0.3
		c0.2-0.2,0.4-0.5,0.4-0.8s0.1-0.7,0.1-1.1v-2h-1.5V239h4.9v8.8h-2.5l-0.2-1.4c-0.2,0.5-0.6,0.9-1,1.2
		C143.4,247.9,142.9,248.1,142.1,248.1z"/>
	<path d="M154.8,248.1c-1.3,0-2.3-0.2-3.1-0.6s-1.2-1-1.5-1.9c-0.3-0.8-0.4-1.8-0.4-3v-11.7h3.7v12.3c0,0.4,0,0.7,0.1,1
		c0.1,0.4,0.2,0.6,0.4,0.9c0.2,0.2,0.5,0.3,0.9,0.3c0.4,0,0.7-0.1,0.9-0.3s0.3-0.5,0.3-0.9c0-0.3,0.1-0.7,0.1-1v-12.3h3.7v11.7
		c0,1.2-0.2,2.2-0.5,3c-0.3,0.8-0.8,1.4-1.5,1.9C157.1,247.8,156.1,248.1,154.8,248.1z"/>
	<path d="M161.3,247.8l3.2-17h4.3l3.2,17h-3.5l-0.6-3.6h-2.5l-0.6,3.6H161.3z M165.7,242h1.8l-0.9-6.6L165.7,242z"/>
	<path d="M173.5,247.8v-17h4.3c1.5,0,2.6,0.2,3.5,0.6s1.4,1,1.7,1.7c0.3,0.8,0.5,1.8,0.5,3.1v6.2c0,1.3-0.2,2.3-0.5,3.1
		c-0.3,0.8-0.9,1.4-1.7,1.8c-0.8,0.4-2,0.6-3.4,0.6H173.5z M177.2,245.2h0.6c0.6,0,1-0.1,1.2-0.3s0.4-0.4,0.5-0.8
		c0.1-0.3,0.1-0.8,0.1-1.3v-7.4c0-0.5,0-0.9-0.1-1.2s-0.2-0.5-0.5-0.7s-0.7-0.2-1.2-0.2h-0.6V245.2z"/>
	<path d="M190.7,248.1c-1.3,0-2.3-0.2-3-0.7s-1.3-1.1-1.6-1.9c-0.3-0.8-0.5-1.8-0.5-3v-6.3c0-1.2,0.2-2.2,0.5-3
		c0.3-0.8,0.9-1.5,1.6-1.9c0.7-0.4,1.8-0.7,3-0.7c1.3,0,2.3,0.2,3.1,0.7c0.7,0.4,1.3,1.1,1.6,1.9s0.5,1.8,0.5,3v6.3
		c0,1.2-0.2,2.2-0.5,3c-0.3,0.8-0.9,1.5-1.6,1.9S192,248.1,190.7,248.1z M190.7,245.4c0.4,0,0.7-0.1,0.9-0.3s0.3-0.4,0.4-0.8
		c0.1-0.3,0.1-0.6,0.1-0.9v-8.2c0-0.3,0-0.7-0.1-1c-0.1-0.3-0.2-0.5-0.4-0.7s-0.5-0.3-0.9-0.3c-0.4,0-0.6,0.1-0.8,0.3
		c-0.2,0.2-0.3,0.4-0.4,0.7c-0.1,0.3-0.1,0.6-0.1,1v8.2c0,0.3,0,0.6,0.1,0.9c0,0.3,0.2,0.6,0.3,0.8
		C190,245.3,190.3,245.4,190.7,245.4z"/>
	<path d="M198.1,247.8v-17h4.7c1.1,0,2.1,0.1,3,0.4c0.8,0.3,1.5,0.7,2,1.4c0.5,0.7,0.7,1.6,0.7,2.8c0,0.7-0.1,1.3-0.2,1.9
		c-0.1,0.5-0.3,1-0.6,1.4s-0.7,0.7-1.3,1l2.3,8.2h-3.9l-1.9-7.6h-1.1v7.6H198.1z M201.9,238h1c0.5,0,0.9-0.1,1.2-0.3
		c0.3-0.2,0.5-0.5,0.6-0.8c0.1-0.4,0.2-0.8,0.2-1.3c0-0.7-0.1-1.3-0.4-1.7s-0.8-0.6-1.5-0.6h-1.2V238z"/>
	<path d="M210.6,247.8v-17h7.6v2.6h-3.9v4.2h3v2.6h-3v5.1h3.9v2.5H210.6z"/>
	<path d="M224.5,248.1c-1.1,0-2-0.2-2.7-0.6c-0.7-0.4-1.3-1-1.6-1.8c-0.4-0.8-0.6-1.8-0.6-3.1l3.2-0.5c0,0.7,0.1,1.3,0.2,1.8
		c0.1,0.4,0.3,0.8,0.5,1c0.2,0.2,0.5,0.3,0.8,0.3c0.4,0,0.6-0.1,0.8-0.4c0.1-0.3,0.2-0.5,0.2-0.8c0-0.7-0.2-1.3-0.5-1.8
		c-0.3-0.5-0.8-1-1.4-1.5l-1.5-1.3c-0.6-0.5-1.2-1.2-1.6-1.9c-0.4-0.7-0.7-1.5-0.7-2.6c0-1.4,0.4-2.5,1.3-3.3c0.9-0.8,2-1.1,3.5-1.1
		c0.9,0,1.6,0.2,2.2,0.5c0.6,0.3,1,0.7,1.3,1.2s0.5,1,0.6,1.6c0.1,0.6,0.2,1.1,0.2,1.6l-3.2,0.4c0-0.5,0-0.9-0.1-1.3
		c0-0.4-0.2-0.7-0.3-0.9s-0.4-0.3-0.7-0.3c-0.4,0-0.6,0.1-0.8,0.4s-0.2,0.6-0.2,0.9c0,0.6,0.2,1.1,0.5,1.5c0.3,0.4,0.7,0.8,1.2,1.2
		l1.4,1.2c0.7,0.6,1.4,1.3,1.9,2.1s0.8,1.8,0.8,3c0,0.8-0.2,1.5-0.5,2.2s-0.9,1.2-1.5,1.5C226.2,247.9,225.4,248.1,224.5,248.1z"/>
</g>
</svg>
