<svg id="Capa_1" data-name="Capa 1" xmlns="http://www.w3.org/2000/svg" viewBox="0 0 300 300"><path d="M60,236.28a5.11,5.11,0,0,0-1.69-1,6.46,6.46,0,0,0-2.22-.36H50.91v15h2.9v-5.51h2.24a6.71,6.71,0,0,0,2.22-.35,4.94,4.94,0,0,0,1.69-1A4.17,4.17,0,0,0,61,241.64a4.58,4.58,0,0,0,.37-1.86,5,5,0,0,0-.37-2A4.45,4.45,0,0,0,60,236.28Zm-1.63,4.39a2,2,0,0,1-.44.74,2.18,2.18,0,0,1-.77.5,2.69,2.69,0,0,1-1.07.19H53.81v-4.81h2.24a2.69,2.69,0,0,1,1.07.2,2.14,2.14,0,0,1,.77.54,2,2,0,0,1,.44.79,3.1,3.1,0,0,1,.15,1A2.57,2.57,0,0,1,58.33,240.67Z"/><path d="M76.32,243a4,4,0,0,0,.86-.89,4.2,4.2,0,0,0,.54-1.15,5,5,0,0,0,.19-1.45,4.79,4.79,0,0,0-.38-2,3.91,3.91,0,0,0-1.1-1.41,4.93,4.93,0,0,0-1.73-.86,8,8,0,0,0-2.26-.3h-5v15h2.9v-5.61h2.2L75.32,250h3.11v-.14l-3.23-6.2A5.16,5.16,0,0,0,76.32,243Zm-1.45-2.4a2,2,0,0,1-.41.69,2,2,0,0,1-.83.55,3.32,3.32,0,0,1-1.18.2H70.3v-4.71h2.14a3.48,3.48,0,0,1,1.06.15,2.07,2.07,0,0,1,.78.41,1.82,1.82,0,0,1,.54.76,2.87,2.87,0,0,1,.18,1.06A2.77,2.77,0,0,1,74.87,240.56Z"/><path d="M94,237.77a6,6,0,0,0-.79-1.23,4.57,4.57,0,0,0-1.06-.95,5.05,5.05,0,0,0-1.37-.63,5.62,5.62,0,0,0-1.62-.22,5.77,5.77,0,0,0-1.59.21,4.72,4.72,0,0,0-1.32.62,5.24,5.24,0,0,0-1.06,1,6.91,6.91,0,0,0-.78,1.29,8.06,8.06,0,0,0-.5,1.64,10.27,10.27,0,0,0-.17,1.88v2.18a10.06,10.06,0,0,0,.15,1.77,7.9,7.9,0,0,0,.44,1.54,5.73,5.73,0,0,0,.8,1.39,5.07,5.07,0,0,0,1.07,1.05,5.26,5.26,0,0,0,1.35.64,5.52,5.52,0,0,0,1.62.22,5.46,5.46,0,0,0,1.54-.2,4.79,4.79,0,0,0,2.49-1.59A6.85,6.85,0,0,0,94,247a8.06,8.06,0,0,0,.5-1.62,9,9,0,0,0,.18-1.84v-2.18a9.87,9.87,0,0,0-.19-1.93A7.62,7.62,0,0,0,94,237.77Zm-2.19,5.78a9.2,9.2,0,0,1-.06,1.07,6,6,0,0,1-.17.95,4.09,4.09,0,0,1-.39,1,2.66,2.66,0,0,1-.59.73,2.21,2.21,0,0,1-.64.36,2.47,2.47,0,0,1-.79.12,2.3,2.3,0,0,1-.81-.13,2,2,0,0,1-.64-.39,2.39,2.39,0,0,1-.52-.72,4.19,4.19,0,0,1-.33-1,6.38,6.38,0,0,1-.15-.94c0-.33,0-.68,0-1v-2.2c0-.39,0-.76,0-1.11a6.81,6.81,0,0,1,.15-1,4,4,0,0,1,.37-1,2.51,2.51,0,0,1,.6-.72,1.88,1.88,0,0,1,.58-.3,2.39,2.39,0,0,1,.73-.1,2.65,2.65,0,0,1,.77.11,2.28,2.28,0,0,1,.62.32,2.71,2.71,0,0,1,.61.72,4,4,0,0,1,.41,1,6.7,6.7,0,0,1,.18,1,9.48,9.48,0,0,1,.06,1.1Z"/><path d="M110.53,238.05a7.17,7.17,0,0,0-.9-1.21,5.27,5.27,0,0,0-1.16-.93,6.16,6.16,0,0,0-1.65-.72,7.54,7.54,0,0,0-1.95-.25H101v15h4a7.12,7.12,0,0,0,1.88-.25,6,6,0,0,0,1.61-.71,5.35,5.35,0,0,0,1.16-1,7.22,7.22,0,0,0,.92-1.27,7.48,7.48,0,0,0,.64-1.7,8.38,8.38,0,0,0,.22-2v-1.24a8.39,8.39,0,0,0-.24-2A7.32,7.32,0,0,0,110.53,238.05Zm-2,5a8.47,8.47,0,0,1-.09,1.28,5.3,5.3,0,0,1-.29,1.08,4.08,4.08,0,0,1-.54,1,3,3,0,0,1-.7.69,3.13,3.13,0,0,1-.85.39,3.55,3.55,0,0,1-1,.14h-1.11V237.29h1a3.76,3.76,0,0,1,1,.12,3.13,3.13,0,0,1,1.67,1.08,4,4,0,0,1,.59,1,5.38,5.38,0,0,1,.29,1.07,8.09,8.09,0,0,1,.09,1.23Z"/><path d="M124.77,234.94v9.95a5.44,5.44,0,0,1-.15,1.29,2.51,2.51,0,0,1-.44.93,1.61,1.61,0,0,1-.67.54,2.27,2.27,0,0,1-.93.18,1.94,1.94,0,0,1-.86-.17,1.55,1.55,0,0,1-.63-.51,2.82,2.82,0,0,1-.42-.94,6.32,6.32,0,0,1-.15-1.32v-9.95h-2.89v9.95a6.56,6.56,0,0,0,.35,2.25,4.59,4.59,0,0,0,1,1.65,4.15,4.15,0,0,0,1.56,1,5.76,5.76,0,0,0,2,.35,6.25,6.25,0,0,0,2.15-.35,4.25,4.25,0,0,0,1.6-1,4.71,4.71,0,0,0,1-1.65,7,7,0,0,0,.34-2.24v-9.95Z"/><path d="M136.84,240.2a6.12,6.12,0,0,1,.2-1,4,4,0,0,1,.47-1.07,2.06,2.06,0,0,1,.71-.7,2,2,0,0,1,.55-.22,2.48,2.48,0,0,1,.63-.07,3,3,0,0,1,1.1.17,2,2,0,0,1,.77.5,2.34,2.34,0,0,1,.46.84,5.46,5.46,0,0,1,.2,1.18h2.88a7.17,7.17,0,0,0-.49-2.12,4.65,4.65,0,0,0-1.07-1.58,4.6,4.6,0,0,0-1.65-1,6.27,6.27,0,0,0-2.2-.35,5.55,5.55,0,0,0-1.56.21,5.08,5.08,0,0,0-1.34.6,5.92,5.92,0,0,0-1.22,1.13,6,6,0,0,0-.86,1.53,7.07,7.07,0,0,0-.43,1.52,9.61,9.61,0,0,0-.15,1.73v2a10.77,10.77,0,0,0,.16,1.84,8.11,8.11,0,0,0,.46,1.58,6.31,6.31,0,0,0,.76,1.32,4.93,4.93,0,0,0,1,1,4.71,4.71,0,0,0,1.42.7,5.91,5.91,0,0,0,1.72.24,6.32,6.32,0,0,0,2.14-.34,4.76,4.76,0,0,0,2.79-2.53,5.77,5.77,0,0,0,.49-2.05h-2.89a4.11,4.11,0,0,1-.23,1.17,2,2,0,0,1-.51.79,1.93,1.93,0,0,1-.77.46,3.54,3.54,0,0,1-1,.14,2.66,2.66,0,0,1-.77-.1,1.7,1.7,0,0,1-.62-.3,2,2,0,0,1-.46-.46,3,3,0,0,1-.35-.64,5.64,5.64,0,0,1-.3-1.24,11,11,0,0,1-.1-1.6v-2A11.78,11.78,0,0,1,136.84,240.2Z"/><polygon points="157.63 249.96 157.63 237.3 162.26 237.3 162.26 234.94 150.15 234.94 150.15 237.3 154.72 237.3 154.72 249.96 157.63 249.96"/><path d="M177.71,237.77a6,6,0,0,0-.79-1.23,4.62,4.62,0,0,0-1.07-.95,5,5,0,0,0-1.36-.63,6.14,6.14,0,0,0-3.22,0,4.85,4.85,0,0,0-1.32.62,4.94,4.94,0,0,0-1,1,6,6,0,0,0-.78,1.29,7.47,7.47,0,0,0-.5,1.64,9.46,9.46,0,0,0-.17,1.88v2.18a10.06,10.06,0,0,0,.15,1.77,7.26,7.26,0,0,0,.44,1.54,5.71,5.71,0,0,0,.79,1.39,5.31,5.31,0,0,0,1.07,1.05,5.1,5.1,0,0,0,3,.86,5.41,5.41,0,0,0,1.54-.2,5.2,5.2,0,0,0,1.32-.56,5,5,0,0,0,1.17-1,6.05,6.05,0,0,0,.87-1.36,8.07,8.07,0,0,0,.51-1.62,9.83,9.83,0,0,0,.17-1.84v-2.18a9.16,9.16,0,0,0-.19-1.93A7.61,7.61,0,0,0,177.71,237.77Zm-2.2,5.78a9.2,9.2,0,0,1-.06,1.07,5,5,0,0,1-.17.95,4.08,4.08,0,0,1-.38,1,2.66,2.66,0,0,1-.59.73,2.35,2.35,0,0,1-.64.36,2.53,2.53,0,0,1-.8.12,2.3,2.3,0,0,1-.81-.13,2,2,0,0,1-.63-.39,2.39,2.39,0,0,1-.52-.72,4.2,4.2,0,0,1-.34-1,5.3,5.3,0,0,1-.14-.94c0-.33,0-.68,0-1v-2.2c0-.39,0-.76,0-1.11a6.81,6.81,0,0,1,.15-1,4,4,0,0,1,.38-1,2.48,2.48,0,0,1,.59-.72,2,2,0,0,1,.58-.3,2.39,2.39,0,0,1,.73-.1,2.65,2.65,0,0,1,.77.11,2.14,2.14,0,0,1,.62.32,2.54,2.54,0,0,1,.61.72,4,4,0,0,1,.41,1,4.77,4.77,0,0,1,.18,1,9.48,9.48,0,0,1,.06,1.1Z"/><path d="M193.43,242.46a7.25,7.25,0,0,0-1.29-.71,11.24,11.24,0,0,0-1.48-.53,12.26,12.26,0,0,1-1.29-.42,4.39,4.39,0,0,1-1-.51,2,2,0,0,1-.62-.6,1.46,1.46,0,0,1-.21-.77,1.74,1.74,0,0,1,.16-.75,1.69,1.69,0,0,1,.47-.6,2.59,2.59,0,0,1,.76-.39,3.56,3.56,0,0,1,1-.13,3.06,3.06,0,0,1,1.1.17,2.35,2.35,0,0,1,.79.46,2.12,2.12,0,0,1,.47.74,2.74,2.74,0,0,1,.18.92h2.83a4.36,4.36,0,0,0-.4-1.85,4.48,4.48,0,0,0-1.09-1.47,5.09,5.09,0,0,0-1.68-.94,6.38,6.38,0,0,0-2.15-.34,7.11,7.11,0,0,0-2.1.29,5.29,5.29,0,0,0-1.68.84,3.92,3.92,0,0,0-1.11,1.32,3.67,3.67,0,0,0-.41,1.72,3.87,3.87,0,0,0,.31,1.53,3.93,3.93,0,0,0,.9,1.28,6.49,6.49,0,0,0,1.54,1.06,11.13,11.13,0,0,0,2.19.82,8.68,8.68,0,0,1,1.35.47,4.18,4.18,0,0,1,.88.55,1.83,1.83,0,0,1,.47.67,2,2,0,0,1,.14.75,1.6,1.6,0,0,1-.17.73,1.55,1.55,0,0,1-.47.58,2.34,2.34,0,0,1-.76.37,3.56,3.56,0,0,1-1,.13,4.86,4.86,0,0,1-1.19-.14,2.46,2.46,0,0,1-.93-.46,2.1,2.1,0,0,1-.61-.79,3.08,3.08,0,0,1-.23-1.17h-2.85a4.38,4.38,0,0,0,.45,2,4.89,4.89,0,0,0,1.22,1.5,5.68,5.68,0,0,0,1.91,1,7.77,7.77,0,0,0,2.23.33,7.86,7.86,0,0,0,2.11-.27,4.81,4.81,0,0,0,1.67-.81,3.79,3.79,0,0,0,1.1-1.29,4.09,4.09,0,0,0-.13-3.78A5.27,5.27,0,0,0,193.43,242.46Z"/><path d="M224.36,249.71A6,6,0,0,0,226,249a5.35,5.35,0,0,0,1.16-1,7.76,7.76,0,0,0,.92-1.27,8,8,0,0,0,.64-1.7,8.38,8.38,0,0,0,.22-2v-1.24a8.39,8.39,0,0,0-.24-2,6.94,6.94,0,0,0-.69-1.75,6.62,6.62,0,0,0-.89-1.21,5.27,5.27,0,0,0-1.16-.93,6.16,6.16,0,0,0-1.65-.72,7.54,7.54,0,0,0-1.95-.25h-3.88v15h4A7.17,7.17,0,0,0,224.36,249.71Zm-3-12.42h1a3.81,3.81,0,0,1,1,.12,3.15,3.15,0,0,1,.82.34,3.31,3.31,0,0,1,.85.74,4,4,0,0,1,.59,1,5.38,5.38,0,0,1,.29,1.07,8.09,8.09,0,0,1,.09,1.23v1.26a8.47,8.47,0,0,1-.09,1.28,5.3,5.3,0,0,1-.29,1.08,4.08,4.08,0,0,1-.54,1,3.08,3.08,0,0,1-.71.69,2.94,2.94,0,0,1-.84.39,3.55,3.55,0,0,1-1,.14h-1.12Z"/><polygon points="238.15 243.38 244.31 243.38 244.31 241.09 238.15 241.09 238.15 237.3 245.32 237.3 245.32 234.94 235.24 234.94 235.24 249.96 245.36 249.96 245.36 247.62 238.15 247.62 238.15 243.38"/><polygon points="58.12 266.44 53.87 266.44 53.87 260.29 50.99 260.29 50.99 275.3 53.87 275.3 53.87 268.79 58.12 268.79 58.12 275.3 60.99 275.3 60.99 260.29 58.12 260.29 58.12 266.44"/><path d="M74.91,260.29v9.95a5.42,5.42,0,0,1-.15,1.28,2.51,2.51,0,0,1-.43.93,1.7,1.7,0,0,1-.68.54,2.27,2.27,0,0,1-.93.18,1.94,1.94,0,0,1-.86-.17,1.55,1.55,0,0,1-.63-.51,2.76,2.76,0,0,1-.42-.93,5.75,5.75,0,0,1-.14-1.32l0-9.95H67.75v9.95a6.79,6.79,0,0,0,.35,2.24,4.5,4.5,0,0,0,1,1.65,4.15,4.15,0,0,0,1.56,1,5.55,5.55,0,0,0,2,.35,6,6,0,0,0,2.15-.35,4.13,4.13,0,0,0,1.6-1,4.4,4.4,0,0,0,1-1.65,6.7,6.7,0,0,0,.34-2.23v-9.95Z"/><polygon points="87.5 260.29 84.6 260.29 84.6 275.3 94.54 275.3 94.54 272.96 87.5 272.96 87.5 260.29"/><polygon points="103.78 268.72 109.95 268.72 109.95 266.43 103.78 266.43 103.78 262.65 110.96 262.65 110.96 260.29 100.88 260.29 100.88 275.3 110.99 275.3 110.99 272.96 103.78 272.96 103.78 268.72"/><polygon points="141.49 269.93 137.34 260.29 134.42 260.29 134.42 275.3 137.34 275.3 137.34 265.62 141.52 275.3 144.4 275.3 144.4 260.29 141.5 260.29 141.49 269.93"/><path d="M155.17,260.29l-4.91,15h3.05l.89-3.14h4.5l.88,3.14h3l-4.83-15Zm-.26,9.41,1.57-5.53L158,269.7Z"/><polygon points="165.78 262.65 170.35 262.65 170.35 275.3 173.26 275.3 173.26 262.65 177.89 262.65 177.89 260.29 165.78 260.29 165.78 262.65"/><path d="M190.86,260.29v9.95a6,6,0,0,1-.15,1.28,2.51,2.51,0,0,1-.44.93,1.67,1.67,0,0,1-.67.54,2.32,2.32,0,0,1-.94.18,1.93,1.93,0,0,1-.85-.17,1.55,1.55,0,0,1-.63-.51,2.42,2.42,0,0,1-.42-.93,6.32,6.32,0,0,1-.15-1.32v-9.95h-2.9v9.95a6.54,6.54,0,0,0,.36,2.24,4.62,4.62,0,0,0,1,1.65,4.27,4.27,0,0,0,1.57,1,5.53,5.53,0,0,0,2,.35,6,6,0,0,0,2.15-.35,4.17,4.17,0,0,0,1.61-1,4.38,4.38,0,0,0,1-1.65,6.69,6.69,0,0,0,.35-2.23v-9.95Z"/><path d="M209.37,268.31a4.31,4.31,0,0,0,.86-.9,3.93,3.93,0,0,0,.54-1.15,5,5,0,0,0,.19-1.45,4.83,4.83,0,0,0-.38-2,3.91,3.91,0,0,0-1.1-1.41,4.93,4.93,0,0,0-1.73-.86,8,8,0,0,0-2.26-.29h-5v15h2.9v-5.61h2.2l2.82,5.61h3.11v-.13l-3.23-6.2A6.12,6.12,0,0,0,209.37,268.31Zm-1.45-2.41a2.12,2.12,0,0,1-.41.7,2,2,0,0,1-.83.55,3.56,3.56,0,0,1-1.18.19h-2.15v-4.7h2.14a3.45,3.45,0,0,1,1.06.14,2.22,2.22,0,0,1,.78.41,1.82,1.82,0,0,1,.54.76,2.91,2.91,0,0,1,.18,1.06A2.73,2.73,0,0,1,207.92,265.9Z"/><path d="M221.69,260.29l-4.91,15h3.05l.88-3.14h4.51l.88,3.14h3.05l-4.83-15Zm-.26,9.41,1.57-5.53,1.54,5.53Z"/><polygon points="237.83 260.29 234.93 260.29 234.93 275.3 244.87 275.3 244.87 272.96 237.83 272.96 237.83 260.29"/><path d="M101.26,150.26a3.69,3.69,0,0,0-3.69-3.69H94.46v-8.11a5.3,5.3,0,0,0-5.31-5.3H42.49a5.3,5.3,0,0,0-5.3,5.3v8.11H34.08a3.69,3.69,0,0,0-3.69,3.69v57.09A3.69,3.69,0,0,0,34.08,211H97.57a3.69,3.69,0,0,0,3.69-3.69Zm-54.07-7.1H84.46v3.41H47.19ZM91.26,201H40.39V156.57H91.26Z"/><path d="M185.43,180.94V105.33a5,5,0,0,0-5-5h-1.83V80.18a5.06,5.06,0,0,0-5.06-5.06H126.43a5.06,5.06,0,0,0-5.06,5.06v20.17h-1.83a5,5,0,0,0-5,5v75.61a5,5,0,0,0,5,5h1.83v20.17a5.06,5.06,0,0,0,5.06,5.06h47.14a5.06,5.06,0,0,0,5.06-5.06V185.91h1.83A5,5,0,0,0,185.43,180.94ZM131.37,85.12h37.26v15.23H131.37Zm37.26,116H131.37V185.91h37.26Zm6.8-25.23H124.57V110.35h50.86Z"/><path d="M264.51,96.19H250.23L254.61,84V50.26a5,5,0,0,0-5.05-5H218.79a5,5,0,0,0-5,5V84l4.38,12.15H203.84a5.1,5.1,0,0,0-5.1,5.1v53.77a5.1,5.1,0,0,0,5.1,5.1h14.28l-4.38,12.14v33.49a5.35,5.35,0,0,0,5.35,5.34h30.17a5.35,5.35,0,0,0,5.35-5.34V172.3l-4.38-12.14h14.28a5.1,5.1,0,0,0,5.1-5.1V101.29A5.1,5.1,0,0,0,264.51,96.19Zm-40.77-41h20.87V82.3l-5,13.89H228.75l-5-13.89Zm20.87,145.92H223.74V174.05l5-13.89H239.6l5,13.89Zm15-51H208.74v-5.32h50.87Zm0-8.32H208.74V114.51h50.87Zm0-30.33H208.74v-5.32h50.87Z"/><path d="M242.72,65.54a8.55,8.55,0,1,0-8.54,8.54A8.55,8.55,0,0,0,242.72,65.54Zm-14.09,0a5.55,5.55,0,1,1,5.55,5.54A5.55,5.55,0,0,1,228.63,65.54Z"/><path d="M225.63,190.81a8.55,8.55,0,1,0,8.55-8.55A8.55,8.55,0,0,0,225.63,190.81Zm14.09,0a5.55,5.55,0,1,1-5.54-5.55A5.55,5.55,0,0,1,239.72,190.81Z"/></svg>