<svg id="Capa_1" data-name="Capa 1" xmlns="http://www.w3.org/2000/svg" viewBox="0 0 300 300"><path d="M76.62,242.83a7.94,7.94,0,0,0-1.29-.71,11.24,11.24,0,0,0-1.48-.53,12.26,12.26,0,0,1-1.29-.42,4.86,4.86,0,0,1-1-.5,2.12,2.12,0,0,1-.62-.61,1.44,1.44,0,0,1-.21-.77,1.7,1.7,0,0,1,.16-.74,1.73,1.73,0,0,1,.47-.61,2.35,2.35,0,0,1,.76-.38,3.23,3.23,0,0,1,1-.14,3.06,3.06,0,0,1,1.1.17,2.21,2.21,0,0,1,.79.47,2,2,0,0,1,.47.73,2.75,2.75,0,0,1,.18.93h2.83a4.37,4.37,0,0,0-1.49-3.32,4.93,4.93,0,0,0-1.68-1,6.38,6.38,0,0,0-2.15-.34,7.45,7.45,0,0,0-2.1.29,5.29,5.29,0,0,0-1.68.84,4,4,0,0,0-1.11,1.32,3.67,3.67,0,0,0-.41,1.72,3.87,3.87,0,0,0,.31,1.53,3.93,3.93,0,0,0,.9,1.28,6.49,6.49,0,0,0,1.54,1.06,11.13,11.13,0,0,0,2.19.82,9.86,9.86,0,0,1,1.35.47,3.81,3.81,0,0,1,.88.56,1.72,1.72,0,0,1,.47.66,2,2,0,0,1,.14.75,1.68,1.68,0,0,1-.17.74,1.6,1.6,0,0,1-.47.57,2.34,2.34,0,0,1-.76.37,3.56,3.56,0,0,1-1,.13,4.42,4.42,0,0,1-1.19-.14,2.46,2.46,0,0,1-.93-.46,2.1,2.1,0,0,1-.61-.79,3.07,3.07,0,0,1-.23-1.16H67.47a4.37,4.37,0,0,0,.45,2,4.77,4.77,0,0,0,1.22,1.5,5.68,5.68,0,0,0,1.91,1,7.77,7.77,0,0,0,2.23.33,7.86,7.86,0,0,0,2.11-.27,4.81,4.81,0,0,0,1.67-.81,3.79,3.79,0,0,0,1.1-1.29,4.09,4.09,0,0,0-.13-3.78A5.27,5.27,0,0,0,76.62,242.83Z"/><polygon points="84.79 237.65 87.65 237.65 87.65 248 84.79 248 84.79 250.33 93.47 250.33 93.47 248 90.54 248 90.54 237.65 93.47 237.65 93.47 235.31 84.79 235.31 84.79 237.65"/><path d="M103.31,250.19a7.72,7.72,0,0,0,2.23.33,7.86,7.86,0,0,0,2.11-.27,4.9,4.9,0,0,0,1.67-.81,3.79,3.79,0,0,0,1.1-1.29,3.86,3.86,0,0,0,.39-1.76,3.82,3.82,0,0,0-.52-2,5.27,5.27,0,0,0-1.41-1.54,8.88,8.88,0,0,0-1.29-.71,11.24,11.24,0,0,0-1.48-.53,12.26,12.26,0,0,1-1.29-.42,5.26,5.26,0,0,1-1-.5,2.21,2.21,0,0,1-.61-.61,1.44,1.44,0,0,1-.21-.77,1.7,1.7,0,0,1,.16-.74,1.73,1.73,0,0,1,.47-.61,2.26,2.26,0,0,1,.76-.38,3.23,3.23,0,0,1,1-.14,3.06,3.06,0,0,1,1.1.17,2.21,2.21,0,0,1,.79.47,2,2,0,0,1,.47.73,3.34,3.34,0,0,1,.18.93h2.82a4.32,4.32,0,0,0-1.48-3.32,4.93,4.93,0,0,0-1.68-1,6.38,6.38,0,0,0-2.15-.34,7.45,7.45,0,0,0-2.1.29,5.29,5.29,0,0,0-1.68.84,3.88,3.88,0,0,0-1.11,1.32,3.87,3.87,0,0,0-.1,3.25,3.93,3.93,0,0,0,.9,1.28,6.49,6.49,0,0,0,1.54,1.06,11.13,11.13,0,0,0,2.19.82,9.86,9.86,0,0,1,1.35.47,3.81,3.81,0,0,1,.88.56,1.72,1.72,0,0,1,.47.66,2,2,0,0,1,.14.75,1.68,1.68,0,0,1-.17.74,1.6,1.6,0,0,1-.47.57,2.34,2.34,0,0,1-.76.37,3.56,3.56,0,0,1-1,.13,4.54,4.54,0,0,1-1.2-.14,2.41,2.41,0,0,1-.92-.46,2.1,2.1,0,0,1-.61-.79,3.07,3.07,0,0,1-.23-1.16H99.73a4.37,4.37,0,0,0,.45,2,4.64,4.64,0,0,0,1.22,1.5A5.68,5.68,0,0,0,103.31,250.19Z"/><polygon points="123.61 250.33 123.61 237.68 128.24 237.68 128.24 235.31 116.13 235.31 116.13 237.68 120.7 237.68 120.7 250.33 123.61 250.33"/><polygon points="144.22 237.68 144.22 235.31 134.14 235.31 134.14 250.33 144.26 250.33 144.26 247.99 137.05 247.99 137.05 243.75 143.21 243.75 143.21 241.46 137.05 241.46 137.05 237.68 144.22 237.68"/><polygon points="158.11 250.33 160.77 250.33 160.77 235.31 157.18 235.31 155.56 240.95 154.13 235.31 150.53 235.31 150.53 250.33 153.19 250.33 153.19 245.88 153.07 239.14 154.84 245.38 156.27 245.38 158.24 238.86 158.11 245.88 158.11 250.33"/><path d="M171.4,235.31l-4.92,15h3.05l.89-3.14h4.5l.88,3.14h3l-4.82-15Zm-.27,9.42,1.58-5.53,1.53,5.53Z"/><path d="M210.81,238.42a6.23,6.23,0,0,0-.89-1.2,5.25,5.25,0,0,0-1.16-.94,6.1,6.1,0,0,0-1.65-.71,7.18,7.18,0,0,0-2-.26h-3.89v15h4a6.78,6.78,0,0,0,1.88-.25,5.84,5.84,0,0,0,1.61-.71,5.35,5.35,0,0,0,1.16-1,6.82,6.82,0,0,0,.91-1.27,7,7,0,0,0,.64-1.7,8.37,8.37,0,0,0,.23-2v-1.24a8.39,8.39,0,0,0-.24-2A6.94,6.94,0,0,0,210.81,238.42Zm-2,5a7.31,7.31,0,0,1-.1,1.28,5.31,5.31,0,0,1-.28,1.08,4.36,4.36,0,0,1-.54,1,3.25,3.25,0,0,1-.71.68,2.94,2.94,0,0,1-.84.39,3.61,3.61,0,0,1-1,.14h-1.12V237.66h1a3.81,3.81,0,0,1,1,.12,3.13,3.13,0,0,1,1.67,1.08,4,4,0,0,1,.59,1,5.39,5.39,0,0,1,.28,1.07,7,7,0,0,1,.1,1.23Z"/><polygon points="220.98 243.75 227.14 243.75 227.14 241.46 220.98 241.46 220.98 237.68 228.15 237.68 228.15 235.31 218.07 235.31 218.07 250.33 228.18 250.33 228.18 247.99 220.98 247.99 220.98 243.75"/><polygon points="101.4 275.67 104.3 275.67 104.3 269.45 110.74 269.45 110.74 267.1 104.3 267.1 104.3 263.02 111.54 263.02 111.54 260.66 101.4 260.66 101.4 275.67"/><path d="M126.63,268.68a4.31,4.31,0,0,0,.86-.9,4.2,4.2,0,0,0,.54-1.15,5,5,0,0,0,.19-1.45,4.83,4.83,0,0,0-.38-2,3.91,3.91,0,0,0-1.1-1.41A5.06,5.06,0,0,0,125,261a7.87,7.87,0,0,0-2.25-.29h-5v15h2.9v-5.61h2.2l2.82,5.61h3.11v-.13l-3.23-6.2A6.47,6.47,0,0,0,126.63,268.68Zm-1.46-2.4a2,2,0,0,1-.4.69,2.12,2.12,0,0,1-.83.55,3.32,3.32,0,0,1-1.18.19h-2.15V263h2.14a3.49,3.49,0,0,1,1.06.14,2.22,2.22,0,0,1,.78.41,1.89,1.89,0,0,1,.54.76,2.91,2.91,0,0,1,.18,1.06A2.58,2.58,0,0,1,125.17,266.28Z"/><polygon points="137.55 269.09 143.72 269.09 143.72 266.8 137.55 266.8 137.55 263.02 144.73 263.02 144.73 260.66 134.64 260.66 134.64 275.67 144.76 275.67 144.76 273.33 137.55 273.33 137.55 269.09"/><polygon points="158.08 270.3 153.94 260.66 151.02 260.66 151.02 275.67 153.94 275.67 153.94 265.99 158.11 275.67 161 275.67 161 260.66 158.09 260.66 158.08 270.3"/><path d="M177.59,263.48a6,6,0,0,0-.79-1.23,4.58,4.58,0,0,0-1.07-.94,4.73,4.73,0,0,0-1.36-.64,5.73,5.73,0,0,0-1.63-.22,5.41,5.41,0,0,0-1.59.22,4.7,4.7,0,0,0-1.32.62,4.65,4.65,0,0,0-1.05,1,6,6,0,0,0-.78,1.29,7.64,7.64,0,0,0-.5,1.64,9.46,9.46,0,0,0-.17,1.88v2.19a10,10,0,0,0,.15,1.76,7.35,7.35,0,0,0,.44,1.55,5.83,5.83,0,0,0,.79,1.38,5.31,5.31,0,0,0,1.07,1.05,4.93,4.93,0,0,0,1.35.64,5.61,5.61,0,0,0,1.62.23,5.41,5.41,0,0,0,1.54-.21,5.2,5.2,0,0,0,1.32-.56,4.76,4.76,0,0,0,1.17-1,5.84,5.84,0,0,0,.87-1.36,7.78,7.78,0,0,0,.51-1.61,9.91,9.91,0,0,0,.17-1.84v-2.19a9.22,9.22,0,0,0-.19-1.93A7.79,7.79,0,0,0,177.59,263.48Zm-2.2,5.79c0,.37,0,.73,0,1.07a8.1,8.1,0,0,1-.17,1,4.44,4.44,0,0,1-.39,1,2.4,2.4,0,0,1-.59.73,1.92,1.92,0,0,1-.64.36,2.53,2.53,0,0,1-.8.12,2.3,2.3,0,0,1-.81-.13,2.12,2.12,0,0,1-.63-.38,2.57,2.57,0,0,1-.52-.73,4.28,4.28,0,0,1-.34-1,6.42,6.42,0,0,1-.14-.94c0-.34,0-.69,0-1.05v-2.21c0-.39,0-.75,0-1.1a6.59,6.59,0,0,1,.15-1,3.73,3.73,0,0,1,.38-1,2.66,2.66,0,0,1,.59-.73A1.76,1.76,0,0,1,172,263a2.38,2.38,0,0,1,.73-.11,2.35,2.35,0,0,1,.77.12,1.92,1.92,0,0,1,.62.32,2.36,2.36,0,0,1,.61.71,4.11,4.11,0,0,1,.41,1,5.26,5.26,0,0,1,.19,1c0,.35,0,.71,0,1.1Z"/><path d="M193.31,268.17a8.78,8.78,0,0,0-1.29-.71,11.22,11.22,0,0,0-1.48-.52,12.16,12.16,0,0,1-1.29-.43,4.86,4.86,0,0,1-1-.5,2,2,0,0,1-.62-.61,1.43,1.43,0,0,1-.21-.76,1.71,1.71,0,0,1,.16-.75,1.69,1.69,0,0,1,.47-.6,2.18,2.18,0,0,1,.76-.39,3.54,3.54,0,0,1,1-.14,3.3,3.3,0,0,1,1.1.17,2.13,2.13,0,0,1,.79.47,2.08,2.08,0,0,1,.47.73,2.75,2.75,0,0,1,.18.93h2.83a4.43,4.43,0,0,0-.39-1.86,4.5,4.5,0,0,0-1.1-1.46,5.06,5.06,0,0,0-1.67-.95,6.42,6.42,0,0,0-2.15-.34,7.47,7.47,0,0,0-2.11.29,5.51,5.51,0,0,0-1.68.84A4.12,4.12,0,0,0,185,262.9a3.68,3.68,0,0,0-.4,1.73,3.75,3.75,0,0,0,1.2,2.8,6.21,6.21,0,0,0,1.54,1.06,11.13,11.13,0,0,0,2.19.83,7.74,7.74,0,0,1,1.35.47,3.6,3.6,0,0,1,.88.55,1.72,1.72,0,0,1,.47.66,2,2,0,0,1,.14.75,1.56,1.56,0,0,1-.64,1.31,2.34,2.34,0,0,1-.76.37,3.54,3.54,0,0,1-1,.14,4.4,4.4,0,0,1-1.19-.15,2.52,2.52,0,0,1-.93-.45,2,2,0,0,1-.6-.8A2.88,2.88,0,0,1,187,271h-2.85a4.34,4.34,0,0,0,.45,2,4.92,4.92,0,0,0,1.22,1.51,5.71,5.71,0,0,0,1.92,1,7.67,7.67,0,0,0,2.22.34,7.8,7.8,0,0,0,2.11-.28,4.81,4.81,0,0,0,1.67-.81,3.68,3.68,0,0,0,1.1-1.29,4.09,4.09,0,0,0-.13-3.78A5.27,5.27,0,0,0,193.31,268.17Z"/><path d="M151.43,155.08a4.37,4.37,0,0,0-1.6-.56v-.12l-1.07.08a4.72,4.72,0,1,0,4.87,3.5A4.65,4.65,0,0,0,151.43,155.08Z"/><path d="M138.8,136.68a4.74,4.74,0,1,0,4.73,4.74A4.74,4.74,0,0,0,138.8,136.68Z"/><path d="M218.42,103.79a68.62,68.62,0,0,0-19.85-20.4l-.23-.14A69.45,69.45,0,0,0,162.2,71.44v-14a5,5,0,0,0-4.73-4.74c-1.63,0-10.93.7-15,1.34h0C100.81,60.91,70.6,94.91,70.6,134.89c0,1.45.06,3,.18,5a4.86,4.86,0,0,0,4.72,4.44H89.36a70,70,0,1,0,129.06-40.5Zm-138.36,31c0-38.38,31.86-69.93,72.67-72.27V83a56.64,56.64,0,0,0-35.27,16.38,50.19,50.19,0,0,0-15.13,35.46Zm139.87,6.6a60.58,60.58,0,0,1-121.1,2.87h8.24a4.86,4.86,0,0,0,4.73-4.74v-4.66c0-23.24,20.91-42.87,45.67-42.87a4.85,4.85,0,0,0,4.73-4.73V80.92a60,60,0,0,1,31.54,10.59c.29.22,9.66,7.58,15.11,14.95A60.07,60.07,0,0,1,219.93,141.42Z"/><path d="M149.12,128.38a4.58,4.58,0,0,0,2.31-.62,4.77,4.77,0,0,0-1.75-8.83l-.31,0a4.74,4.74,0,0,0-2.67.66A4.71,4.71,0,0,0,145,126,4.78,4.78,0,0,0,149.12,128.38Z"/><path d="M171.53,141.42a12.2,12.2,0,1,0-12.2,12.2A12.21,12.21,0,0,0,171.53,141.42Zm-12.2,2.73a2.74,2.74,0,1,1,2.74-2.73A2.67,2.67,0,0,1,159.33,144.15Z"/><path d="M159.33,103.08a38.34,38.34,0,1,0,38.34,38.34A38.38,38.38,0,0,0,159.33,103.08Zm0,67.21a28.87,28.87,0,1,1,28.87-28.87A28.9,28.9,0,0,1,159.33,170.29Z"/><circle cx="179.87" cy="141.42" r="4.73"/><path d="M169,154.48l-.63.08v.05a4.36,4.36,0,0,0-1.14.47,4.75,4.75,0,0,0-1.7,6.5,4.69,4.69,0,0,0,4.07,2.34,4.74,4.74,0,1,0-.59-9.44Z"/><path d="M172,119.55a4.76,4.76,0,0,0-2.38-.66h-.3a4.77,4.77,0,0,0-4.25,6,4.65,4.65,0,0,0,4.51,3.52,4.75,4.75,0,0,0,4.12-2.39,4.7,4.7,0,0,0-1.7-6.44Z"/></svg>