<?xml version="1.0" encoding="utf-8"?>
<!-- Generator: Adobe Illustrator 27.0.0, SVG Export Plug-In . SVG Version: 6.00 Build 0)  -->
<svg version="1.1" id="Capa_1" xmlns="http://www.w3.org/2000/svg" xmlns:xlink="http://www.w3.org/1999/xlink" x="0px" y="0px"
	 viewBox="0 0 300 300" style="enable-background:new 0 0 300 300;" xml:space="preserve">
<g>
	<g>
		<path d="M95,136.2v-5.1c0-2.5-2-4.6-4.6-4.6H44.9c-2.5,0-4.6,2-4.6,4.6v5.1c-3.2,0-5.8,2.6-5.8,5.8v54.5c0,3.2,2.6,5.8,5.8,5.8
			h54.5c3.2,0,5.8-2.6,5.8-5.8V142C100.7,138.9,98.1,136.3,95,136.2z M90.3,131.2v5H44.9v-5C44.9,131.2,90.3,131.2,90.3,131.2z
			 M96.1,196.7c0,0.6-0.6,1.2-1.2,1.2H40.3c-0.6,0-1.2-0.6-1.2-1.2v-54.5c0-0.6,0.6-1.2,1.2-1.2h54.5c0.6,0,1.2,0.6,1.2,1.2V196.7z"
			/>
		<path d="M177.4,95.8V81c0-2.5-2-4.6-4.6-4.6h-45.4c-2.5,0-4.6,2-4.6,4.6v14.7c-3.2,0-5.8,2.6-5.8,5.8v75.7c0,3.2,2.6,5.8,5.8,5.8
			v14.7c0,2.5,2,4.6,4.6,4.6h45.4c2.5,0,4.6-2,4.6-4.6v-14.7c3.2,0,5.8-2.6,5.8-5.8v-75.7C183.2,98.4,180.6,95.8,177.4,95.8z
			 M172.8,81v14.7h-45.4V81H172.8z M127.3,197.9v-14.7h45.4v14.7H127.3z M178.5,177.3c0,0.6-0.6,1.2-1.2,1.2h-54.5
			c-0.6,0-1.2-0.6-1.2-1.2v-75.7c0-0.6,0.6-1.2,1.2-1.2h54.5c0.6,0,1.2,0.6,1.2,1.2V177.3z"/>
		<g>
			<path d="M259.8,93.4h-14l2.4-17.5V46.5h-31.3v29l2.4,17.8h-14c-3.2,0-5.8,2.6-5.8,5.8v50.5c0,3.2,2.6,5.8,5.8,5.8h14l-2.4,17.6
				v29.4h31.3v-29l-2.4-17.8h14c3.2,0,5.8-2.6,5.8-5.8V99.3C265.6,96,263,93.4,259.8,93.4z M221.5,75.5V51.2h22.1v24.2l-2.5,18
				h-17.2L221.5,75.5z M205.2,98.1h14.7h25.2h14.7c0.6,0,1.2,0.6,1.2,1.2v8.5H204v-8.5C204,98.6,204.5,98.1,205.2,98.1z M261,110.6
				v27.9H204v-27.9H261z M243.5,173.6v24.2h-22.1v-24.2l2.5-18h17.2L243.5,173.6z M259.8,151h-14.7h-25.2h-14.7
				c-0.6,0-1.2-0.6-1.2-1.2v-8.5H261v8.5C261,150.5,260.4,151,259.8,151z"/>
			<path d="M232.5,55c-5.2,0-9.4,4.2-9.4,9.4s4.2,9.4,9.4,9.4s9.4-4.2,9.4-9.4C241.9,59.2,237.7,55,232.5,55z M232.5,71
				c-3.6,0-6.6-3-6.6-6.6s3-6.6,6.6-6.6s6.6,3,6.6,6.6C239.1,68,236.1,71,232.5,71z"/>
			<path d="M232.5,194.3c5.2,0,9.4-4.2,9.4-9.4s-4.2-9.4-9.4-9.4s-9.4,4.2-9.4,9.4S227.3,194.3,232.5,194.3z M232.5,178.3
				c3.6,0,6.6,3,6.6,6.6s-3,6.6-6.6,6.6s-6.6-3-6.6-6.6S228.9,178.3,232.5,178.3z"/>
		</g>
	</g>
	<g>
		<path d="M19,247.6v-17h5.7c1,0,1.9,0.2,2.5,0.6c0.7,0.4,1.1,0.9,1.5,1.7c0.3,0.7,0.5,1.6,0.5,2.7c0,1.3-0.2,2.3-0.7,3
			s-1,1.2-1.8,1.4c-0.7,0.3-1.6,0.4-2.5,0.4h-1.5v7.2H19z M22.7,237.8H24c0.5,0,0.8-0.1,1-0.3s0.4-0.4,0.5-0.8s0.1-0.8,0.1-1.3
			c0-0.4,0-0.8-0.1-1.1c-0.1-0.3-0.2-0.6-0.5-0.8c-0.2-0.2-0.6-0.3-1.1-0.3h-1.2V237.8z"/>
		<path d="M30.8,247.6v-17h4.7c1.1,0,2.1,0.1,3,0.4c0.8,0.3,1.5,0.7,2,1.4c0.5,0.7,0.7,1.6,0.7,2.8c0,0.7-0.1,1.3-0.2,1.9
			c-0.1,0.5-0.3,1-0.6,1.4s-0.7,0.7-1.3,1l2.3,8.2h-3.9l-1.9-7.6h-1.1v7.6H30.8z M34.5,237.8h1c0.5,0,0.9-0.1,1.2-0.3
			c0.3-0.2,0.5-0.5,0.6-0.8c0.1-0.4,0.2-0.8,0.2-1.3c0-0.7-0.1-1.3-0.4-1.7s-0.8-0.6-1.5-0.6h-1.2V237.8z"/>
		<path d="M48.1,247.9c-1.3,0-2.3-0.2-3-0.7s-1.3-1.1-1.6-1.9c-0.3-0.8-0.5-1.8-0.5-3v-6.3c0-1.2,0.2-2.2,0.5-3
			c0.3-0.8,0.9-1.5,1.6-1.9c0.7-0.4,1.8-0.7,3-0.7c1.3,0,2.3,0.2,3.1,0.7c0.7,0.4,1.3,1.1,1.6,1.9s0.5,1.8,0.5,3v6.3
			c0,1.2-0.2,2.2-0.5,3c-0.3,0.8-0.9,1.5-1.6,1.9S49.4,247.9,48.1,247.9z M48.1,245.2c0.4,0,0.7-0.1,0.9-0.3s0.3-0.4,0.4-0.8
			c0.1-0.3,0.1-0.6,0.1-0.9V235c0-0.3,0-0.7-0.1-1c-0.1-0.3-0.2-0.5-0.4-0.7s-0.5-0.3-0.9-0.3c-0.4,0-0.6,0.1-0.8,0.3
			c-0.2,0.2-0.3,0.4-0.4,0.7c-0.1,0.3-0.1,0.6-0.1,1v8.2c0,0.3,0,0.6,0.1,0.9c0,0.3,0.2,0.6,0.3,0.8
			C47.4,245.1,47.7,245.2,48.1,245.2z"/>
		<path d="M55.5,247.6v-17h4.3c1.5,0,2.6,0.2,3.5,0.6s1.4,1,1.7,1.7c0.3,0.8,0.5,1.8,0.5,3.1v6.2c0,1.3-0.2,2.3-0.5,3.1
			c-0.3,0.8-0.9,1.4-1.7,1.8c-0.8,0.4-2,0.6-3.4,0.6H55.5z M59.3,245h0.6c0.6,0,1-0.1,1.2-0.3s0.4-0.4,0.5-0.8
			c0.1-0.3,0.1-0.8,0.1-1.3v-7.4c0-0.5,0-0.9-0.1-1.2s-0.2-0.5-0.5-0.7s-0.7-0.2-1.2-0.2h-0.6V245z"/>
		<path d="M72.7,247.9c-1.3,0-2.3-0.2-3.1-0.6s-1.2-1-1.5-1.9c-0.3-0.8-0.4-1.8-0.4-3v-11.7h3.7v12.3c0,0.4,0,0.7,0.1,1
			c0.1,0.4,0.2,0.6,0.4,0.9c0.2,0.2,0.5,0.3,0.9,0.3c0.4,0,0.7-0.1,0.9-0.3s0.3-0.5,0.3-0.9c0-0.3,0.1-0.7,0.1-1v-12.3h3.7v11.7
			c0,1.2-0.2,2.2-0.5,3c-0.3,0.8-0.8,1.4-1.5,1.9C75.1,247.6,74,247.9,72.7,247.9z"/>
		<path d="M85,247.9c-1.3,0-2.3-0.2-3.1-0.7c-0.8-0.5-1.3-1.1-1.6-2c-0.3-0.8-0.5-1.8-0.5-3v-6.1c0-1.2,0.2-2.2,0.5-3
			c0.3-0.8,0.8-1.5,1.6-2c0.7-0.5,1.8-0.7,3.1-0.7c1.3,0,2.2,0.2,3,0.6c0.7,0.4,1.2,1,1.5,1.7s0.4,1.6,0.4,2.6v1.5h-3.7V235
			c0-0.3,0-0.7-0.1-1c0-0.3-0.1-0.6-0.3-0.8S85.4,233,85,233c-0.4,0-0.7,0.1-0.9,0.3s-0.3,0.5-0.4,0.8c0,0.3-0.1,0.6-0.1,1v8
			c0,0.4,0,0.7,0.1,1c0.1,0.3,0.2,0.6,0.4,0.8c0.2,0.2,0.5,0.3,0.8,0.3c0.4,0,0.7-0.1,0.8-0.3c0.2-0.2,0.3-0.5,0.3-0.8
			s0.1-0.7,0.1-1v-1.8h3.7v1.5c0,1-0.1,1.8-0.4,2.6c-0.3,0.8-0.8,1.4-1.5,1.8C87.3,247.6,86.3,247.9,85,247.9z"/>
		<path d="M93.5,247.6v-14.2H91v-2.8h8.9v2.8h-2.5v14.2H93.5z"/>
		<path d="M106,247.9c-1.3,0-2.3-0.2-3-0.7s-1.3-1.1-1.6-1.9c-0.3-0.8-0.5-1.8-0.5-3v-6.3c0-1.2,0.2-2.2,0.5-3s0.9-1.5,1.6-1.9
			c0.7-0.4,1.8-0.7,3-0.7c1.3,0,2.3,0.2,3.1,0.7c0.7,0.4,1.3,1.1,1.6,1.9c0.3,0.8,0.5,1.8,0.5,3v6.3c0,1.2-0.2,2.2-0.5,3
			c-0.3,0.8-0.9,1.5-1.6,1.9S107.3,247.9,106,247.9z M106,245.2c0.4,0,0.7-0.1,0.9-0.3c0.2-0.2,0.3-0.4,0.4-0.8s0.1-0.6,0.1-0.9V235
			c0-0.3,0-0.7-0.1-1c-0.1-0.3-0.2-0.5-0.4-0.7c-0.2-0.2-0.5-0.3-0.9-0.3c-0.4,0-0.6,0.1-0.8,0.3s-0.3,0.4-0.4,0.7
			c-0.1,0.3-0.1,0.6-0.1,1v8.2c0,0.3,0,0.6,0.1,0.9s0.2,0.6,0.3,0.8S105.7,245.2,106,245.2z"/>
		<path d="M118,247.9c-1.1,0-2-0.2-2.7-0.6c-0.7-0.4-1.3-1-1.6-1.8s-0.6-1.8-0.6-3.1l3.2-0.5c0,0.7,0.1,1.3,0.2,1.8
			c0.1,0.4,0.3,0.8,0.5,1c0.2,0.2,0.5,0.3,0.8,0.3c0.4,0,0.6-0.1,0.8-0.4s0.2-0.5,0.2-0.8c0-0.7-0.2-1.3-0.5-1.8
			c-0.3-0.5-0.8-1-1.4-1.5l-1.5-1.3c-0.6-0.5-1.2-1.2-1.6-1.9c-0.4-0.7-0.7-1.5-0.7-2.6c0-1.4,0.4-2.5,1.3-3.3
			c0.9-0.8,2-1.1,3.5-1.1c0.9,0,1.6,0.2,2.2,0.5c0.6,0.3,1,0.7,1.3,1.2c0.3,0.5,0.5,1,0.6,1.6c0.1,0.6,0.2,1.1,0.2,1.6l-3.2,0.4
			c0-0.5,0-0.9-0.1-1.3s-0.2-0.7-0.3-0.9c-0.2-0.2-0.4-0.3-0.7-0.3c-0.3,0-0.6,0.1-0.8,0.4s-0.2,0.6-0.2,0.9c0,0.6,0.2,1.1,0.5,1.5
			c0.3,0.4,0.7,0.8,1.2,1.2l1.4,1.2c0.7,0.6,1.4,1.3,1.9,2.1c0.5,0.8,0.8,1.8,0.8,3c0,0.8-0.2,1.5-0.5,2.2c-0.4,0.7-0.9,1.2-1.5,1.5
			C119.7,247.7,118.9,247.9,118,247.9z"/>
		<path d="M129.3,247.6v-17h4.3c1.5,0,2.6,0.2,3.5,0.6c0.8,0.4,1.4,1,1.7,1.7c0.3,0.8,0.5,1.8,0.5,3.1v6.2c0,1.3-0.2,2.3-0.5,3.1
			c-0.3,0.8-0.9,1.4-1.7,1.8c-0.8,0.4-2,0.6-3.4,0.6H129.3z M133.1,245h0.6c0.6,0,1-0.1,1.2-0.3s0.4-0.4,0.5-0.8
			c0.1-0.3,0.1-0.8,0.1-1.3v-7.4c0-0.5,0-0.9-0.1-1.2s-0.2-0.5-0.5-0.7c-0.3-0.1-0.7-0.2-1.2-0.2h-0.6V245z"/>
		<path d="M141.6,247.6v-17h7.6v2.6h-3.9v4.2h3v2.6h-3v5.1h3.9v2.5H141.6z"/>
		<path d="M156.4,247.6v-17h3.8v6.9h2.6v-6.9h3.8v17h-3.8v-7.4h-2.6v7.4H156.4z"/>
		<path d="M174.1,247.9c-1.3,0-2.3-0.2-3.1-0.6c-0.7-0.4-1.2-1-1.5-1.9c-0.3-0.8-0.4-1.8-0.4-3v-11.7h3.7v12.3c0,0.4,0,0.7,0.1,1
			c0.1,0.4,0.2,0.6,0.4,0.9c0.2,0.2,0.5,0.3,0.9,0.3c0.4,0,0.7-0.1,0.9-0.3s0.3-0.5,0.3-0.9c0-0.3,0.1-0.7,0.1-1v-12.3h3.7v11.7
			c0,1.2-0.2,2.2-0.5,3c-0.3,0.8-0.8,1.4-1.5,1.9C176.4,247.6,175.4,247.9,174.1,247.9z"/>
		<path d="M181.5,247.6v-17h3.8v14.5h3.9v2.5H181.5z"/>
		<path d="M190.7,247.6v-17h7.6v2.6h-3.9v4.2h3v2.6h-3v5.1h3.9v2.5H190.7z"/>
		<path d="M205.4,247.6v-17h2.6l3.5,8.2v-8.2h3.1v17h-2.5l-3.5-8.8v8.8H205.4z"/>
		<path d="M216.4,247.6l3.2-17h4.3l3.2,17h-3.5L223,244h-2.5l-0.6,3.6H216.4z M220.9,241.8h1.8l-0.9-6.6L220.9,241.8z"/>
		<path d="M229.4,247.6v-14.2h-2.6v-2.8h8.9v2.8h-2.5v14.2H229.4z"/>
		<path d="M242.1,247.9c-1.3,0-2.3-0.2-3.1-0.6c-0.7-0.4-1.2-1-1.5-1.9c-0.3-0.8-0.4-1.8-0.4-3v-11.7h3.7v12.3c0,0.4,0,0.7,0.1,1
			c0.1,0.4,0.2,0.6,0.4,0.9c0.2,0.2,0.5,0.3,0.9,0.3c0.4,0,0.7-0.1,0.9-0.3s0.3-0.5,0.3-0.9c0-0.3,0.1-0.7,0.1-1v-12.3h3.7v11.7
			c0,1.2-0.2,2.2-0.5,3c-0.3,0.8-0.8,1.4-1.5,1.9C244.5,247.6,243.4,247.9,242.1,247.9z"/>
		<path d="M249.6,247.6v-17h4.7c1.1,0,2.1,0.1,3,0.4s1.5,0.7,2,1.4c0.5,0.7,0.7,1.6,0.7,2.8c0,0.7-0.1,1.3-0.2,1.9
			c-0.1,0.5-0.3,1-0.6,1.4c-0.3,0.4-0.7,0.7-1.3,1l2.3,8.2h-3.9l-1.9-7.6h-1.1v7.6H249.6z M253.3,237.8h1.1c0.5,0,0.9-0.1,1.2-0.3
			c0.3-0.2,0.5-0.5,0.6-0.8c0.1-0.4,0.2-0.8,0.2-1.3c0-0.7-0.1-1.3-0.4-1.7c-0.3-0.4-0.8-0.6-1.5-0.6h-1.2V237.8z"/>
		<path d="M261.4,247.6l3.2-17h4.3l3.2,17h-3.5L268,244h-2.5l-0.6,3.6H261.4z M265.8,241.8h1.8l-0.9-6.6L265.8,241.8z"/>
		<path d="M273.6,247.6v-17h3.8v14.5h3.9v2.5H273.6z"/>
	</g>
</g>
</svg>
