<?xml version="1.0" encoding="utf-8"?>
<!-- Generator: Adobe Illustrator 27.0.0, SVG Export Plug-In . SVG Version: 6.00 Build 0)  -->
<svg version="1.1" id="Capa_1" xmlns="http://www.w3.org/2000/svg" xmlns:xlink="http://www.w3.org/1999/xlink" x="0px" y="0px"
	 viewBox="0 0 300 300" style="enable-background:new 0 0 300 300;" xml:space="preserve">
<g>
	<path d="M137.4,111.7h54.2c1.3,0,2.3-1,2.3-2.3c0-1.3-1-2.3-2.3-2.3h-54.2c-1.3,0-2.3,1-2.3,2.3
		C135.1,110.7,136.1,111.7,137.4,111.7z"/>
	<path d="M191.7,193.4h-54.2c-1.3,0-2.3,1-2.3,2.3s1,2.3,2.3,2.3h54.2c1.3,0,2.3-1,2.3-2.3C194,194.5,193,193.4,191.7,193.4z"/>
	<path d="M192.7,113.6h-57.1c-6.2,0-11.2,5.1-11.2,11.2v19c0,3.6,1.7,6.8,4.4,8.9c-2.6,2.1-4.4,5.2-4.4,8.9v19
		c0,6.2,5.1,11.2,11.2,11.2h57.1c6.2,0,11.2-5.1,11.2-11.2v-19c0-3.6-1.7-6.8-4.4-8.9c2.6-2.1,4.4-5.2,4.4-8.9v-19
		C203.9,118.6,198.9,113.6,192.7,113.6z M199.3,143.8c0,3.6-2.9,6.5-6.5,6.5h-2.9c-1.3,0-2.3,1-2.3,2.3c0,1.3,1,2.3,2.3,2.3h2.9
		c3.6,0,6.5,2.9,6.5,6.5v19c0,3.6-2.9,6.5-6.5,6.5h-57.1c-3.6,0-6.5-2.9-6.5-6.5v-19c0-3.6,2.9-6.5,6.5-6.5h34.2
		c1.3,0,2.3-1,2.3-2.3c0-1.3-1-2.3-2.3-2.3h-34.2c-3.6,0-6.5-2.9-6.5-6.5v-19c0-3.6,2.9-6.5,6.5-6.5h57.1c3.6,0,6.5,2.9,6.5,6.5
		V143.8z"/>
	<path d="M183.2,150.3c-1.3,0-2.3,1-2.3,2.3c0,1.3,1,2.3,2.3,2.3c1.3,0,2.3-1,2.3-2.3C185.5,151.3,184.5,150.3,183.2,150.3z"/>
	<path d="M32,73.3h80.7c1.2,0,2.3-1,2.3-2.3c0-1.3-1-2.3-2.3-2.3h-6.3v-7c0-1.3-1-2.3-2.3-2.3c-1.3,0-2.3,1-2.3,2.3v7H42.9v-7
		c0-1.3-1-2.3-2.3-2.3c-1.3,0-2.3,1-2.3,2.3v7H32c-1.3,0-2.3,1-2.3,2.3C29.7,72.3,30.7,73.3,32,73.3z"/>
	<path d="M112.7,193.7H32c-1.3,0-2.3,1-2.3,2.3c0,1.3,1,2.3,2.3,2.3h80.7c1.2,0,2.3-1,2.3-2.3C115.1,194.7,114,193.7,112.7,193.7z"
		/>
	<path d="M113,123.8h-0.7V82.5c0-4.4-3.6-8-8-8H40.4c-4.4,0-8,3.6-8,8v41.3h-0.7c-1.3,0-2.3,1-2.3,2.3v14.7c0,1.3,1,2.3,2.3,2.3h0.7
		v41.4c0,4.4,3.6,8,8,8h63.8c4.5,0,8-3.6,8.1-8v-41.4h0.7c1.3,0,2.3-1,2.3-2.3v-14.7C115.4,124.9,114.3,123.8,113,123.8z
		 M107.7,184.6c0,1.9-1.5,3.4-3.4,3.4H40.4c-1.9,0-3.4-1.5-3.4-3.4V82.5c0-1.9,1.5-3.4,3.4-3.4h63.9c1.9,0,3.4,1.5,3.4,3.4V184.6z"
		/>
	<path d="M102.7,139.9H42.3c-0.7,0-1.4,0.7-1.4,1.4s0.7,1.4,1.4,1.4h60.4c0.7,0,1.4-0.7,1.4-1.4S103.5,139.9,102.7,139.9z"/>
	<path d="M102.7,124.8H42.3c-0.7,0-1.4,0.7-1.4,1.4c0,0.7,0.7,1.4,1.4,1.4h60.4c0.7,0,1.4-0.7,1.4-1.4
		C104.1,125.4,103.5,124.8,102.7,124.8z"/>
	<path d="M248.9,67.3c0.1-1.9-1.4-3.4-3.3-3.4h-3.1c-1.9,0-3.4,1.5-3.4,3.4v3.6h9.7V67.3z"/>
	<path d="M250.3,136.9h-19.7c-1.3,0-2.3,1-2.3,2.3s1,2.3,2.3,2.3h19.7c1.3,0,2.3-1,2.3-2.3S251.6,136.9,250.3,136.9z"/>
	<path d="M272.9,193.3h-1v-38.6c0-2.7-0.6-5.3-1.7-7.8l-2.4-5.3c-0.7-1.9-1.2-3.8-1.2-5.9V78.1c0-3.4-2.7-6.1-6.1-6.1h-32.7
		c-3.4,0-6.1,2.7-6.1,6.1v57.7c0,2.1-0.4,4-1.2,5.9L218,147c-1.1,2.4-1.7,5.1-1.7,7.8v38.5h-0.9c-1.3,0-2.3,1-2.3,2.3s1,2.3,2.3,2.3
		h0.9h55.6h0.1h0.9c1.3,0,2.3-1,2.3-2.3S274.2,193.3,272.9,193.3z M221,193.3v-38.6c0-2.1,0.4-4,1.2-5.9l2.4-5.3
		c1.1-2.4,1.7-5.1,1.7-7.8V78.1c0-0.7,0.7-1.4,1.4-1.4h32.7c0.7,0,1.4,0.7,1.4,1.4v57.7c0,2.7,0.6,5.3,1.7,7.8l2.4,5.3
		c0.7,1.9,1.2,3.8,1.2,5.9v38.5H221z"/>
	<circle cx="257.3" cy="139.3" r="2.3"/>
</g>
<g>
	<path d="M94.7,247.8V234h3.6c0.6,0,1.1,0,1.7,0.1c0.5,0.1,1,0.3,1.4,0.5c0.4,0.3,0.7,0.6,1,1.1c0.2,0.5,0.3,1.1,0.3,1.9
		c0,0.6-0.1,1-0.2,1.4c-0.2,0.4-0.4,0.7-0.7,0.9c-0.3,0.2-0.7,0.4-1.1,0.5c0.5,0.1,1,0.2,1.3,0.5c0.4,0.3,0.6,0.6,0.8,1.1
		s0.3,1,0.3,1.7c0,0.7-0.1,1.3-0.3,1.8s-0.5,0.9-0.8,1.3c-0.4,0.3-0.8,0.6-1.3,0.7c-0.5,0.2-1.1,0.2-1.8,0.2H94.7z M97.7,239.5h0.6
		c0.5,0,0.8-0.1,1.1-0.2c0.2-0.1,0.4-0.3,0.5-0.6c0.1-0.3,0.1-0.6,0.1-1c0-0.4-0.1-0.7-0.2-0.9c-0.1-0.2-0.3-0.4-0.6-0.6
		c-0.3-0.1-0.6-0.2-1-0.2h-0.5V239.5z M97.7,245.7h0.6c0.7,0,1.1-0.2,1.4-0.5c0.3-0.3,0.4-0.8,0.4-1.5c0-0.5-0.1-0.9-0.2-1.2
		c-0.1-0.3-0.3-0.5-0.6-0.7c-0.3-0.1-0.6-0.2-1.1-0.2h-0.6V245.7z"/>
	<path d="M108.6,248c-1,0-1.8-0.2-2.4-0.5c-0.6-0.4-1-0.9-1.3-1.6c-0.3-0.7-0.4-1.5-0.4-2.4v-5.1c0-1,0.1-1.8,0.4-2.4
		c0.3-0.7,0.7-1.2,1.3-1.5c0.6-0.4,1.4-0.5,2.4-0.5c1,0,1.9,0.2,2.5,0.5c0.6,0.4,1,0.9,1.3,1.5c0.3,0.7,0.4,1.5,0.4,2.4v5.1
		c0,0.9-0.1,1.8-0.4,2.4c-0.3,0.7-0.7,1.2-1.3,1.6C110.5,247.8,109.7,248,108.6,248z M108.6,245.9c0.3,0,0.5-0.1,0.7-0.2
		c0.1-0.2,0.2-0.4,0.3-0.6c0-0.2,0.1-0.5,0.1-0.8v-6.6c0-0.3,0-0.5-0.1-0.8c0-0.2-0.1-0.4-0.3-0.6c-0.1-0.2-0.4-0.2-0.7-0.2
		c-0.3,0-0.5,0.1-0.7,0.2c-0.1,0.2-0.2,0.4-0.3,0.6c0,0.2-0.1,0.5-0.1,0.8v6.6c0,0.3,0,0.5,0.1,0.8s0.1,0.5,0.3,0.6
		C108.1,245.8,108.3,245.9,108.6,245.9z"/>
	<path d="M114.6,247.8V234h3v11.7h3.2v2.1H114.6z"/>
	<path d="M125.7,248c-0.9,0-1.6-0.2-2.2-0.5c-0.6-0.3-1-0.8-1.3-1.4c-0.3-0.6-0.5-1.5-0.5-2.5l2.6-0.4c0,0.6,0.1,1.1,0.2,1.4
		c0.1,0.4,0.2,0.6,0.4,0.8c0.2,0.2,0.4,0.2,0.6,0.2c0.3,0,0.5-0.1,0.6-0.3c0.1-0.2,0.1-0.4,0.1-0.7c0-0.6-0.1-1-0.4-1.4
		c-0.3-0.4-0.6-0.8-1.1-1.2l-1.2-1c-0.5-0.4-1-0.9-1.3-1.5c-0.4-0.6-0.5-1.3-0.5-2.1c0-1.2,0.3-2.1,1-2.7c0.7-0.6,1.6-0.9,2.8-0.9
		c0.7,0,1.3,0.1,1.8,0.4c0.4,0.2,0.8,0.6,1,1s0.4,0.8,0.5,1.3c0.1,0.4,0.1,0.9,0.1,1.3l-2.6,0.3c0-0.4,0-0.8-0.1-1.1
		c0-0.3-0.1-0.5-0.2-0.7c-0.1-0.2-0.3-0.2-0.6-0.2c-0.3,0-0.5,0.1-0.6,0.4c-0.1,0.2-0.2,0.5-0.2,0.7c0,0.5,0.1,0.9,0.4,1.2
		c0.2,0.3,0.6,0.7,1,1l1.1,1c0.6,0.5,1.1,1.1,1.5,1.7c0.4,0.6,0.6,1.4,0.6,2.4c0,0.6-0.1,1.2-0.4,1.8c-0.3,0.5-0.7,0.9-1.2,1.2
		C127.1,247.9,126.4,248,125.7,248z"/>
	<path d="M130,247.8l2.6-13.8h3.5l2.6,13.8h-2.8l-0.5-2.9h-2l-0.5,2.9H130z M133.6,243.1h1.5l-0.7-5.4L133.6,243.1z"/>
	<path d="M143.5,248c-0.9,0-1.6-0.2-2.2-0.5c-0.6-0.3-1-0.8-1.3-1.4c-0.3-0.6-0.5-1.5-0.5-2.5l2.6-0.4c0,0.6,0.1,1.1,0.2,1.4
		c0.1,0.4,0.2,0.6,0.4,0.8c0.2,0.2,0.4,0.2,0.6,0.2c0.3,0,0.5-0.1,0.6-0.3c0.1-0.2,0.1-0.4,0.1-0.7c0-0.6-0.1-1-0.4-1.4
		c-0.3-0.4-0.6-0.8-1.1-1.2l-1.2-1c-0.5-0.4-1-0.9-1.3-1.5c-0.4-0.6-0.5-1.3-0.5-2.1c0-1.2,0.3-2.1,1-2.7c0.7-0.6,1.6-0.9,2.8-0.9
		c0.7,0,1.3,0.1,1.8,0.4c0.4,0.2,0.8,0.6,1,1s0.4,0.8,0.5,1.3c0.1,0.4,0.1,0.9,0.1,1.3l-2.6,0.3c0-0.4,0-0.8-0.1-1.1
		c0-0.3-0.1-0.5-0.2-0.7c-0.1-0.2-0.3-0.2-0.6-0.2c-0.3,0-0.5,0.1-0.6,0.4c-0.1,0.2-0.2,0.5-0.2,0.7c0,0.5,0.1,0.9,0.4,1.2
		c0.2,0.3,0.6,0.7,1,1l1.1,1c0.6,0.5,1.1,1.1,1.5,1.7c0.4,0.6,0.6,1.4,0.6,2.4c0,0.6-0.1,1.2-0.4,1.8c-0.3,0.5-0.7,0.9-1.2,1.2
		C144.9,247.9,144.3,248,143.5,248z"/>
	<path d="M152.7,247.8V234h3.5c1.2,0,2.1,0.1,2.8,0.5c0.7,0.3,1.1,0.8,1.4,1.4c0.3,0.6,0.4,1.5,0.4,2.5v5c0,1-0.1,1.9-0.4,2.5
		c-0.3,0.7-0.7,1.1-1.4,1.4s-1.6,0.5-2.8,0.5H152.7z M155.7,245.7h0.5c0.5,0,0.8-0.1,1-0.2c0.2-0.1,0.3-0.3,0.4-0.6
		c0.1-0.3,0.1-0.6,0.1-1v-6c0-0.4,0-0.7-0.1-1s-0.2-0.4-0.4-0.5s-0.5-0.2-1-0.2h-0.5V245.7z"/>
	<path d="M162.7,247.8V234h6.2v2.1h-3.1v3.4h2.4v2.1h-2.4v4.1h3.2v2.1H162.7z"/>
	<path d="M173.9,247.8l2.6-13.8h3.5l2.6,13.8h-2.8l-0.5-2.9h-2l-0.5,2.9H173.9z M177.6,243.1h1.5l-0.7-5.4L177.6,243.1z"/>
	<path d="M183.9,247.8V234h3v13.8H183.9z"/>
	<path d="M189,247.8V234h3.8c0.9,0,1.7,0.1,2.4,0.3c0.7,0.2,1.2,0.6,1.6,1.1c0.4,0.5,0.6,1.3,0.6,2.2c0,0.6,0,1.1-0.1,1.5
		c-0.1,0.4-0.3,0.8-0.5,1.1c-0.2,0.3-0.6,0.6-1,0.8l1.9,6.7h-3.1l-1.5-6.2H192v6.2H189z M192,239.9h0.8c0.4,0,0.8-0.1,1-0.2
		s0.4-0.4,0.5-0.7c0.1-0.3,0.1-0.6,0.1-1c0-0.6-0.1-1-0.3-1.4c-0.2-0.3-0.6-0.5-1.2-0.5h-1V239.9z"/>
	<path d="M199.1,247.8V234h6.2v2.1h-3.1v3.4h2.4v2.1h-2.4v4.1h3.2v2.1H199.1z"/>
</g>
</svg>
