<?xml version="1.0" encoding="utf-8"?>
<!-- Generator: Adobe Illustrator 27.0.0, SVG Export Plug-In . SVG Version: 6.00 Build 0)  -->
<svg version="1.1" id="Capa_1" xmlns="http://www.w3.org/2000/svg" xmlns:xlink="http://www.w3.org/1999/xlink" x="0px" y="0px"
	 viewBox="0 0 300 300" style="enable-background:new 0 0 300 300;" xml:space="preserve">
<g>
	<path d="M94.1,176.5c-21.5-3.8-37.5-21.7-38.8-43.6l-0.1-2.3h-1.8c-1.1-5.3-5.8-9.2-11.4-9.2s-10.3,3.9-11.4,9.2h-2.7l0.2,2.6
		c0.4,6.8,1.8,13.5,4,19.9h-7.2l1.2,3.4c9,24.3,29.2,43,54.1,50.1l3.2,0.9v-6.6c2.1,0.5,4.2,1,6.3,1.4c0.7,0.1,1.5,0.2,2.2,0.2
		c3.1,0,6.1-1.1,8.6-3.1c2.9-2.5,4.6-6.1,4.6-9.9C104.9,183.1,100.4,177.7,94.1,176.5z M78.2,200.8c-20.7-6.9-37.6-22.6-46.2-42.7
		h1.8c3.2,7.5,7.6,14.4,13.1,20.5c8.5,9.5,19.4,16.6,31.3,20.7V200.8z M97.1,195.5c-1.9,1.6-4.3,2.2-6.7,1.8c-2.4-0.4-4.8-1-7.1-1.6
		v0l-1.7-0.6c-19.9-6.3-35.8-21-43.6-40.4l-0.6-1.6h-0.1c-2-5.5-3.4-11.4-4-17.5h2.1v-2.5c0-3.7,3-6.7,6.7-6.7s6.7,3,6.7,6.7v2.5
		h1.9c2.4,23.1,19.7,41.8,42.8,45.9c3.8,0.7,6.6,4,6.6,7.9C99.9,191.8,98.9,194,97.1,195.5z"/>
	<path d="M47.9,151.8c-2.3,0-4.2,1.9-4.2,4.2s1.9,4.2,4.2,4.2s4.2-1.9,4.2-4.2S50.2,151.8,47.9,151.8z M47.9,157.2
		c-0.7,0-1.2-0.5-1.2-1.2s0.5-1.2,1.2-1.2s1.2,0.5,1.2,1.2S48.6,157.2,47.9,157.2z"/>
	<path d="M92.2,184c-3.1,0-5.7,2.6-5.7,5.7s2.6,5.7,5.7,5.7s5.7-2.6,5.7-5.7S95.3,184,92.2,184z M92.2,192.4c-1.5,0-2.7-1.2-2.7-2.7
		s1.2-2.7,2.7-2.7s2.7,1.2,2.7,2.7S93.7,192.4,92.2,192.4z"/>
	<path d="M192.6,56.3c-38.4,0-69.6,31.2-69.6,69.6s31.2,69.6,69.6,69.6c38.4,0,69.6-31.2,69.6-69.6S231,56.3,192.6,56.3z
		 M192.6,190.5c-35.6,0-64.6-29-64.6-64.6c0-35.6,29-64.6,64.6-64.6c35.6,0,64.6,29,64.6,64.6C257.2,161.5,228.2,190.5,192.6,190.5z
		"/>
	<path d="M192.6,45.6c-44.4,0-80.6,36.2-80.6,80.6c0,44.4,36.2,80.6,80.6,80.6c44.4,0,80.6-36.2,80.6-80.6
		C273.2,81.8,237,45.6,192.6,45.6z M192.6,203.8c-42.8,0-77.6-34.8-77.6-77.6c0-42.8,34.8-77.6,77.6-77.6
		c42.8,0,77.6,34.8,77.6,77.6C270.2,169,235.4,203.8,192.6,203.8z"/>
	<path d="M192.6,52.2c-40.7,0-73.8,33.1-73.8,73.8s33.1,73.8,73.8,73.8c40.7,0,73.8-33.1,73.8-73.8S233.3,52.2,192.6,52.2z
		 M192.6,197.8c-39.6,0-71.8-32.2-71.8-71.8c0-39.6,32.2-71.8,71.8-71.8s71.8,32.2,71.8,71.8C264.4,165.6,232.2,197.8,192.6,197.8z"
		/>
	<path d="M192.6,84.8c-22.7,0-41.1,18.4-41.1,41.1s18.4,41.1,41.1,41.1c22.7,0,41.1-18.4,41.1-41.1S215.3,84.8,192.6,84.8z
		 M192.6,164c-21,0-38.1-17.1-38.1-38.1s17.1-38.1,38.1-38.1c21,0,38.1,17.1,38.1,38.1S213.6,164,192.6,164z"/>
	<path d="M157.5,92.6c3.4,0,6.1-2.7,6.1-6.1s-2.7-6.1-6.1-6.1s-6.1,2.7-6.1,6.1S154.1,92.6,157.5,92.6z M157.5,83.4
		c1.7,0,3.1,1.4,3.1,3.1s-1.4,3.1-3.1,3.1s-3.1-1.4-3.1-3.1S155.8,83.4,157.5,83.4z"/>
	<path d="M192.6,79.3c3.4,0,6.1-2.7,6.1-6.1s-2.7-6.1-6.1-6.1c-3.4,0-6.1,2.7-6.1,6.1S189.2,79.3,192.6,79.3z M192.6,70.1
		c1.7,0,3.1,1.4,3.1,3.1s-1.4,3.1-3.1,3.1c-1.7,0-3.1-1.4-3.1-3.1S190.9,70.1,192.6,70.1z"/>
	<path d="M139.5,121.1c-3.4,0-6.1,2.7-6.1,6.1s2.7,6.1,6.1,6.1s6.1-2.7,6.1-6.1S142.9,121.1,139.5,121.1z M139.5,130.3
		c-1.7,0-3.1-1.4-3.1-3.1s1.4-3.1,3.1-3.1s3.1,1.4,3.1,3.1S141.2,130.3,139.5,130.3z"/>
	<path d="M244.4,121.1c-3.4,0-6.1,2.7-6.1,6.1s2.7,6.1,6.1,6.1c3.4,0,6.1-2.7,6.1-6.1S247.8,121.1,244.4,121.1z M244.4,130.3
		c-1.7,0-3.1-1.4-3.1-3.1s1.4-3.1,3.1-3.1c1.7,0,3.1,1.4,3.1,3.1S246.1,130.3,244.4,130.3z"/>
	<path d="M192.6,171.3c-3.4,0-6.1,2.7-6.1,6.1c0,3.4,2.7,6.1,6.1,6.1c3.4,0,6.1-2.7,6.1-6.1C198.7,174,196,171.3,192.6,171.3z
		 M192.6,180.5c-1.7,0-3.1-1.4-3.1-3.1c0-1.7,1.4-3.1,3.1-3.1c1.7,0,3.1,1.4,3.1,3.1C195.7,179.1,194.3,180.5,192.6,180.5z"/>
	<path d="M227.6,80.4c-3.4,0-6.1,2.7-6.1,6.1s2.7,6.1,6.1,6.1c3.4,0,6.1-2.7,6.1-6.1S231,80.4,227.6,80.4z M227.6,89.6
		c-1.7,0-3.1-1.4-3.1-3.1s1.4-3.1,3.1-3.1c1.7,0,3.1,1.4,3.1,3.1S229.3,89.6,227.6,89.6z"/>
	<path d="M157.5,159.6c-3.4,0-6.1,2.7-6.1,6.1s2.7,6.1,6.1,6.1s6.1-2.7,6.1-6.1S160.9,159.6,157.5,159.6z M157.5,168.8
		c-1.7,0-3.1-1.4-3.1-3.1s1.4-3.1,3.1-3.1s3.1,1.4,3.1,3.1S159.2,168.8,157.5,168.8z"/>
	<path d="M227.6,159.6c-3.4,0-6.1,2.7-6.1,6.1s2.7,6.1,6.1,6.1c3.4,0,6.1-2.7,6.1-6.1S231,159.6,227.6,159.6z M227.6,168.8
		c-1.7,0-3.1-1.4-3.1-3.1s1.4-3.1,3.1-3.1c1.7,0,3.1,1.4,3.1,3.1S229.3,168.8,227.6,168.8z"/>
</g>
<g>
	<path d="M85.4,248c-0.9,0-1.6-0.2-2.2-0.5s-1-0.8-1.3-1.4c-0.3-0.6-0.5-1.5-0.5-2.5l2.6-0.4c0,0.6,0.1,1.1,0.2,1.4
		c0.1,0.4,0.2,0.6,0.4,0.8c0.2,0.2,0.4,0.2,0.6,0.2c0.3,0,0.5-0.1,0.6-0.3c0.1-0.2,0.1-0.4,0.1-0.7c0-0.6-0.1-1-0.4-1.4
		c-0.3-0.4-0.6-0.8-1.1-1.2l-1.2-1c-0.5-0.4-1-0.9-1.3-1.5c-0.4-0.6-0.5-1.3-0.5-2.1c0-1.2,0.3-2.1,1-2.7c0.7-0.6,1.6-0.9,2.8-0.9
		c0.7,0,1.3,0.1,1.8,0.4c0.4,0.2,0.8,0.6,1,1c0.2,0.4,0.4,0.8,0.5,1.3c0.1,0.4,0.1,0.9,0.1,1.3l-2.6,0.3c0-0.4,0-0.8-0.1-1.1
		c0-0.3-0.1-0.5-0.2-0.7s-0.3-0.2-0.6-0.2c-0.3,0-0.5,0.1-0.6,0.4s-0.2,0.5-0.2,0.7c0,0.5,0.1,0.9,0.4,1.2c0.2,0.3,0.6,0.7,1,1
		l1.1,1c0.6,0.5,1.1,1.1,1.5,1.7c0.4,0.6,0.6,1.4,0.6,2.4c0,0.6-0.1,1.2-0.4,1.8c-0.3,0.5-0.7,0.9-1.2,1.2S86.2,248,85.4,248z"/>
	<path d="M90.3,247.8V234h3v13.8H90.3z"/>
	<path d="M99,248c-0.9,0-1.6-0.2-2.2-0.5s-1-0.8-1.3-1.4c-0.3-0.6-0.5-1.5-0.5-2.5l2.6-0.4c0,0.6,0.1,1.1,0.2,1.4
		c0.1,0.4,0.2,0.6,0.4,0.8c0.2,0.2,0.4,0.2,0.6,0.2c0.3,0,0.5-0.1,0.6-0.3c0.1-0.2,0.1-0.4,0.1-0.7c0-0.6-0.1-1-0.4-1.4
		c-0.3-0.4-0.6-0.8-1.1-1.2l-1.2-1c-0.5-0.4-1-0.9-1.3-1.5c-0.4-0.6-0.5-1.3-0.5-2.1c0-1.2,0.3-2.1,1-2.7c0.7-0.6,1.6-0.9,2.8-0.9
		c0.7,0,1.3,0.1,1.8,0.4c0.4,0.2,0.8,0.6,1,1c0.2,0.4,0.4,0.8,0.5,1.3c0.1,0.4,0.1,0.9,0.1,1.3l-2.6,0.3c0-0.4,0-0.8-0.1-1.1
		c0-0.3-0.1-0.5-0.2-0.7s-0.3-0.2-0.6-0.2c-0.3,0-0.5,0.1-0.6,0.4s-0.2,0.5-0.2,0.7c0,0.5,0.1,0.9,0.4,1.2c0.2,0.3,0.6,0.7,1,1
		l1.1,1c0.6,0.5,1.1,1.1,1.5,1.7c0.4,0.6,0.6,1.4,0.6,2.4c0,0.6-0.1,1.2-0.4,1.8c-0.3,0.5-0.7,0.9-1.2,1.2S99.8,248,99,248z"/>
	<path d="M105.4,247.8v-11.5h-2.1V234h7.2v2.3h-2.1v11.5H105.4z"/>
	<path d="M111.7,247.8V234h6.2v2.1h-3.1v3.4h2.4v2.1h-2.4v4.1h3.2v2.1H111.7z"/>
	<path d="M119.2,247.8l0.2-13.8h3.3l1.5,8l1.6-8h3.1l0.2,13.8h-2.2l-0.3-9.2l-1.6,9.2h-1.9l-1.7-9.2l-0.2,9.2H119.2z"/>
	<path d="M130.6,247.8l2.6-13.8h3.5l2.6,13.8h-2.8l-0.5-2.9h-2l-0.5,2.9H130.6z M134.2,243.1h1.5l-0.7-5.4L134.2,243.1z"/>
	<path d="M144.8,247.8V234h3.5c1.2,0,2.1,0.1,2.8,0.5c0.7,0.3,1.1,0.8,1.4,1.4c0.3,0.6,0.4,1.5,0.4,2.5v5c0,1-0.1,1.9-0.4,2.5
		c-0.3,0.7-0.7,1.1-1.4,1.4s-1.6,0.5-2.8,0.5H144.8z M147.9,245.7h0.5c0.5,0,0.8-0.1,1-0.2c0.2-0.1,0.3-0.3,0.4-0.6
		c0.1-0.3,0.1-0.6,0.1-1v-6c0-0.4,0-0.7-0.1-1s-0.2-0.4-0.4-0.5s-0.5-0.2-1-0.2h-0.5V245.7z"/>
	<path d="M154.8,247.8V234h6.2v2.1h-3.1v3.4h2.4v2.1h-2.4v4.1h3.2v2.1H154.8z"/>
	<path d="M166.7,247.8V234h6v2.1h-2.9v3.5h2.5v2.1h-2.5v6.1H166.7z"/>
	<path d="M174,247.8V234h3.8c0.9,0,1.7,0.1,2.4,0.3c0.7,0.2,1.2,0.6,1.6,1.1c0.4,0.5,0.6,1.3,0.6,2.2c0,0.6,0,1.1-0.1,1.5
		c-0.1,0.4-0.3,0.8-0.5,1.1c-0.2,0.3-0.6,0.6-1,0.8l1.9,6.7h-3.1l-1.5-6.2h-0.9v6.2H174z M177.1,239.9h0.8c0.4,0,0.8-0.1,1-0.2
		s0.4-0.4,0.5-0.7c0.1-0.3,0.1-0.6,0.1-1c0-0.6-0.1-1-0.3-1.4c-0.2-0.3-0.6-0.5-1.2-0.5h-1V239.9z"/>
	<path d="M184.2,247.8V234h6.2v2.1h-3.1v3.4h2.4v2.1h-2.4v4.1h3.2v2.1H184.2z"/>
	<path d="M191.8,247.8V234h2.1l2.8,6.6V234h2.5v13.8h-2.1l-2.8-7.1v7.1H191.8z"/>
	<path d="M205.2,248c-1,0-1.8-0.2-2.4-0.5s-1-0.9-1.3-1.6c-0.3-0.7-0.4-1.5-0.4-2.4v-5.1c0-1,0.1-1.8,0.4-2.4s0.7-1.2,1.3-1.5
		c0.6-0.4,1.4-0.5,2.4-0.5c1,0,1.9,0.2,2.5,0.5c0.6,0.4,1,0.9,1.3,1.5s0.4,1.5,0.4,2.4v5.1c0,0.9-0.1,1.8-0.4,2.4
		c-0.3,0.7-0.7,1.2-1.3,1.6S206.3,248,205.2,248z M205.2,245.9c0.3,0,0.5-0.1,0.7-0.2c0.1-0.2,0.2-0.4,0.3-0.6
		c0-0.2,0.1-0.5,0.1-0.8v-6.6c0-0.3,0-0.5-0.1-0.8c0-0.2-0.1-0.4-0.3-0.6c-0.1-0.2-0.4-0.2-0.7-0.2c-0.3,0-0.5,0.1-0.7,0.2
		c-0.1,0.2-0.2,0.4-0.3,0.6c0,0.2-0.1,0.5-0.1,0.8v6.6c0,0.3,0,0.5,0.1,0.8c0,0.2,0.1,0.5,0.3,0.6
		C204.7,245.8,204.9,245.9,205.2,245.9z"/>
	<path d="M214.9,248c-0.9,0-1.6-0.2-2.2-0.5c-0.6-0.3-1-0.8-1.3-1.4c-0.3-0.6-0.5-1.5-0.5-2.5l2.6-0.4c0,0.6,0.1,1.1,0.2,1.4
		c0.1,0.4,0.2,0.6,0.4,0.8c0.2,0.2,0.4,0.2,0.6,0.2c0.3,0,0.5-0.1,0.6-0.3c0.1-0.2,0.1-0.4,0.1-0.7c0-0.6-0.1-1-0.4-1.4
		c-0.3-0.4-0.6-0.8-1.1-1.2l-1.2-1c-0.5-0.4-1-0.9-1.3-1.5c-0.4-0.6-0.5-1.3-0.5-2.1c0-1.2,0.3-2.1,1-2.7c0.7-0.6,1.6-0.9,2.8-0.9
		c0.7,0,1.3,0.1,1.8,0.4c0.4,0.2,0.8,0.6,1,1s0.4,0.8,0.5,1.3c0.1,0.4,0.1,0.9,0.1,1.3l-2.6,0.3c0-0.4,0-0.8-0.1-1.1
		c0-0.3-0.1-0.5-0.2-0.7c-0.1-0.2-0.3-0.2-0.6-0.2c-0.3,0-0.5,0.1-0.6,0.4c-0.1,0.2-0.2,0.5-0.2,0.7c0,0.5,0.1,0.9,0.4,1.2
		c0.2,0.3,0.6,0.7,1,1l1.1,1c0.6,0.5,1.1,1.1,1.5,1.7c0.4,0.6,0.6,1.4,0.6,2.4c0,0.6-0.1,1.2-0.4,1.8c-0.3,0.5-0.7,0.9-1.2,1.2
		C216.3,247.9,215.6,248,214.9,248z"/>
</g>
</svg>
