<svg id="Capa_1" data-name="Capa 1" xmlns="http://www.w3.org/2000/svg" viewBox="0 0 300 300"><polygon points="93.54 252.79 91.98 246.62 88.05 246.62 88.05 263.05 90.96 263.05 90.96 258.19 90.82 250.81 92.75 257.63 94.32 257.63 96.47 250.5 96.34 258.19 96.34 263.05 99.25 263.05 99.25 246.62 95.31 246.62 93.54 252.79"/><path d="M114.31,246.62v10.89a5.92,5.92,0,0,1-.17,1.41,2.67,2.67,0,0,1-.47,1,1.85,1.85,0,0,1-.74.59,2.54,2.54,0,0,1-1,.2,2.28,2.28,0,0,1-.94-.19,1.77,1.77,0,0,1-.69-.56,2.79,2.79,0,0,1-.45-1,6.05,6.05,0,0,1-.17-1.44V246.62h-3.17v10.89a7.12,7.12,0,0,0,.39,2.45,4.84,4.84,0,0,0,1.1,1.81,4.55,4.55,0,0,0,1.71,1.12,6.08,6.08,0,0,0,2.24.39,6.62,6.62,0,0,0,2.35-.39,4.53,4.53,0,0,0,1.75-1.13,4.81,4.81,0,0,0,1.09-1.8,7.41,7.41,0,0,0,.38-2.45V246.62Z"/><polygon points="128.06 255.85 134.81 255.85 134.81 253.35 128.06 253.35 128.06 249.21 135.91 249.21 135.91 246.62 124.88 246.62 124.88 263.05 135.95 263.05 135.95 260.49 128.06 260.49 128.06 255.85"/><polygon points="146.11 246.62 142.93 246.62 142.93 263.05 153.81 263.05 153.81 260.49 146.11 260.49 146.11 246.62"/><polygon points="163.92 246.62 160.73 246.62 160.73 263.05 171.61 263.05 171.61 260.49 163.92 260.49 163.92 246.62"/><polygon points="181.71 255.85 188.46 255.85 188.46 253.35 181.71 253.35 181.71 249.21 189.56 249.21 189.56 246.62 178.53 246.62 178.53 263.05 189.6 263.05 189.6 260.49 181.71 260.49 181.71 255.85"/><path d="M205.91,254.85a8,8,0,0,0-1.41-.78,11.8,11.8,0,0,0-1.61-.58,11.88,11.88,0,0,1-1.42-.46,5.34,5.34,0,0,1-1.07-.55,2.37,2.37,0,0,1-.67-.67,1.57,1.57,0,0,1-.23-.83,1.86,1.86,0,0,1,.18-.82,1.79,1.79,0,0,1,.51-.66,2.49,2.49,0,0,1,.83-.42,3.52,3.52,0,0,1,1.12-.16,3.6,3.6,0,0,1,1.2.19,2.57,2.57,0,0,1,.87.51,2.48,2.48,0,0,1,.51.8,3.3,3.3,0,0,1,.2,1H208a4.71,4.71,0,0,0-.43-2,4.85,4.85,0,0,0-1.2-1.6,5.46,5.46,0,0,0-1.83-1,7.06,7.06,0,0,0-2.35-.37,7.66,7.66,0,0,0-2.3.32,5.58,5.58,0,0,0-1.84.92,4.31,4.31,0,0,0-1.22,1.44,4,4,0,0,0-.44,1.89,4.22,4.22,0,0,0,.33,1.67,4.38,4.38,0,0,0,1,1.4,7.13,7.13,0,0,0,1.69,1.16,12.45,12.45,0,0,0,2.39.9,10.05,10.05,0,0,1,1.48.51,4.29,4.29,0,0,1,1,.61,1.91,1.91,0,0,1,.51.72,2,2,0,0,1,.16.82,1.67,1.67,0,0,1-.19.81,1.8,1.8,0,0,1-.51.63,2.67,2.67,0,0,1-.83.4,3.87,3.87,0,0,1-1.13.15,4.87,4.87,0,0,1-1.3-.16,2.59,2.59,0,0,1-1-.5,2.15,2.15,0,0,1-.66-.87A3.18,3.18,0,0,1,199,258H195.9a4.84,4.84,0,0,0,.49,2.22,5.44,5.44,0,0,0,1.34,1.65,6.37,6.37,0,0,0,2.09,1.08,8.41,8.41,0,0,0,2.43.36,8.51,8.51,0,0,0,2.32-.3,5.23,5.23,0,0,0,1.82-.88,4,4,0,0,0,1.21-1.42,4.11,4.11,0,0,0,.43-1.92,4.25,4.25,0,0,0-.57-2.21A5.87,5.87,0,0,0,205.91,254.85Z"/><path d="M249.4,108.09a32.17,32.17,0,0,0-20,57.39C202.62,168.82,181.18,169,150,169c-22.42,0-53.4-2-78.42-4.35a32.18,32.18,0,1,0-21.36,7.8C76.72,175.65,120.6,179,150,179c39,0,63-.31,101-6.58a32.19,32.19,0,0,0-1.56-64.35Zm-221,32.19a22.2,22.2,0,1,1,22.2,22.2A22.22,22.22,0,0,1,28.4,140.28Zm221,22.2a22.2,22.2,0,1,1,22.2-22.2A22.22,22.22,0,0,1,249.4,162.48Z"/><path d="M222.21,181.92H77.79a5,5,0,1,0,0,10H222.21a5,5,0,0,0,0-10Z"/><path d="M89.73,155A167.79,167.79,0,0,0,150,166.35,167.79,167.79,0,0,0,210.27,155a5,5,0,1,0-3.58-9.33A157.85,157.85,0,0,1,150,156.35,157.85,157.85,0,0,1,93.31,145.7,5,5,0,1,0,89.73,155Z"/><rect x="141.22" y="143.39" width="17.57" height="9.83" rx="1.76"/></svg>