<?xml version="1.0" encoding="utf-8"?>
<!-- Generator: Adobe Illustrator 27.0.0, SVG Export Plug-In . SVG Version: 6.00 Build 0)  -->
<svg version="1.1" id="Capa_1" xmlns="http://www.w3.org/2000/svg" xmlns:xlink="http://www.w3.org/1999/xlink" x="0px" y="0px"
	 viewBox="0 0 300 300" style="enable-background:new 0 0 300 300;" xml:space="preserve">
<g>
	<g>
		<path d="M277.9,196.6c-0.2,0-0.3,0-0.5,0l0,0l-61.6-7.5c-3.5-0.4-6.6-2.2-8.8-5.1c-2.1-2.9-3-6.4-2.3-9.9l8.8-50.6
			c0.3-2-0.2-4.1-1.5-5.6c-1.3-1.6-3.2-2.5-5.3-2.5h-39.2c-11.1,0-21.9-2.3-32-6.9L90.3,88.2c-4.2-1.9-8.7-2.9-13.4-2.9h-46
			c-0.3,0-0.5,0.2-0.5,0.5v3.7c0,3-2.5,5.5-5.5,5.5h-1.4c-3,0-5.5-2.5-5.5-5.5v-4.4c0-7,5.7-12.6,12.6-12.6h48.7
			c3.9,0,7.7,0.6,11.3,1.7l49.5,15.6C146.9,92,154,93,161.2,93h45.6c8.3,0,16.1,3.8,21.2,10.3c5.2,6.6,7,15,5,23.1l-11.4,46.7
			c-0.1,0.3,0,0.6,0.1,0.7c0.1,0.1,0.3,0.3,0.6,0.4l56.3,10.6c2,0.4,3.4,2.1,3.4,4.1v3.4c0,1.2-0.5,2.3-1.4,3.1
			C279.9,196.2,278.9,196.6,277.9,196.6z M30.9,80.3H77c5.4,0,10.5,1.1,15.4,3.3l45.2,20.3c9.5,4.3,19.6,6.4,30,6.4h39.2
			c3.5,0,6.8,1.5,9.1,4.2s3.2,6.2,2.6,9.7l-8.8,50.6c-0.4,2.1,0.1,4.3,1.4,6s3.2,2.9,5.4,3.1l60.6,7.4v-1.6l-55.6-10.5
			c-1.6-0.3-3-1.2-3.9-2.6c-0.9-1.4-1.2-3-0.8-4.6l11.4-46.7c1.6-6.6,0.1-13.5-4.1-18.8c-4.2-5.3-10.5-8.4-17.3-8.4h-45.6
			c-7.7,0-15.3-1.2-22.6-3.5L89.2,79c-3.2-1-6.5-1.5-9.8-1.5H30.6c-4.2,0-7.6,3.4-7.6,7.6v4.4c0,0.3,0.2,0.5,0.5,0.5h1.4
			c0.3,0,0.5-0.2,0.5-0.5v-3.7C25.4,82.8,27.8,80.3,30.9,80.3z"/>
	</g>
	<g>
		<path d="M189.2,121.2h-7.1c-0.9,0-1.6-0.7-1.6-1.6v-2.4h10.4v2.4C190.8,120.5,190.1,121.2,189.2,121.2z"/>
	</g>
	<g>
		<path d="M247.3,173.4l7,1.3c0.9,0.2,1.5,1,1.3,1.9l-0.4,2.3L245,177l0.4-2.3C245.5,173.8,246.4,173.2,247.3,173.4z"/>
	</g>
</g>
<g>
	<path d="M103.8,247.6l0.2-13.8h3.3l1.5,8l1.6-8h3.1l0.2,13.8h-2.2l-0.3-9.2l-1.6,9.2h-1.9l-1.7-9.2l-0.2,9.2H103.8z"/>
	<path d="M119.8,247.8c-1.1,0-1.9-0.2-2.5-0.5s-1-0.8-1.2-1.5c-0.2-0.7-0.4-1.5-0.4-2.4v-9.5h3v10c0,0.3,0,0.6,0.1,0.8
		c0,0.3,0.1,0.5,0.3,0.7c0.2,0.2,0.4,0.3,0.7,0.3c0.3,0,0.6-0.1,0.7-0.3s0.2-0.4,0.3-0.7s0.1-0.6,0.1-0.8v-10h3v9.5
		c0,1-0.1,1.8-0.4,2.4c-0.2,0.7-0.7,1.2-1.2,1.5C121.6,247.6,120.8,247.8,119.8,247.8z"/>
	<path d="M125.8,247.6v-13.8h6.2v2.1h-3.1v3.4h2.4v2.1h-2.4v4.1h3.2v2.1H125.8z"/>
	<path d="M133.4,247.6v-13.8h3v11.7h3.2v2.1H133.4z"/>
	<path d="M140.8,247.6v-13.8h3v11.7h3.2v2.1H140.8z"/>
	<path d="M148.2,247.6v-13.8h6.2v2.1h-3.1v3.4h2.4v2.1h-2.4v4.1h3.2v2.1H148.2z"/>
	<path d="M159.4,247.8c-0.9,0-1.6-0.2-2.2-0.5c-0.6-0.3-1-0.8-1.3-1.4c-0.3-0.6-0.5-1.5-0.5-2.5l2.6-0.4c0,0.6,0.1,1.1,0.2,1.4
		c0.1,0.4,0.2,0.6,0.4,0.8c0.2,0.2,0.4,0.2,0.6,0.2c0.3,0,0.5-0.1,0.6-0.3c0.1-0.2,0.1-0.4,0.1-0.7c0-0.6-0.1-1-0.4-1.4
		c-0.3-0.4-0.6-0.8-1.1-1.2l-1.2-1c-0.5-0.4-1-0.9-1.3-1.5c-0.4-0.6-0.5-1.3-0.5-2.1c0-1.2,0.3-2.1,1-2.7c0.7-0.6,1.6-0.9,2.8-0.9
		c0.7,0,1.3,0.1,1.8,0.4c0.4,0.2,0.8,0.6,1,1s0.4,0.8,0.5,1.3c0.1,0.4,0.1,0.9,0.1,1.3l-2.6,0.3c0-0.4,0-0.8-0.1-1.1
		c0-0.3-0.1-0.5-0.2-0.7c-0.1-0.2-0.3-0.2-0.6-0.2c-0.3,0-0.5,0.1-0.6,0.4c-0.1,0.2-0.2,0.5-0.2,0.7c0,0.5,0.1,0.9,0.4,1.2
		c0.2,0.3,0.6,0.7,1,1l1.1,1c0.6,0.5,1.1,1.1,1.5,1.7c0.4,0.6,0.6,1.4,0.6,2.4c0,0.6-0.1,1.2-0.4,1.8c-0.3,0.5-0.7,0.9-1.2,1.2
		C160.8,247.7,160.2,247.8,159.4,247.8z"/>
	<path d="M168.6,247.6v-13.8h6.2v2.1h-3.1v3.4h2.4v2.1h-2.4v4.1h3.2v2.1H168.6z"/>
	<path d="M176.2,247.6v-13.8h2.1l2.8,6.6v-6.6h2.5v13.8h-2.1l-2.8-7.1v7.1H176.2z"/>
	<path d="M189.6,247.6v-1.8l3.4-9.9h-3.2v-2.1h6.2v1.7l-3.4,10h3.5v2.1H189.6z"/>
</g>
</svg>
