<?xml version="1.0" encoding="utf-8"?>
<!-- Generator: Adobe Illustrator 27.0.0, SVG Export Plug-In . SVG Version: 6.00 Build 0)  -->
<svg version="1.1" id="Capa_1" xmlns="http://www.w3.org/2000/svg" xmlns:xlink="http://www.w3.org/1999/xlink" x="0px" y="0px"
	 viewBox="0 0 300 300" style="enable-background:new 0 0 300 300;" xml:space="preserve">
<g>
	<path d="M94.1,169.5c-21.5-3.8-37.5-21.7-38.8-43.6l-0.1-2.3h-1.8c-1.1-5.3-5.8-9.2-11.4-9.2s-10.3,3.9-11.4,9.2h-2.7l0.2,2.6
		c0.4,6.8,1.8,13.5,4,19.9h-7.2l1.2,3.4c9,24.3,29.2,43,54.1,50.1l3.2,0.9v-6.6c2.1,0.5,4.2,1,6.3,1.4c0.7,0.1,1.5,0.2,2.2,0.2
		c3.1,0,6.1-1.1,8.6-3.1c2.9-2.5,4.6-6.1,4.6-9.9C104.9,176.1,100.4,170.7,94.1,169.5z M78.2,193.8c-20.7-6.9-37.6-22.6-46.2-42.7
		h1.8c3.2,7.5,7.6,14.4,13.1,20.5c8.5,9.5,19.4,16.6,31.3,20.7V193.8z M97.1,188.5c-1.9,1.6-4.3,2.2-6.7,1.8c-2.4-0.4-4.8-1-7.1-1.6
		v0l-1.7-0.6c-19.9-6.3-35.8-21-43.6-40.4l-0.6-1.6h-0.1c-2-5.5-3.4-11.4-4-17.5h2.1v-2.5c0-3.7,3-6.7,6.7-6.7s6.7,3,6.7,6.7v2.5
		h1.9c2.4,23.1,19.7,41.8,42.8,45.9c3.8,0.7,6.6,4,6.6,7.9C99.9,184.8,98.9,187,97.1,188.5z"/>
	<path d="M47.9,144.8c-2.3,0-4.2,1.9-4.2,4.2s1.9,4.2,4.2,4.2s4.2-1.9,4.2-4.2S50.2,144.8,47.9,144.8z M47.9,150.2
		c-0.7,0-1.2-0.5-1.2-1.2s0.5-1.2,1.2-1.2s1.2,0.5,1.2,1.2S48.6,150.2,47.9,150.2z"/>
	<path d="M92.2,177c-3.1,0-5.7,2.6-5.7,5.7s2.6,5.7,5.7,5.7s5.7-2.6,5.7-5.7S95.3,177,92.2,177z M92.2,185.4c-1.5,0-2.7-1.2-2.7-2.7
		s1.2-2.7,2.7-2.7s2.7,1.2,2.7,2.7S93.7,185.4,92.2,185.4z"/>
	<path d="M192.6,49.3c-38.4,0-69.6,31.2-69.6,69.6s31.2,69.6,69.6,69.6c38.4,0,69.6-31.2,69.6-69.6S231,49.3,192.6,49.3z
		 M192.6,183.5c-35.6,0-64.6-29-64.6-64.6c0-35.6,29-64.6,64.6-64.6c35.6,0,64.6,29,64.6,64.6C257.2,154.5,228.2,183.5,192.6,183.5z
		"/>
	<path d="M192.6,38.6c-44.4,0-80.6,36.2-80.6,80.6c0,44.4,36.2,80.6,80.6,80.6c44.4,0,80.6-36.2,80.6-80.6
		C273.2,74.8,237,38.6,192.6,38.6z M192.6,196.8c-42.8,0-77.6-34.8-77.6-77.6c0-42.8,34.8-77.6,77.6-77.6
		c42.8,0,77.6,34.8,77.6,77.6C270.2,162,235.4,196.8,192.6,196.8z"/>
	<path d="M192.6,45.2c-40.7,0-73.8,33.1-73.8,73.8s33.1,73.8,73.8,73.8c40.7,0,73.8-33.1,73.8-73.8S233.3,45.2,192.6,45.2z
		 M192.6,190.8c-39.6,0-71.8-32.2-71.8-71.8c0-39.6,32.2-71.8,71.8-71.8s71.8,32.2,71.8,71.8C264.4,158.6,232.2,190.8,192.6,190.8z"
		/>
	<path d="M192.6,77.8c-22.7,0-41.1,18.4-41.1,41.1s18.4,41.1,41.1,41.1c22.7,0,41.1-18.4,41.1-41.1S215.3,77.8,192.6,77.8z
		 M192.6,157c-21,0-38.1-17.1-38.1-38.1s17.1-38.1,38.1-38.1c21,0,38.1,17.1,38.1,38.1S213.6,157,192.6,157z"/>
	<path d="M157.5,85.6c3.4,0,6.1-2.7,6.1-6.1s-2.7-6.1-6.1-6.1s-6.1,2.7-6.1,6.1S154.1,85.6,157.5,85.6z M157.5,76.4
		c1.7,0,3.1,1.4,3.1,3.1s-1.4,3.1-3.1,3.1s-3.1-1.4-3.1-3.1S155.8,76.4,157.5,76.4z"/>
	<path d="M192.6,72.3c3.4,0,6.1-2.7,6.1-6.1s-2.7-6.1-6.1-6.1c-3.4,0-6.1,2.7-6.1,6.1S189.2,72.3,192.6,72.3z M192.6,63.1
		c1.7,0,3.1,1.4,3.1,3.1s-1.4,3.1-3.1,3.1c-1.7,0-3.1-1.4-3.1-3.1S190.9,63.1,192.6,63.1z"/>
	<path d="M139.5,114.1c-3.4,0-6.1,2.7-6.1,6.1s2.7,6.1,6.1,6.1s6.1-2.7,6.1-6.1S142.9,114.1,139.5,114.1z M139.5,123.3
		c-1.7,0-3.1-1.4-3.1-3.1s1.4-3.1,3.1-3.1s3.1,1.4,3.1,3.1S141.2,123.3,139.5,123.3z"/>
	<path d="M244.4,114.1c-3.4,0-6.1,2.7-6.1,6.1s2.7,6.1,6.1,6.1c3.4,0,6.1-2.7,6.1-6.1S247.8,114.1,244.4,114.1z M244.4,123.3
		c-1.7,0-3.1-1.4-3.1-3.1s1.4-3.1,3.1-3.1c1.7,0,3.1,1.4,3.1,3.1S246.1,123.3,244.4,123.3z"/>
	<path d="M192.6,164.3c-3.4,0-6.1,2.7-6.1,6.1c0,3.4,2.7,6.1,6.1,6.1c3.4,0,6.1-2.7,6.1-6.1C198.7,167,196,164.3,192.6,164.3z
		 M192.6,173.5c-1.7,0-3.1-1.4-3.1-3.1c0-1.7,1.4-3.1,3.1-3.1c1.7,0,3.1,1.4,3.1,3.1C195.7,172.1,194.3,173.5,192.6,173.5z"/>
	<path d="M227.6,73.4c-3.4,0-6.1,2.7-6.1,6.1s2.7,6.1,6.1,6.1c3.4,0,6.1-2.7,6.1-6.1S231,73.4,227.6,73.4z M227.6,82.6
		c-1.7,0-3.1-1.4-3.1-3.1s1.4-3.1,3.1-3.1c1.7,0,3.1,1.4,3.1,3.1S229.3,82.6,227.6,82.6z"/>
	<path d="M157.5,152.6c-3.4,0-6.1,2.7-6.1,6.1s2.7,6.1,6.1,6.1s6.1-2.7,6.1-6.1S160.9,152.6,157.5,152.6z M157.5,161.8
		c-1.7,0-3.1-1.4-3.1-3.1s1.4-3.1,3.1-3.1s3.1,1.4,3.1,3.1S159.2,161.8,157.5,161.8z"/>
	<path d="M227.6,152.6c-3.4,0-6.1,2.7-6.1,6.1s2.7,6.1,6.1,6.1c3.4,0,6.1-2.7,6.1-6.1S231,152.6,227.6,152.6z M227.6,161.8
		c-1.7,0-3.1-1.4-3.1-3.1s1.4-3.1,3.1-3.1c1.7,0,3.1,1.4,3.1,3.1S229.3,161.8,227.6,161.8z"/>
</g>
<g>
	<path d="M70.3,248.1c-1.1,0-2-0.2-2.7-0.6c-0.7-0.4-1.3-1-1.6-1.8s-0.6-1.8-0.6-3.1l3.2-0.5c0,0.7,0.1,1.3,0.2,1.8
		c0.1,0.4,0.3,0.8,0.5,1c0.2,0.2,0.5,0.3,0.8,0.3c0.4,0,0.6-0.1,0.8-0.4s0.2-0.5,0.2-0.8c0-0.7-0.2-1.3-0.5-1.8
		c-0.3-0.5-0.8-1-1.4-1.5l-1.5-1.3c-0.6-0.5-1.2-1.2-1.6-1.9c-0.4-0.7-0.7-1.5-0.7-2.6c0-1.4,0.4-2.5,1.3-3.3c0.9-0.8,2-1.1,3.5-1.1
		c0.9,0,1.6,0.2,2.2,0.5c0.6,0.3,1,0.7,1.3,1.2c0.3,0.5,0.5,1,0.6,1.6c0.1,0.6,0.2,1.1,0.2,1.6l-3.2,0.4c0-0.5,0-0.9-0.1-1.3
		s-0.2-0.7-0.3-0.9c-0.2-0.2-0.4-0.3-0.7-0.3c-0.3,0-0.6,0.1-0.8,0.4s-0.2,0.6-0.2,0.9c0,0.6,0.2,1.1,0.5,1.5
		c0.3,0.4,0.7,0.8,1.2,1.2l1.4,1.2c0.7,0.6,1.4,1.3,1.9,2.1c0.5,0.8,0.8,1.8,0.8,3c0,0.8-0.2,1.5-0.5,2.2c-0.4,0.7-0.9,1.2-1.5,1.5
		C72,247.9,71.2,248.1,70.3,248.1z"/>
	<path d="M76.3,247.8v-17H80v17H76.3z"/>
	<path d="M87.1,248.1c-1.1,0-2-0.2-2.7-0.6c-0.7-0.4-1.3-1-1.6-1.8c-0.4-0.8-0.6-1.8-0.6-3.1l3.2-0.5c0,0.7,0.1,1.3,0.2,1.8
		c0.1,0.4,0.3,0.8,0.5,1c0.2,0.2,0.5,0.3,0.8,0.3c0.4,0,0.6-0.1,0.8-0.4c0.1-0.3,0.2-0.5,0.2-0.8c0-0.7-0.2-1.3-0.5-1.8
		c-0.3-0.5-0.8-1-1.4-1.5l-1.5-1.3c-0.6-0.5-1.2-1.2-1.6-1.9c-0.4-0.7-0.7-1.5-0.7-2.6c0-1.4,0.4-2.5,1.3-3.3c0.9-0.8,2-1.1,3.5-1.1
		c0.9,0,1.6,0.2,2.2,0.5c0.6,0.3,1,0.7,1.3,1.2s0.5,1,0.6,1.6c0.1,0.6,0.2,1.1,0.2,1.6l-3.2,0.4c0-0.5,0-0.9-0.1-1.3
		c0-0.4-0.2-0.7-0.3-0.9s-0.4-0.3-0.7-0.3c-0.4,0-0.6,0.1-0.8,0.4s-0.2,0.6-0.2,0.9c0,0.6,0.2,1.1,0.5,1.5c0.3,0.4,0.7,0.8,1.2,1.2
		l1.4,1.2c0.7,0.6,1.4,1.3,1.9,2.1s0.8,1.8,0.8,3c0,0.8-0.2,1.5-0.5,2.2s-0.9,1.2-1.5,1.5C88.8,247.9,88,248.1,87.1,248.1z"/>
	<path d="M94.9,247.8v-14.2h-2.6v-2.8h8.9v2.8h-2.5v14.2H94.9z"/>
	<path d="M102.7,247.8v-17h7.6v2.6h-3.9v4.2h3v2.6h-3v5.1h3.9v2.5H102.7z"/>
	<path d="M112,247.8l0.3-17h4l1.9,9.9l2-9.9h3.9l0.3,17h-2.7l-0.3-11.3l-2,11.3h-2.4l-2.1-11.4l-0.3,11.4H112z"/>
	<path d="M126.1,247.8l3.2-17h4.3l3.2,17h-3.5l-0.6-3.6h-2.5l-0.6,3.6H126.1z M130.5,242h1.8l-0.9-6.6L130.5,242z"/>
	<path d="M143.7,247.8v-17h4.3c1.5,0,2.6,0.2,3.5,0.6c0.8,0.4,1.4,1,1.7,1.7c0.3,0.8,0.5,1.8,0.5,3.1v6.2c0,1.3-0.2,2.3-0.5,3.1
		c-0.3,0.8-0.9,1.4-1.7,1.8c-0.8,0.4-2,0.6-3.4,0.6H143.7z M147.4,245.2h0.6c0.6,0,1-0.1,1.2-0.3s0.4-0.4,0.5-0.8
		c0.1-0.3,0.1-0.8,0.1-1.3v-7.4c0-0.5,0-0.9-0.1-1.2c-0.1-0.3-0.2-0.5-0.5-0.7s-0.7-0.2-1.2-0.2h-0.6V245.2z"/>
	<path d="M156,247.8v-17h7.6v2.6h-3.9v4.2h3v2.6h-3v5.1h3.9v2.5H156z"/>
	<path d="M170.7,247.8v-17h7.4v2.5h-3.6v4.3h3.1v2.6h-3.1v7.6H170.7z"/>
	<path d="M179.7,247.8v-17h4.7c1.1,0,2.1,0.1,3,0.4s1.5,0.7,2,1.4c0.5,0.7,0.7,1.6,0.7,2.8c0,0.7-0.1,1.3-0.2,1.9
		c-0.1,0.5-0.3,1-0.6,1.4c-0.3,0.4-0.7,0.7-1.3,1l2.3,8.2h-3.9l-1.9-7.6h-1.1v7.6H179.7z M183.5,238h1.1c0.5,0,0.9-0.1,1.2-0.3
		c0.3-0.2,0.5-0.5,0.6-0.8c0.1-0.4,0.2-0.8,0.2-1.3c0-0.7-0.1-1.3-0.4-1.7c-0.3-0.4-0.8-0.6-1.5-0.6h-1.2V238z"/>
	<path d="M192.3,247.8v-17h7.6v2.6H196v4.2h3v2.6h-3v5.1h3.9v2.5H192.3z"/>
	<path d="M201.6,247.8v-17h2.6l3.5,8.2v-8.2h3.1v17h-2.5l-3.5-8.8v8.8H201.6z"/>
	<path d="M218.3,248.1c-1.3,0-2.3-0.2-3-0.7c-0.7-0.4-1.3-1.1-1.6-1.9c-0.3-0.8-0.5-1.8-0.5-3v-6.3c0-1.2,0.2-2.2,0.5-3
		s0.9-1.5,1.6-1.9c0.7-0.4,1.7-0.7,3-0.7c1.3,0,2.3,0.2,3.1,0.7c0.7,0.4,1.3,1.1,1.6,1.9s0.5,1.8,0.5,3v6.3c0,1.2-0.2,2.2-0.5,3
		c-0.3,0.8-0.9,1.5-1.6,1.9S219.6,248.1,218.3,248.1z M218.3,245.4c0.4,0,0.7-0.1,0.9-0.3c0.2-0.2,0.3-0.4,0.4-0.8
		c0.1-0.3,0.1-0.6,0.1-0.9v-8.2c0-0.3,0-0.7-0.1-1c-0.1-0.3-0.2-0.5-0.4-0.7c-0.2-0.2-0.5-0.3-0.9-0.3c-0.4,0-0.6,0.1-0.8,0.3
		c-0.2,0.2-0.3,0.4-0.4,0.7c-0.1,0.3-0.1,0.6-0.1,1v8.2c0,0.3,0,0.6,0.1,0.9s0.2,0.6,0.3,0.8S217.9,245.4,218.3,245.4z"/>
	<path d="M230.2,248.1c-1.1,0-2-0.2-2.7-0.6c-0.7-0.4-1.3-1-1.6-1.8c-0.4-0.8-0.6-1.8-0.6-3.1l3.2-0.5c0,0.7,0.1,1.3,0.2,1.8
		c0.1,0.4,0.3,0.8,0.5,1c0.2,0.2,0.5,0.3,0.8,0.3c0.4,0,0.6-0.1,0.8-0.4s0.2-0.5,0.2-0.8c0-0.7-0.2-1.3-0.5-1.8
		c-0.3-0.5-0.8-1-1.4-1.5l-1.5-1.3c-0.6-0.5-1.2-1.2-1.6-1.9c-0.4-0.7-0.7-1.5-0.7-2.6c0-1.4,0.4-2.5,1.3-3.3c0.9-0.8,2-1.1,3.5-1.1
		c0.9,0,1.6,0.2,2.2,0.5c0.6,0.3,1,0.7,1.3,1.2s0.5,1,0.6,1.6c0.1,0.6,0.2,1.1,0.2,1.6l-3.2,0.4c0-0.5,0-0.9-0.1-1.3
		s-0.2-0.7-0.3-0.9s-0.4-0.3-0.7-0.3c-0.3,0-0.6,0.1-0.8,0.4s-0.2,0.6-0.2,0.9c0,0.6,0.2,1.1,0.5,1.5c0.3,0.4,0.7,0.8,1.2,1.2
		l1.4,1.2c0.7,0.6,1.4,1.3,1.9,2.1c0.5,0.8,0.8,1.8,0.8,3c0,0.8-0.2,1.5-0.5,2.2s-0.9,1.2-1.5,1.5
		C231.9,247.9,231.2,248.1,230.2,248.1z"/>
</g>
</svg>
