<?xml version="1.0" encoding="utf-8"?>
<!-- Generator: Adobe Illustrator 27.0.0, SVG Export Plug-In . SVG Version: 6.00 Build 0)  -->
<svg version="1.1" id="Capa_1" xmlns="http://www.w3.org/2000/svg" xmlns:xlink="http://www.w3.org/1999/xlink" x="0px" y="0px"
	 viewBox="0 0 300 300" style="enable-background:new 0 0 300 300;" xml:space="preserve">
<g>
	<g>
		<path d="M95,137.2v-5.1c0-2.5-2-4.6-4.6-4.6H44.9c-2.5,0-4.6,2-4.6,4.6v5.1c-3.2,0-5.8,2.6-5.8,5.8v54.5c0,3.2,2.6,5.8,5.8,5.8
			h54.5c3.2,0,5.8-2.6,5.8-5.8V143C100.7,139.9,98.1,137.3,95,137.2z M90.3,132.2v5H44.9v-5C44.9,132.2,90.3,132.2,90.3,132.2z
			 M96.1,197.7c0,0.6-0.6,1.2-1.2,1.2H40.3c-0.6,0-1.2-0.6-1.2-1.2v-54.5c0-0.6,0.6-1.2,1.2-1.2h54.5c0.6,0,1.2,0.6,1.2,1.2V197.7z"
			/>
		<path d="M177.4,96.8V82c0-2.5-2-4.6-4.6-4.6h-45.4c-2.5,0-4.6,2-4.6,4.6v14.7c-3.2,0-5.8,2.6-5.8,5.8v75.7c0,3.2,2.6,5.8,5.8,5.8
			v14.7c0,2.5,2,4.6,4.6,4.6h45.4c2.5,0,4.6-2,4.6-4.6v-14.7c3.2,0,5.8-2.6,5.8-5.8v-75.7C183.2,99.4,180.6,96.8,177.4,96.8z
			 M172.8,82v14.7h-45.4V82H172.8z M127.3,198.9v-14.7h45.4v14.7H127.3z M178.5,178.3c0,0.6-0.6,1.2-1.2,1.2h-54.5
			c-0.6,0-1.2-0.6-1.2-1.2v-75.7c0-0.6,0.6-1.2,1.2-1.2h54.5c0.6,0,1.2,0.6,1.2,1.2V178.3z"/>
		<g>
			<path d="M259.8,94.4h-14l2.4-17.5V47.5h-31.3v29l2.4,17.8h-14c-3.2,0-5.8,2.6-5.8,5.8v50.5c0,3.2,2.6,5.8,5.8,5.8h14l-2.4,17.6
				v29.4h31.3v-29l-2.4-17.8h14c3.2,0,5.8-2.6,5.8-5.8v-50.5C265.6,97,263,94.4,259.8,94.4z M221.5,76.5V52.2h22.1v24.2l-2.5,18
				h-17.2L221.5,76.5z M205.2,99.1h14.7h25.2h14.7c0.6,0,1.2,0.6,1.2,1.2v8.5H204v-8.5C204,99.6,204.5,99.1,205.2,99.1z M261,111.6
				v27.9H204v-27.9H261z M243.5,174.6v24.2h-22.1v-24.2l2.5-18h17.2L243.5,174.6z M259.8,152h-14.7h-25.2h-14.7
				c-0.6,0-1.2-0.6-1.2-1.2v-8.5H261v8.5C261,151.5,260.4,152,259.8,152z"/>
			<path d="M232.5,56c-5.2,0-9.4,4.2-9.4,9.4s4.2,9.4,9.4,9.4s9.4-4.2,9.4-9.4C241.9,60.2,237.7,56,232.5,56z M232.5,72
				c-3.6,0-6.6-3-6.6-6.6s3-6.6,6.6-6.6s6.6,3,6.6,6.6C239.1,69,236.1,72,232.5,72z"/>
			<path d="M232.5,195.3c5.2,0,9.4-4.2,9.4-9.4s-4.2-9.4-9.4-9.4s-9.4,4.2-9.4,9.4S227.3,195.3,232.5,195.3z M232.5,179.3
				c3.6,0,6.6,3,6.6,6.6s-3,6.6-6.6,6.6s-6.6-3-6.6-6.6S228.9,179.3,232.5,179.3z"/>
		</g>
	</g>
	<g>
		<path d="M43.8,247.6v-13.8h4.6c0.8,0,1.5,0.2,2,0.5c0.5,0.3,0.9,0.8,1.2,1.4s0.4,1.3,0.4,2.2c0,1.1-0.2,1.9-0.5,2.4
			c-0.4,0.6-0.8,1-1.4,1.2s-1.3,0.3-2,0.3h-1.2v5.8H43.8z M46.9,239.6h1c0.4,0,0.7-0.1,0.8-0.2c0.2-0.1,0.3-0.3,0.4-0.6
			c0.1-0.3,0.1-0.6,0.1-1c0-0.4,0-0.7-0.1-0.9c-0.1-0.3-0.2-0.5-0.4-0.6c-0.2-0.2-0.5-0.2-0.9-0.2h-1V239.6z"/>
		<path d="M53.4,247.6v-13.8h3.8c0.9,0,1.7,0.1,2.4,0.3s1.2,0.6,1.6,1.1c0.4,0.5,0.6,1.3,0.6,2.2c0,0.6,0,1.1-0.1,1.5
			c-0.1,0.4-0.3,0.8-0.5,1.1s-0.6,0.6-1,0.8l1.9,6.7h-3.1l-1.5-6.2h-0.9v6.2H53.4z M56.5,239.7h0.9c0.4,0,0.8-0.1,1-0.2
			c0.2-0.2,0.4-0.4,0.5-0.7c0.1-0.3,0.1-0.6,0.1-1c0-0.6-0.1-1-0.3-1.4c-0.2-0.3-0.6-0.5-1.2-0.5h-1V239.7z"/>
		<path d="M67.4,247.8c-1,0-1.8-0.2-2.4-0.5s-1-0.9-1.3-1.6c-0.3-0.7-0.4-1.5-0.4-2.4v-5.1c0-1,0.1-1.8,0.4-2.4s0.7-1.2,1.3-1.5
			c0.6-0.4,1.4-0.5,2.4-0.5c1,0,1.9,0.2,2.5,0.5c0.6,0.4,1,0.9,1.3,1.5s0.4,1.5,0.4,2.4v5.1c0,0.9-0.1,1.8-0.4,2.4
			c-0.3,0.7-0.7,1.2-1.3,1.6C69.3,247.6,68.5,247.8,67.4,247.8z M67.4,245.6c0.3,0,0.5-0.1,0.7-0.2c0.1-0.2,0.2-0.4,0.3-0.6
			c0-0.2,0.1-0.5,0.1-0.8v-6.6c0-0.3,0-0.5-0.1-0.8c0-0.2-0.1-0.4-0.3-0.6c-0.1-0.2-0.4-0.2-0.7-0.2c-0.3,0-0.5,0.1-0.7,0.2
			c-0.1,0.2-0.2,0.4-0.3,0.6c0,0.2-0.1,0.5-0.1,0.8v6.6c0,0.3,0,0.5,0.1,0.8c0,0.2,0.1,0.5,0.3,0.6
			C66.9,245.6,67.1,245.6,67.4,245.6z"/>
		<path d="M73.4,247.6v-13.8h3.5c1.2,0,2.1,0.1,2.8,0.5c0.7,0.3,1.1,0.8,1.4,1.4c0.3,0.6,0.4,1.5,0.4,2.5v5c0,1-0.1,1.9-0.4,2.5
			c-0.3,0.7-0.7,1.1-1.4,1.4s-1.6,0.5-2.8,0.5H73.4z M76.5,245.5H77c0.5,0,0.8-0.1,1-0.2c0.2-0.1,0.3-0.3,0.4-0.6
			c0.1-0.3,0.1-0.6,0.1-1v-6c0-0.4,0-0.7-0.1-1c-0.1-0.2-0.2-0.4-0.4-0.5c-0.2-0.1-0.5-0.2-1-0.2h-0.5V245.5z"/>
		<path d="M87.4,247.8c-1.1,0-1.9-0.2-2.5-0.5c-0.6-0.3-1-0.8-1.2-1.5s-0.4-1.5-0.4-2.4v-9.5h3v10c0,0.3,0,0.6,0.1,0.8
			s0.1,0.5,0.3,0.7c0.2,0.2,0.4,0.3,0.7,0.3c0.3,0,0.6-0.1,0.7-0.3s0.2-0.4,0.3-0.7c0-0.3,0.1-0.6,0.1-0.8v-10h3v9.5
			c0,1-0.1,1.8-0.4,2.4c-0.2,0.7-0.7,1.2-1.2,1.5C89.2,247.6,88.4,247.8,87.4,247.8z"/>
		<path d="M97.3,247.8c-1,0-1.9-0.2-2.5-0.6c-0.6-0.4-1-0.9-1.3-1.6c-0.2-0.7-0.4-1.5-0.4-2.4v-5c0-1,0.1-1.8,0.4-2.5
			c0.2-0.7,0.7-1.2,1.3-1.6c0.6-0.4,1.4-0.6,2.5-0.6c1,0,1.8,0.2,2.4,0.5c0.6,0.3,1,0.8,1.2,1.4c0.2,0.6,0.4,1.3,0.4,2.1v1.2h-3
			v-1.4c0-0.3,0-0.5,0-0.8c0-0.2-0.1-0.5-0.2-0.6c-0.1-0.2-0.4-0.2-0.7-0.2c-0.3,0-0.6,0.1-0.7,0.3c-0.2,0.2-0.2,0.4-0.3,0.6
			c0,0.3-0.1,0.5-0.1,0.8v6.5c0,0.3,0,0.6,0.1,0.8c0.1,0.3,0.2,0.5,0.3,0.6c0.2,0.2,0.4,0.2,0.7,0.2c0.3,0,0.5-0.1,0.7-0.2
			s0.2-0.4,0.3-0.6c0-0.3,0.1-0.5,0.1-0.8v-1.4h3v1.2c0,0.8-0.1,1.5-0.3,2.1c-0.2,0.6-0.6,1.1-1.2,1.5
			C99.2,247.6,98.4,247.8,97.3,247.8z"/>
		<path d="M104.2,247.6v-11.5h-2.1v-2.3h7.2v2.3h-2.1v11.5H104.2z"/>
		<path d="M114.3,247.8c-1,0-1.8-0.2-2.4-0.5s-1-0.9-1.3-1.6c-0.3-0.7-0.4-1.5-0.4-2.4v-5.1c0-1,0.1-1.8,0.4-2.4s0.7-1.2,1.3-1.5
			c0.6-0.4,1.4-0.5,2.4-0.5c1,0,1.9,0.2,2.5,0.5c0.6,0.4,1,0.9,1.3,1.5s0.4,1.5,0.4,2.4v5.1c0,0.9-0.1,1.8-0.4,2.4
			c-0.3,0.7-0.7,1.2-1.3,1.6C116.2,247.6,115.4,247.8,114.3,247.8z M114.3,245.6c0.3,0,0.5-0.1,0.7-0.2c0.1-0.2,0.2-0.4,0.3-0.6
			c0-0.2,0.1-0.5,0.1-0.8v-6.6c0-0.3,0-0.5-0.1-0.8c0-0.2-0.1-0.4-0.3-0.6c-0.1-0.2-0.4-0.2-0.7-0.2c-0.3,0-0.5,0.1-0.7,0.2
			c-0.1,0.2-0.2,0.4-0.3,0.6c0,0.2-0.1,0.5-0.1,0.8v6.6c0,0.3,0,0.5,0.1,0.8c0,0.2,0.1,0.5,0.3,0.6
			C113.8,245.6,114,245.6,114.3,245.6z"/>
		<path d="M124,247.8c-0.9,0-1.6-0.2-2.2-0.5s-1-0.8-1.3-1.4c-0.3-0.6-0.5-1.5-0.5-2.5l2.6-0.4c0,0.6,0.1,1.1,0.2,1.4
			c0.1,0.4,0.2,0.6,0.4,0.8c0.2,0.2,0.4,0.2,0.6,0.2c0.3,0,0.5-0.1,0.6-0.3c0.1-0.2,0.1-0.4,0.1-0.7c0-0.6-0.1-1-0.4-1.4
			c-0.3-0.4-0.6-0.8-1.1-1.2l-1.2-1c-0.5-0.4-1-0.9-1.3-1.5c-0.4-0.6-0.5-1.3-0.5-2.1c0-1.2,0.3-2.1,1-2.7c0.7-0.6,1.6-0.9,2.8-0.9
			c0.7,0,1.3,0.1,1.8,0.4c0.4,0.2,0.8,0.6,1,1c0.2,0.4,0.4,0.8,0.5,1.3c0.1,0.4,0.1,0.9,0.1,1.3l-2.6,0.3c0-0.4,0-0.8-0.1-1.1
			c0-0.3-0.1-0.5-0.2-0.7s-0.3-0.2-0.6-0.2c-0.3,0-0.5,0.1-0.6,0.4s-0.2,0.5-0.2,0.7c0,0.5,0.1,0.9,0.4,1.2c0.2,0.3,0.6,0.7,1,1
			l1.1,1c0.6,0.5,1.1,1.1,1.5,1.7c0.4,0.6,0.6,1.4,0.6,2.4c0,0.6-0.1,1.2-0.4,1.8c-0.3,0.5-0.7,0.9-1.2,1.2S124.7,247.8,124,247.8z"
			/>
		<path d="M133.2,247.6v-13.8h3.5c1.2,0,2.1,0.1,2.8,0.5c0.7,0.3,1.1,0.8,1.4,1.4c0.3,0.6,0.4,1.5,0.4,2.5v5c0,1-0.1,1.9-0.4,2.5
			c-0.3,0.7-0.7,1.1-1.4,1.4s-1.6,0.5-2.8,0.5H133.2z M136.2,245.5h0.5c0.5,0,0.8-0.1,1-0.2c0.2-0.1,0.3-0.3,0.4-0.6
			c0.1-0.3,0.1-0.6,0.1-1v-6c0-0.4,0-0.7-0.1-1s-0.2-0.4-0.4-0.5s-0.5-0.2-1-0.2h-0.5V245.5z"/>
		<path d="M143.1,247.6v-13.8h6.2v2.1h-3.1v3.4h2.4v2.1h-2.4v4.1h3.2v2.1H143.1z"/>
		<path d="M155.1,247.6v-13.8h3v5.6h2.1v-5.6h3.1v13.8h-3.1v-6h-2.1v6H155.1z"/>
		<path d="M169.4,247.8c-1.1,0-1.9-0.2-2.5-0.5s-1-0.8-1.2-1.5c-0.2-0.7-0.4-1.5-0.4-2.4v-9.5h3v10c0,0.3,0,0.6,0.1,0.8
			c0,0.3,0.1,0.5,0.3,0.7c0.2,0.2,0.4,0.3,0.7,0.3c0.3,0,0.6-0.1,0.7-0.3s0.2-0.4,0.3-0.7c0-0.3,0.1-0.6,0.1-0.8v-10h3v9.5
			c0,1-0.1,1.8-0.4,2.4c-0.2,0.7-0.7,1.2-1.2,1.5S170.5,247.8,169.4,247.8z"/>
		<path d="M175.4,247.6v-13.8h3v11.7h3.2v2.1H175.4z"/>
		<path d="M182.8,247.6v-13.8h6.2v2.1h-3.1v3.4h2.4v2.1h-2.4v4.1h3.2v2.1H182.8z"/>
		<path d="M194.8,247.6v-13.8h2.1l2.8,6.6v-6.6h2.5v13.8h-2.1l-2.8-7.1v7.1H194.8z"/>
		<path d="M203.7,247.6l2.6-13.8h3.5l2.6,13.8h-2.8l-0.5-2.9h-2l-0.5,2.9H203.7z M207.3,242.9h1.5l-0.7-5.4L207.3,242.9z"/>
		<path d="M214.2,247.6v-11.5h-2.1v-2.3h7.2v2.3h-2.1v11.5H214.2z"/>
		<path d="M224.5,247.8c-1.1,0-1.9-0.2-2.5-0.5s-1-0.8-1.2-1.5c-0.2-0.7-0.4-1.5-0.4-2.4v-9.5h3v10c0,0.3,0,0.6,0.1,0.8
			c0,0.3,0.1,0.5,0.3,0.7c0.2,0.2,0.4,0.3,0.7,0.3c0.3,0,0.6-0.1,0.7-0.3s0.2-0.4,0.3-0.7c0-0.3,0.1-0.6,0.1-0.8v-10h3v9.5
			c0,1-0.1,1.8-0.4,2.4c-0.2,0.7-0.7,1.2-1.2,1.5S225.6,247.8,224.5,247.8z"/>
		<path d="M230.5,247.6v-13.8h3.8c0.9,0,1.7,0.1,2.4,0.3c0.7,0.2,1.2,0.6,1.6,1.1c0.4,0.5,0.6,1.3,0.6,2.2c0,0.6,0,1.1-0.1,1.5
			c-0.1,0.4-0.3,0.8-0.5,1.1c-0.2,0.3-0.6,0.6-1,0.8l1.9,6.7H236l-1.5-6.2h-0.9v6.2H230.5z M233.6,239.7h0.8c0.4,0,0.8-0.1,1-0.2
			s0.4-0.4,0.5-0.7c0.1-0.3,0.1-0.6,0.1-1c0-0.6-0.1-1-0.3-1.4c-0.2-0.3-0.6-0.5-1.2-0.5h-1V239.7z"/>
		<path d="M240.1,247.6l2.6-13.8h3.5l2.6,13.8h-2.8l-0.5-2.9h-2l-0.5,2.9H240.1z M243.7,242.9h1.5l-0.7-5.4L243.7,242.9z"/>
		<path d="M250,247.6v-13.8h3v11.7h3.2v2.1H250z"/>
	</g>
</g>
</svg>
