<?xml version="1.0" encoding="utf-8"?>
<!-- Generator: Adobe Illustrator 27.0.0, SVG Export Plug-In . SVG Version: 6.00 Build 0)  -->
<svg version="1.1" id="Capa_1" xmlns="http://www.w3.org/2000/svg" xmlns:xlink="http://www.w3.org/1999/xlink" x="0px" y="0px"
	 viewBox="0 0 300 300" style="enable-background:new 0 0 300 300;" xml:space="preserve">
<g>
	<path d="M26.9,134.8h34.7v-6.3h60.1v6.2h25.3v-2.8h58.5v2.8h35.6v-2.2l7.1,1.6v-2.4l2.6-1.2l3.9,1.8l3.8-1.7
		c2.2,2.2,5.2,3.5,8.5,3.5c6.6,0,12-5.4,12-12s-5.4-12-12-12c-3.3,0-6.3,1.3-8.5,3.5l-3.9-1.8l-3.9,1.8l-2.6-1.2v-2.4l-7.1,1.6v-2.2
		h-35.6v2.8h-58.5v-2.8h-25.3v6.4H61.6v-6.4H26.9c-3.4,0-6.1,2.7-6.1,6.1v13.2C20.8,132,23.6,134.8,26.9,134.8z M267.1,114.8
		c4,0,7.3,3.3,7.3,7.3c0,4-3.3,7.3-7.3,7.3c-4,0-7.3-3.3-7.3-7.3C259.8,118.1,263,114.8,267.1,114.8z M245.4,113.5v17l-4.2-1v-15
		L245.4,113.5z M210.4,114.1h26v15.8h-26V114.1z M205.6,115V129h-58.5V115H205.6z M126.5,114.1h15.8v15.8h-15.8V114.1z M121.8,118.6
		v7H61.6v-7H121.8z M56.8,130H34.8v-15.9h22.1V130z M25.6,115.5c0-0.6,0.5-1.3,1.3-1.3h5V130h-5c-0.6,0-1.3-0.5-1.3-1.3V115.5z"/>
	<path d="M267.1,128.4c3.5,0,6.3-2.8,6.3-6.3c0-3.5-2.8-6.3-6.3-6.3c-3.5,0-6.3,2.8-6.3,6.3C260.7,125.5,263.6,128.4,267.1,128.4z
		 M267.1,116.7c3,0,5.4,2.4,5.4,5.4c0,3-2.4,5.4-5.4,5.4s-5.4-2.4-5.4-5.4C261.7,119.1,264.1,116.7,267.1,116.7z"/>
	<path d="M267.1,156.5c-3.3,0-6.3,1.3-8.5,3.5l-3.9-1.8l-3.9,1.8l-2.6-1.2v-2.4l-7.1,1.6v-2.2h-35.6v2.8h-58.5v-2.8h-25.3v0.1H52.9
		v-0.1l-0.4,0.1h-4.4v0.9l-8,1.7v2.2c-2.2-2.6-5.5-4.3-9.2-4.3c-6.6,0-12,5.4-12,12c0,6.6,5.4,12,12,12c3.7,0,7-1.7,9.2-4.3v2.2
		l8,1.7v1h78.4v-0.1h20.6v-2.8h58.5v2.8h35.6v-2.2l7.1,1.6v-2.4l2.6-1.2l3.9,1.8l3.8-1.7c2.2,2.2,5.2,3.5,8.5,3.5
		c6.6,0,12-5.4,12-12C279.1,161.9,273.7,156.5,267.1,156.5z M30.9,175.8c-4,0-7.3-3.3-7.3-7.3c0-4,3.3-7.3,7.3-7.3s7.3,3.3,7.3,7.3
		C38.2,172.5,35,175.8,30.9,175.8z M44.9,174.6v-12.2l3.3-0.7v13.6L44.9,174.6z M52.9,160.7h68.8v15.8H52.9V160.7z M142.3,176.4
		h-15.8v-15.8h15.8V176.4z M147.1,175.5v-14.1h58.5v14.1H147.1z M236.4,176.4h-26v-15.8h26V176.4z M245.4,177l-4.2-1v-15l4.2-1V177z
		 M267.1,175.8c-4,0-7.3-3.3-7.3-7.3c0-4,3.3-7.3,7.3-7.3c4,0,7.3,3.3,7.3,7.3C274.3,172.5,271.1,175.8,267.1,175.8z"/>
	<path d="M267.1,162.2c-3.5,0-6.3,2.8-6.3,6.3c0,3.5,2.8,6.3,6.3,6.3c3.5,0,6.3-2.8,6.3-6.3C273.4,165,270.5,162.2,267.1,162.2z
		 M267.1,173.9c-3,0-5.4-2.4-5.4-5.4c0-3,2.4-5.4,5.4-5.4s5.4,2.4,5.4,5.4C272.4,171.5,270,173.9,267.1,173.9z"/>
	<path d="M30.9,162.2c-3.5,0-6.3,2.8-6.3,6.3c0,3.5,2.8,6.3,6.3,6.3s6.3-2.8,6.3-6.3C37.3,165,34.4,162.2,30.9,162.2z M30.9,173.9
		c-3,0-5.4-2.4-5.4-5.4c0-3,2.4-5.4,5.4-5.4s5.4,2.4,5.4,5.4C36.3,171.5,33.9,173.9,30.9,173.9z"/>
</g>
<g>
	<path d="M85.7,247.8l2.6-13.8h3.5l2.6,13.8h-2.8l-0.5-2.9h-2l-0.5,2.9H85.7z M89.3,243.1h1.5l-0.7-5.4L89.3,243.1z"/>
	<path d="M95.7,247.8l0.2-13.8h3.3l1.5,8l1.6-8h3.1l0.2,13.8h-2.2l-0.3-9.2l-1.6,9.2h-1.9l-1.7-9.2l-0.2,9.2H95.7z"/>
	<path d="M111.6,248c-1,0-1.8-0.2-2.4-0.5c-0.6-0.4-1-0.9-1.3-1.6c-0.3-0.7-0.4-1.5-0.4-2.4v-5.1c0-1,0.1-1.8,0.4-2.4
		c0.3-0.7,0.7-1.2,1.3-1.5c0.6-0.4,1.4-0.5,2.4-0.5c1,0,1.9,0.2,2.5,0.5c0.6,0.4,1,0.9,1.3,1.5s0.4,1.5,0.4,2.4v5.1
		c0,0.9-0.1,1.8-0.4,2.4c-0.3,0.7-0.7,1.2-1.3,1.6S112.7,248,111.6,248z M111.6,245.9c0.3,0,0.5-0.1,0.7-0.2
		c0.1-0.2,0.2-0.4,0.3-0.6c0-0.2,0.1-0.5,0.1-0.8v-6.6c0-0.3,0-0.5-0.1-0.8c0-0.2-0.1-0.4-0.3-0.6c-0.1-0.2-0.4-0.2-0.7-0.2
		c-0.3,0-0.5,0.1-0.7,0.2c-0.1,0.2-0.2,0.4-0.3,0.6c0,0.2-0.1,0.5-0.1,0.8v6.6c0,0.3,0,0.5,0.1,0.8s0.1,0.5,0.3,0.6
		C111.1,245.8,111.3,245.9,111.6,245.9z"/>
	<path d="M117.7,247.8V234h3.8c0.9,0,1.7,0.1,2.4,0.3c0.7,0.2,1.2,0.6,1.6,1.1c0.4,0.5,0.6,1.3,0.6,2.2c0,0.6,0,1.1-0.1,1.5
		c-0.1,0.4-0.3,0.8-0.5,1.1c-0.2,0.3-0.6,0.6-1,0.8l1.9,6.7h-3.1l-1.5-6.2h-0.9v6.2H117.7z M120.7,239.9h0.8c0.4,0,0.8-0.1,1-0.2
		s0.4-0.4,0.5-0.7c0.1-0.3,0.1-0.6,0.1-1c0-0.6-0.1-1-0.3-1.4c-0.2-0.3-0.6-0.5-1.2-0.5h-1V239.9z"/>
	<path d="M129,247.8v-11.5h-2.1V234h7.2v2.3H132v11.5H129z"/>
	<path d="M135.3,247.8V234h3v13.8H135.3z"/>
	<path d="M144,248c-1,0-1.7-0.2-2.3-0.6s-0.9-1-1.2-1.7s-0.3-1.5-0.3-2.5v-4.6c0-1,0.1-1.8,0.4-2.5s0.7-1.3,1.3-1.7
		c0.6-0.4,1.4-0.6,2.5-0.6c1,0,1.8,0.2,2.4,0.5c0.6,0.3,1,0.8,1.2,1.4c0.2,0.6,0.4,1.3,0.4,2.1v0.9h-3v-1.1c0-0.3,0-0.6-0.1-0.8
		c0-0.2-0.1-0.5-0.3-0.6c-0.1-0.2-0.4-0.2-0.7-0.2c-0.3,0-0.6,0.1-0.7,0.3s-0.2,0.4-0.3,0.7c0,0.3-0.1,0.5-0.1,0.8v6.4
		c0,0.3,0,0.6,0.1,0.9c0.1,0.3,0.2,0.5,0.3,0.6c0.2,0.2,0.4,0.2,0.7,0.2c0.3,0,0.6-0.1,0.7-0.3c0.2-0.2,0.3-0.4,0.4-0.7
		c0.1-0.3,0.1-0.6,0.1-0.9v-1.6h-1.2v-1.8h4v7.1h-2l-0.2-1.1c-0.2,0.4-0.4,0.7-0.8,1C145.1,247.9,144.6,248,144,248z"/>
	<path d="M154.3,248c-1.1,0-1.9-0.2-2.5-0.5s-1-0.8-1.2-1.5c-0.2-0.7-0.4-1.5-0.4-2.4V234h3v10c0,0.3,0,0.6,0.1,0.8
		c0,0.3,0.1,0.5,0.3,0.7c0.2,0.2,0.4,0.3,0.7,0.3c0.3,0,0.6-0.1,0.7-0.3s0.2-0.4,0.3-0.7c0-0.3,0.1-0.6,0.1-0.8v-10h3v9.5
		c0,1-0.1,1.8-0.4,2.4c-0.2,0.7-0.7,1.2-1.2,1.5S155.3,248,154.3,248z"/>
	<path d="M159.5,247.8l2.6-13.8h3.5l2.6,13.8h-2.8l-0.5-2.9h-2l-0.5,2.9H159.5z M163.1,243.1h1.5l-0.7-5.4L163.1,243.1z"/>
	<path d="M169.4,247.8V234h3.5c1.2,0,2.1,0.1,2.8,0.5c0.7,0.3,1.1,0.8,1.4,1.4c0.3,0.6,0.4,1.5,0.4,2.5v5c0,1-0.1,1.9-0.4,2.5
		c-0.3,0.7-0.7,1.1-1.4,1.4s-1.6,0.5-2.8,0.5H169.4z M172.4,245.7h0.5c0.5,0,0.8-0.1,1-0.2c0.2-0.1,0.3-0.3,0.4-0.6
		c0.1-0.3,0.1-0.6,0.1-1v-6c0-0.4,0-0.7-0.1-1s-0.2-0.4-0.4-0.5s-0.5-0.2-1-0.2h-0.5V245.7z"/>
	<path d="M183.3,248c-1,0-1.8-0.2-2.4-0.5s-1-0.9-1.3-1.6c-0.3-0.7-0.4-1.5-0.4-2.4v-5.1c0-1,0.1-1.8,0.4-2.4s0.7-1.2,1.3-1.5
		c0.6-0.4,1.4-0.5,2.4-0.5c1,0,1.9,0.2,2.5,0.5c0.6,0.4,1,0.9,1.3,1.5s0.4,1.5,0.4,2.4v5.1c0,0.9-0.1,1.8-0.4,2.4
		c-0.3,0.7-0.7,1.2-1.3,1.6S184.3,248,183.3,248z M183.3,245.9c0.3,0,0.5-0.1,0.7-0.2c0.1-0.2,0.2-0.4,0.3-0.6
		c0-0.2,0.1-0.5,0.1-0.8v-6.6c0-0.3,0-0.5-0.1-0.8c0-0.2-0.1-0.4-0.3-0.6c-0.1-0.2-0.4-0.2-0.7-0.2c-0.3,0-0.5,0.1-0.7,0.2
		c-0.1,0.2-0.2,0.4-0.3,0.6c0,0.2-0.1,0.5-0.1,0.8v6.6c0,0.3,0,0.5,0.1,0.8c0,0.2,0.1,0.5,0.3,0.6
		C182.7,245.8,183,245.9,183.3,245.9z"/>
	<path d="M189.3,247.8V234h3.8c0.9,0,1.7,0.1,2.4,0.3c0.7,0.2,1.2,0.6,1.6,1.1c0.4,0.5,0.6,1.3,0.6,2.2c0,0.6,0,1.1-0.1,1.5
		c-0.1,0.4-0.3,0.8-0.5,1.1c-0.2,0.3-0.6,0.6-1,0.8l1.9,6.7h-3.1l-1.5-6.2h-0.9v6.2H189.3z M192.4,239.9h0.8c0.4,0,0.8-0.1,1-0.2
		s0.4-0.4,0.5-0.7c0.1-0.3,0.1-0.6,0.1-1c0-0.6-0.1-1-0.3-1.4c-0.2-0.3-0.6-0.5-1.2-0.5h-1V239.9z"/>
	<path d="M199.4,247.8V234h6.2v2.1h-3.1v3.4h2.4v2.1h-2.4v4.1h3.2v2.1H199.4z"/>
	<path d="M210.7,248c-0.9,0-1.6-0.2-2.2-0.5c-0.6-0.3-1-0.8-1.3-1.4c-0.3-0.6-0.5-1.5-0.5-2.5l2.6-0.4c0,0.6,0.1,1.1,0.2,1.4
		c0.1,0.4,0.2,0.6,0.4,0.8c0.2,0.2,0.4,0.2,0.6,0.2c0.3,0,0.5-0.1,0.6-0.3c0.1-0.2,0.1-0.4,0.1-0.7c0-0.6-0.1-1-0.4-1.4
		c-0.3-0.4-0.6-0.8-1.1-1.2l-1.2-1c-0.5-0.4-1-0.9-1.3-1.5c-0.4-0.6-0.5-1.3-0.5-2.1c0-1.2,0.3-2.1,1-2.7c0.7-0.6,1.6-0.9,2.8-0.9
		c0.7,0,1.3,0.1,1.8,0.4c0.4,0.2,0.8,0.6,1,1s0.4,0.8,0.5,1.3c0.1,0.4,0.1,0.9,0.1,1.3l-2.6,0.3c0-0.4,0-0.8-0.1-1.1
		c0-0.3-0.1-0.5-0.2-0.7c-0.1-0.2-0.3-0.2-0.6-0.2c-0.3,0-0.5,0.1-0.6,0.4c-0.1,0.2-0.2,0.5-0.2,0.7c0,0.5,0.1,0.9,0.4,1.2
		c0.2,0.3,0.6,0.7,1,1l1.1,1c0.6,0.5,1.1,1.1,1.5,1.7c0.4,0.6,0.6,1.4,0.6,2.4c0,0.6-0.1,1.2-0.4,1.8c-0.3,0.5-0.7,0.9-1.2,1.2
		C212.1,247.9,211.4,248,210.7,248z"/>
</g>
</svg>
