<?xml version="1.0" encoding="utf-8"?>
<!-- Generator: Adobe Illustrator 27.0.0, SVG Export Plug-In . SVG Version: 6.00 Build 0)  -->
<svg version="1.1" id="Capa_1" xmlns="http://www.w3.org/2000/svg" xmlns:xlink="http://www.w3.org/1999/xlink" x="0px" y="0px"
	 viewBox="0 0 300 300" style="enable-background:new 0 0 300 300;" xml:space="preserve">
<style type="text/css">
	.st0{font-family:'Oswald-Bold';}
	.st1{font-size:21px;}
</style>
<g>
	<path d="M26.9,134.8h34.7v-6.3h60.1v6.2h25.3v-2.8h58.5v2.8h35.6v-2.2l7.1,1.6v-2.4l2.6-1.2l3.9,1.8l3.8-1.7
		c2.2,2.2,5.2,3.5,8.5,3.5c6.6,0,12-5.4,12-12s-5.4-12-12-12c-3.3,0-6.3,1.3-8.5,3.5l-3.9-1.8l-3.9,1.8l-2.6-1.2v-2.4l-7.1,1.6v-2.2
		h-35.6v2.8h-58.5v-2.8h-25.3v6.4H61.6v-6.4H26.9c-3.4,0-6.1,2.7-6.1,6.1v13.2C20.8,132,23.6,134.8,26.9,134.8z M267.1,114.8
		c4,0,7.3,3.3,7.3,7.3c0,4-3.3,7.3-7.3,7.3c-4,0-7.3-3.3-7.3-7.3C259.8,118.1,263,114.8,267.1,114.8z M245.4,113.5v17l-4.2-1v-15
		L245.4,113.5z M210.4,114.1h26v15.8h-26V114.1z M205.6,115V129h-58.5V115H205.6z M126.5,114.1h15.8v15.8h-15.8V114.1z M121.8,118.6
		v7H61.6v-7H121.8z M56.8,130H34.8v-15.9h22.1V130z M25.6,115.5c0-0.6,0.5-1.3,1.3-1.3h5V130h-5c-0.6,0-1.3-0.5-1.3-1.3V115.5z"/>
	<path d="M267.1,128.4c3.5,0,6.3-2.8,6.3-6.3c0-3.5-2.8-6.3-6.3-6.3c-3.5,0-6.3,2.8-6.3,6.3C260.7,125.5,263.6,128.4,267.1,128.4z
		 M267.1,116.7c3,0,5.4,2.4,5.4,5.4c0,3-2.4,5.4-5.4,5.4s-5.4-2.4-5.4-5.4C261.7,119.1,264.1,116.7,267.1,116.7z"/>
	<path d="M267.1,156.5c-3.3,0-6.3,1.3-8.5,3.5l-3.9-1.8l-3.9,1.8l-2.6-1.2v-2.4l-7.1,1.6v-2.2h-35.6v2.8h-58.5v-2.8h-25.3v0.1H52.9
		v-0.1l-0.4,0.1h-4.4v0.9l-8,1.7v2.2c-2.2-2.6-5.5-4.3-9.2-4.3c-6.6,0-12,5.4-12,12c0,6.6,5.4,12,12,12c3.7,0,7-1.7,9.2-4.3v2.2
		l8,1.7v1h78.4v-0.1h20.6v-2.8h58.5v2.8h35.6v-2.2l7.1,1.6v-2.4l2.6-1.2l3.9,1.8l3.8-1.7c2.2,2.2,5.2,3.5,8.5,3.5
		c6.6,0,12-5.4,12-12C279.1,161.9,273.7,156.5,267.1,156.5z M30.9,175.8c-4,0-7.3-3.3-7.3-7.3c0-4,3.3-7.3,7.3-7.3s7.3,3.3,7.3,7.3
		C38.2,172.5,35,175.8,30.9,175.8z M44.9,174.6v-12.2l3.3-0.7v13.6L44.9,174.6z M52.9,160.7h68.8v15.8H52.9V160.7z M142.3,176.4
		h-15.8v-15.8h15.8V176.4z M147.1,175.5v-14.1h58.5v14.1H147.1z M236.4,176.4h-26v-15.8h26V176.4z M245.4,177l-4.2-1v-15l4.2-1V177z
		 M267.1,175.8c-4,0-7.3-3.3-7.3-7.3c0-4,3.3-7.3,7.3-7.3c4,0,7.3,3.3,7.3,7.3C274.3,172.5,271.1,175.8,267.1,175.8z"/>
	<path d="M267.1,162.2c-3.5,0-6.3,2.8-6.3,6.3c0,3.5,2.8,6.3,6.3,6.3c3.5,0,6.3-2.8,6.3-6.3C273.4,165,270.5,162.2,267.1,162.2z
		 M267.1,173.9c-3,0-5.4-2.4-5.4-5.4c0-3,2.4-5.4,5.4-5.4s5.4,2.4,5.4,5.4C272.4,171.5,270,173.9,267.1,173.9z"/>
	<path d="M30.9,162.2c-3.5,0-6.3,2.8-6.3,6.3c0,3.5,2.8,6.3,6.3,6.3s6.3-2.8,6.3-6.3C37.3,165,34.4,162.2,30.9,162.2z M30.9,173.9
		c-3,0-5.4-2.4-5.4-5.4c0-3,2.4-5.4,5.4-5.4s5.4,2.4,5.4,5.4C36.3,171.5,33.9,173.9,30.9,173.9z"/>
</g>
<text transform="matrix(1 0 0 1 69.6661 247.8076)" class="st0 st1">AMORTIGUADORES</text>
</svg>
