<?xml version="1.0" encoding="utf-8"?>
<!-- Generator: Adobe Illustrator 27.0.0, SVG Export Plug-In . SVG Version: 6.00 Build 0)  -->
<svg version="1.1" id="Capa_1" xmlns="http://www.w3.org/2000/svg" xmlns:xlink="http://www.w3.org/1999/xlink" x="0px" y="0px"
	 viewBox="0 0 300 300" style="enable-background:new 0 0 300 300;" xml:space="preserve">
<style type="text/css">
	.st0{enable-background:new    ;}
</style>
<g>
	<path d="M137.4,111.7h54.2c1.3,0,2.3-1,2.3-2.3s-1-2.3-2.3-2.3h-54.2c-1.3,0-2.3,1-2.3,2.3C135.1,110.7,136.1,111.7,137.4,111.7z"
		/>
	<path d="M191.7,193.4h-54.2c-1.3,0-2.3,1-2.3,2.3s1,2.3,2.3,2.3h54.2c1.3,0,2.3-1,2.3-2.3C194,194.5,193,193.4,191.7,193.4z"/>
	<path d="M192.7,113.6h-57.1c-6.2,0-11.2,5.1-11.2,11.2v19c0,3.6,1.7,6.8,4.4,8.9c-2.6,2.1-4.4,5.2-4.4,8.9v19
		c0,6.2,5.1,11.2,11.2,11.2h57.1c6.2,0,11.2-5.1,11.2-11.2v-19c0-3.6-1.7-6.8-4.4-8.9c2.6-2.1,4.4-5.2,4.4-8.9v-19
		C203.9,118.6,198.9,113.6,192.7,113.6z M199.3,143.8c0,3.6-2.9,6.5-6.5,6.5h-2.9c-1.3,0-2.3,1-2.3,2.3s1,2.3,2.3,2.3h2.9
		c3.6,0,6.5,2.9,6.5,6.5v19c0,3.6-2.9,6.5-6.5,6.5h-57.1c-3.6,0-6.5-2.9-6.5-6.5v-19c0-3.6,2.9-6.5,6.5-6.5h34.2
		c1.3,0,2.3-1,2.3-2.3s-1-2.3-2.3-2.3h-34.2c-3.6,0-6.5-2.9-6.5-6.5v-19c0-3.6,2.9-6.5,6.5-6.5h57.1c3.6,0,6.5,2.9,6.5,6.5
		L199.3,143.8L199.3,143.8z"/>
	<path d="M183.2,150.3c-1.3,0-2.3,1-2.3,2.3s1,2.3,2.3,2.3s2.3-1,2.3-2.3S184.5,150.3,183.2,150.3z"/>
	<path d="M32,73.3h80.7c1.2,0,2.3-1,2.3-2.3s-1-2.3-2.3-2.3h-6.3v-7c0-1.3-1-2.3-2.3-2.3s-2.3,1-2.3,2.3v7H42.9v-7
		c0-1.3-1-2.3-2.3-2.3s-2.3,1-2.3,2.3v7H32c-1.3,0-2.3,1-2.3,2.3S30.7,73.3,32,73.3z"/>
	<path d="M112.7,193.7H32c-1.3,0-2.3,1-2.3,2.3s1,2.3,2.3,2.3h80.7c1.2,0,2.3-1,2.3-2.3C115.1,194.7,114,193.7,112.7,193.7z"/>
	<path d="M113,123.8h-0.7V82.5c0-4.4-3.6-8-8-8H40.4c-4.4,0-8,3.6-8,8v41.3h-0.7c-1.3,0-2.3,1-2.3,2.3v14.7c0,1.3,1,2.3,2.3,2.3h0.7
		v41.4c0,4.4,3.6,8,8,8h63.8c4.5,0,8-3.6,8.1-8v-41.4h0.7c1.3,0,2.3-1,2.3-2.3v-14.7C115.4,124.9,114.3,123.8,113,123.8z
		 M107.7,184.6c0,1.9-1.5,3.4-3.4,3.4H40.4c-1.9,0-3.4-1.5-3.4-3.4V82.5c0-1.9,1.5-3.4,3.4-3.4h63.9c1.9,0,3.4,1.5,3.4,3.4
		C107.7,82.5,107.7,184.6,107.7,184.6z"/>
	<path d="M102.7,139.9H42.3c-0.7,0-1.4,0.7-1.4,1.4s0.7,1.4,1.4,1.4h60.4c0.7,0,1.4-0.7,1.4-1.4S103.5,139.9,102.7,139.9z"/>
	<path d="M102.7,124.8H42.3c-0.7,0-1.4,0.7-1.4,1.4c0,0.7,0.7,1.4,1.4,1.4h60.4c0.7,0,1.4-0.7,1.4-1.4
		C104.1,125.4,103.5,124.8,102.7,124.8z"/>
	<path d="M248.9,67.3c0.1-1.9-1.4-3.4-3.3-3.4h-3.1c-1.9,0-3.4,1.5-3.4,3.4v3.6h9.7v-3.6H248.9z"/>
	<path d="M250.3,136.9h-19.7c-1.3,0-2.3,1-2.3,2.3s1,2.3,2.3,2.3h19.7c1.3,0,2.3-1,2.3-2.3S251.6,136.9,250.3,136.9z"/>
	<path d="M272.9,193.3h-1v-38.6c0-2.7-0.6-5.3-1.7-7.8l-2.4-5.3c-0.7-1.9-1.2-3.8-1.2-5.9V78.1c0-3.4-2.7-6.1-6.1-6.1h-32.7
		c-3.4,0-6.1,2.7-6.1,6.1v57.7c0,2.1-0.4,4-1.2,5.9L218,147c-1.1,2.4-1.7,5.1-1.7,7.8v38.5h-0.9c-1.3,0-2.3,1-2.3,2.3s1,2.3,2.3,2.3
		h0.9h55.6h0.1h0.9c1.3,0,2.3-1,2.3-2.3S274.2,193.3,272.9,193.3z M221,193.3v-38.6c0-2.1,0.4-4,1.2-5.9l2.4-5.3
		c1.1-2.4,1.7-5.1,1.7-7.8V78.1c0-0.7,0.7-1.4,1.4-1.4h32.7c0.7,0,1.4,0.7,1.4,1.4v57.7c0,2.7,0.6,5.3,1.7,7.8l2.4,5.3
		c0.7,1.9,1.2,3.8,1.2,5.9v38.5H221z"/>
	<ellipse transform="matrix(0.1602 -0.9871 0.9871 0.1602 78.5838 370.9641)" cx="257.3" cy="139.3" rx="2.3" ry="2.3"/>
</g>
<g class="st0">
	<path d="M81.2,247.8v-17h4.4c0.7,0,1.4,0.1,2.1,0.2c0.7,0.1,1.2,0.3,1.7,0.6c0.5,0.3,0.9,0.8,1.2,1.3c0.3,0.6,0.4,1.3,0.4,2.3
		c0,0.7-0.1,1.3-0.3,1.7c-0.2,0.5-0.5,0.8-0.9,1.1c-0.4,0.3-0.8,0.5-1.3,0.6c0.7,0.1,1.2,0.3,1.7,0.6c0.4,0.3,0.8,0.8,1,1.4
		s0.3,1.3,0.3,2.1c0,0.9-0.1,1.6-0.3,2.3c-0.2,0.6-0.6,1.2-1,1.6c-0.4,0.4-1,0.7-1.6,0.9c-0.6,0.2-1.4,0.3-2.2,0.3H81.2z M85,237.6
		h0.7c0.6,0,1-0.1,1.3-0.3c0.3-0.2,0.5-0.4,0.6-0.8s0.2-0.7,0.2-1.2c0-0.4-0.1-0.8-0.2-1.1s-0.4-0.5-0.7-0.7s-0.7-0.2-1.2-0.2H85
		V237.6z M85,245.2h0.8c0.8,0,1.4-0.2,1.7-0.6s0.5-1,0.5-1.8c0-0.6-0.1-1.2-0.2-1.5c-0.1-0.4-0.4-0.7-0.7-0.8
		c-0.3-0.2-0.8-0.3-1.3-0.3H85V245.2z"/>
	<path d="M98.4,248.1c-1.3,0-2.3-0.2-3-0.7s-1.3-1.1-1.6-1.9c-0.3-0.8-0.5-1.8-0.5-3v-6.3c0-1.2,0.2-2.2,0.5-3
		c0.3-0.8,0.9-1.5,1.6-1.9c0.7-0.4,1.8-0.7,3-0.7c1.3,0,2.3,0.2,3.1,0.7c0.7,0.4,1.3,1.1,1.6,1.9c0.3,0.8,0.5,1.8,0.5,3v6.3
		c0,1.2-0.2,2.2-0.5,3c-0.3,0.8-0.9,1.5-1.6,1.9S99.7,248.1,98.4,248.1z M98.4,245.4c0.4,0,0.7-0.1,0.9-0.3c0.2-0.2,0.3-0.4,0.4-0.8
		c0.1-0.3,0.1-0.6,0.1-0.9v-8.2c0-0.3,0-0.7-0.1-1c-0.1-0.3-0.2-0.5-0.4-0.7c-0.2-0.2-0.5-0.3-0.9-0.3c-0.4,0-0.6,0.1-0.8,0.3
		c-0.2,0.2-0.3,0.4-0.4,0.7c-0.1,0.3-0.1,0.6-0.1,1v8.2c0,0.3,0,0.6,0.1,0.9c0,0.3,0.2,0.6,0.3,0.8C97.8,245.3,98,245.4,98.4,245.4z
		"/>
	<path d="M105.9,247.8v-17h3.8v14.5h3.9v2.5H105.9z"/>
	<path d="M119.5,248.1c-1.1,0-2-0.2-2.7-0.6c-0.7-0.4-1.3-1-1.6-1.8c-0.4-0.8-0.6-1.8-0.6-3.1l3.2-0.5c0,0.7,0.1,1.3,0.2,1.8
		c0.1,0.4,0.3,0.8,0.5,1c0.2,0.2,0.5,0.3,0.8,0.3c0.4,0,0.6-0.1,0.8-0.4c0.1-0.3,0.2-0.5,0.2-0.8c0-0.7-0.2-1.3-0.5-1.8
		c-0.3-0.5-0.8-1-1.4-1.5l-1.5-1.3c-0.6-0.5-1.2-1.2-1.6-1.9c-0.4-0.7-0.7-1.5-0.7-2.6c0-1.4,0.4-2.5,1.3-3.3c0.9-0.8,2-1.1,3.5-1.1
		c0.9,0,1.6,0.2,2.2,0.5c0.6,0.3,1,0.7,1.3,1.2c0.3,0.5,0.5,1,0.6,1.6c0.1,0.6,0.2,1.1,0.2,1.6l-3.2,0.4c0-0.5,0-0.9-0.1-1.3
		c0-0.4-0.2-0.7-0.3-0.9c-0.2-0.2-0.4-0.3-0.7-0.3c-0.4,0-0.6,0.1-0.8,0.4s-0.2,0.6-0.2,0.9c0,0.6,0.2,1.1,0.5,1.5
		c0.3,0.4,0.7,0.8,1.2,1.2l1.4,1.2c0.7,0.6,1.4,1.3,1.9,2.1c0.5,0.8,0.8,1.8,0.8,3c0,0.8-0.2,1.5-0.5,2.2c-0.4,0.7-0.9,1.2-1.5,1.5
		C121.2,247.9,120.4,248.1,119.5,248.1z"/>
	<path d="M124.8,247.8l3.2-17h4.3l3.2,17H132l-0.6-3.6h-2.5l-0.6,3.6H124.8z M129.3,242h1.8l-0.9-6.6L129.3,242z"/>
	<path d="M141.5,248.1c-1.1,0-2-0.2-2.7-0.6c-0.7-0.4-1.3-1-1.6-1.8c-0.4-0.8-0.6-1.8-0.6-3.1l3.2-0.5c0,0.7,0.1,1.3,0.2,1.8
		c0.1,0.4,0.3,0.8,0.5,1c0.2,0.2,0.5,0.3,0.8,0.3c0.4,0,0.6-0.1,0.8-0.4c0.1-0.3,0.2-0.5,0.2-0.8c0-0.7-0.2-1.3-0.5-1.8
		c-0.3-0.5-0.8-1-1.4-1.5l-1.5-1.3c-0.6-0.5-1.2-1.2-1.6-1.9c-0.4-0.7-0.7-1.5-0.7-2.6c0-1.4,0.4-2.5,1.3-3.3c0.9-0.8,2-1.1,3.5-1.1
		c0.9,0,1.6,0.2,2.2,0.5c0.6,0.3,1,0.7,1.3,1.2c0.3,0.5,0.5,1,0.6,1.6c0.1,0.6,0.2,1.1,0.2,1.6l-3.2,0.4c0-0.5,0-0.9-0.1-1.3
		c0-0.4-0.2-0.7-0.3-0.9c-0.2-0.2-0.4-0.3-0.7-0.3c-0.4,0-0.6,0.1-0.8,0.4s-0.2,0.6-0.2,0.9c0,0.6,0.2,1.1,0.5,1.5
		c0.3,0.4,0.7,0.8,1.2,1.2l1.4,1.2c0.7,0.6,1.4,1.3,1.9,2.1c0.5,0.8,0.8,1.8,0.8,3c0,0.8-0.2,1.5-0.5,2.2c-0.4,0.7-0.9,1.2-1.5,1.5
		C143.2,247.9,142.5,248.1,141.5,248.1z"/>
	<path d="M152.9,247.8v-17h4.3c1.5,0,2.6,0.2,3.5,0.6s1.4,1,1.7,1.7c0.3,0.8,0.5,1.8,0.5,3.1v6.2c0,1.3-0.2,2.3-0.5,3.1
		c-0.3,0.8-0.9,1.4-1.7,1.8c-0.8,0.4-2,0.6-3.4,0.6H152.9z M156.6,245.2h0.6c0.6,0,1-0.1,1.2-0.3s0.4-0.4,0.5-0.8
		c0.1-0.3,0.1-0.8,0.1-1.3v-7.4c0-0.5,0-0.9-0.1-1.2s-0.2-0.5-0.5-0.7s-0.7-0.2-1.2-0.2h-0.6V245.2z"/>
	<path d="M165.2,247.8v-17h7.6v2.6h-3.9v4.2h3v2.6h-3v5.1h3.9v2.5H165.2z"/>
	<path d="M179.1,247.8l3.2-17h4.3l3.2,17h-3.5l-0.6-3.6h-2.5l-0.6,3.6H179.1z M183.6,242h1.8l-0.9-6.6L183.6,242z"/>
	<path d="M191.4,247.8v-17h3.8v17H191.4z"/>
	<path d="M197.7,247.8v-17h4.7c1.1,0,2.1,0.1,3,0.4c0.8,0.3,1.5,0.7,2,1.4c0.5,0.7,0.7,1.6,0.7,2.8c0,0.7-0.1,1.3-0.2,1.9
		c-0.1,0.5-0.3,1-0.6,1.4s-0.7,0.7-1.3,1l2.3,8.2h-3.9l-1.9-7.6h-1.1v7.6H197.7z M201.4,238h1c0.5,0,0.9-0.1,1.2-0.3
		c0.3-0.2,0.5-0.5,0.6-0.8c0.1-0.4,0.2-0.8,0.2-1.3c0-0.7-0.1-1.3-0.4-1.7s-0.8-0.6-1.5-0.6h-1.2V238z"/>
	<path d="M210.2,247.8v-17h7.6v2.6h-3.9v4.2h3v2.6h-3v5.1h3.9v2.5H210.2z"/>
</g>
</svg>
