<?xml version="1.0" encoding="utf-8"?>
<!-- Generator: Adobe Illustrator 26.1.0, SVG Export Plug-In . SVG Version: 6.00 Build 0)  -->
<svg version="1.1" id="Capa_1" xmlns="http://www.w3.org/2000/svg" xmlns:xlink="http://www.w3.org/1999/xlink" x="0px" y="0px"
	 viewBox="0 0 48 48" style="enable-background:new 0 0 48 48;" xml:space="preserve">
<style type="text/css">
	.st0{fill:#029673;}
</style>
<g>
	<g>
		<path class="st0" d="M29,25.8h1.7v-0.7H29c-0.7,0-1-0.4-1-1.1v-4h-0.7v4C27.3,25.1,28,25.8,29,25.8z"/>
		<path class="st0" d="M41.5,22.2h1v-0.7h-1v-0.2c0-0.3,0.1-0.7,0.3-0.9c0.2-0.2,0.4-0.2,0.7-0.2v-0.6c-0.5-0.1-0.9,0.1-1.2,0.3
			c-0.3,0.3-0.5,0.8-0.5,1.4v4.5h0.7V22.2L41.5,22.2z"/>
		<path class="st0" d="M32.7,25.9c1,0,1.7-0.5,2-1.4H34c-0.3,0.5-0.7,0.8-1.3,0.8c-0.5,0-1-0.2-1.3-0.7c0,0-0.2-0.2-0.2-0.6
			c0-0.1,0-0.2,0-0.3c0-1,0.8-1.6,1.5-1.6c0.5,0,1,0.3,1.2,0.8l-2,0.9c-0.1,0.1-0.2,0.2-0.1,0.3l0.1,0.1c0.1,0.1,0.2,0.2,0.3,0.2
			l2.7-1.1c-0.3-1.1-1.2-1.8-2.1-1.8c-1.2,0-2.2,1-2.2,2.3C30.5,24.9,31.5,25.9,32.7,25.9z"/>
		<path class="st0" d="M37.6,25.9c0.3,0,0.6-0.1,0.9-0.2c0.1,0,0.1-0.1,0.1-0.2V25c0-0.1-0.1-0.1-0.2-0.1c-0.2,0.2-0.5,0.3-0.8,0.3
			c-0.8,0-1.5-0.7-1.5-1.6s0.6-1.6,1.5-1.6c0.8,0,1.4,0.7,1.5,1.6v2.1c0,0.1,0.1,0.1,0.1,0.1h0.6v-2.2c0-1.3-0.9-2.3-2.2-2.3
			c-1.2,0-2.2,1-2.2,2.3C35.4,24.9,36.4,25.9,37.6,25.9z"/>
		<path class="st0" d="M25.6,29l-2.2-1.5c0,0-0.5-0.3-0.5-0.8c0-0.3,0.3-0.5,0.4-0.6h2.4v-0.7h-2.5h-0.1c-0.4,0.1-1,0.5-1,1.3
			c0,0.9,0.9,1.4,0.9,1.4l2.2,1.5c0,0,0.2,0.1,0.2,0.4c0,0.4-0.2,0.7-0.3,0.7h-2.9v0.7H25c0.7,0,1.1-0.7,1.1-1.4
			C26.1,29.5,25.8,29.1,25.6,29z"/>
		<path class="st0" d="M29.2,27.1c-1.5,0-2.1,1.3-2.2,1.9v4.3h0.7v-4.2c0-0.2,0.3-1.3,1.5-1.3s1.4,1.1,1.4,1.3c0,0,0.1,1-0.4,1.4
			c-0.3,0.3-0.9,0.3-1.7,0l-0.2,0.7c1,0.4,1.8,0.3,2.4-0.1c0.8-0.7,0.7-2,0.7-2.1C31.2,28.4,30.7,27.1,29.2,27.1z"/>
		<path class="st0" d="M34.6,27.2c-0.8,0-1.4,0.2-1.8,0.3v-0.3h-0.7v4.3h0.7v-3.1c0.1-0.1,0.6-0.5,1.8-0.5V27.2z"/>
		<rect x="35.2" y="27.3" class="st0" width="0.7" height="4.3"/>
		<path class="st0" d="M40.5,31.5v-2.8c-0.1-0.6-0.5-1.6-1.8-1.6s-1.7,1-1.8,1.6v2.8h0.7v-2.7c0-0.1,0.1-0.9,1.1-0.9s1,0.8,1.1,0.9
			v2.8L40.5,31.5L40.5,31.5z"/>
		<path class="st0" d="M43.6,27.1c-0.6,0-1.1,0.2-1.5,0.6c-0.6,0.6-0.6,1.5-0.6,1.6s-0.1,1,0.5,1.6c0.4,0.4,0.9,0.6,1.6,0.6l0,0
			c0.1,0,0.7,0,1.1-0.3c0.1-0.1,0.1-0.2,0-0.3l-0.2-0.2c-0.1-0.1-0.1-0.1-0.2,0c-0.2,0.1-0.6,0.1-0.7,0.1c-0.5,0-0.9-0.1-1.1-0.4
			c-0.4-0.4-0.3-1.1-0.3-1.1l0,0c0,0,0-0.7,0.4-1.2c0.2-0.2,0.5-0.3,0.9-0.3c1.4,0,1.5,0.9,1.5,0.9v2.8c0,1-0.6,1.2-0.8,1.3h-1.5
			c-0.1,0-0.2,0.1-0.2,0.2v0.5h1.8l0,0c0.5-0.1,1.3-0.7,1.3-2v-2.8C45.7,28.1,45.2,27.1,43.6,27.1z"/>
		<path class="st0" d="M35.6,26.5c0.2,0,0.4-0.2,0.4-0.4c0-0.2-0.2-0.4-0.4-0.4s-0.4,0.2-0.4,0.4C35.2,26.3,35.4,26.5,35.6,26.5z"/>
		<polygon class="st0" points="29.8,35.1 28.9,32.5 28.3,32.5 28.3,35.5 28.7,35.5 28.7,33 29.6,35.5 30,35.5 30.8,33 30.8,35.5 
			31.2,35.5 31.2,32.5 30.6,32.5 		"/>
		<path class="st0" d="M32.9,33.2c-0.6,0-1.1,0.5-1.1,1.2s0.5,1.2,1.1,1.2c0.5,0,0.9-0.3,1.1-0.8h-0.4c-0.1,0.3-0.3,0.4-0.7,0.4
			s-0.7-0.3-0.8-0.7H34C34,33.7,33.4,33.2,32.9,33.2z M32.1,34.2c0.1-0.4,0.4-0.6,0.7-0.6s0.6,0.3,0.7,0.6H32.1z"/>
		<polygon class="st0" points="33,33 33.6,32.4 33.1,32.4 32.7,33 		"/>
		<polygon class="st0" points="36.1,33.3 35.7,33.3 35.2,34.1 34.6,33.3 34.2,33.3 34.9,34.4 34.1,35.5 34.6,35.5 35.2,34.7 
			35.7,35.5 36.2,35.5 35.4,34.4 		"/>
		<rect x="36.5" y="32.5" class="st0" width="0.4" height="0.4"/>
		<rect x="36.5" y="33.3" class="st0" width="0.4" height="2.2"/>
		<path class="st0" d="M38.5,33.6c0.3,0,0.5,0.2,0.6,0.4h0.4c-0.2-0.4-0.5-0.8-1-0.8c-0.6,0-1.1,0.5-1.1,1.2c0,0.6,0.5,1.2,1.1,1.2
			c0.5,0,0.9-0.3,1-0.8h-0.4c-0.1,0.3-0.4,0.4-0.6,0.4c-0.4,0-0.8-0.4-0.8-0.8S38.1,33.6,38.5,33.6z"/>
		<path class="st0" d="M41,33.2c-0.6,0-1.1,0.5-1.1,1.2s0.5,1.2,1.1,1.2s1.1-0.5,1.1-1.2C42.1,33.8,41.6,33.2,41,33.2z M41,35.2
			c-0.4,0-0.8-0.4-0.8-0.8c0-0.5,0.3-0.8,0.8-0.8c0.4,0,0.8,0.4,0.8,0.8C41.7,34.9,41.4,35.2,41,35.2z"/>
	</g>
	<g>
		<path class="st0" d="M20.5,30.6c0,0-13-9.4-17.3-22.4v5.7C3.3,13.8,7.4,25.6,20.5,30.6z"/>
		<path class="st0" d="M2.3,18.6c6.3,11.9,25,17,25,17C11,34.5,2.8,23.4,2.8,23.4L2.3,18.6z"/>
		<path class="st0" d="M39.9,36.4c0,0-20.2,4.2-32.7-6.4l3.4,5.6C10.6,35.6,24.4,44.7,39.9,36.4z"/>
	</g>
</g>
</svg>
