<?xml version="1.0" encoding="utf-8"?>
<!-- Generator: Adobe Illustrator 26.1.0, SVG Export Plug-In . SVG Version: 6.00 Build 0)  -->
<svg version="1.1" id="Capa_1" xmlns="http://www.w3.org/2000/svg" xmlns:xlink="http://www.w3.org/1999/xlink" x="0px" y="0px"
	 viewBox="0 0 250 185.47" style="enable-background:new 0 0 250 185.47;" xml:space="preserve">
<style type="text/css">
	.st0{fill:#095540;}
	.st1{fill:url(#SVGID_1_);}
	.st2{fill:url(#SVGID_00000078046292372045283950000010833085783722755755_);}
	.st3{fill:url(#SVGID_00000014627372721546279030000008890749095123588491_);}
</style>
<g>
	<g>
		<path class="st0" d="M153.02,102.61h9.35v-3.83h-9.35c-3.74,0-5.75-2.05-5.75-5.89V70.19h-3.97v22.71
			C143.3,99.01,147.13,102.61,153.02,102.61z"/>
		<path class="st0" d="M222.43,82.43h5.47v-3.78h-5.47v-0.93c0-1.64,0.28-3.83,1.5-4.95c0.93-0.89,2.24-1.21,4.06-1.07v-3.6
			c-2.81-0.32-5.05,0.28-6.73,1.82c-1.82,1.64-2.76,4.3-2.76,7.8v24.9h3.92V82.43z"/>
		<path class="st0" d="M173.5,103.17c5.56,0,9.58-2.89,11.45-8.03h-4.11c-1.54,2.8-3.92,4.3-7.34,4.3c-2.75,0-5.42-1.35-6.96-3.79
			c0,0-1.02-1.27-1.26-3.46c-0.09-0.51-0.14-1.03-0.14-1.63c0-5.51,4.3-8.87,8.12-8.87c2.71,0,5.38,1.64,6.87,4.25l-11.33,4.77
			c-0.68,0.29-1.02,1.04-0.79,1.74l0.26,0.79c0.27,0.79,1.15,1.2,1.92,0.87l14.81-6.26c-1.4-6.26-6.5-9.9-11.73-9.9
			c-6.68,0-12.1,5.7-12.1,12.66C161.17,97.66,166.59,103.17,173.5,103.17z"/>
		<path class="st0" d="M200.66,103.22c1.74,0,3.36-0.46,4.8-1.24c0.41-0.23,0.66-0.69,0.66-1.16v-2.26c0-0.49-0.55-0.76-0.94-0.48
			c-1.28,0.92-2.8,1.45-4.42,1.45c-4.49,0-8.13-3.88-8.13-8.92c0-5.05,3.64-9.02,8.13-9.02c4.3,0,7.97,3.86,8.12,8.72l0.02,11.52
			c0,0.43,0.35,0.78,0.78,0.78h3.14v-12c0-7.1-5.24-12.66-12.06-12.66c-6.68,0-12.1,5.42-12.1,12.66
			C188.65,97.8,194.03,103.22,200.66,103.22z"/>
		<path class="st0" d="M133.96,120.92l-12.09-8.1c-0.03-0.02-2.96-1.71-2.96-4.23c0-1.87,1.78-2.85,2.47-3.17h13.43v-3.98h-14.15
			l-0.32,0.11c-2.01,0.69-5.41,2.95-5.41,7.03c0,4.87,4.8,7.59,4.86,7.62l12.07,8.08c0.1,0.06,0.96,0.65,0.96,2.23
			c0,2.12-1.08,4.01-1.93,4.01h-15.93v3.97h15.93c3.69,0,5.9-4.06,5.9-7.98C136.79,123.3,134.91,121.42,133.96,120.92z"/>
		<path class="st0" d="M153.93,110.03c-8.36,0-11.63,6.98-12.19,10.67l-0.02,24.03h3.98v-23.55c0.2-1.02,1.67-7.17,8.24-7.17
			c6.78,0,7.6,6.41,7.67,7.17c0.01,0.05,0.57,5.63-2.46,8.03c-1.95,1.55-5.18,1.55-9.58,0l-1.32,3.75
			c5.79,2.03,10.29,1.81,13.39-0.65c4.74-3.78,3.96-11.25,3.93-11.52C165.23,117.06,162.38,110.03,153.93,110.03z"/>
		<path class="st0" d="M184.37,110.65c-4.56,0-7.67,0.91-9.75,1.94v-1.57h-3.98v23.79h3.98v-17.47c0.82-0.78,3.49-2.72,9.75-2.72
			V110.65z"/>
		<rect x="187.47" y="111.02" class="st0" width="3.98" height="23.79"/>
		<path class="st0" d="M217.16,134.5l-0.01-15.57c-0.27-3.07-2.67-8.9-9.84-8.9c-7.16,0-9.57,5.82-9.84,9.07v15.4h3.98l-0.01-15.22
			c0.05-0.54,0.68-5.28,5.88-5.28c5.2,0,5.82,4.74,5.87,5.09v15.4H217.16z"/>
		<path class="st0" d="M234.05,109.84c-3.37,0-6.12,1.05-8.17,3.13c-3.34,3.38-3.56,8.33-3.57,9.2c-0.08,0.85-0.32,5.49,2.73,8.9
			c2.1,2.36,5.18,3.55,9.04,3.55h0.02c0.43,0.03,3.81,0.19,6.35-1.49c0.58-0.38,0.66-1.2,0.17-1.69l-1.33-1.33
			c-0.33-0.32-0.82-0.4-1.23-0.17c-1.22,0.67-3.07,0.76-3.83,0.71c-2.8,0-4.89-0.74-6.2-2.2c-2.11-2.34-1.75-5.92-1.75-5.95
			l0.02-0.24c0-0.04,0.01-4.07,2.44-6.5c1.29-1.3,3.03-1.93,5.32-1.93c7.6,0,8.09,4.81,8.11,5.28v15.69c0,5.4-3.36,6.84-4.25,7.12
			h-8.44c-0.68,0-1.23,0.55-1.23,1.23v2.75h10.16l0.22-0.05c2.59-0.59,7.51-3.67,7.51-11.05v-15.75
			C246.04,115.85,243.39,109.84,234.05,109.84z"/>
		<path class="st0" d="M189.46,106.59c1.1,0,1.99-0.89,1.99-1.99c0-1.1-0.89-1.99-1.99-1.99c-1.1,0-1.99,0.89-1.99,1.99
			C187.47,105.7,188.36,106.59,189.46,106.59z"/>
		<polygon class="st0" points="157.19,154.4 152.24,140.22 149.09,140.22 149.09,157.04 151.15,157.04 151.15,142.96 156.07,157.04 
			158.28,157.04 163.2,142.96 163.2,157.04 165.26,157.04 165.26,140.22 162.13,140.22 		"/>
		<path class="st0" d="M174.36,144.24c-3.47,0-6.28,2.96-6.28,6.57c0,3.66,2.81,6.52,6.4,6.52c2.89,0,5.02-1.5,5.89-4.17h-2.18
			c-0.68,1.46-1.94,2.31-3.71,2.31c-2.06,0-4.05-1.53-4.31-4.12h10.5C180.69,146.91,177.59,144.24,174.36,144.24z M170.29,149.51
			c0.53-2.13,2.35-3.4,4.07-3.4c1.82,0,3.51,1.36,4.02,3.4H170.29z"/>
		<polygon class="st0" points="175.26,142.89 178.29,139.59 175.77,139.59 173.66,142.89 		"/>
		<polygon class="st0" points="192.72,144.56 190.2,144.56 187.29,149.02 184.38,144.56 181.86,144.56 186.03,150.6 181.57,157.04 
			184.09,157.04 187.29,152.17 190.49,157.04 193.01,157.04 188.53,150.6 		"/>
		<rect x="194.96" y="140.22" class="st0" width="2.06" height="2.45"/>
		<rect x="194.96" y="144.56" class="st0" width="2.06" height="12.48"/>
		<path class="st0" d="M205.92,146.14c1.63,0,2.91,0.92,3.61,2.28h2.21c-0.85-2.52-3.03-4.17-5.82-4.17c-3.44,0-6.26,2.96-6.26,6.57
			c0,3.61,2.81,6.52,6.26,6.52c2.78,0,4.99-1.65,5.82-4.17h-2.21c-0.68,1.36-1.96,2.28-3.61,2.28c-2.31,0-4.2-2.06-4.2-4.63
			C201.72,148.25,203.61,146.14,205.92,146.14z"/>
		<path class="st0" d="M219.58,144.25c-3.54,0-6.28,2.96-6.28,6.59c0,3.59,2.74,6.5,6.28,6.5c3.57,0,6.28-2.91,6.28-6.5
			C225.86,147.2,223.14,144.25,219.58,144.25z M219.58,155.44c-2.3,0-4.19-2.06-4.19-4.61c0-2.59,1.89-4.7,4.19-4.7
			c2.33,0,4.22,2.11,4.22,4.7C223.8,153.39,221.9,155.44,219.58,155.44z"/>
	</g>
	<g>
		<linearGradient id="SVGID_1_" gradientUnits="userSpaceOnUse" x1="9.2704" y1="66.7177" x2="105.7033" y2="66.7177">
			<stop  offset="0" style="stop-color:#4C4C4C"/>
			<stop  offset="1" style="stop-color:#FFFFFF"/>
		</linearGradient>
		<path class="st1" d="M105.7,129.32c0,0-72.34-52.16-96.43-125.21v31.8C9.27,35.91,32.26,101.71,105.7,129.32z"/>
		
			<linearGradient id="SVGID_00000073713268105085082160000018234057326166078651_" gradientUnits="userSpaceOnUse" x1="3.8548" y1="109.9475" x2="143.2516" y2="109.9475">
			<stop  offset="0" style="stop-color:#4C4C4C"/>
			<stop  offset="1" style="stop-color:#FFFFFF"/>
		</linearGradient>
		<path style="fill:url(#SVGID_00000073713268105085082160000018234057326166078651_);" d="M3.85,62.41
			c35.42,66.4,139.4,95.07,139.4,95.07C52.52,151.54,6.5,89.24,6.5,89.24L3.85,62.41z"/>
		
			<linearGradient id="SVGID_00000098185233992543006430000008260060452459808412_" gradientUnits="userSpaceOnUse" x1="31.32" y1="153.7467" x2="213.501" y2="153.7467">
			<stop  offset="0" style="stop-color:#4C4C4C"/>
			<stop  offset="1" style="stop-color:#FFFFFF"/>
		</linearGradient>
		<path style="fill:url(#SVGID_00000098185233992543006430000008260060452459808412_);" d="M213.5,161.91
			c0,0-112.47,23.48-182.18-35.77l19.21,31.14C50.53,157.27,127.32,208.22,213.5,161.91z"/>
	</g>
</g>
</svg>
