<?xml version="1.0" encoding="utf-8"?>
<!-- Generator: Adobe Illustrator 26.1.0, SVG Export Plug-In . SVG Version: 6.00 Build 0)  -->
<svg version="1.1" id="Capa_1" xmlns="http://www.w3.org/2000/svg" xmlns:xlink="http://www.w3.org/1999/xlink" x="0px" y="0px"
	 viewBox="0 0 250 185.5" style="enable-background:new 0 0 250 185.5;" xml:space="preserve">
<style type="text/css">
	.st0{fill:#FFFFFF;}
</style>
<g>
	<g>
		<path class="st0" d="M153,102.6h9.4v-3.8H153c-3.7,0-5.8-2.1-5.8-5.9V70.2h-4v22.7C143.3,99,147.1,102.6,153,102.6z"/>
		<path class="st0" d="M222.4,82.4h5.5v-3.8h-5.5v-0.9c0-1.6,0.3-3.8,1.5-4.9c0.9-0.9,2.2-1.2,4.1-1.1v-3.6
			c-2.8-0.3-5.1,0.3-6.7,1.8c-1.8,1.6-2.8,4.3-2.8,7.8v24.9h3.9L222.4,82.4L222.4,82.4z"/>
		<path class="st0" d="M173.5,103.2c5.6,0,9.6-2.9,11.4-8h-4.1c-1.5,2.8-3.9,4.3-7.3,4.3c-2.8,0-5.4-1.3-7-3.8c0,0-1-1.3-1.3-3.5
			c-0.1-0.5-0.1-1-0.1-1.6c0-5.5,4.3-8.9,8.1-8.9c2.7,0,5.4,1.6,6.9,4.2l-11.3,4.8c-0.7,0.3-1,1-0.8,1.7l0.3,0.8
			c0.3,0.8,1.1,1.2,1.9,0.9l14.8-6.3c-1.4-6.3-6.5-9.9-11.7-9.9c-6.7,0-12.1,5.7-12.1,12.7C161.2,97.7,166.6,103.2,173.5,103.2z"/>
		<path class="st0" d="M200.7,103.2c1.7,0,3.4-0.5,4.8-1.2c0.4-0.2,0.7-0.7,0.7-1.2v-2.3c0-0.5-0.6-0.8-0.9-0.5
			c-1.3,0.9-2.8,1.4-4.4,1.4c-4.5,0-8.1-3.9-8.1-8.9c0-5.1,3.6-9,8.1-9c4.3,0,8,3.9,8.1,8.7l0,11.5c0,0.4,0.4,0.8,0.8,0.8h3.1v-12
			c0-7.1-5.2-12.7-12.1-12.7c-6.7,0-12.1,5.4-12.1,12.7C188.6,97.8,194,103.2,200.7,103.2z"/>
		<path class="st0" d="M134,120.9l-12.1-8.1c0,0-3-1.7-3-4.2c0-1.9,1.8-2.8,2.5-3.2h13.4v-4h-14.2l-0.3,0.1c-2,0.7-5.4,2.9-5.4,7
			c0,4.9,4.8,7.6,4.9,7.6l12.1,8.1c0.1,0.1,1,0.7,1,2.2c0,2.1-1.1,4-1.9,4H115v4h15.9c3.7,0,5.9-4.1,5.9-8
			C136.8,123.3,134.9,121.4,134,120.9z"/>
		<path class="st0" d="M153.9,110c-8.4,0-11.6,7-12.2,10.7l0,24h4v-23.6c0.2-1,1.7-7.2,8.2-7.2c6.8,0,7.6,6.4,7.7,7.2
			c0,0.1,0.6,5.6-2.5,8c-1.9,1.6-5.2,1.6-9.6,0l-1.3,3.8c5.8,2,10.3,1.8,13.4-0.6c4.7-3.8,4-11.2,3.9-11.5
			C165.2,117.1,162.4,110,153.9,110z"/>
		<path class="st0" d="M184.4,110.7c-4.6,0-7.7,0.9-9.8,1.9V111h-4v23.8h4v-17.5c0.8-0.8,3.5-2.7,9.8-2.7V110.7z"/>
		<rect x="187.5" y="111" class="st0" width="4" height="23.8"/>
		<path class="st0" d="M217.2,134.5l0-15.6c-0.3-3.1-2.7-8.9-9.8-8.9c-7.2,0-9.6,5.8-9.8,9.1v15.4h4l0-15.2c0.1-0.5,0.7-5.3,5.9-5.3
			c5.2,0,5.8,4.7,5.9,5.1v15.4L217.2,134.5L217.2,134.5z"/>
		<path class="st0" d="M234.1,109.8c-3.4,0-6.1,1.1-8.2,3.1c-3.3,3.4-3.6,8.3-3.6,9.2c-0.1,0.8-0.3,5.5,2.7,8.9
			c2.1,2.4,5.2,3.6,9,3.6h0c0.4,0,3.8,0.2,6.4-1.5c0.6-0.4,0.7-1.2,0.2-1.7l-1.3-1.3c-0.3-0.3-0.8-0.4-1.2-0.2
			c-1.2,0.7-3.1,0.8-3.8,0.7c-2.8,0-4.9-0.7-6.2-2.2c-2.1-2.3-1.8-5.9-1.8-5.9l0-0.2c0,0,0-4.1,2.4-6.5c1.3-1.3,3-1.9,5.3-1.9
			c7.6,0,8.1,4.8,8.1,5.3v15.7c0,5.4-3.4,6.8-4.2,7.1h-8.4c-0.7,0-1.2,0.6-1.2,1.2v2.8h10.2l0.2-0.1c2.6-0.6,7.5-3.7,7.5-11.1V119
			C246,115.8,243.4,109.8,234.1,109.8z"/>
		<path class="st0" d="M189.5,106.6c1.1,0,2-0.9,2-2s-0.9-2-2-2s-2,0.9-2,2S188.4,106.6,189.5,106.6z"/>
		<polygon class="st0" points="157.2,154.4 152.2,140.2 149.1,140.2 149.1,157 151.1,157 151.1,143 156.1,157 158.3,157 163.2,143 
			163.2,157 165.3,157 165.3,140.2 162.1,140.2 		"/>
		<path class="st0" d="M174.4,144.2c-3.5,0-6.3,3-6.3,6.6c0,3.7,2.8,6.5,6.4,6.5c2.9,0,5-1.5,5.9-4.2h-2.2c-0.7,1.5-1.9,2.3-3.7,2.3
			c-2.1,0-4.1-1.5-4.3-4.1h10.5C180.7,146.9,177.6,144.2,174.4,144.2z M170.3,149.5c0.5-2.1,2.4-3.4,4.1-3.4c1.8,0,3.5,1.4,4,3.4
			H170.3z"/>
		<polygon class="st0" points="175.3,142.9 178.3,139.6 175.8,139.6 173.7,142.9 		"/>
		<polygon class="st0" points="192.7,144.6 190.2,144.6 187.3,149 184.4,144.6 181.9,144.6 186,150.6 181.6,157 184.1,157 
			187.3,152.2 190.5,157 193,157 188.5,150.6 		"/>
		<rect x="195" y="140.2" class="st0" width="2.1" height="2.4"/>
		<rect x="195" y="144.6" class="st0" width="2.1" height="12.5"/>
		<path class="st0" d="M205.9,146.1c1.6,0,2.9,0.9,3.6,2.3h2.2c-0.9-2.5-3-4.2-5.8-4.2c-3.4,0-6.3,3-6.3,6.6s2.8,6.5,6.3,6.5
			c2.8,0,5-1.6,5.8-4.2h-2.2c-0.7,1.4-2,2.3-3.6,2.3c-2.3,0-4.2-2.1-4.2-4.6S203.6,146.1,205.9,146.1z"/>
		<path class="st0" d="M219.6,144.2c-3.5,0-6.3,3-6.3,6.6c0,3.6,2.7,6.5,6.3,6.5c3.6,0,6.3-2.9,6.3-6.5
			C225.9,147.2,223.1,144.2,219.6,144.2z M219.6,155.4c-2.3,0-4.2-2.1-4.2-4.6c0-2.6,1.9-4.7,4.2-4.7c2.3,0,4.2,2.1,4.2,4.7
			C223.8,153.4,221.9,155.4,219.6,155.4z"/>
	</g>
	<g>
		<path class="st0" d="M105.7,129.3c0,0-72.3-52.2-96.4-125.2v31.8C9.3,35.9,32.3,101.7,105.7,129.3z"/>
		<path class="st0" d="M3.8,62.4c35.4,66.4,139.4,95.1,139.4,95.1C52.5,151.5,6.5,89.2,6.5,89.2L3.8,62.4z"/>
		<path class="st0" d="M213.5,161.9c0,0-112.5,23.5-182.2-35.8l19.2,31.1C50.5,157.3,127.3,208.2,213.5,161.9z"/>
	</g>
</g>
</svg>
