<?xml version="1.0" encoding="utf-8"?>
<!-- Generator: Adobe Illustrator 23.0.1, SVG Export Plug-In . SVG Version: 6.00 Build 0)  -->
<svg version="1.1" id="Capa_1" xmlns="http://www.w3.org/2000/svg" xmlns:xlink="http://www.w3.org/1999/xlink" x="0px" y="0px"
	 viewBox="0 0 218 95.31" style="enable-background:new 0 0 218 95.31;" xml:space="preserve">
<style type="text/css">
	.st0{fill:#FFFFFF;}
</style>
<path class="st0" d="M218,0h-55.56c-2.62,2.37-4.88,5.1-6.76,8.22V0h-22.83v5.19h-0.86c-0.8-1.7-1.86-3.43-3.17-5.19H66.41
	C65.44,1.7,64.63,3.6,64,5.73h-0.86V0H25.57c-0.98,1.7-1.79,3.6-2.41,5.73h-0.86V0H0v74.17h22.99v-46.9c0-3.38,0.76-6.37,2.29-8.96
	c1.53-2.59,3.62-4.61,6.26-6.07s5.66-2.19,9.04-2.19c0.08,0,0.17,0.01,0.26,0.01v64.11h22.99v-46.9c0-3.38,0.76-6.37,2.29-8.96
	c1.53-2.59,3.62-4.61,6.26-6.07c1.93-1.06,4.07-1.73,6.39-2.02c-2.69,6.09-4.06,13.52-4.06,22.34c0,9.18,1.5,16.76,4.51,22.75
	c3,5.99,7.05,10.44,12.14,13.33c5.09,2.9,10.75,4.35,16.98,4.35c4.39,0,8.17-0.65,11.33-1.94c3.17-1.29,5.76-2.97,7.77-5.02
	c2.01-2.05,3.53-4.23,4.53-6.53h0.97v15.17c0,5.43-1.63,9.34-4.88,11.71c-3.26,2.38-7.39,3.56-12.39,3.56
	c-3.35,0-6.18-0.43-8.5-1.29c-2.32-0.86-4.18-1.97-5.59-3.32c-1.4-1.35-2.43-2.78-3.08-4.29l-21.27,2.86
	c0.93,4.17,2.97,7.97,6.1,11.39c0.01,0.01,0.02,0.02,0.03,0.03h64.56c0.91-0.94,1.77-1.92,2.55-2.97
	c3.45-4.66,5.18-10.44,5.18-17.35V57.76c3.2,5.31,7.47,9.53,12.81,12.66c6.1,3.58,13.34,5.37,21.72,5.37
	c8.38,0,15.62-1.79,21.72-5.37c2.2-1.29,4.22-2.78,6.06-4.44V0z M131,44.94c-1.38,3.47-3.36,6.14-5.94,7.99
	c-2.57,1.85-5.71,2.78-9.42,2.78c-3.78,0-6.95-0.94-9.53-2.83c-2.57-1.89-4.53-4.57-5.88-8.04s-2.02-7.6-2.02-12.39
	c0-4.71,0.67-8.87,2-12.47c1.33-3.6,3.29-6.41,5.88-8.45c2.59-2.03,5.77-3.05,9.55-3.05c3.71,0,6.86,0.99,9.45,2.97
	c2.59,1.98,4.57,4.76,5.94,8.34c1.37,3.58,2.05,7.8,2.05,12.66C133.07,37.31,132.38,41.47,131,44.94z M205.69,45.78
	c-1.31,3.78-3.25,6.76-5.8,8.93c-2.55,2.18-5.74,3.27-9.55,3.27c-3.85,0-7.08-1.09-9.69-3.27c-2.61-2.18-4.57-5.16-5.88-8.93
	c-1.31-3.78-1.97-8.08-1.97-12.9c0-4.82,0.66-9.12,1.97-12.9c1.31-3.78,3.27-6.76,5.88-8.96c2.61-2.19,5.84-3.29,9.69-3.29
	c3.81,0,7,1.1,9.55,3.29c2.55,2.2,4.49,5.18,5.8,8.96c1.31,3.78,1.97,8.08,1.97,12.9C207.66,37.7,207,42,205.69,45.78z"/>
</svg>
