<?xml version="1.0" encoding="utf-8"?>
<!-- Generator: Adobe Illustrator 24.0.0, SVG Export Plug-In . SVG Version: 6.00 Build 0)  -->
<svg version="1.1" id="Capa_1" xmlns="http://www.w3.org/2000/svg" xmlns:xlink="http://www.w3.org/1999/xlink" x="0px" y="0px"
	 viewBox="0 0 1046.1 566.8" style="enable-background:new 0 0 1046.1 566.8;" xml:space="preserve">
<g>
	<path d="M284.5,258.6c3.5-4.1,7-8.1,10.9-11.8c3.8-3.8,7.8-7.3,12-10.7c4.1-3.4,8.5-6.6,12.8-9.9l25.7-19.8l25.8-19.7l25.8-19.6
		l26-19.4c6.6-5.1,13.1-10.2,19.5-15.4c6.5-5.2,12.9-10.4,19.3-15.7c0.6-0.5,0.7-1.3,0.3-2l0,0l-14.6-23.8L433.4,67L419,43.1
		l-14.3-23.9c-0.8-1.4-2.5-2.1-4.1-1.6l-0.2,0.1l-20.6,5.8c-0.4,0.1-0.9,0.3-1.2,0.6l-0.2,0.1L324.4,65l-26.9,20.4l-26.9,20.5
		c-0.7,0.5-1.3,1.2-1.7,1.9l-0.2,0.4l-12.3,20.1l-12.3,20.2l-12.2,20.2l-11.3,18.8l-13.9,12.8c0-0.7,0-1.3,0-2l0.2-27.1l0.2-27.1
		l0-27.1c0-1.6-0.3-3.3-1.1-4.8l0,0l-10.6-22.8l-10.7-22.8c-7.1-15.2-14.2-30.3-21.4-45.5l-0.1-0.2c-1.8-3.7-5.6-6.3-10.1-6.3
		l-45.6,0.3l-45.6,0.4l-0.2,0c-2.8,0-5.6,1.2-7.5,3.5L29.5,47.5l-0.1,0.2c-1.5,1.7-2.4,4-2.4,6.5l0.9,100.6l0.7,100.6l1.3,199.6
		l-7.1,15.9l-0.1,0.1c-0.4,1-0.7,2.1-0.6,3.3l3.5,40.8l0,0.1l0,0c0.3,3.7,3.6,6.4,7.2,6l172.7-15.5l0.1,0c0.7-0.1,1.5-0.3,2.2-0.7
		l26.6-16l0.1-0.1c1.4-0.9,2.4-2.5,2.4-4.3l-0.4-31.1l7.1-50l0-0.1c0-0.3,0-0.6,0-0.9l-9-81.7c4-3.1,7.7-6.6,11-10.4
		c1.8-2.1,3.5-4.4,5-6.7l4.4-6.8c5.9-9,12.3-17.5,19.1-25.9C277.5,266.9,280.9,262.7,284.5,258.6z"/>
	<path d="M468.9,342.4c-2.5-3.5-5.1-7-7.5-10.6c-2.5-3.6-5-7.1-7.5-10.7c-2.5-3.6-5-7.1-7.4-10.7l-7.3-10.8c-0.9-1.3-2.5-1.9-4-1.3
		l-0.4,0.1l-9.5,3.2c-0.3,0.1-0.7,0.3-1,0.5l-0.4,0.3l-24.2,20.3l-12.1,10.2l-12,10.2c-0.5,0.4-1,1-1.3,1.6l-0.4,0.8l-5.2,9.7
		l-5.2,9.7l-5.1,9.8c-0.3,0.6-0.6,1.2-0.9,1.8l-0.8-10.5l-1-12.6c-0.1-1.6-0.6-3.2-1.4-4.7l0,0l-5.8-10.2c-1.9-3.4-3.9-6.8-5.9-10.1
		c-3.9-6.7-7.8-13.5-11.8-20.2l-0.2-0.3c-2.1-3.5-6.1-5.7-10.4-5.2l-21.1,2.1l-21.1,2.2l-0.5,0c-2.7,0.3-5.3,1.7-7,4.1l-10.3,14.3
		l-0.3,0.3c-1.3,1.8-2,4.1-1.7,6.5c1.6,15.5,3.3,31.1,4.8,46.6l4.6,46.7l9,91.9l-2.3,6.8l-0.1,0.2c-0.3,1-0.4,2.1-0.2,3.2l3.4,18.8
		l0,0.2l0,0c0.7,3.6,4.1,6,7.7,5.3l39.8-7.3l39.8-7.4l0.2,0c0.7-0.1,1.4-0.4,2-0.9l11.6-8.6l0.2-0.1c1.3-1,2.1-2.6,1.9-4.4
		c-0.5-4.8-1-9.6-1.6-14.3l1-23.2l0-0.3c0-0.2,0-0.5-0.1-0.7l-7.9-36.8c1.5-1.5,2.9-3.2,4.2-5c0.8-1.1,1.5-2.3,2.1-3.5l1.7-3.4
		c1.1-2.2,2.4-4.4,3.6-6.5c1.2-2.1,2.7-4.2,4.1-6.3c1.4-2.1,2.7-4.2,4.2-6.3c1.4-2.1,2.9-4,4.5-5.9c1.6-1.9,3.3-3.7,5-5.5
		c1.7-1.8,3.6-3.4,5.5-5.1l11.1-10.3l11.2-10.2l11.3-10.1l11.4-10l8.5-7.9c2.8-2.7,5.7-5.3,8.5-7.9
		C469.3,343.9,469.4,343.1,468.9,342.4L468.9,342.4z"/>
	<path d="M685.9,154.8c0,0,0.2,0.1,0.3,0.2c0,0-0.1-0.1-0.1-0.1C685.9,154.7,685.9,154.8,685.9,154.8z"/>
	<path d="M710.6,227.9c-0.2-1.6-0.5-2.9-0.6-4.4c-0.3-2.9-0.6-5.8-0.7-8.8c-0.2-5.9-0.3-11.9-0.5-17.8l-0.1-4.5l0-1.1l0-1.1l0.1-2.2
		c0.1-3,0.1-6,0.1-9.1l0-4.6l0-2.3l0-1.2c0-0.4-0.1-1-0.1-1.6c-0.3-2.2-1.2-4.6-2.8-6.5c-1.6-1.9-3.6-3.2-5.5-4.1
		c-1.9-0.8-3.8-1.3-5.6-1.6l-2.3-0.4c-0.6-0.1-1.3-0.2-1.9-0.4c-1.2-0.3-2.5-0.7-3.6-1.1c-0.3-0.1-0.5-0.2-0.7-0.3
		c0.2,0.2,0.6,0.6,0.9,1.3l-5-3.9c-0.9-0.1-1.7,0-2.4,0.1c-0.7,0.1-1.2,0.3-1.7,0.5c-0.9,0.4-1.6,0.8-2.1,1.1
		c-0.6,0.4-1,0.7-1.5,1.1l-0.6,0.5l-0.5,0.4c-1,0.8-2.1,1.6-3.2,2.5c-2.4,1.7-4.5,3-6.8,4.1c-0.6,0.3-1.1,0.5-1.7,0.7
		c-0.3,0.1-0.5,0.2-0.7,0.2c-0.2,0.1-0.4,0.1-0.6,0.2c-0.9,0.2-1.8,0.2-2.7,0.2c-0.5,0-1-0.1-1.5-0.2c-0.1,0-0.2,0-0.2,0l0.1,0
		c0.1,0,0.1,0,0.1,0c0,0,0,0-0.1-0.1c-0.2-0.1-0.5-0.3-0.9-0.6l-0.6-0.5l-0.9-0.7l-7.2-5.7c-2.9-2.2-5.8-4-8.7-5.6
		c-1.4-0.8-3.1-1.7-4.7-2.4c-1.6-0.7-3.2-1.4-4.8-2c-3.2-1.2-6.3-2.2-9.5-3.1c-0.2-0.1-0.5-0.1-0.8-0.2l-0.5-0.1
		c-11.8-1.5-23.2-0.4-34,1.6c-10.8,2-21.7,5-32,9.2c-5.2,2.1-10.2,4.4-15.1,7c-4.9,2.6-9.6,5.4-14.4,8.5
		c-9.4,6.2-18.1,13.6-25.8,21.8c-3.8,4.1-7.5,8.4-10.8,12.9c-3.5,4.6-6.7,9.6-9.4,14.8c-5.4,10.4-8.8,21.7-10.7,33
		c-1.9,11.3-2.2,22.7-1.3,33.9c0.1,1.4,0.3,2.8,0.4,4.2l0.5,4.1c0.3,2.7,0.8,5.4,1.2,8.1c0.9,5.4,2,10.8,3.3,16.1l0.1,0.3
		c0.3,1.2,0.8,2.3,1.6,3.4l15.6,21.5l0.2,0.3c1,1.4,2.4,2.5,4.1,3.2c5.3,2.2,10.5,4.4,15.3,6.8c1.1,0.6,2.4,1.2,3.6,1.9
		c1.2,0.7,2.4,1.3,3.6,2c1.2,0.7,2.3,1.4,3.5,2.1l2,1.2c0.8,0.5,1.5,0.9,2.3,1.4c3.2,1.7,6.7,3.2,10.3,4.1c3.5,0.9,6.7,1.4,9.9,1.8
		c3.2,0.4,6.4,0.6,9.4,0.8c3.1,0.1,6.1,0.2,9.1,0.3c11.9,0.3,24.1-0.1,35.9-0.9l17.4-1l4.4-0.2l1.4-0.1c-0.2,0.8-0.4,1.7-0.5,2.5
		c-0.5,2.5-0.9,4.9-1.2,7.4l-0.9,7c-0.6,4.5-1.3,8.9-2.1,13.3c-0.4,2.2-0.9,4.4-1.4,6.6l-0.8,3.3c-0.3,1.1-0.5,2.1-0.8,3.1
		c-1.1,4.1-2.6,8.1-4.4,11.9c-0.9,1.9-1.9,3.8-2.9,5.7c-1,1.8-2.2,3.7-3.2,5.2c-2.2,3.1-5,5.8-8.2,8.1c-3.1,2.2-6.7,4.1-10.4,5.6
		c-1.8,0.5-3.8,1-5.8,1.4l-6.5,1.5c-4.4,1-8.8,1.9-13.1,2.8c-4.4,0.9-8.7,1.7-13.1,2.5l-6.6,1.1l-3.3,0.5l-3.4,0.5
		c-1.2,0.1-2.4,0.4-3.6,0.6l-3.4,0.6l-6.7,1.3c-4.5,0.9-9,1.9-13.7,3.2c-2.4,0.7-4.8,1.4-7.6,2.9c-0.7,0.4-1.4,0.8-2.2,1.4
		c-0.8,0.6-1.7,1.3-2.7,2.6c-0.2,0.4-0.5,0.7-0.7,1.1c-0.1,0.2-0.2,0.4-0.3,0.7l-0.1,0.3l-0.1,0.2c-0.2,0.5-0.3,1-0.5,1.5
		c-0.2,1-0.3,2-0.4,2.9c0,0.9,0,1.8,0.1,2.6c0,0.4,0.1,0.8,0.2,1.2l0.2,1c0-0.3,0,0-0.1,0.5c-0.3,1-1.1,2.7-2.2,4.3l4.4,9.5
		c-0.2,0-0.6-0.1-1.3-0.5c-0.7-0.4-1.3-1.3-1.5-1.8c-0.1-0.4-0.2-0.6-0.2-0.7c0,0,0,0,0,0c0,0,0,0.1,0,0.3l0,0.4l0,0.7
		c0,0.3,0,0.5,0,0.8c0,0.5,0.1,1,0.2,1.5c0.2,1,0.5,1.8,0.8,2.6c0.7,1.5,1.5,2.7,2.3,3.8c0.4,0.5,0.8,1,1.2,1.4
		c0.2,0.2,0.5,0.6,0.8,0.8c0.3,0.3,0.6,0.5,0.9,0.8c1.2,1,2.5,1.7,3.7,2.2c2.4,1.1,4.7,1.6,6.9,2c1.1,0.2,2.2,0.3,3.2,0.4l2.9,0.2
		c1.9,0.1,3.9,0.3,5.8,0.3c3.9,0.2,7.8,0.2,11.7,0.2c7.8-0.1,15.6-0.8,23.3-2l22.4-3.8l22.2-3.8l5.5-1l2.8-0.5
		c1-0.2,2.1-0.4,3.1-0.6c4-0.9,7.8-2.3,11.5-3.9c7.5-3.5,13.6-8.5,19.4-13.5c5.8-5,11.3-10.2,16.8-15.5l0.1-0.1c0,0,0.1-0.1,0.1-0.1
		c4.8-5.8,9.1-11.9,13.1-18.1c2-3.1,3.9-6.3,5.8-9.5c1.8-3.2,3.7-6.4,5.3-9.8c6.6-13.6,10-28.2,11.7-42.9c0.9-7.4,1.2-14.7,1.8-22.1
		l1.6-22c1.3-14.6,1.8-29.4,4.7-43.7c0.4-2,0.9-3.9,1.6-5.8c0.7-1.8,1.6-3.6,2.8-5c0.1-0.2,0.2-0.4,0.3-0.6l0,0
		c0.7-5.9,1.7-11.8,3-17.5c1.4-5.9,2.5-11.9,3.2-17.9c0.7-6,1.1-12.2,0.6-18.4C710.9,231,710.8,229.4,710.6,227.9z M633.7,277.9
		c-0.8,5.4-1.6,10.8-2.2,16.2c-0.5,3.7-0.9,7.5-1.3,11.3c-3.5,1.6-7.1,3-10.7,3.9c-0.7,0.2-1.3,0.3-2,0.4l-2.2,0.4
		c-1.5,0.2-2.9,0.5-4.3,0.6c-1.4,0.2-2.8,0.3-4.2,0.3c-0.7,0-1.4,0-2,0l-1,0c-0.3,0-0.8-0.1-1.2-0.1l-19.3-1.7l-10-0.9
		c-2.3-0.2-4.6-0.3-6.9-0.5l-12-14.6c0.2-3,0.5-5.9,0.9-8.9c0.6-3.8,1.2-7.7,2-11.5c0.8-3.8,1.6-7.7,2.5-11.5c0.5-1.9,1-3.9,1.5-5.7
		c0.2-0.9,0.5-1.8,0.8-2.7c0.3-0.9,0.6-1.8,0.9-2.7c2.7-7.2,6.4-14.3,11-20.8c4.5-6.5,9.9-12.5,15.7-18c1.4-1.2,2.9-2.3,4.5-3.3
		c1.6-1,3.2-2,4.8-2.8c2.8-1.4,6-1.8,9.2-1.5c0.4,0,0.8,0.1,1.2,0.2c0.4,0.1,0.7,0.1,1.1,0.2l2.4,0.6c1.6,0.4,3.2,0.9,4.8,1.4
		c3.2,1,6.4,2.1,9.4,3.3c2.8,1.2,5.1,2.9,6.7,4.9c1.7,2,2.7,4.2,3.4,6.8c0.4,1.3,0.6,2.6,0.8,4c0.1,0.7,0.2,1.4,0.3,2.1l0.2,2.3
		c0.5,5.5,0.8,11.2,1.3,17c-1.2,5-2.2,10.1-3.2,15.2C635.5,267.2,634.6,272.5,633.7,277.9z"/>
	<path d="M488,492.3C488,492.3,488,492.3,488,492.3C488,492.3,488,492.3,488,492.3z"/>
	<path d="M1018.5,257.7c-0.4-5.5-1-11-1.8-16.5c-1.6-10.9-4-21.7-7.6-32.2c-3.6-10.4-8.4-20.5-14.5-29.7
		c-3.8-5.9-8.2-11.3-13.1-16.3c-4.9-5-10.2-9.6-15.9-13.7l-8.4-6.1c-2.8-2-5.7-4-8.6-6c-2.9-1.9-5.8-3.8-8.8-5.7
		c-3-1.9-5.9-3.7-9-5.4c-6.1-3.4-12.2-6.7-18.2-10.1l-9.1-5.1c-3-1.7-6.2-3.4-9.4-4.9c-12.8-6.2-26.7-11.1-41.6-12.8
		c-0.5-0.1-1,0-1.4,0l-0.7,0.1l-18.3,3.1c-1.4,0.2-2.8,0.9-3.9,2.1l-0.6,0.6c-7.3,7.4-14.5,14.9-21.6,22.5L795.4,133l-10.6,11.4
		c-7,7.6-14.1,15.3-21,23l-20.9,23.1c-0.7,0.7-1.3,1.6-1.7,2.6l-0.1,0.1l-11.6,24.5c-0.4,0.8-0.7,1.7-0.9,2.6l0,0
		c-0.5,2.5-0.8,4.9-1.1,7.2c-0.1,1.2-0.2,2.3-0.3,3.5l-0.1,1.7c0,0.6-0.1,1.3-0.1,1.9c-0.1,4.5,0.3,8.7,0.9,12.8
		c-0.9,7.8-1.7,15.6-2.5,23.3l-2.6,24.8l-5,49.7l0,0.4c0,0.1,0,0.3,0,0.5c-0.1,7.5,0.2,14.5,0.5,21.5l0.3,5.3
		c0.1,1.8,0.2,3.6,0.4,5.5c0.3,3.6,0.7,7.3,1.2,10.9c1,7.2,2.3,14.3,4,21.5c1.8,7.2,4.1,14.3,7,21.2c1.5,3.4,3.1,6.8,4.8,10.1
		c0.9,1.6,1.9,3.4,2.9,5.1c1.1,1.7,2.2,3.3,3.5,4.9c4.9,6.4,11.5,12,19.1,15.5c6.7,3,13.3,5.7,20.2,8.1c6.9,2.3,13.9,4.3,21,5.8
		c7.1,1.6,14.3,2.7,21.5,3.4c7.2,0.7,14.5,1,21.7,0.8c7.2-0.2,14.5-0.8,21.6-1.8c7.2-1,14.3-2.5,21.3-4.3c1.7-0.5,3.5-0.9,5.2-1.5
		l5.2-1.6c3.4-1.2,6.8-2.4,10.2-3.7c6.7-2.7,13.3-5.7,19.6-9.2c6.3-3.5,12.4-7.2,18.3-11.3c5.9-4.1,11.5-8.5,17-13.1l0.1-0.1
		c0.6-0.5,1-1.1,1.4-1.8l0.8-1.8c0.3-0.6,0.6-1.3,0.9-2c0.5-1.3,1-2.6,1.5-3.8c0.9-2.5,1.8-5,2.6-7.5c0.9-2.5,1.6-4.9,2.5-7.3
		c0.9-2.4,1.8-4.8,2.7-7.2c0.9-2.3,1.9-4.7,3-7c1-2.2,2.1-4.2,3.4-6.1c0.6-0.9,1.3-1.9,2.1-2.7c0.4-0.4,0.7-0.8,1.1-1.3
		c0.4-0.4,0.7-0.7,1-1c0.7-0.6,1.3-0.9,1.7-1c0.4-0.1,0.5-0.1,0.9,0l0.7,0.2l0.1,0c2.3,0.6,4.6-0.7,5.2-3
		c7-26.1,13.9-52.3,20.8-78.4l0-0.1c0,0,0-0.1,0-0.2c1.6-11,2.3-22,2.3-33.1C1019,268.7,1018.9,263.2,1018.5,257.7z M825.4,411.3
		c-1.3-2.2-2.6-4.5-3.8-6.7c-2.2-3.7-4.4-7.5-6.6-11.2c-3.7-6.3-7.6-12.5-11.5-18.7l5.2-25.6l3.1-15.1l3.2-15.1l13-59.7l5-11.3
		l30.3-14.1l12.1,6.6c5,2.7,10,5.4,15,8c5,2.7,10.1,5.2,15.1,7.8c4.6,2.4,9.1,4.7,13.7,7c0.4,3.1,1.1,6.1,2,8.9
		c0.6,1.8,1.2,3.5,1.9,5.2c0.7,1.7,1.4,3.2,2,4.9c1.3,3.3,2.5,6.5,3.7,9.9c0.6,1.7,1.1,3.3,1.7,5c0.5,1.7,1,3.3,1.5,5
		c0.8,3.4,1.5,6.8,1.8,10.3c0.4,3.5,0.5,7,0.4,10.4c-0.1,3.5-0.7,6.9-1.6,10.2c-0.9,3.3-2.2,6.6-3.7,9.7c-1.3,2.6-3,5.1-4.8,7.5
		c-1.8,2.4-3.8,4.6-5.9,6.7c-1,1.1-2.1,2-3.2,3.1c-1.1,1.1-2.2,2.1-3.3,3.2c-2.2,2.1-4.4,4.3-6.5,6.5c-2.2,2.2-4.3,4.4-6.4,6.6
		l-3.2,3.4c-1,1.1-2,2.1-3.1,3.2c-4.2,4.2-8.6,8-13.2,11.6c-2.3,1.8-4.7,3.4-7,5c-2.3,1.5-4.7,2.9-7.2,4.2c-4.9,2.6-9.9,4.7-15,6.4
		l-1,0.3c-0.3,0.1-0.6,0.2-0.8,0.2c-0.5,0.2-1.1,0.3-1.7,0.4c-1.1,0.3-2.3,0.5-3.5,0.6c-2.4,0.3-4.9,0.4-7.4,0.4
		c-2.5,0-5.1-0.2-7.8-0.5C827.3,411.6,826.3,411.4,825.4,411.3z"/>
</g>
</svg>
