<?xml version="1.0" encoding="utf-8"?>
<!-- Generator: Adobe Illustrator 26.1.0, SVG Export Plug-In . SVG Version: 6.00 Build 0)  -->
<svg version="1.1" id="Capa_1" xmlns="http://www.w3.org/2000/svg" xmlns:xlink="http://www.w3.org/1999/xlink" x="0px" y="0px"
	 viewBox="0 0 1046.12 566.77" style="enable-background:new 0 0 1046.12 566.77;" xml:space="preserve">
<style type="text/css">
	.st0{fill:#FFFFFF;}
</style>
<g>
	<path class="st0" d="M425.4,135.86c-13.03,10.19-25.77,19.82-38.21,28.87l-78.12,59.44c-12.47,9.07-22.93,18.41-31.42,28.02
		c-8.49,9.63-15.87,18.42-22.08,26.32c-6.24,7.93-11.89,15.87-16.98,23.77c-5.09,7.94-11.62,14.73-19.53,20.38l8.49,90L219.07,467
		v33.96l-28.87,16.98L3.4,533.23L0,489.08l8.49-18.68V35.66L35.66,5.09h98.5l45.85,98.5v117.18l35.66-33.96l50.95-88.31l113.78-91.7
		L402.47,0L467,101.89C452.28,114.36,438.4,125.67,425.4,135.86z"/>
	<path class="st0" d="M453.62,365.58c-5.65,5.25-11.19,10.22-16.62,14.91l-33.96,30.68c-5.44,4.71-9.93,9.46-13.5,14.25
		c-3.57,4.81-6.65,9.18-9.22,13.1c-2.59,3.93-4.9,7.84-6.96,11.71c-2.06,3.89-4.82,7.3-8.27,10.23l7.48,41.49l-1.81,25.58
		l1.33,15.78l-12.75,9.02l-86.2,14.43l-3.31-20.38l3.21-9.01l-17.06-202l11.43-15.27l45.76-3.86l25.17,43.97l4.6,54.44l15.24-17.18
		l20.21-43.03l49.27-47.07l9.99-4.02l33.98,44.81C465.27,354.54,459.26,360.34,453.62,365.58z"/>
	<path class="st0" d="M723.42,298.77c-1.05,5.44-1.96,12.13-2.75,20.1c-1.04,10.46-1.9,21.69-2.59,33.69
		c-0.7,12-1.55,23.23-2.59,33.69c-2.27,22.91-7.52,41.62-15.75,56.15c-8.23,14.52-16.6,26.64-25.11,36.36
		c-9.41,8.62-17.11,15.28-23.1,19.96c-6.01,4.68-11.49,8.03-16.46,10.06c-4.99,2.01-9.64,3.31-13.97,3.9
		c-4.34,0.57-9.31,1.34-14.94,2.29c-10.71,1.45-23.73,3.42-39.06,5.93c-15.34,2.5-31.72,2.89-49.15,1.16
		c-5.98-0.59-10.1-2.13-12.37-4.62c-2.28-2.49-3.3-4.74-3.11-6.72l0.07-0.75c0.25-2.5-0.63-3.83-2.62-4.03
		c2.93-4.24,4.15-7.64,3.65-10.2c-0.5-2.57-0.42-4.7,0.26-6.39c0.66-1.7,3.46-3.31,8.4-4.83c4.93-1.53,14.8-3.57,29.65-6.11
		c11.2-1.41,22.7-3.29,34.51-5.63c11.8-2.35,19.76-4.07,23.9-5.17c11.49-4.4,20.07-10.96,25.72-19.71
		c5.64-8.75,9.72-18.15,12.23-28.21c2.51-10.07,4.38-20.18,5.65-30.37c1.26-10.18,3.23-18.66,5.92-25.44
		c-2.05,0.3-6.85,0.58-14.42,0.83c-7.57,0.26-16.28,0.65-26.14,1.18c-9.86,0.53-19.44,0.71-28.72,0.55
		c-9.29-0.17-16.43-0.5-21.4-0.99c-5.98-0.59-10.79-1.45-14.45-2.57c-3.66-1.12-7.26-2.85-10.8-5.22
		c-3.54-2.35-7.58-4.77-12.11-7.24c-4.54-2.45-10.67-5.32-18.38-8.61l-16.53-23.52c-2.1-9.26-3.67-18.85-4.69-28.75
		c-1.03-9.91-1.07-19.59-0.14-29.06c2.12-21.41,8.97-39.85,20.57-55.29c11.59-15.45,25.15-28.06,40.72-37.83
		c15.55-9.77,31.72-16.85,48.5-21.22c16.77-4.37,31.14-5.96,43.1-4.78c6.87,1.7,12.58,3.64,17.15,5.85
		c4.55,2.22,8.35,4.48,11.4,6.79c3.03,2.32,5.62,4.21,7.73,5.67c2.12,1.47,3.92,2.28,5.42,2.42c3.48,0.34,6.67-0.09,9.56-1.31
		c2.88-1.22,5.68-2.83,8.4-4.82c2.71-1.99,4.9-3.78,6.57-5.38c1.67-1.59,2.99-2.34,3.99-2.24c0.39,1.05,1.81,1.95,4.26,2.69
		c2.44,0.75,5.15,1.27,8.14,1.56c7.47,0.74,11.42,3.9,11.88,9.48c0.45,5.58,0.73,12.9,0.84,21.96c0.55,9.61,1.04,17.34,1.48,23.16
		c0.42,5.83,1.05,10.93,1.88,15.27c0.82,4.36,1.28,8.56,1.39,12.59c0.09,4.04-0.09,8.55-0.59,13.52
		c-0.59,5.98-1.58,12.17-2.97,18.56c-1.39,6.4-2.4,12.84-3.05,19.31C726.12,289.24,724.45,293.35,723.42,298.77z M615.36,197.91
		c-3.47,1.92-6.83,4.23-10.11,6.92c-17.77,16.85-29.29,32.93-34.58,48.25c-5.29,15.32-8.6,29.7-9.94,43.15l16,21.2l8.96,0.89
		c5.98,0.59,11.81,1.3,17.52,2.12c5.69,0.82,11.29,1.5,16.77,2.04c4.97,0.49,10.92,0.21,17.82-0.87c6.89-1.07,14.3-3.48,22.22-7.23
		l11.45-69.78c-1.51-10.2-3.09-18.28-4.76-24.24c-1.67-5.94-4.11-10.59-7.3-13.92c-3.19-3.33-7.36-5.63-12.52-6.9
		c-5.16-1.27-11.44-2.51-18.87-3.76C623.04,195.28,618.82,195.99,615.36,197.91z"/>
	<path class="st0" d="M1022.27,218.24c8.07,12.13,13.94,25.35,17.67,39.63c3.71,14.27,5.76,29.01,6.12,44.21
		c0.36,15.2-0.66,29.75-3.02,43.66l-22.98,78.1c-2.74-1.29-5.67-0.38-8.8,2.75c-3.14,3.1-5.83,7.06-8.08,11.85
		c-2.57,5.46-5.13,11.77-7.66,18.94c-2.54,7.14-4.44,12.1-5.73,14.84l-0.97,2.05c-28.83,24-60.51,38.09-95.05,42.3
		c-34.53,4.19-68.21-1.42-101.02-16.86c-8.89-4.19-15.98-11.28-21.29-21.29c-5.31-10.01-9.2-20.82-11.67-32.42
		c-2.48-11.62-3.94-23.14-4.37-34.62c-0.45-11.48-0.56-20.11-0.36-25.84l11.83-99.63c-0.81-5.39-1.09-10.12-0.84-14.17
		c0.24-4.08,0.66-7.63,1.27-10.67l11.58-24.61l82.93-93.71l18.15-3.98c14.56,1,30.03,5.37,46.44,13.09
		c8.87,4.18,18.71,9,29.49,14.51c10.77,5.48,21.83,12.15,33.17,20C1003.13,195.46,1014.21,206.09,1022.27,218.24z M958.24,382.22
		c3.54-7.53,5.3-15.25,5.28-23.19c-0.01-7.95-1.05-15.52-3.07-22.74c-2.04-7.22-4.13-13.84-6.3-19.87
		c-2.17-6.03-3.32-11.58-3.44-16.65l-59.1-34.08l-36.13,15.56l-6.76,14.35l-29.08,120.31l26.41,44.99
		c13.92,2.36,25.47,1.76,34.68-1.83c9.21-3.61,17.62-8.62,25.24-15.05c7.61-6.44,14.71-13.96,21.26-22.55
		c6.56-8.62,13.12-16.37,19.73-23.28C952.22,392.32,955.99,386.99,958.24,382.22z"/>
</g>
</svg>
