<?xml version="1.0" encoding="utf-8"?>
<!-- Generator: Adobe Illustrator 26.1.0, SVG Export Plug-In . SVG Version: 6.00 Build 0)  -->
<svg version="1.1" id="Capa_1" xmlns="http://www.w3.org/2000/svg" xmlns:xlink="http://www.w3.org/1999/xlink" x="0px" y="0px"
	 viewBox="0 0 950 308.2" style="enable-background:new 0 0 950 308.2;" xml:space="preserve">
<style type="text/css">
	.st0{fill:#181818;}
	.st1{fill:#FFFFFF;}
	.st2{fill:#666666;}
	.st3{fill:#B3B3B3;}
</style>
<path class="st0" d="M907.5,308.2h-865C19,308.2,0,289.1,0,265.7V42.5C0,19,19,0,42.5,0h865C931,0,950,19,950,42.5v223.2
	C950,289.1,931,308.2,907.5,308.2z"/>
<g>
	<path class="st1" d="M102.1,182l-17.5-49h15.7l10.1,32.7l-1.9-0.2l11.7-26.1h9.9l12.5,26.1l-1.9,0.2l10.2-32.7h15.7l-18.3,49H137
		l-14-31.4l4.8-0.3L113.4,182H102.1z"/>
	<path class="st1" d="M208.9,182.9c-6.3,0-11.8-1.1-16.5-3.3c-4.7-2.2-8.4-5.2-11-9c-2.6-3.8-3.9-8.1-3.9-12.9
		c0-3.9,0.8-7.5,2.4-10.6c1.6-3.1,3.7-5.8,6.4-8.1c2.7-2.2,5.8-4,9.5-5.2c3.6-1.2,7.4-1.8,11.4-1.8c4.1,0,7.8,0.6,11.2,1.8
		c3.4,1.2,6.4,2.9,9,5.1c2.6,2.2,4.5,4.8,5.9,7.8c1.4,3,2,6.3,1.9,10l-0.1,4.3h-47.4l-2.1-9h37.5l-1.6,2v-1.8
		c-0.2-1.7-1-3.1-2.3-4.3c-1.3-1.2-3-2.2-5-2.9c-2-0.7-4.3-1.1-6.8-1.1c-3,0-5.7,0.4-8.1,1.3c-2.4,0.9-4.3,2.3-5.7,4.2
		c-1.4,1.9-2.1,4.3-2.1,7.2c0,2.6,0.8,5,2.4,7.1c1.6,2.1,3.9,3.7,6.9,4.9c3,1.2,6.5,1.8,10.5,1.8c3.8,0,6.8-0.4,9.3-1.3
		c2.4-0.9,4.4-1.8,6-2.8l6.5,9.5c-2.2,1.5-4.5,2.8-7.1,3.9c-2.6,1-5.3,1.8-8.1,2.4C214.8,182.7,211.9,182.9,208.9,182.9z"/>
	<path class="st1" d="M291.2,183c-3,0-5.7-0.4-8.2-1.1c-2.5-0.7-4.8-1.7-6.7-2.9c-2-1.2-3.6-2.5-4.8-3.9c-1.3-1.4-2.1-2.8-2.4-4.1
		l4.4-0.6l-0.8,11.4h-13.8v-68.2h14.9v31l-4.2-0.6c0.4-1.5,1.3-2.9,2.5-4.3c1.3-1.4,2.9-2.7,4.8-3.9c1.9-1.2,4.2-2.2,6.6-2.9
		c2.5-0.7,5.2-1.1,8-1.1c4.9,0,9.3,1.1,13.3,3.3c3.9,2.2,7,5.2,9.4,9c2.3,3.8,3.5,8.2,3.5,13.2c0,5-1.1,9.4-3.4,13.3
		c-2.3,3.8-5.4,6.9-9.3,9C300.8,181.9,296.3,183,291.2,183z M287.8,170.5c3.1,0,5.7-0.6,8-1.7c2.2-1.1,4-2.6,5.3-4.6
		c1.3-1.9,1.9-4.2,1.9-6.8c0-2.6-0.6-4.8-1.9-6.8c-1.3-1.9-3-3.4-5.3-4.5c-2.3-1-4.9-1.6-7.9-1.6c-3.1,0-5.8,0.5-8.1,1.6
		c-2.3,1-4.1,2.5-5.4,4.5c-1.3,1.9-1.9,4.2-1.9,6.8c0,2.6,0.6,4.8,1.9,6.8c1.3,1.9,3,3.5,5.4,4.6
		C282.1,169.9,284.8,170.5,287.8,170.5z"/>
	<path class="st1" d="M373.4,183c-3,0-5.7-0.4-8.2-1.1c-2.5-0.7-4.8-1.7-6.7-2.9c-2-1.2-3.6-2.5-4.8-3.9c-1.3-1.4-2.1-2.8-2.4-4.1
		l4.4-0.6l-0.8,11.4H341v-68.2h14.9v31l-4.2-0.6c0.4-1.5,1.3-2.9,2.5-4.3c1.3-1.4,2.9-2.7,4.8-3.9c1.9-1.2,4.2-2.2,6.6-2.9
		c2.5-0.7,5.2-1.1,8-1.1c4.9,0,9.3,1.1,13.3,3.3c3.9,2.2,7,5.2,9.4,9c2.3,3.8,3.5,8.2,3.5,13.2c0,5-1.1,9.4-3.4,13.3
		c-2.3,3.8-5.4,6.9-9.3,9C383.1,181.9,378.5,183,373.4,183z M370.1,170.5c3.1,0,5.7-0.6,8-1.7c2.2-1.1,4-2.6,5.3-4.6
		c1.3-1.9,1.9-4.2,1.9-6.8c0-2.6-0.6-4.8-1.9-6.8c-1.3-1.9-3-3.4-5.3-4.5c-2.3-1-4.9-1.6-7.9-1.6c-3.1,0-5.8,0.5-8.1,1.6
		c-2.3,1-4.1,2.5-5.4,4.5c-1.3,1.9-1.9,4.2-1.9,6.8c0,2.6,0.6,4.8,1.9,6.8c1.3,1.9,3,3.5,5.4,4.6C364.3,169.9,367,170.5,370.1,170.5
		z"/>
	<path class="st1" d="M427.4,203.3l13.9-26.2l-0.6,7.3L413.1,133h17.2l12.6,26c1,1.9,2,3.9,2.9,5.9c0.9,2,1.6,4,2.3,6l-3.2,0.4
		c0.7-1.6,1.4-3.4,2.3-5.5c0.9-2.1,1.8-4.2,2.8-6.4l12.1-26.4H479l-25.9,49.4l-10.6,20.9H427.4z"/>
	<path class="st1" d="M531.4,182.9c-5.4,0-10.4-0.7-15-2.2c-4.6-1.5-8.5-3.6-11.8-6.5c-3.3-2.9-5.9-6.4-7.8-10.6
		c-1.8-4.2-2.8-8.9-2.8-14.2c0-4.8,1-9.2,2.9-13.3c1.9-4,4.7-7.6,8.2-10.6c3.5-3,7.6-5.4,12.4-7c4.8-1.7,10-2.5,15.6-2.5
		c4.5,0,8.6,0.5,12.3,1.5c3.7,1,7,2.3,10,3.9c2.9,1.6,5.3,3.4,7.2,5.3l-9.5,10.4c-1.8-1.5-3.7-2.7-5.7-3.7c-2-1-4.2-1.9-6.6-2.5
		c-2.4-0.7-4.9-1-7.7-1c-3.2,0-6.2,0.5-8.9,1.5c-2.7,1-5.1,2.4-7.2,4.1c-2,1.8-3.6,3.8-4.8,6.2c-1.1,2.4-1.7,4.9-1.7,7.7
		c0,3.3,0.6,6.2,1.8,8.7c1.2,2.5,2.8,4.5,4.9,6.1c2.1,1.6,4.5,2.8,7.2,3.6c2.7,0.8,5.6,1.2,8.6,1.2c2.8,0,5.4-0.3,7.8-0.9
		c2.4-0.6,4.5-1.5,6.2-2.5c1.7-1.1,3.1-2.4,4.1-3.9c1-1.5,1.4-3.1,1.4-4.8l0.1-2l2,3.6h-22.8v-12.2h35.7c0.1,0.9,0.2,1.8,0.3,3
		c0.1,1.1,0.1,2.1,0.1,3c0,0.9,0,1.5,0,1.8c0,4.6-0.9,8.7-2.6,12.3c-1.8,3.6-4.2,6.6-7.5,9c-3.2,2.4-7.1,4.3-11.6,5.6
		C541.7,182.3,536.8,182.9,531.4,182.9z"/>
	<path class="st1" d="M591,182v-49h14l0.6,17.5l-4-1.1c0.9-3.3,2.4-6.2,4.6-8.8c2.1-2.6,4.6-4.7,7.5-6.3c2.9-1.6,5.9-2.4,9-2.4
		c1.9,0,3.7,0.2,5.4,0.6c1.7,0.4,3.2,0.9,4.5,1.6l-4.1,16c-1.1-0.7-2.6-1.3-4.4-1.8c-1.8-0.4-3.7-0.6-5.4-0.6c-2,0-3.8,0.3-5.4,0.9
		c-1.6,0.6-3,1.5-4.1,2.6c-1.1,1.1-1.9,2.4-2.5,3.7c-0.6,1.4-0.8,2.8-0.8,4.3V182H591z"/>
	<path class="st1" d="M672,182.8c-5.2,0-9.8-1.1-13.7-3.3c-3.9-2.2-7-5.2-9.1-9c-2.2-3.8-3.3-8.2-3.3-13c0-5,1.1-9.4,3.4-13.3
		c2.2-3.8,5.3-6.9,9.3-9c3.9-2.2,8.5-3.3,13.8-3.3c3,0,5.8,0.4,8.4,1.1c2.6,0.7,4.8,1.7,6.7,3c1.9,1.2,3.5,2.6,4.7,4
		c1.2,1.4,2,2.9,2.4,4.4l-3.5,0.2V133h14.7v49h-15v-13l3.1,0.8c-0.2,1.5-1,3.1-2.3,4.6c-1.3,1.5-2.9,2.9-4.8,4.2
		c-1.9,1.3-4.2,2.3-6.7,3C677.5,182.5,674.8,182.8,672,182.8z M675.8,170.4c3.1,0,5.8-0.5,8.1-1.6c2.2-1.1,4-2.6,5.3-4.5
		c1.3-1.9,1.9-4.2,1.9-6.7c0-2.6-0.6-4.9-1.9-6.8c-1.3-1.9-3-3.4-5.3-4.5c-2.2-1.1-4.9-1.7-8.1-1.7c-3.1,0-5.8,0.6-8,1.7
		c-2.3,1.1-4.1,2.6-5.4,4.5c-1.3,1.9-1.9,4.2-1.9,6.8c0,2.5,0.6,4.8,1.9,6.7c1.3,1.9,3.1,3.4,5.4,4.5
		C670.1,169.8,672.8,170.4,675.8,170.4z"/>
	<path class="st1" d="M749.3,182l-25-49h17l16.9,38l-4.2,0.4l17.3-38.3H788l-25.9,49H749.3z"/>
	<path class="st1" d="M813.1,203.3L827,177l-0.6,7.3L798.9,133h17.2l12.7,26c1,1.9,2,3.9,2.9,5.9c0.9,2,1.6,4,2.3,6l-3.2,0.4
		c0.7-1.6,1.4-3.4,2.3-5.5c0.9-2.1,1.8-4.2,2.8-6.4l12.1-26.4h16.9l-25.9,49.4l-10.6,20.9H813.1z"/>
</g>
</svg>
