<?xml version="1.0" encoding="utf-8"?>
<!-- Generator: Adobe Illustrator 26.1.0, SVG Export Plug-In . SVG Version: 6.00 Build 0)  -->
<svg version="1.1" id="Capa_1" xmlns="http://www.w3.org/2000/svg" xmlns:xlink="http://www.w3.org/1999/xlink" x="0px" y="0px"
	 viewBox="0 0 300 300" style="enable-background:new 0 0 300 300;" xml:space="preserve">
<style type="text/css">
	.st0{stroke:#FFFFFF;stroke-miterlimit:10;}
	.st1{fill:none;stroke:#000000;stroke-width:5;stroke-miterlimit:10;}
	.st2{fill:none;stroke:#000000;stroke-miterlimit:10;}
	.st3{fill:#FFFFFF;}
	.st4{fill:none;stroke:#000000;stroke-width:3;stroke-miterlimit:10;}
	.st5{fill:none;stroke:#000000;stroke-width:2;stroke-miterlimit:10;}
</style>
<g>
	<path d="M56,238.9l1.8-6.4h4.1v17.1h-3v-5.1l0.1-8l-2.2,7.4h-1.6l-2-7.1l0.1,7.7v5.1h-3v-17.1h4.1L56,238.9z"/>
	<path d="M76.6,243.8c0,1-0.1,1.8-0.4,2.5s-0.6,1.4-1.1,1.9c-0.5,0.5-1.1,0.9-1.8,1.2s-1.5,0.4-2.4,0.4c-0.9,0-1.6-0.1-2.3-0.4
		s-1.3-0.7-1.8-1.2s-0.9-1.1-1.1-1.9s-0.4-1.6-0.4-2.5l0-11.3h3.3l0,11.3c0,0.6,0.1,1.1,0.2,1.5s0.3,0.8,0.5,1.1
		c0.2,0.3,0.4,0.5,0.7,0.6s0.6,0.2,1,0.2c0.4,0,0.8-0.1,1.1-0.2s0.6-0.3,0.8-0.6c0.2-0.3,0.4-0.6,0.5-1.1s0.2-0.9,0.2-1.5l0-11.3
		h3.3L76.6,243.8z"/>
	<path d="M83.4,242.1v4.8h8.2v2.7H80.1v-17.1h11.5v2.7h-8.2v4.3h7v2.6H83.4z"/>
	<path d="M105.9,246.9v2.7H94.6v-17.1h3.3v14.4H105.9z"/>
	<path d="M120.2,246.9v2.7h-11.3v-17.1h3.3v14.4H120.2z"/>
	<path d="M126.5,242.1v4.8h8.2v2.7h-11.5v-17.1h11.5v2.7h-8.2v4.3h7v2.6H126.5z"/>
	<path d="M146.2,244.3c-0.1-0.3-0.3-0.5-0.5-0.8c-0.3-0.2-0.6-0.4-1-0.6s-0.9-0.4-1.5-0.5c-0.9-0.3-1.8-0.6-2.5-0.9
		s-1.3-0.8-1.8-1.2s-0.8-0.9-1-1.5s-0.3-1.1-0.3-1.7c0-0.7,0.2-1.4,0.5-2s0.7-1.1,1.3-1.5s1.2-0.7,1.9-1s1.5-0.3,2.4-0.3
		c0.9,0,1.7,0.1,2.4,0.4s1.4,0.6,1.9,1.1c0.5,0.5,0.9,1,1.2,1.7s0.4,1.3,0.4,2.1h-3.2c0-0.4-0.1-0.7-0.2-1.1s-0.3-0.6-0.5-0.8
		c-0.2-0.2-0.5-0.4-0.9-0.5s-0.8-0.2-1.2-0.2c-0.4,0-0.8,0.1-1.2,0.2s-0.6,0.3-0.9,0.4c-0.2,0.2-0.4,0.4-0.5,0.7s-0.2,0.5-0.2,0.8
		c0,0.3,0.1,0.6,0.2,0.9s0.4,0.5,0.7,0.7c0.3,0.2,0.7,0.4,1.1,0.6s0.9,0.3,1.5,0.5c0.6,0.2,1.1,0.4,1.7,0.6s1,0.5,1.5,0.8
		c0.7,0.5,1.2,1.1,1.6,1.7s0.6,1.4,0.6,2.3c0,0.8-0.2,1.4-0.5,2s-0.7,1.1-1.2,1.5c-0.5,0.4-1.2,0.7-1.9,0.9s-1.5,0.3-2.4,0.3
		c-0.9,0-1.7-0.1-2.5-0.4s-1.6-0.6-2.2-1.1c-0.6-0.5-1-1.1-1.4-1.7s-0.5-1.4-0.5-2.3h3.2c0,0.5,0.1,1,0.3,1.3s0.4,0.7,0.7,0.9
		c0.3,0.2,0.6,0.4,1,0.5s0.9,0.2,1.4,0.2c0.4,0,0.8-0.1,1.2-0.2s0.6-0.2,0.9-0.4s0.4-0.4,0.5-0.7s0.2-0.5,0.2-0.8
		S146.3,244.5,146.2,244.3z"/>
	<path d="M171,242.1v4.8h8.2v2.7h-11.5v-17.1h11.5v2.7H171v4.3h7v2.6H171z"/>
	<path d="M190.2,249.6l-4.7-11v11h-3.3v-17.1h3.3l4.7,11l0-11h3.3v17.1H190.2z"/>
	<path d="M216.6,234.4c0.1-0.4,0.3-0.8,0.5-1.2s0.4-0.8,0.7-1.1s0.5-0.7,0.8-0.9l1.5,0.9c-0.3,0.5-0.5,1.1-0.7,1.6s-0.3,1.3-0.3,2
		v2.1h-2.6v-2.1C216.4,235.2,216.5,234.8,216.6,234.4z"/>
	<path d="M236.9,246.9v2.7h-12.5v-2l8.3-12.4h-8.2v-2.7h12.2l0,2l-8.3,12.4H236.9z"/>
	<path d="M244.6,234.5c-0.1,0.4-0.3,0.8-0.5,1.2c-0.2,0.4-0.4,0.8-0.7,1.2s-0.5,0.7-0.8,1l-1.5-0.9c0.3-0.5,0.5-1.1,0.7-1.6
		s0.3-1.3,0.3-2v-2h2.6v2C244.8,233.7,244.7,234.1,244.6,234.5z"/>
</g>
<g>
	<g>
		<path d="M277.9,201.9c-0.2,0-0.3,0-0.5,0h0l-61.6-7.5c-3.5-0.4-6.6-2.2-8.8-5.1c-2.1-2.9-3-6.4-2.3-9.9l8.8-50.6
			c0.3-2-0.2-4.1-1.5-5.6c-1.3-1.6-3.2-2.5-5.3-2.5h-39.2c-11.1,0-21.9-2.3-32-6.9L90.3,93.5c-4.2-1.9-8.7-2.9-13.4-2.9H30.9
			c-0.3,0-0.5,0.2-0.5,0.5v3.7c0,3-2.5,5.5-5.5,5.5h-1.4c-3,0-5.5-2.5-5.5-5.5v-4.4c0-7,5.7-12.6,12.6-12.6h48.7
			c3.9,0,7.7,0.6,11.3,1.7l49.5,15.6c6.8,2.2,13.9,3.2,21.1,3.2h45.6c8.3,0,16.1,3.8,21.2,10.3c5.2,6.6,7,15,5,23.1l-11.4,46.7
			c-0.1,0.3,0,0.6,0.1,0.7c0.1,0.1,0.3,0.3,0.6,0.4l56.3,10.6c2,0.4,3.4,2.1,3.4,4.1v3.4c0,1.2-0.5,2.3-1.4,3.1
			C279.9,201.5,278.9,201.9,277.9,201.9z M30.9,85.6h46.1c5.4,0,10.5,1.1,15.4,3.3l45.2,20.3c9.5,4.3,19.6,6.4,30,6.4h39.2
			c3.5,0,6.8,1.5,9.1,4.2c2.3,2.7,3.2,6.2,2.6,9.7l-8.8,50.6c-0.4,2.1,0.1,4.3,1.4,6s3.2,2.9,5.4,3.1l60.6,7.4V195l-55.6-10.5
			c-1.6-0.3-3-1.2-3.9-2.6c-0.9-1.4-1.2-3-0.8-4.6l11.4-46.7c1.6-6.6,0.1-13.5-4.1-18.8c-4.2-5.3-10.5-8.4-17.3-8.4h-45.6
			c-7.7,0-15.3-1.2-22.6-3.5L89.2,84.3c-3.2-1-6.5-1.5-9.8-1.5H30.6c-4.2,0-7.6,3.4-7.6,7.6v4.4c0,0.3,0.2,0.5,0.5,0.5h1.4
			c0.3,0,0.5-0.2,0.5-0.5v-3.7C25.4,88.1,27.8,85.6,30.9,85.6z"/>
	</g>
	<g>
		<path d="M189.2,126.5h-7.1c-0.9,0-1.6-0.7-1.6-1.6v-2.4h10.4v2.4C190.8,125.8,190.1,126.5,189.2,126.5z"/>
	</g>
	<g>
		<path d="M247.3,178.7l7,1.3c0.9,0.2,1.5,1,1.3,1.9l-0.4,2.3l-10.2-1.9l0.4-2.3C245.5,179.1,246.4,178.5,247.3,178.7z"/>
	</g>
</g>
</svg>
