<?xml version="1.0" encoding="utf-8"?>
<!-- Generator: Adobe Illustrator 26.1.0, SVG Export Plug-In . SVG Version: 6.00 Build 0)  -->
<svg version="1.1" id="Capa_1" xmlns="http://www.w3.org/2000/svg" xmlns:xlink="http://www.w3.org/1999/xlink" x="0px" y="0px"
	 viewBox="0 0 300 300" style="enable-background:new 0 0 300 300;" xml:space="preserve">
<style type="text/css">
	.st0{stroke:#FFFFFF;stroke-miterlimit:10;}
	.st1{fill:none;stroke:#000000;stroke-width:5;stroke-miterlimit:10;}
	.st2{fill:none;stroke:#000000;stroke-miterlimit:10;}
	.st3{fill:#FFFFFF;}
	.st4{fill:none;stroke:#000000;stroke-width:3;stroke-miterlimit:10;}
	.st5{fill:none;stroke:#000000;stroke-width:2;stroke-miterlimit:10;}
</style>
<g>
	<path d="M55.2,232.5h5.7c0.9,0,1.8,0.1,2.5,0.3c0.8,0.2,1.4,0.5,2,0.9s1,0.9,1.2,1.5s0.4,1.3,0.4,2.1c0,0.5-0.1,1-0.3,1.5
		s-0.4,0.9-0.8,1.2c-0.2,0.2-0.4,0.4-0.6,0.5s-0.5,0.3-0.8,0.4v0c0.6,0.2,1,0.4,1.3,0.6s0.6,0.5,0.8,0.8c0.2,0.3,0.4,0.7,0.5,1.1
		s0.2,0.8,0.2,1.2c0,0.8-0.1,1.5-0.4,2.2s-0.7,1.1-1.2,1.6s-1.2,0.7-1.9,0.9c-0.8,0.2-1.6,0.3-2.5,0.3h-6.2V232.5z M60.9,239.7
		c0.5,0,0.9-0.1,1.3-0.2s0.7-0.3,0.9-0.5c0.2-0.2,0.3-0.4,0.5-0.7s0.2-0.6,0.2-0.9c0-0.3,0-0.6-0.1-0.9s-0.2-0.5-0.4-0.6
		c-0.2-0.2-0.5-0.4-0.9-0.5s-0.9-0.2-1.4-0.2h-2.4v4.5H60.9z M58.5,246.9h2.9c0.4,0,0.8-0.1,1.2-0.2s0.6-0.3,0.8-0.4
		c0.2-0.2,0.4-0.5,0.6-0.8c0.1-0.3,0.2-0.6,0.2-1c0-0.4,0-0.7-0.1-1c-0.1-0.3-0.3-0.6-0.5-0.8c-0.2-0.2-0.5-0.4-0.8-0.5
		S62,242,61.5,242h-3.1V246.9z"/>
	<path d="M82,244.4c-0.1,0.7-0.3,1.3-0.6,1.8c-0.3,0.6-0.6,1.1-1,1.5s-0.8,0.9-1.3,1.2c-0.5,0.3-1,0.5-1.5,0.6s-1.1,0.2-1.8,0.2
		c-0.7,0-1.3-0.1-1.8-0.3s-1.1-0.4-1.5-0.7c-0.5-0.3-0.9-0.7-1.2-1.2s-0.7-1-0.9-1.6c-0.2-0.5-0.4-1.1-0.5-1.8s-0.2-1.3-0.2-2v-2.5
		c0-0.8,0.1-1.5,0.2-2.1s0.3-1.3,0.6-1.9c0.2-0.5,0.5-1,0.9-1.5s0.7-0.8,1.2-1.1c0.4-0.3,0.9-0.5,1.5-0.7s1.2-0.2,1.8-0.2
		c0.7,0,1.3,0.1,1.8,0.3s1.1,0.4,1.6,0.7c0.5,0.3,0.9,0.7,1.2,1.1s0.6,0.9,0.9,1.4c0.3,0.6,0.5,1.2,0.6,1.9s0.2,1.4,0.2,2.2v2.5
		C82.2,243,82.1,243.7,82,244.4z M78.8,238.5c0-0.4-0.1-0.8-0.2-1.1c-0.1-0.4-0.3-0.8-0.5-1.1s-0.4-0.6-0.7-0.8
		c-0.2-0.2-0.4-0.3-0.7-0.4s-0.6-0.1-0.9-0.1c-0.3,0-0.6,0-0.8,0.1s-0.5,0.2-0.7,0.3c-0.3,0.2-0.5,0.5-0.7,0.8s-0.3,0.7-0.4,1.1
		c-0.1,0.3-0.1,0.7-0.2,1.1s-0.1,0.8-0.1,1.3v2.5c0,0.4,0,0.8,0,1.2s0.1,0.7,0.2,1.1c0.1,0.4,0.2,0.8,0.4,1.1s0.4,0.6,0.6,0.8
		c0.2,0.2,0.5,0.3,0.7,0.4s0.6,0.2,0.9,0.2c0.3,0,0.6,0,0.9-0.1s0.5-0.2,0.7-0.4c0.3-0.2,0.5-0.5,0.7-0.8s0.3-0.7,0.4-1.1
		c0.1-0.3,0.2-0.7,0.2-1.1s0.1-0.8,0.1-1.2v-2.5C78.8,239.3,78.8,238.9,78.8,238.5z"/>
	<path d="M96.5,246.9v2.7H85.2v-17.1h3.3v14.4H96.5z"/>
	<path d="M108.1,244.3c-0.1-0.3-0.3-0.5-0.5-0.8c-0.3-0.2-0.6-0.4-1-0.6s-0.9-0.4-1.5-0.5c-0.9-0.3-1.8-0.6-2.5-0.9
		s-1.3-0.8-1.8-1.2s-0.8-0.9-1-1.5s-0.3-1.1-0.3-1.7c0-0.7,0.2-1.4,0.5-2s0.7-1.1,1.3-1.5s1.2-0.7,1.9-1s1.5-0.3,2.4-0.3
		c0.9,0,1.7,0.1,2.4,0.4s1.4,0.6,1.9,1.1c0.5,0.5,0.9,1,1.2,1.7s0.4,1.3,0.4,2.1h-3.2c0-0.4-0.1-0.7-0.2-1.1s-0.3-0.6-0.5-0.8
		c-0.2-0.2-0.5-0.4-0.9-0.5s-0.8-0.2-1.2-0.2c-0.4,0-0.8,0.1-1.2,0.2s-0.6,0.3-0.9,0.4c-0.2,0.2-0.4,0.4-0.5,0.7s-0.2,0.5-0.2,0.8
		c0,0.3,0.1,0.6,0.2,0.9s0.4,0.5,0.7,0.7c0.3,0.2,0.7,0.4,1.1,0.6s0.9,0.3,1.5,0.5c0.6,0.2,1.1,0.4,1.7,0.6s1,0.5,1.5,0.8
		c0.7,0.5,1.2,1.1,1.6,1.7s0.6,1.4,0.6,2.3c0,0.8-0.2,1.4-0.5,2s-0.7,1.1-1.2,1.5c-0.5,0.4-1.2,0.7-1.9,0.9s-1.5,0.3-2.4,0.3
		c-0.9,0-1.7-0.1-2.5-0.4s-1.6-0.6-2.2-1.1c-0.6-0.5-1-1.1-1.4-1.7s-0.5-1.4-0.5-2.3h3.2c0,0.5,0.1,1,0.3,1.3s0.4,0.7,0.7,0.9
		c0.3,0.2,0.6,0.4,1,0.5s0.9,0.2,1.4,0.2c0.4,0,0.8-0.1,1.2-0.2s0.6-0.2,0.9-0.4s0.4-0.4,0.5-0.7s0.2-0.5,0.2-0.8
		S108.2,244.5,108.1,244.3z"/>
	<path d="M117.5,246l-1,3.6H113l5.6-17.1h3l5.5,17.1h-3.5l-1-3.6H117.5z M121.8,243.2l-1.7-6.3l-1.8,6.3H121.8z"/>
	<path d="M144.1,232.5h4.4c0.8,0,1.5,0.1,2.2,0.3s1.3,0.5,1.9,0.8c0.5,0.3,0.9,0.6,1.3,1.1s0.7,0.9,1,1.4c0.3,0.6,0.6,1.3,0.8,2
		s0.3,1.5,0.3,2.3v1.4c0,0.8-0.1,1.5-0.3,2.2s-0.4,1.3-0.7,1.9c-0.3,0.5-0.6,1-1,1.4s-0.8,0.8-1.3,1.1c-0.6,0.4-1.2,0.6-1.8,0.8
		s-1.4,0.3-2.1,0.3h-4.6V232.5z M147.5,246.9h1.3c0.4,0,0.8-0.1,1.1-0.2s0.7-0.2,1-0.4c0.3-0.2,0.6-0.5,0.8-0.8s0.4-0.7,0.6-1.1
		c0.1-0.4,0.2-0.8,0.3-1.2s0.1-0.9,0.1-1.5v-1.4c0-0.5,0-1-0.1-1.4s-0.2-0.8-0.3-1.2c-0.2-0.4-0.4-0.8-0.7-1.2s-0.6-0.6-1-0.8
		c-0.3-0.2-0.6-0.3-0.9-0.4s-0.7-0.1-1.1-0.1h-1.1V246.9z"/>
	<path d="M162.3,242.1v4.8h8.2v2.7H159v-17.1h11.5v2.7h-8.2v4.3h7v2.6H162.3z"/>
	<path d="M192.1,246l-1,3.6h-3.5l5.6-17.1h3l5.5,17.1h-3.5l-1-3.6H192.1z M196.4,243.2l-1.7-6.3l-1.8,6.3H196.4z"/>
	<path d="M214.1,232.5v2.7h-3.3v11.8h3.3v2.6h-9.9v-2.6h3.2v-11.8h-3.2v-2.7H214.1z"/>
	<path d="M220.8,243.2v6.4h-3.3v-17.1h5.7c0.9,0,1.8,0.1,2.6,0.3s1.4,0.5,2,1c0.5,0.4,1,1,1.2,1.6s0.4,1.4,0.4,2.2
		c0,0.6-0.1,1.2-0.2,1.6s-0.3,0.9-0.6,1.3c-0.3,0.4-0.6,0.7-1,1s-0.8,0.5-1.3,0.8l3.7,7v0.2h-3.5l-3.2-6.4H220.8z M223.2,240.5
		c0.5,0,1-0.1,1.3-0.2s0.7-0.4,0.9-0.6c0.2-0.2,0.4-0.5,0.5-0.8s0.2-0.6,0.2-1c0-0.5-0.1-0.9-0.2-1.2s-0.3-0.6-0.6-0.9
		c-0.2-0.2-0.5-0.4-0.9-0.5s-0.8-0.2-1.2-0.2h-2.4v5.3H223.2z"/>
	<path d="M235.8,242.1v4.8h8.2v2.7h-11.5v-17.1H244v2.7h-8.2v4.3h7v2.6H235.8z"/>
</g>
<g>
	<g>
		<g>
			<path d="M194.4,110.5h-58c-1.4,0-2.5-1.1-2.5-2.5l0,0c0-1.4,1.1-2.5,2.5-2.5h58c1.4,0,2.5,1.1,2.5,2.5l0,0
				C196.9,109.4,195.8,110.5,194.4,110.5z"/>
		</g>
		<g>
			<path d="M194.4,202.9h-58c-1.4,0-2.5-1.1-2.5-2.5l0,0c0-1.4,1.1-2.5,2.5-2.5h58c1.4,0,2.5,1.1,2.5,2.5l0,0
				C196.9,201.8,195.8,202.9,194.4,202.9z"/>
		</g>
		<path d="M207.5,144.8v-20.3c0-6.6-5.4-12-12-12h-61.1c-6.6,0-12,5.4-12,12v20.3c0,3.9,1.8,7.3,4.7,9.5c-2.8,2.2-4.7,5.6-4.7,9.5
			v20.3c0,6.6,5.4,12,12,12h61.1c6.6,0,12-5.4,12-12v-20.3c0-3.9-1.8-7.3-4.7-9.5C205.6,152.1,207.5,148.7,207.5,144.8z
			 M202.5,144.8c0,3.9-3.1,7-7,7h-3.1c-1.4,0-2.5,1.1-2.5,2.5l0,0c0,1.4,1.1,2.5,2.5,2.5h3.1c3.9,0,7,3.1,7,7v20.3c0,3.9-3.1,7-7,7
			h-61.1c-3.9,0-7-3.1-7-7v-20.3c0-3.9,3.1-7,7-7H171c1.4,0,2.5-1.1,2.5-2.5l0,0c0-1.4-1.1-2.5-2.5-2.5h-36.6c-3.9,0-7-3.1-7-7
			v-20.3c0-3.9,3.1-7,7-7h61.1c3.9,0,7,3.1,7,7V144.8z"/>
		<path d="M185.3,156.8L185.3,156.8c-1.4,0-2.5-1.1-2.5-2.5l0,0c0-1.4,1.1-2.5,2.5-2.5l0,0c1.4,0,2.5,1.1,2.5,2.5l0,0
			C187.8,155.7,186.7,156.8,185.3,156.8z"/>
	</g>
	<g>
		<g>
			<path d="M100.9,197.1H32.7c-4.7,0-8.6-3.9-8.6-8.6V79.3c0-4.7,3.9-8.6,8.6-8.6h68.3c4.7,0,8.6,3.9,8.6,8.6v109.2
				C109.5,193.2,105.7,197.1,100.9,197.1z M32.7,75.7c-2,0-3.6,1.6-3.6,3.6v109.2c0,2,1.6,3.6,3.6,3.6h68.3c2,0,3.6-1.6,3.6-3.6
				V79.3c0-2-1.6-3.6-3.6-3.6H32.7z"/>
		</g>
		<g>
			<path d="M110,69.5H23.7c-1.4,0-2.5-1.1-2.5-2.5l0,0c0-1.4,1.1-2.5,2.5-2.5H110c1.4,0,2.5,1.1,2.5,2.5l0,0
				C112.5,68.4,111.3,69.5,110,69.5z"/>
		</g>
		<g>
			<g>
				<path d="M35.3,67h-5v-10c0-1.4,1.1-2.5,2.5-2.5h0c1.4,0,2.5,1.1,2.5,2.5V67z"/>
			</g>
			<g>
				<path d="M103.3,67h-5v-10c0-1.4,1.1-2.5,2.5-2.5h0c1.4,0,2.5,1.1,2.5,2.5V67z"/>
			</g>
		</g>
		<g>
			<path d="M110,203.2H23.7c-1.4,0-2.5-1.1-2.5-2.5l0,0c0-1.4,1.1-2.5,2.5-2.5H110c1.4,0,2.5,1.1,2.5,2.5l0,0
				C112.5,202.1,111.3,203.2,110,203.2z"/>
		</g>
		<path d="M110.3,144.2h-1.5c-1.4,0-2.5-1.1-2.5-2.5V126c0-1.4,1.1-2.5,2.5-2.5h1.5c1.4,0,2.5,1.1,2.5,2.5v15.7
			C112.8,143.1,111.7,144.2,110.3,144.2z"/>
		<path d="M24.8,144.2h-1.5c-1.4,0-2.5-1.1-2.5-2.5V126c0-1.4,1.1-2.5,2.5-2.5h1.5c1.4,0,2.5,1.1,2.5,2.5v15.7
			C27.3,143.1,26.2,144.2,24.8,144.2z"/>
		<g>
			<path d="M99.3,143.7H34.7c-0.8,0-1.5-0.7-1.5-1.5s0.7-1.5,1.5-1.5h64.6c0.8,0,1.5,0.7,1.5,1.5S100.1,143.7,99.3,143.7z"/>
		</g>
		<g>
			<path d="M99.3,127.5H34.7c-0.8,0-1.5-0.7-1.5-1.5s0.7-1.5,1.5-1.5h64.6c0.8,0,1.5,0.7,1.5,1.5S100.1,127.5,99.3,127.5z"/>
		</g>
	</g>
	<g>
		<path d="M252.1,59.4h-3.3c-2,0-3.6,1.6-3.6,3.6v3.9h10.4V63C255.7,61,254.1,59.4,252.1,59.4z"/>
	</g>
	<g>
		<path d="M280.2,202.8h-59.5v-46.2c0-2.9,0.6-5.7,1.8-8.3l2.6-5.7c0.9-2,1.3-4.1,1.3-6.3V74.6c0-3.6,2.9-6.5,6.5-6.5h35
			c3.6,0,6.5,2.9,6.5,6.5v61.6c0,2.2,0.5,4.3,1.3,6.3l2.6,5.7c1.2,2.6,1.8,5.4,1.8,8.3V202.8z M225.7,197.8h49.5v-41.2
			c0-2.2-0.5-4.3-1.3-6.3l-2.6-5.7c-1.2-2.6-1.8-5.4-1.8-8.3V74.6c0-0.8-0.7-1.5-1.5-1.5h-35c-0.8,0-1.5,0.7-1.5,1.5v61.6
			c0,2.9-0.6,5.7-1.8,8.3l-2.6,5.7c-0.9,2-1.3,4.1-1.3,6.3V197.8z"/>
	</g>
	<g>
		<path d="M257.1,142.5H236c-1.4,0-2.5-1.1-2.5-2.5l0,0c0-1.4,1.1-2.5,2.5-2.5h21.1c1.4,0,2.5,1.1,2.5,2.5l0,0
			C259.6,141.4,258.5,142.5,257.1,142.5z"/>
	</g>
	<g>
		<path d="M281.2,202.8h-61.5c-1.4,0-2.5-1.1-2.5-2.5l0,0c0-1.4,1.1-2.5,2.5-2.5h61.5c1.4,0,2.5,1.1,2.5,2.5l0,0
			C283.7,201.7,282.6,202.8,281.2,202.8z"/>
	</g>
	<g>
		<path d="M264.6,142.5L264.6,142.5c-1.4,0-2.5-1.1-2.5-2.5l0,0c0-1.4,1.1-2.5,2.5-2.5l0,0c1.4,0,2.5,1.1,2.5,2.5l0,0
			C267.1,141.4,266,142.5,264.6,142.5z"/>
	</g>
</g>
</svg>
