<?xml version="1.0" encoding="utf-8"?>
<!-- Generator: Adobe Illustrator 26.1.0, SVG Export Plug-In . SVG Version: 6.00 Build 0)  -->
<svg version="1.1" id="Capa_1" xmlns="http://www.w3.org/2000/svg" xmlns:xlink="http://www.w3.org/1999/xlink" x="0px" y="0px"
	 viewBox="0 0 300 300" style="enable-background:new 0 0 300 300;" xml:space="preserve">
<style type="text/css">
	.st0{stroke:#FFFFFF;stroke-miterlimit:10;}
	.st1{fill:none;stroke:#000000;stroke-width:5;stroke-miterlimit:10;}
	.st2{fill:none;stroke:#000000;stroke-miterlimit:10;}
	.st3{fill:#FFFFFF;}
	.st4{fill:none;stroke:#000000;stroke-width:3;stroke-miterlimit:10;}
	.st5{fill:none;stroke:#000000;stroke-width:2;stroke-miterlimit:10;}
</style>
<g>
	<path d="M105.8,238.9l1.8-6.4h4.1v17.1h-3v-5.1l0.1-8l-2.2,7.4H105l-2-7.1l0.1,7.7v5.1h-3v-17.1h4.1L105.8,238.9z"/>
	<path d="M126.4,243.8c0,1-0.1,1.8-0.4,2.5s-0.6,1.4-1.1,1.9c-0.5,0.5-1.1,0.9-1.8,1.2s-1.5,0.4-2.4,0.4c-0.9,0-1.6-0.1-2.3-0.4
		s-1.3-0.7-1.8-1.2s-0.9-1.1-1.1-1.9s-0.4-1.6-0.4-2.5l0-11.3h3.3l0,11.3c0,0.6,0.1,1.1,0.2,1.5s0.3,0.8,0.5,1.1
		c0.2,0.3,0.4,0.5,0.7,0.6s0.6,0.2,1,0.2c0.4,0,0.8-0.1,1.1-0.2s0.6-0.3,0.8-0.6c0.2-0.3,0.4-0.6,0.5-1.1s0.2-0.9,0.2-1.5l0-11.3
		h3.3L126.4,243.8z"/>
	<path d="M133.2,242.1v4.8h8.2v2.7h-11.5v-17.1h11.5v2.7h-8.2v4.3h7v2.6H133.2z"/>
	<path d="M155.8,246.9v2.7h-11.3v-17.1h3.3v14.4H155.8z"/>
	<path d="M170.1,246.9v2.7h-11.3v-17.1h3.3v14.4H170.1z"/>
	<path d="M176.3,242.1v4.8h8.2v2.7H173v-17.1h11.5v2.7h-8.2v4.3h7v2.6H176.3z"/>
	<path d="M196.1,244.3c-0.1-0.3-0.3-0.5-0.5-0.8c-0.3-0.2-0.6-0.4-1-0.6s-0.9-0.4-1.5-0.5c-0.9-0.3-1.8-0.6-2.5-0.9
		s-1.3-0.8-1.8-1.2s-0.8-0.9-1-1.5s-0.3-1.1-0.3-1.7c0-0.7,0.2-1.4,0.5-2s0.7-1.1,1.3-1.5s1.2-0.7,1.9-1s1.5-0.3,2.4-0.3
		c0.9,0,1.7,0.1,2.4,0.4s1.4,0.6,1.9,1.1c0.5,0.5,0.9,1,1.2,1.7s0.4,1.3,0.4,2.1h-3.2c0-0.4-0.1-0.7-0.2-1.1s-0.3-0.6-0.5-0.8
		c-0.2-0.2-0.5-0.4-0.9-0.5s-0.8-0.2-1.2-0.2c-0.4,0-0.8,0.1-1.2,0.2s-0.6,0.3-0.9,0.4c-0.2,0.2-0.4,0.4-0.5,0.7s-0.2,0.5-0.2,0.8
		c0,0.3,0.1,0.6,0.2,0.9s0.4,0.5,0.7,0.7c0.3,0.2,0.7,0.4,1.1,0.6s0.9,0.3,1.5,0.5c0.6,0.2,1.1,0.4,1.7,0.6s1,0.5,1.5,0.8
		c0.7,0.5,1.2,1.1,1.6,1.7s0.6,1.4,0.6,2.3c0,0.8-0.2,1.4-0.5,2s-0.7,1.1-1.2,1.5c-0.5,0.4-1.2,0.7-1.9,0.9s-1.5,0.3-2.4,0.3
		c-0.9,0-1.7-0.1-2.5-0.4s-1.6-0.6-2.2-1.1c-0.6-0.5-1-1.1-1.4-1.7s-0.5-1.4-0.5-2.3h3.2c0,0.5,0.1,1,0.3,1.3s0.4,0.7,0.7,0.9
		c0.3,0.2,0.6,0.4,1,0.5s0.9,0.2,1.4,0.2c0.4,0,0.8-0.1,1.2-0.2s0.6-0.2,0.9-0.4s0.4-0.4,0.5-0.7s0.2-0.5,0.2-0.8
		S196.2,244.5,196.1,244.3z"/>
</g>
<g>
	<g>
		<path d="M149.7,150.5c-38.4,0-76.7-4.1-113.9-12c-1.4-0.3-2.2-1.6-1.9-3l0,0c0.3-1.3,1.6-2.2,3-1.9c36.9,7.9,74.8,11.9,112.8,11.9
			c38,0,76-4,112.8-11.9c1.3-0.3,2.7,0.6,3,1.9l0,0c0.3,1.4-0.6,2.7-1.9,3C226.4,146.4,188.1,150.5,149.7,150.5z"/>
	</g>
	<path d="M64.8,150.4L64.8,150.4c0,1.2,0.9,2.3,2.1,2.5c27.3,4.2,55,6.3,82.8,6.3c28.1,0,56.1-2.2,83.6-6.5c1.2-0.2,2.1-1.2,2.1-2.5
		l0,0c0-1.5-1.4-2.7-2.9-2.5c-27.3,4.3-55.1,6.4-82.9,6.4c-27.5,0-55-2.1-82-6.3C66.2,147.7,64.8,148.8,64.8,150.4z"/>
	<path d="M94.8,162.8L94.8,162.8c0,1.3,1,2.4,2.3,2.5c17.5,1.7,35.1,2.6,52.7,2.6c17.9,0,35.8-0.9,53.5-2.6c1.3-0.1,2.3-1.2,2.3-2.5
		v0c0-1.5-1.3-2.6-2.7-2.5c-17.6,1.7-35.3,2.6-53,2.6c-17.4,0-34.9-0.9-52.2-2.5C96.1,160.2,94.8,161.3,94.8,162.8z"/>
	<path d="M183.9,174L183.9,174c0-1.3-1-2.4-2.4-2.5c-10.3-0.6-20.6-0.9-31-0.9c-10.6,0-21.2,0.3-31.8,0.9c-1.3,0.1-2.4,1.2-2.4,2.5
		v0c0,1.4,1.2,2.6,2.6,2.5c10.5-0.6,21-0.9,31.6-0.9c10.2,0,20.5,0.3,30.7,0.9C182.7,176.6,183.9,175.4,183.9,174z"/>
	<g>
		<path class="st0" d="M110.7,169.6H106c-1.2,0-2.2-1-2.2-2.2v-28.2c0-1.2,1-2.2,2.2-2.2h4.7c1.2,0,2.2,1,2.2,2.2v28.2
			C112.9,168.6,111.9,169.6,110.7,169.6z"/>
		<path class="st0" d="M194.3,169.6h-4.7c-1.2,0-2.2-1-2.2-2.2v-28.2c0-1.2,1-2.2,2.2-2.2h4.7c1.2,0,2.2,1,2.2,2.2v28.2
			C196.5,168.6,195.5,169.6,194.3,169.6z"/>
	</g>
	<circle class="st1" cx="38.2" cy="126" r="10.1"/>
	<circle class="st1" cx="261.8" cy="126" r="10.1"/>
	<circle class="st2" cx="38.2" cy="126" r="6.1"/>
	<circle class="st2" cx="261.8" cy="126" r="6.1"/>
	<circle class="st1" cx="181.5" cy="179.1" r="5.1"/>
	<path d="M154.5,138.3h-8.7c-0.6,0-1,0.5-1,1v3.3c0,0.6,0.5,1,1,1h8.7c0.6,0,1-0.5,1-1v-3.3C155.5,138.7,155,138.3,154.5,138.3z"/>
	<path d="M154.5,177.5h-8.7c-0.6,0-1,0.5-1,1v3.3c0,0.6,0.5,1,1,1h8.7c0.6,0,1-0.5,1-1v-3.3C155.5,178,155,177.5,154.5,177.5z"/>
	<circle class="st3" cx="108.3" cy="140.4" r="1"/>
	<circle class="st3" cx="191.9" cy="140.4" r="1"/>
</g>
</svg>
