<?xml version="1.0" encoding="utf-8"?>
<!-- Generator: Adobe Illustrator 26.1.0, SVG Export Plug-In . SVG Version: 6.00 Build 0)  -->
<svg version="1.1" id="Capa_1" xmlns="http://www.w3.org/2000/svg" xmlns:xlink="http://www.w3.org/1999/xlink" x="0px" y="0px"
	 viewBox="0 0 300 300" style="enable-background:new 0 0 300 300;" xml:space="preserve">
<style type="text/css">
	.st0{stroke:#FFFFFF;stroke-miterlimit:10;}
	.st1{fill:none;stroke:#000000;stroke-width:5;stroke-miterlimit:10;}
	.st2{fill:none;stroke:#000000;stroke-miterlimit:10;}
	.st3{fill:#FFFFFF;}
	.st4{fill:none;stroke:#000000;stroke-width:3;stroke-miterlimit:10;}
	.st5{fill:none;stroke:#000000;stroke-width:2;stroke-miterlimit:10;}
</style>
<g>
	<path d="M51.2,246l-1,3.6h-3.5l5.6-17.1h3l5.5,17.1h-3.5l-1-3.6H51.2z M55.5,243.2l-1.7-6.3l-1.8,6.3H55.5z"/>
	<path d="M68.7,238.9l1.8-6.4h4.1v17.1h-3v-5.1l0.1-8l-2.2,7.4h-1.6l-2-7.1l0.1,7.7v5.1h-3v-17.1h4.1L68.7,238.9z"/>
	<path d="M89.7,244.4c-0.1,0.7-0.3,1.3-0.6,1.8c-0.3,0.6-0.6,1.1-1,1.5s-0.8,0.9-1.3,1.2c-0.5,0.3-1,0.5-1.5,0.6s-1.1,0.2-1.8,0.2
		c-0.7,0-1.3-0.1-1.8-0.3s-1.1-0.4-1.5-0.7c-0.5-0.3-0.9-0.7-1.2-1.2s-0.7-1-0.9-1.6c-0.2-0.5-0.4-1.1-0.5-1.8s-0.2-1.3-0.2-2v-2.5
		c0-0.8,0.1-1.5,0.2-2.1s0.3-1.3,0.6-1.9c0.2-0.5,0.5-1,0.9-1.5s0.7-0.8,1.2-1.1c0.4-0.3,0.9-0.5,1.5-0.7s1.2-0.2,1.8-0.2
		c0.7,0,1.3,0.1,1.8,0.3s1.1,0.4,1.6,0.7c0.5,0.3,0.9,0.7,1.2,1.1s0.6,0.9,0.9,1.4c0.3,0.6,0.5,1.2,0.6,1.9s0.2,1.4,0.2,2.2v2.5
		C89.9,243,89.9,243.7,89.7,244.4z M86.5,238.5c0-0.4-0.1-0.8-0.2-1.1c-0.1-0.4-0.3-0.8-0.5-1.1s-0.4-0.6-0.7-0.8
		c-0.2-0.2-0.4-0.3-0.7-0.4s-0.6-0.1-0.9-0.1c-0.3,0-0.6,0-0.8,0.1s-0.5,0.2-0.7,0.3c-0.3,0.2-0.5,0.5-0.7,0.8s-0.3,0.7-0.4,1.1
		c-0.1,0.3-0.1,0.7-0.2,1.1s-0.1,0.8-0.1,1.3v2.5c0,0.4,0,0.8,0,1.2s0.1,0.7,0.2,1.1c0.1,0.4,0.2,0.8,0.4,1.1s0.4,0.6,0.6,0.8
		c0.2,0.2,0.5,0.3,0.7,0.4s0.6,0.2,0.9,0.2c0.3,0,0.6,0,0.9-0.1s0.5-0.2,0.7-0.4c0.3-0.2,0.5-0.5,0.7-0.8s0.3-0.7,0.4-1.1
		c0.1-0.3,0.2-0.7,0.2-1.1s0.1-0.8,0.1-1.2v-2.5C86.6,239.3,86.6,238.9,86.5,238.5z"/>
	<path d="M96.2,243.2v6.4h-3.3v-17.1h5.7c0.9,0,1.8,0.1,2.6,0.3s1.4,0.5,2,1c0.5,0.4,1,1,1.2,1.6s0.4,1.4,0.4,2.2
		c0,0.6-0.1,1.2-0.2,1.6s-0.3,0.9-0.6,1.3c-0.3,0.4-0.6,0.7-1,1s-0.8,0.5-1.3,0.8l3.7,7v0.2h-3.5l-3.2-6.4H96.2z M98.6,240.5
		c0.5,0,1-0.1,1.3-0.2s0.7-0.4,0.9-0.6c0.2-0.2,0.4-0.5,0.5-0.8s0.2-0.6,0.2-1c0-0.5-0.1-0.9-0.2-1.2s-0.3-0.6-0.6-0.9
		c-0.2-0.2-0.5-0.4-0.9-0.5s-0.8-0.2-1.2-0.2h-2.4v5.3H98.6z"/>
	<path d="M115.2,235.2v14.4h-3.3v-14.4h-5.2v-2.7h13.8v2.7H115.2z"/>
	<path d="M133.1,232.5v2.7h-3.3v11.8h3.3v2.6h-9.9v-2.6h3.2v-11.8h-3.2v-2.7H133.1z"/>
	<path d="M147.1,248.4c-0.4,0.3-0.8,0.5-1.3,0.7c-0.5,0.2-1.1,0.4-1.7,0.5s-1.3,0.2-2,0.2c-0.6,0-1.2-0.1-1.8-0.2s-1.1-0.4-1.5-0.6
		c-0.5-0.3-0.9-0.6-1.2-1s-0.7-0.9-0.9-1.4c-0.3-0.6-0.5-1.2-0.7-2s-0.2-1.5-0.2-2.4v-2.3c0-0.8,0.1-1.6,0.2-2.3s0.4-1.3,0.6-1.9
		c0.3-0.5,0.6-1,0.9-1.4s0.7-0.8,1.1-1.1c0.5-0.3,1-0.6,1.6-0.8s1.2-0.3,1.8-0.3c1,0,1.8,0.1,2.5,0.4s1.3,0.6,1.8,1
		c0.5,0.5,0.9,1,1.2,1.7s0.5,1.4,0.5,2.2h-3.2c-0.1-0.4-0.1-0.8-0.3-1.1s-0.3-0.6-0.5-0.8c-0.2-0.2-0.5-0.4-0.8-0.5
		s-0.7-0.2-1.2-0.2c-0.2,0-0.5,0-0.7,0.1s-0.5,0.2-0.7,0.3c-0.3,0.2-0.5,0.5-0.7,0.8s-0.4,0.7-0.5,1.2c-0.1,0.3-0.2,0.7-0.3,1.1
		s-0.1,0.9-0.1,1.4v2.3c0,0.6,0,1.2,0.1,1.7s0.2,1,0.3,1.3c0.1,0.2,0.2,0.4,0.3,0.6s0.3,0.4,0.4,0.5c0.2,0.2,0.5,0.4,0.9,0.6
		s0.7,0.2,1.1,0.2c0.3,0,0.5,0,0.8-0.1s0.5-0.1,0.7-0.2s0.4-0.2,0.6-0.2s0.3-0.2,0.4-0.3l0-3.1h-2.8v-2.5h6.1l0,6.7
		C147.8,247.8,147.5,248.1,147.1,248.4z"/>
	<path d="M162.5,243.8c0,1-0.1,1.8-0.4,2.5s-0.6,1.4-1.1,1.9c-0.5,0.5-1.1,0.9-1.8,1.2s-1.5,0.4-2.4,0.4c-0.9,0-1.6-0.1-2.3-0.4
		s-1.3-0.7-1.8-1.2s-0.9-1.1-1.1-1.9s-0.4-1.6-0.4-2.5l0-11.3h3.3l0,11.3c0,0.6,0.1,1.1,0.2,1.5s0.3,0.8,0.5,1.1
		c0.2,0.3,0.4,0.5,0.7,0.6s0.6,0.2,1,0.2c0.4,0,0.8-0.1,1.1-0.2s0.6-0.3,0.8-0.6c0.2-0.3,0.4-0.6,0.5-1.1s0.2-0.9,0.2-1.5l0-11.3
		h3.3L162.5,243.8z"/>
	<path d="M168.7,246l-1,3.6h-3.5l5.6-17.1h3l5.5,17.1h-3.5l-1-3.6H168.7z M173,243.2l-1.7-6.3l-1.8,6.3H173z"/>
	<path d="M180.4,232.5h4.4c0.8,0,1.5,0.1,2.2,0.3s1.3,0.5,1.9,0.8c0.5,0.3,0.9,0.6,1.3,1.1s0.7,0.9,1,1.4c0.3,0.6,0.6,1.3,0.8,2
		s0.3,1.5,0.3,2.3v1.4c0,0.8-0.1,1.5-0.3,2.2s-0.4,1.3-0.7,1.9c-0.3,0.5-0.6,1-1,1.4s-0.8,0.8-1.3,1.1c-0.6,0.4-1.2,0.6-1.8,0.8
		s-1.4,0.3-2.1,0.3h-4.6V232.5z M183.8,246.9h1.3c0.4,0,0.8-0.1,1.1-0.2s0.7-0.2,1-0.4c0.3-0.2,0.6-0.5,0.8-0.8s0.4-0.7,0.6-1.1
		c0.1-0.4,0.2-0.8,0.3-1.2s0.1-0.9,0.1-1.5v-1.4c0-0.5,0-1-0.1-1.4s-0.2-0.8-0.3-1.2c-0.2-0.4-0.4-0.8-0.7-1.2s-0.6-0.6-1-0.8
		c-0.3-0.2-0.6-0.3-0.9-0.4s-0.7-0.1-1.1-0.1h-1.1V246.9z"/>
	<path d="M207.1,244.4c-0.1,0.7-0.3,1.3-0.6,1.8c-0.3,0.6-0.6,1.1-1,1.5s-0.8,0.9-1.3,1.2c-0.5,0.3-1,0.5-1.5,0.6s-1.1,0.2-1.8,0.2
		c-0.7,0-1.3-0.1-1.8-0.3s-1.1-0.4-1.5-0.7c-0.5-0.3-0.9-0.7-1.2-1.2s-0.7-1-0.9-1.6c-0.2-0.5-0.4-1.1-0.5-1.8s-0.2-1.3-0.2-2v-2.5
		c0-0.8,0.1-1.5,0.2-2.1s0.3-1.3,0.6-1.9c0.2-0.5,0.5-1,0.9-1.5s0.7-0.8,1.2-1.1c0.4-0.3,0.9-0.5,1.5-0.7s1.2-0.2,1.8-0.2
		c0.7,0,1.3,0.1,1.8,0.3s1.1,0.4,1.6,0.7c0.5,0.3,0.9,0.7,1.2,1.1s0.6,0.9,0.9,1.4c0.3,0.6,0.5,1.2,0.6,1.9s0.2,1.4,0.2,2.2v2.5
		C207.3,243,207.2,243.7,207.1,244.4z M203.9,238.5c0-0.4-0.1-0.8-0.2-1.1c-0.1-0.4-0.3-0.8-0.5-1.1s-0.4-0.6-0.7-0.8
		c-0.2-0.2-0.4-0.3-0.7-0.4s-0.6-0.1-0.9-0.1c-0.3,0-0.6,0-0.8,0.1s-0.5,0.2-0.7,0.3c-0.3,0.2-0.5,0.5-0.7,0.8s-0.3,0.7-0.4,1.1
		c-0.1,0.3-0.1,0.7-0.2,1.1s-0.1,0.8-0.1,1.3v2.5c0,0.4,0,0.8,0,1.2s0.1,0.7,0.2,1.1c0.1,0.4,0.2,0.8,0.4,1.1s0.4,0.6,0.6,0.8
		c0.2,0.2,0.5,0.3,0.7,0.4s0.6,0.2,0.9,0.2c0.3,0,0.6,0,0.9-0.1s0.5-0.2,0.7-0.4c0.3-0.2,0.5-0.5,0.7-0.8s0.3-0.7,0.4-1.1
		c0.1-0.3,0.2-0.7,0.2-1.1s0.1-0.8,0.1-1.2v-2.5C203.9,239.3,203.9,238.9,203.9,238.5z"/>
	<path d="M213.5,243.2v6.4h-3.3v-17.1h5.7c0.9,0,1.8,0.1,2.6,0.3s1.4,0.5,2,1c0.5,0.4,1,1,1.2,1.6s0.4,1.4,0.4,2.2
		c0,0.6-0.1,1.2-0.2,1.6s-0.3,0.9-0.6,1.3c-0.3,0.4-0.6,0.7-1,1s-0.8,0.5-1.3,0.8l3.7,7v0.2h-3.5l-3.2-6.4H213.5z M216,240.5
		c0.5,0,1-0.1,1.3-0.2s0.7-0.4,0.9-0.6c0.2-0.2,0.4-0.5,0.5-0.8s0.2-0.6,0.2-1c0-0.5-0.1-0.9-0.2-1.2s-0.3-0.6-0.6-0.9
		c-0.2-0.2-0.5-0.4-0.9-0.5s-0.8-0.2-1.2-0.2h-2.4v5.3H216z"/>
	<path d="M228.5,242.1v4.8h8.2v2.7h-11.5v-17.1h11.5v2.7h-8.2v4.3h7v2.6H228.5z"/>
	<path d="M248.3,244.3c-0.1-0.3-0.3-0.5-0.5-0.8c-0.3-0.2-0.6-0.4-1-0.6s-0.9-0.4-1.5-0.5c-0.9-0.3-1.8-0.6-2.5-0.9
		s-1.3-0.8-1.8-1.2s-0.8-0.9-1-1.5s-0.3-1.1-0.3-1.7c0-0.7,0.2-1.4,0.5-2s0.7-1.1,1.3-1.5s1.2-0.7,1.9-1s1.5-0.3,2.4-0.3
		c0.9,0,1.7,0.1,2.4,0.4s1.4,0.6,1.9,1.1c0.5,0.5,0.9,1,1.2,1.7s0.4,1.3,0.4,2.1h-3.2c0-0.4-0.1-0.7-0.2-1.1s-0.3-0.6-0.5-0.8
		c-0.2-0.2-0.5-0.4-0.9-0.5s-0.8-0.2-1.2-0.2c-0.4,0-0.8,0.1-1.2,0.2s-0.6,0.3-0.9,0.4c-0.2,0.2-0.4,0.4-0.5,0.7s-0.2,0.5-0.2,0.8
		c0,0.3,0.1,0.6,0.2,0.9s0.4,0.5,0.7,0.7c0.3,0.2,0.7,0.4,1.1,0.6s0.9,0.3,1.5,0.5c0.6,0.2,1.1,0.4,1.7,0.6s1,0.5,1.5,0.8
		c0.7,0.5,1.2,1.1,1.6,1.7s0.6,1.4,0.6,2.3c0,0.8-0.2,1.4-0.5,2s-0.7,1.1-1.2,1.5c-0.5,0.4-1.2,0.7-1.9,0.9s-1.5,0.3-2.4,0.3
		c-0.9,0-1.7-0.1-2.5-0.4s-1.6-0.6-2.2-1.1c-0.6-0.5-1-1.1-1.4-1.7s-0.5-1.4-0.5-2.3h3.2c0,0.5,0.1,1,0.3,1.3s0.4,0.7,0.7,0.9
		c0.3,0.2,0.6,0.4,1,0.5s0.9,0.2,1.4,0.2c0.4,0,0.8-0.1,1.2-0.2s0.6-0.2,0.9-0.4s0.4-0.4,0.5-0.7s0.2-0.5,0.2-0.8
		S248.4,244.5,248.3,244.3z"/>
</g>
<g>
	<rect x="123" y="110.2" class="st1" width="21.5" height="21.5"/>
	<rect x="210.7" y="110.2" class="st1" width="32.2" height="21.5"/>
	<rect x="144.5" y="112.1" class="st4" width="66.3" height="17.7"/>
	<polygon class="st4" points="251.3,131.7 243,129.8 243,112.1 251.3,110.2 	"/>
	<polygon points="251.3,110.2 255.5,112.1 255.5,129.8 251.3,131.7 	"/>
	<polygon points="259.6,131.7 255.5,129.8 255.5,112.1 259.6,110.2 	"/>
	<polygon points="259.6,110.2 263.8,112.1 263.8,129.8 259.6,131.7 	"/>
	<rect x="55.1" y="115.9" class="st4" width="67.9" height="10.3"/>
	<path class="st1" d="M55.1,131.8H21.3c-2.1,0-3.9-1.7-3.9-3.9v-13.8c0-2.1,1.7-3.9,3.9-3.9h33.8V131.8z"/>
	<line class="st4" x1="28" y1="110.3" x2="28" y2="131.8"/>
	<circle class="st1" cx="272.5" cy="121" r="10.1"/>
	<circle class="st2" cx="272.5" cy="121" r="6.1"/>
</g>
<g>
	<rect x="123" y="158.8" class="st1" width="21.5" height="21.5"/>
	<rect x="210.7" y="158.8" class="st1" width="32.2" height="21.5"/>
	<rect x="144.5" y="160.7" class="st4" width="66.3" height="17.7"/>
	<polygon class="st4" points="251.3,180.3 243,178.4 243,160.7 251.3,158.8 	"/>
	<polygon class="st1" points="46,179.8 37.6,178 37.6,161.2 46,159.4 	"/>
	<polygon points="251.3,158.8 255.5,160.7 255.5,178.4 251.3,180.3 	"/>
	<polygon points="259.6,180.3 255.5,178.4 255.5,160.7 259.6,158.8 	"/>
	<polygon points="259.6,158.8 263.8,160.7 263.8,178.4 259.6,180.3 	"/>
	<rect x="46" y="158.9" class="st1" width="77" height="21.5"/>
	<circle class="st1" cx="272.5" cy="169.6" r="10.1"/>
	<circle class="st2" cx="272.5" cy="169.6" r="6.1"/>
	<circle class="st1" cx="25.5" cy="169.6" r="10.1"/>
	<circle class="st2" cx="25.5" cy="169.6" r="6.1"/>
</g>
</svg>
